<svg xmlns="http://www.w3.org/2000/svg" height="100%" width="100%" viewBox="0 0 387.53 273.65"><defs><style>.cls-3{fill:#353647}.cls-7{fill:#fdac00}.cls-8{fill:#e39900}.cls-14{fill:#e2d9c3}.cls-16{fill:#a5987c}.cls-20{fill:#a82a43}.cls-22{fill:#d0384f}.cls-27{fill:#6b2949}</style></defs><g id="Ebene_2" data-name="Ebene 2"><g id="stage5GraduationTransition"><g id="graduationHat"><path d="M310.69 123.44c0-38.5-52.95-69.7-118.25-69.7s-118.25 31.2-118.25 69.7v68.74c0 38.5 52.94 69.71 118.25 69.71s118.25-31.21 118.25-69.71Z" style="fill:#454558"/><path d="M179.88 54.17C137 56.86 100.89 73 84.2 95.39v124.84c16.69 22.36 52.78 38.54 95.68 41.21Z" style="fill:#3a3b4c"/><path class="cls-3" d="M96.08 83.07v149.48c13.8 11.39 33.31 20.22 56 25.08V58c-22.69 4.85-42.2 13.68-56 25.07Z"/><path d="M384.11 127.62 197.18 237.49a7.48 7.48 0 0 1-6.83 0L3.42 127.62C1.53 126.51 0 121.06 0 113.89L193.76 11.73l193.77 102.16c0 6.35-1.53 12.62-3.42 13.73Z" style="fill:#48495e"/><path class="cls-3" d="M192.78 227.59 0 113.89c0 7.17 1.53 12.62 3.42 13.73l186.93 109.87a6.33 6.33 0 0 0 2.43.72Z"/><path style="fill:#545571" d="M387.53 113.89 193.76 227.78 0 113.89 193.76 0l193.77 113.89z"/><path style="fill:#8487a5" d="M387.53 113.89 193.76 227.78 0 113.89l193.1 107.09 194.43-107.09z"/><path class="cls-7" d="M90.19 231C82.32 231 76 263.77 76 265.27c0 4.63 6.36 8.38 14.23 8.38s14.23-3.75 14.23-8.38C104.42 263.77 98 231 90.19 231Z"/><path class="cls-8" d="M90.16 231c-7.85.09-14.2 32.8-14.2 34.3 0 4.63 6.35 8.37 14.2 8.38Z"/><g><path class="cls-8" d="m90.88 173.42 109.33-64.82v-2.93L90.84 170.51l.04 2.91z"/><path class="cls-7" d="m90.88 170.5 109.33-64.83-4.44-2.67-109.36 64.86 4.47 2.64z"/><path style="fill:#dd9000" d="m90.83 236.07 2.09-65.56-6.51-2.65-.03 65.58 4.45 2.63z"/><path class="cls-8" d="m90.83 236.07.05-65.57 3.53-2.02-.05 65.59-3.53 2z"/><path style="fill:#fb0" d="m90.88 170.5 109.33-64.83-109.02 63.47-4.78-1.28 4.47 2.64z"/></g></g><g id="bachelorCertificate"><g style="opacity:.2"><path d="M352.55 91.36c-.38-.85-.81-1.7-1.28-2.53a1.11 1.11 0 0 1-.09-.19c-.48-.81-1-1.62-1.51-2.4v-.06c-.54-.78-1.11-1.53-1.72-2.25l-.11-.14A25.36 25.36 0 0 0 346 81.8l-.32-.31c-.61-.59-1.25-1.15-1.9-1.67l-.33-.24a21.63 21.63 0 0 0-2.1-1.43A3.35 3.35 0 0 0 341 78a9.9 9.9 0 0 0-5.58-1.46h-.14a5.55 5.55 0 0 0-1 .21l-.25.06a6 6 0 0 0-1 .48l-9 5.3c-.12-.55-.2-1.07-.3-1.61-6.2 3-12.27 6.4-18.38 9.19-11.24 5.17-22.59 10.19-33.49 16s-21.29 12.66-32.43 18.12-22.57 10.41-33.85 15.6c-18 8.26-36.2 15.83-51.75 28a21.72 21.72 0 0 0-.64 5.37c0 11.43 8.76 25.91 19.55 32.27 4.72 2.79 9 3.12 11.91 1.39h.06l71.24-42.07a4.31 4.31 0 0 0 1.88-.43l7.53-4.46 1.06 8.85 7.25-9.5 11.84 2.69-.07-1.14h.07l-.07-.08-6.35-9.64.65-.39 2.62 3.58 1.64-6.1 6.87-4.05 6-1.19v-1l-1-.68 54-31.9a6.48 6.48 0 0 0 1.57-1h.11c1.94-1.66 3.11-4.44 3.11-8.2a22 22 0 0 0-2.11-8.85Z" style="fill:#000202"/></g><path d="m149.89 150.33 172.85-102c4.54-2.81 11.21-2.34 18.63 2v4.8c-9.62 2.46-20.22 8.72-20.25 9.49a20 20 0 0 0 .62 4.78l9.33-5.4c2.11-1.32 5.21-1.12 8.66.91 7.6 4.5 13.79 14.7 13.79 22.77 0 3.9-1.22 6.77-3.23 8.5l-.11.07a7.73 7.73 0 0 1-1.64 1L177.28 198.4l-6.38-2.21h-.08l-.06-.09-9.09-3.1-11-12.76-3.75-16Z" style="fill:#93866f"/><path class="cls-14" d="m168.18 154.93-18.29-4.6 172.85-102c4.54-2.81 11.21-2.34 18.63 2v1.87c-4.28 1.24-173.13 102.67-173.19 102.73Z"/><path d="M169.37 151.86c-13.66-8.07-24.78-2.86-24.78 11.61 0 11.85 9.11 26.86 20.27 33.46 9.19 5.44 16.68 1.93 16.68-7.81 0-8.07-6.19-18.27-13.79-22.76-6.33-3.75-11.49-1.32-11.49 5.38 0 5.64 4.32 12.77 9.65 15.92 4.49 2.66 8.15.94 8.15-3.84l-4.53-2.67c0 2.13-1.62 2.89-3.62 1.7-2.83-1.66-5.13-5.45-5.13-8.43 0-4.06 3.14-5.53 7-3.27 5.1 3 9.25 9.88 9.25 15.29 0 7.09-5.44 9.64-12.14 5.69-8.66-5.12-15.74-16.78-15.74-26 0-11.82 9.09-16.08 20.25-9.49Z" style="fill:#d9ceb0"/><path class="cls-16" d="M169.37 156.66v-4.8l172-101.49v4.8l-172 101.49zM174.06 183.82l-4.53-2.67 4.95-2.9a19.71 19.71 0 0 1 1.85 4.24Z"/><path d="M181.54 189.12c0-8.07-6.19-18.27-13.79-22.76-3.47-2-6.57-2.24-8.67-.91l162.66-96 2.16-1.26 7.18-4.19c2.11-1.32 5.21-1.12 8.66.91 7.6 4.5 13.79 14.7 13.79 22.77 0 3.9-1.22 6.77-3.23 8.5l-.11.07a7.73 7.73 0 0 1-1.64 1L177.28 198.4h-.05c2.66-1.58 4.31-4.74 4.31-9.28Z" style="fill:#bcaf8f"/><path class="cls-16" d="m321.74 69.44 2.16-1.26 7.18-4.18a6.68 6.68 0 0 1 5.44-.48L164.52 165a6.67 6.67 0 0 0-5.44.49l162.66-96Z"/><path d="m339.37 64.66.37.2c6.53 3.86 12 11.92 13.42 19.23l-172 101.48c-1.44-7.29-6.9-15.36-13.42-19.21-.13-.08-.26-.14-.39-.21Z" style="fill:#d6cab0"/><path class="cls-14" d="M177.28 176.17a31.66 31.66 0 0 0-6.29-7.43L343 67.25a31.19 31.19 0 0 1 6.28 7.43Z"/><path class="cls-16" d="M353.53 87.56v.07c0 3.9-1.22 6.77-3.23 8.5l-.11.07a7.73 7.73 0 0 1-1.64 1L177.28 198.4h-.05c2.66-1.56 4.31-4.72 4.31-9.26v-.07Z"/><path d="M169.36 149.74c4.55-2.8 172-99.37 172-99.37l-172 101.49a25.87 25.87 0 0 0-10.19-3.69s3.64-.78 10.19 1.57Z" style="fill:#efe7d3"/><g><path class="cls-20" d="M223.82 106.71c.3-1.27.36-2.1 4.21-2.77a2.85 2.85 0 0 0 .41 0ZM254.8 152.61a4.08 4.08 0 0 1-1.71 1.71 4.22 4.22 0 0 1-2 .46Z"/></g><path class="cls-20" d="M256.55 142c0-12.08-9.27-27.4-20.67-34.15-4-2.34-7.83-3-10.95-2.16l18.81-11.11c3.24-1.2 7.43-.72 11.79 1.86 11.28 6.66 20.44 21.8 20.44 33.74 0 6.35-2.12 10.92-5.64 13.4l-17.87 10.52c2.54-2.67 4.09-6.77 4.09-12.1Z"/><path d="M257.26 141.92c0-12.34-9.47-28-21.1-34.85-4.08-2.42-8-3-11.19-2.24l19.22-11.34c3.3-1.22 7.58-.73 12 1.91 11.51 6.81 20.87 22.25 20.87 34.45 0 6.47-2.17 11.16-5.76 13.69l-18.21 10.75c2.64-2.7 4.17-6.89 4.17-12.37Z" style="fill:#c6324e"/><path class="cls-22" d="M249.66 93a17.92 17.92 0 0 1 6.57 2.41c6.35 3.75 12 10.14 15.87 17.16l-19.94 11.76c-3.88-7-9.62-13.49-16-17.25a17.69 17.69 0 0 0-6.33-2.38Z"/><g><path class="cls-20" d="M293.63 131.04v1.08l-12.51 2.5-2.51 9.25-12.76-17.52 27.78 4.69z"/><path class="cls-22" d="m269.1 114.77 24.53 16.27-12.51 2.51-2.51 9.26-12.76-17.52 3.25-10.52z"/><g><path class="cls-20" d="m265.66 127.24 16.16 23.3.06 1.26-12.37-2.77-7.51 9.85-4.18-35 7.84 3.36z"/><path class="cls-22" d="m265.66 126.06 16.22 24.57-12.37-2.77-7.51 9.85-4.18-35 7.84 3.35z"/></g></g><g><path d="M253.64 104.19c-2.82 1.43-3.48 4.63-3.31 8.65.11 2.45-.4 5.68.39 8.52.56 2 2 3.64 3.08 5.67 1.23 2.4 1.87 5.8 3.46 7.63 2.18 2.52 6.19 3.75 8.57 4.9 2.9 1.36 5.4 2.09 7.87-.47 3.51-.56 5.23-4.31 4.6-8.11-.42-2.61.66-5.63-.23-8.75-.56-2-2-4-3.05-6-1.58-3.07-3.21-6.47-5.31-8.57-2.47-2.48-5.45-4.79-8-4.16-2.16.5-4.87-.96-8.07.69Z" style="fill:#5a1b36"/><path d="M252.69 104.8c-.63 1.65-3.11 4-1.36 7.18 1.23 2.29-1.23 5.26-.33 8.3.63 2.14 4 3.65 5.11 5.84 1.32 2.59.68 6.81 2.33 8.79 2.28 2.75 5.66 1.43 10.24 4.87a8.5 8.5 0 0 0 2 1 9 9 0 0 1-4.88-1.18c-2.38-1.15-6.39-2.38-8.57-4.9-1.59-1.83-2.23-5.23-3.46-7.63-1.05-2-2.52-3.66-3.08-5.67-.79-2.84-.28-6.07-.39-8.52-.12-3.56.37-6.44 2.39-8.08Z" style="fill:#4f1632"/><path d="M268.82 136.69a6 6 0 0 0 4.73-.13c2.72-1.39 3.33-5 3.44-7a25.56 25.56 0 0 0-3.11-12.85c-2.93-5.72-7.37-10.11-11.6-11.49a6.06 6.06 0 0 0-4.73.14c-2.74 1.39-3.34 5-3.45 7a25.77 25.77 0 0 0 3.11 12.85c2.93 5.72 7.37 10.12 11.61 11.48Z" style="fill:#683751"/><path d="M272.35 136.91c2.72-1.4 3.34-5 3.44-7a25.9 25.9 0 0 0-3.12-12.91c-2.93-5.71-7.37-10.11-11.59-11.48a6.86 6.86 0 0 0-3.26-.31 6.13 6.13 0 0 1 4.46 0c4.23 1.38 8.67 5.77 11.6 11.49a25.56 25.56 0 0 1 3.12 12.82c-.11 2-.72 5.65-3.44 7a4.68 4.68 0 0 1-1.49.44c.08.04.18.04.28-.05Z" style="fill:#3f0e26"/><path class="cls-27" d="M258.83 103.88c-3.09 1.2-6.11 2.5-5.62 8.55-1.45-2.59-1.63-9.34 5.62-8.55ZM252.8 120.05c.43.86 1.66 2.67 1.54 2.63a5 5 0 0 1-3-4.08c0-.89.18-3.09 1.44-3.28-.15.02-1.37 2.01.02 4.73ZM260.35 134.32c.72.48 2.45 1.22 2.34 1.29a2.85 2.85 0 0 1-4.11-1.38c-.37-.94-1.16-3.4-.24-4.78-.07.11-.22 3.34 2.01 4.87ZM271.37 138.64c.63-.25 2-1.09 2-1-.4 1.8-2.05 2.73-3 2.26-.66-.3-2.25-1.22-2.36-2.77-.01.15 1.36 2.25 3.36 1.51Z"/></g></g></g></g></svg>