<svg xmlns="http://www.w3.org/2000/svg" height="100%" width="100%" viewBox="0 0 300.43 365.94"><defs><clipPath id="clip-path"><path class="cls-1" d="m163.35 241.58-63.77-34.06 63.77 34.06Z"/></clipPath><clipPath id="clip-path-2"><path class="cls-1" d="M105.4 197.16a2.17 2.17 0 0 1 2.19-.21l58.16 30.54a2.17 2.17 0 0 0-2.18.21C147 218.08 122 206.79 105.4 197.16Z"/></clipPath><clipPath id="clip-path-3"><path class="cls-1" d="m105.23 197.26 58.16 30.55-58.16-30.54c18.34 10.66 39.63 19.78 58 30.44-18.37-10.71-39.66-19.79-58-30.45Z"/></clipPath><clipPath id="clip-path-4"><path class="cls-1" d="m122.78 158.26 64.78 45.47a.57.57 0 0 0-.57.06l-64.78-45.48a.55.55 0 0 1 .57-.05Z"/></clipPath><clipPath id="clip-path-5"><path class="cls-1" d="m177.25 209.41-64.78-45.47 64.78 45.47Z"/></clipPath><clipPath id="clip-path-6"><path class="cls-1" d="M112.72 155.48a2.57 2.57 0 0 1 2.57-.25l64.78 37.65a2.55 2.55 0 0 0-2.57.25Z"/></clipPath><clipPath id="clip-path-7"><path class="cls-1" d="m112.52 155.6 64.78 37.65-64.78-37.65 64.56 37.52Z"/></clipPath><clipPath id="clip-path-8"><path class="cls-1" d="m158.08 174.44-55.9-29.85 55.9 29.86Z"/></clipPath><clipPath id="clip-path-9"><path class="cls-1" d="M107.29 135.51a1.9 1.9 0 0 1 1.91-.19l51 26.77a1.92 1.92 0 0 0-1.92.19c-14.53-8.44-36.48-18.34-50.99-26.77Z"/></clipPath><clipPath id="clip-path-10"><path class="cls-1" d="m107.13 135.6 51 26.77-51-26.78c16.08 9.34 34.75 17.33 50.83 26.68-16.08-9.34-34.75-17.33-50.83-26.67Z"/></clipPath><clipPath id="clip-path-11"><path class="cls-1" d="m104 100.69 56.15 32.63a.49.49 0 0 0-.49.05l-56.16-32.63a.47.47 0 0 1 .5-.05Z"/></clipPath><clipPath id="clip-path-12"><path class="cls-1" d="m151.24 138.24-56.15-32.63 56.15 32.62v.01Z"/></clipPath><clipPath id="clip-path-13"><path class="cls-1" d="M95.31 98.28a2.17 2.17 0 0 1 2.22-.21l56.16 32.63a2.22 2.22 0 0 0-2.23.21Z"/></clipPath><clipPath id="clip-path-14"><path class="cls-1" d="M154.26 127.69 98.11 95.06a1.92 1.92 0 0 1 .35-.23l56.15 32.63a3.5 3.5 0 0 0-.35.23Z"/></clipPath><clipPath id="clip-path-15"><path class="cls-1" d="M95.13 98.39 151.28 131 95.12 98.39l56 32.52Z"/></clipPath><clipPath id="clip-path-16"><path class="cls-1" d="M121.55 155.39 65.4 122.76a3.13 3.13 0 0 1-1.3-2.87 9.9 9.9 0 0 1 4.48-7.78l56.16 32.64a9.89 9.89 0 0 0-4.49 7.77 3.11 3.11 0 0 0 1.3 2.87Z"/></clipPath><clipPath id="clip-path-18"><path class="cls-1" d="M117.33 82.47 174 122.23a.48.48 0 0 0-.5 0l-56.67-39.71a.51.51 0 0 1 .5-.05Z"/></clipPath><clipPath id="clip-path-19"><path class="cls-1" d="m165 127.19-56.68-39.75 56.63 39.75Z"/></clipPath><clipPath id="clip-path-20"><path class="cls-1" d="M108.54 80a2.21 2.21 0 0 1 2.24-.21l56.64 32.91a2.23 2.23 0 0 0-2.25.22Z"/></clipPath><clipPath id="clip-path-21"><path class="cls-1" d="M108.36 80.15 165 113.06l-56.65-32.9L164.8 113Z"/></clipPath><clipPath id="clip-path-22"><path class="cls-1" d="m160.49 85.43-55.38-29.58 55.38 29.57Z"/></clipPath><clipPath id="clip-path-23"><path class="cls-1" d="M110.17 46.85a1.91 1.91 0 0 1 1.9-.18l50.51 26.52a1.89 1.89 0 0 0-1.9.19C146.3 65 124.55 55.21 110.17 46.85Z"/></clipPath><clipPath id="clip-path-24"><path class="cls-1" d="m110 46.94 50.5 26.53L110 47c15.92 9.26 34.42 17.18 50.35 26.43-15.91-9.31-34.41-17.23-50.35-26.49Z"/></clipPath><clipPath id="clip-path-25"><path class="cls-1" d="M109.11 53.78c0-3.76 2.43-7.52 7.28-10.43l.06-22.35c-4.85 2.92-7.26 6.67-7.27 10.43-.02 6.72-.04 15.65-.07 22.35Z"/></clipPath><clipPath id="clip-path-26"><path class="cls-1" d="M161.41 31.61c0-4-2.68-8-8-11C143 14.85 126.43 15 116.45 21l-.06 22.33c10-6 26.52-6.18 36.92-.38 5.36 3 8.05 7 8 11Z"/></clipPath><clipPath id="clip-path-27"><path class="cls-1" d="M84.76 29.2v.8a1.25 1.25 0 0 0 .73 1v-.82a1.26 1.26 0 0 1-.73-.98Z"/></clipPath><clipPath id="clip-path-28"><path class="cls-1" d="M185.58 30v-.83a1.26 1.26 0 0 1-.74 1V31a1.27 1.27 0 0 0 .74-1Z"/></clipPath><clipPath id="clip-path-29"><path class="cls-1" d="M133.24 58v.83a3.92 3.92 0 0 0 3.53 0V58a3.86 3.86 0 0 1-3.53 0Z"/></clipPath><style>.cls-1{fill:none}.cls-4{fill:#271306}.cls-6{fill:#77a02e}.cls-8{isolation:isolate}.cls-9{fill:#b1b2b4}.cls-10{fill:#c6c7c9}.cls-11{fill:#7b7c7d}.cls-14{fill:#6d3203}.cls-16{fill:#d0d4d7}.cls-18{fill:#686a6c}.cls-19{fill:#b3b6b9}.cls-20{fill:#a1a4a6}.cls-21{fill:#d3d0c1}.cls-26{fill:#052d38}.cls-27{fill:#135e7f}.cls-28{fill:#3291b2}.cls-29{fill:#0b465b}.cls-32{fill:#20490d}.cls-40{fill:#ddb717}.cls-42{fill:#21ce84}.cls-43{fill:#05683b}.cls-46{fill:#826a06}.cls-52{fill:#5c3114}.cls-53{fill:#391f0c}.cls-54{fill:#451e03}.cls-56{fill:#e53535}.cls-58{fill:#661a02}.cls-64{clip-path:url(#clip-path-16)}.cls-68{fill:#f9db5d}.cls-77{fill:#a5571c}.cls-89{fill:#1e1b1c}.cls-92{fill:#232d35}.cls-94{fill:#231f20}.cls-100{fill:#ad1515}.cls-101{fill:#725417}.cls-102{fill:#b88725}</style></defs><g id="Ebene_2" data-name="Ebene 2"><g id="stage5Graduate"><g id="stage5GraduationFloor"><path d="m295 286.53-117.85 68.34c-7.28 4.23-19.1 4.23-26.41 0L5.58 271.06c-3.69-2.12-5.53-4.91-5.52-7.7 0 7.25 0 .65-.06 7.9 0 2.79 1.84 5.58 5.51 7.71l145.17 83.81c7.31 4.22 19.13 4.22 26.41 0l117.84-68.33c3.62-2.11 5.43-4.86 5.44-7.61 0-7.25 0-.65.06-7.9-.01 2.74-1.82 5.5-5.43 7.59Z" style="fill:#476d0a"/><path d="M294.92 271.24c7.32 4.22 7.35 11.06.07 15.29l-117.84 68.34c-7.28 4.23-19.1 4.23-26.41 0L5.58 271.06c-7.32-4.21-7.37-11.07-.09-15.3l117.84-68.34c7.28-4.22 19.12-4.22 26.43 0Z" style="fill:#80ba24"/></g><g id="book12" class="graduationItems"><path class="cls-4" d="M123 205.47v12.2l58.33 33.72 1.13-6.51-1.13-5.69L123 205.47z"/><path d="m123 205.39 58.31 33.92 1.8-.5a2.13 2.13 0 0 1 .74.05l-57.92-33.76a2.47 2.47 0 0 0-2.34-.07Z" style="fill:#5b8420"/><path class="cls-6" d="m78.11 242.54 55.42 32.19a2.78 2.78 0 0 0 1.37.33 2.86 2.86 0 0 0 1.39-.33v2.66a3.05 3.05 0 0 1-2.76 0l-55.41-32.2a1 1 0 0 1-.57-.8v-2.65a1 1 0 0 0 .56.8Z"/><path d="M78.12 240.93a.85.85 0 0 0 0 1.61l55.42 32.19a3 3 0 0 0 2.76 0l44.89-25.91L123 215Z" style="fill:#314706"/><g class="cls-8"><path class="cls-9" d="M135.14 264.75v9.28l44.52-26.05v-9.28l-44.52 26.05z"/><path class="cls-10" d="M80.54 234.1v8.34l54.6 31.59v-9.28l-54.6-30.65z"/><path class="cls-11" d="m135.59 264.31 42.78-25.22-44.02-25.16-44.07 25.3 45.31 25.08z"/></g><path d="M183.85 238.85c-1.13-.69-2.73.36-2.76.38l-44.81 25.88v2.65l43.22-25.09c.28-.16 2.43-1.35 2.43 1v3.21a3.54 3.54 0 0 1-1.52 2.48l-44.13 25.42v2.66L181 251.56a7 7 0 0 0 3.91-6.42v-3.86a2.66 2.66 0 0 0-1.06-2.43Z" style="fill:#39510b"/><path class="cls-6" d="m78.11 232.9 55.42 32.21a3.05 3.05 0 0 0 2.76 0v2.66a2.82 2.82 0 0 1-1.38.33 2.74 2.74 0 0 1-1.36-.33l-55.41-32.2a1 1 0 0 1-.57-.8v-2.65a1 1 0 0 0 .54.78Z"/><path d="M78.12 231.3c-.77.45-.77 1.17 0 1.6l55.41 32.21a3.05 3.05 0 0 0 2.76 0L181.46 239 123 205.39Z" style="fill:#4c6b15"/></g><g id="book11" class="graduationItems"><g class="cls-8"><path class="cls-14" d="M114 199.53a.47.47 0 0 0-.49 0l-1.6.93L170 237.71l1.61-.92a.49.49 0 0 1 .49 0Z"/><g class="cls-8"><g class="cls-8" style="clip-path:url(#clip-path)"><path class="cls-16" d="m163.35 241.58-63.77-34.06 63.77 34.06Z"/></g></g><g class="cls-8"><g class="cls-8" style="clip-path:url(#clip-path-2)"><path class="cls-16" d="m163.57 227.7-58.17-30.54a2.17 2.17 0 0 1 2.19-.21l58.16 30.54a2.17 2.17 0 0 0-2.18.21Z"/></g></g><path class="cls-18" d="m163.59 241.45-.23.12ZM163.57 241.46l-.22.12h-.01l.23-.12z"/><path class="cls-19" d="m163.56 227.7-58.16-30.54 9.44-5.28 55.21 32.08-6.49 3.74z"/><path class="cls-20" d="m169.11 222.92-2.5 1.44-.29.17a3.26 3.26 0 0 1 .34-.22l2.1-1.22a3.7 3.7 0 0 1 .35-.17Z"/><path class="cls-21" d="M168.82 234.89c-.19-1.86-.07-9 1.23-10.93l-6.48 3.74c-.07 0-35.46 20.36-35.52 20.38-6 1.45-2.91 10-2.9 11.88s1.26 2.65 2.85 1.88c.08 0 35.5-20.35 35.59-20.39l6.45-3.74c-.75-.48-1.04-1.47-1.22-2.82Z"/><g class="cls-8"><g class="cls-8" style="clip-path:url(#clip-path-3)"><path class="cls-16" d="m163.38 227.81-58.16-30.54.01-.01 58.16 30.55h-.01z"/></g></g><path class="cls-18" d="m163.38 227.81.18-.11Z"/><path class="cls-19" d="m163.39 227.81-58.16-30.55.17-.1 58.16 30.54-.17.11z"/><path d="M118.53 190.26a4.53 4.53 0 0 0-4 .25l-36.11 20.56-4.66 2.7L129 245.85l4.66-2.7 33.14-18.79h-.08l2.42-1.4 2.51-1.45a.5.5 0 0 1 .49-.05Z" style="fill:#680702"/><path d="M125.6 263.14 72.07 232a5.77 5.77 0 0 1-3-5.33v-6.54c0-4.41 3.24-5.53 4.65-6.33l55.63 31.74c-1.09.63-4.26 2.49-5.06 5.74s0 7.5 0 9.06a3.08 3.08 0 0 0 1.28 2.83Z" style="fill:#8e1111" class="cls-8"/><path d="M171.62 221.47c.38-.22.69 0 .69.39a1.55 1.55 0 0 1-.68 1.19l-1.58.91-41.21 23.72-.18.11a5.42 5.42 0 0 0-3.23 5.05c0 2.81.06 5.6.06 6.92 0 1.85 1.29 2.81 3.86 1.28L170 237.71l1.61-.92a.42.42 0 0 1 .69.39 1.53 1.53 0 0 1-.69 1.19l-5.79 3.34-32.2 18.35-4.62 2.69a2 2 0 0 1-.45.19c-2.35 1.22-4.37.21-4.52-2.51-.12-2.27-.12-5.45-.12-8.08 0-4.2 4.39-6.15 5.8-7l-1.41.86Z" style="fill:#4c0503"/></g></g><g id="book10" class="graduationItems"><path class="cls-26" d="M132.93 178.22v11.64l55.84 31.28.87-5.33-1.08-5.43-55.63-32.16z"/><path class="cls-27" d="m132.93 178.14 55.61 32.35 1.72-.48a2.23 2.23 0 0 1 .71.05l-55.24-32.2a2.41 2.41 0 0 0-2.24-.06Z"/><path class="cls-28" d="M90.13 213.57 143 244.28a3 3 0 0 0 2.64 0l.21 1.66a2.9 2.9 0 0 1-2.63 0l-52.88-30.71a.92.92 0 0 1-.54-.76l-.21-1.66a.93.93 0 0 0 .54.76Z"/><path class="cls-26" d="M90.14 212a.81.81 0 0 0 0 1.53L143 244.28a2.92 2.92 0 0 0 2.64 0l42.81-24.72L133 187.32Z"/><g class="cls-8"><path class="cls-9" d="M144.51 234.75v8.86l42.46-24.85v-8.85l-42.46 24.84z"/><path class="cls-10" d="M92.44 205.53v7.95l52.07 30.13v-8.86l-52.07-29.22z"/><path class="cls-11" d="m144.94 234.33 40.8-24.05-41.98-23.99-42.03 24.12 43.21 23.92z"/></g><path class="cls-29" d="M191 210.06c-1.07-.67-2.6.33-2.63.36L145.6 235.1v1.66l41.22-23.93c.26-.16 2.31-1.29 2.31.91v3.93a3.36 3.36 0 0 1-1.43 2.33l-42.09 24.25.2 1.66 42.63-24.63c1.32-.66 3.52-1.57 3.52-5.26v-3.68a2.51 2.51 0 0 0-.96-2.28Z"/><path class="cls-28" d="M90.13 204.39 143 235.1a2.92 2.92 0 0 0 2.64 0v1.66a2.67 2.67 0 0 1-1.31.32 2.76 2.76 0 0 1-1.31-.31l-52.88-30.72a1 1 0 0 1-.55-.76v-1.66a.93.93 0 0 0 .54.76Z"/><path d="M90.13 202.86a.81.81 0 0 0 0 1.53L143 235.1a2.9 2.9 0 0 0 2.63 0l43.09-24.89-55.75-32.07Z" style="fill:#0d5068"/></g><g id="book9" class="graduationItems"><g class="cls-8"><g class="cls-8"><g class="cls-8" style="clip-path:url(#clip-path-4)"><path class="cls-32" d="m187 203.79-64.78-45.48a.55.55 0 0 1 .57-.05l64.78 45.47a.57.57 0 0 0-.57.06Z"/></g></g><path class="cls-32" d="m185.11 204.87-64.78-45.47 1.88-1.09 64.78 45.48-1.88 1.08z"/><g class="cls-8"><g class="cls-8" style="clip-path:url(#clip-path-5)"><path class="cls-16" d="m177.25 209.41-64.78-45.47 64.78 45.47Z"/></g></g><g class="cls-8"><g class="cls-8" style="clip-path:url(#clip-path-6)"><path class="cls-16" d="m177.5 193.13-64.78-37.65a2.57 2.57 0 0 1 2.57-.25l64.78 37.65a2.55 2.55 0 0 0-2.57.25Z"/></g></g><path class="cls-18" d="m177.53 209.25-.27.15ZM177.51 209.26l-.26.15Z"/><path class="cls-19" d="m177.5 193.13-64.78-37.65 7.61-4.39 64.78 37.65-7.61 4.39z"/><path class="cls-20" d="m184 187.51-2.93 1.7-.35.19.41-.26 2.46-1.42a3.19 3.19 0 0 1 .41-.21Z"/><path d="M183.68 201.56c-.23-2.18-.09-10.59 1.43-12.82l-7.61 4.39c-.07 0-31.55 18.38-31.63 18.4-7 1.7-3.4 11.73-3.4 13.94s1.49 3.11 3.35 2.2c.09 0 31.61-18.36 31.71-18.42l7.58-4.38c-.89-.56-1.27-1.72-1.43-3.31Z" style="fill:#e2d59f"/><g class="cls-8"><g class="cls-8" style="clip-path:url(#clip-path-7)"><path class="cls-16" d="m177.29 193.26-64.78-37.65 64.78 37.65Z"/></g></g><path class="cls-18" d="m177.29 193.26.2-.12Z"/><path class="cls-19" d="m177.3 193.25-64.78-37.65.2-.12 64.78 37.65-.2.12z"/><path d="M124.66 149.19a5.3 5.3 0 0 0-4.68.29L87.65 168.1l-5.48 3.16L147 208.91l5.47-3.16 28.84-16.54-.09-.06 2.84-1.64 3-1.7a.55.55 0 0 1 .57-.05Z" style="fill:#4f5447"/><path d="m143 229.19-62.81-36.56a6.77 6.77 0 0 1-3.47-6.25v-7.68c0-5.18 3.81-6.49 5.45-7.44l64.7 37.47c-1.27.74-4.42 2.71-5.36 6.51s0 8.81 0 10.64a3.57 3.57 0 0 0 1.5 3.31Z" style="fill:#848981" class="cls-8"/><path d="M187 185.81c.44-.25.81 0 .81.46a1.82 1.82 0 0 1-.81 1.4l-1.85 1.07-38.35 22.32-.2.12a6.39 6.39 0 0 0-3.79 5.93c0 3.3.06 6.58.07 8.11 0 2.18 1.51 3.31 4.52 1.51l37.71-21.86 1.88-1.08c.44-.26.81 0 .81.46a1.8 1.8 0 0 1-.81 1.39l-6.79 3.92-27.74 16-5.46 3.18a2.31 2.31 0 0 1-.53.22c-2.76 1.44-5.13.25-5.31-2.94-.14-2.66-.14-6.39-.14-9.48 0-4.93 5.15-7.21 6.8-8.17l-1.65 1Z" style="fill:#6b7267"/></g><path class="cls-40" d="M133.17 219.16v-7.69c0-5.16 3.81-6.48 5.46-7.43l-4.22-2.49c-1.65.95-5.45 2.26-5.45 7.43v7.69a6.74 6.74 0 0 0 3.47 6.24l3.8 2.22a6.84 6.84 0 0 1-3.06-5.97ZM92.25 199a6.83 6.83 0 0 1-3.25-6.11v-7.68c0-4.7 3.12-6.2 4.93-7.16l-1.77-1c-1.65 1-5.45 2.26-5.45 7.43v7.68a6.75 6.75 0 0 0 3.47 6.25l3.8 2.22a6.85 6.85 0 0 1-1.73-1.63Z"/></g><g id="book8" class="graduationItems"><path style="fill:#e2decc" d="M122.39 137.61v11.42l54.6 37.82 2.36-2.93v-11.41l-2.36-3.34-54.6-31.56z"/><path class="cls-42" d="m80.38 179.51 51.86 30.14a2.73 2.73 0 0 0 1.29.31 2.67 2.67 0 0 0 1.29-.31v1.54a2.86 2.86 0 0 1-2.58 0l-51.86-30.14a.94.94 0 0 1-.54-.75v-1.54a.92.92 0 0 0 .54.75Z"/><path class="cls-43" d="M80.38 178a.79.79 0 0 0 0 1.5l51.86 30.14a2.86 2.86 0 0 0 2.58 0l42.51-24.2-54.93-31.7Z"/><g class="cls-8"><path class="cls-9" d="M133.75 193.09v15.9l41.67-24.38v-15.9l-41.67 24.38z"/><path style="fill:#e1e3e5" d="M82.64 164.41v15.01l51.11 29.57v-15.9l-51.11-28.68z"/><path class="cls-11" d="m134.17 192.68 40.05-23.61-41.21-23.54-41.25 23.68 42.41 23.47z"/></g><path d="M178.38 169.89c-1.46-.58-4.13.76-4.16.79l-39.4 22.75v1.35l40.45-23.52c1.46-.86 3.43.51 3.43 2.66v7.77a4.9 4.9 0 0 1-2.55 4.16l-41.31 23.8v1.54l42.23-24.48c1.3-.65 3.26-2 3.26-5.62v-7.72s-.01-2.71-1.95-3.48Z" style="fill:#06874f"/><path class="cls-42" d="m80.38 163.29 51.86 30.14a2.8 2.8 0 0 0 2.58 0v1.37a3.11 3.11 0 0 1-2.58 0l-51.86-30.4a.94.94 0 0 1-.54-.75v-1.11a.92.92 0 0 0 .54.75Z"/><path class="cls-43" d="M125.13 137.26a2.31 2.31 0 0 0-2.19-.06l-.55.33-42 24.26a.79.79 0 0 0 0 1.5l51.87 30.14a2.86 2.86 0 0 0 2.58 0L173.9 171a8.83 8.83 0 0 1 3.32-1.2 6.19 6.19 0 0 1 2.06.62Z"/></g><g id="book7" class="graduationItems"><g class="cls-8"><path class="cls-46" d="M114.8 137.58a.45.45 0 0 0-.43 0l-1.4.81 51 32.62 1.41-.81a.43.43 0 0 1 .42 0Z"/><g class="cls-8"><g class="cls-8" style="clip-path:url(#clip-path-8)"><path class="cls-16" d="m158.08 174.44-55.9-29.85 55.9 29.86Z"/></g></g><g class="cls-8"><g class="cls-8" style="clip-path:url(#clip-path-9)"><path class="cls-16" d="m158.27 162.28-51-26.77a1.9 1.9 0 0 1 1.91-.19l51 26.77a1.92 1.92 0 0 0-1.92.19Z"/></g></g><path class="cls-18" d="m158.29 174.33-.2.11ZM158.28 174.33l-.2.11h-.01l.21-.11z"/><path class="cls-19" d="m158.27 162.28-50.98-26.77 8.27-4.63 48.4 28.12-5.69 3.28z"/><path class="cls-20" d="m163.13 158.09-2.19 1.26-.26.15a3.28 3.28 0 0 1 .31-.2l1.83-1.06Z"/><path class="cls-21" d="M162.88 168.58c-.17-1.63-.06-7.91 1.08-9.58l-5.69 3.28c-.05 0-31.07 17.84-31.13 17.86-5.25 1.27-2.55 8.76-2.55 10.42s1.11 2.32 2.5 1.64c.08 0 31.12-17.83 31.2-17.87l5.66-3.28a3.14 3.14 0 0 1-1.07-2.47Z"/><g class="cls-8"><g class="cls-8" style="clip-path:url(#clip-path-10)"><path class="cls-16" d="m158.11 162.38-50.98-26.78v-.01l50.99 26.78-.01.01z"/></g></g><path class="cls-18" d="m158.11 162.38.15-.09Z"/><path class="cls-19" d="m158.12 162.37-50.99-26.78.16-.08 50.98 26.77-.15.09z"/><path d="M118.79 129.46a3.94 3.94 0 0 0-3.49.22l-31.66 18-4.09 2.36 48.39 28.12 4.09-2.36 29.05-16.47h-.07l2.12-1.22 2.2-1.28a.42.42 0 0 1 .43 0Z" style="fill:#b5940d"/><path d="M125 193.34 78.07 166a5.08 5.08 0 0 1-2.6-4.67v-5.74c0-3.86 2.85-4.84 4.08-5.55l48.76 27.83c-1 .55-3.73 2.18-4.43 5s0 6.58 0 7.94a2.7 2.7 0 0 0 1.12 2.48Z" style="fill:#d6b93c" class="cls-8"/><path class="cls-46" d="M165.33 156.81c.33-.18.61 0 .61.35a1.33 1.33 0 0 1-.6 1L164 159l-36.13 20.79-.16.09a4.77 4.77 0 0 0-2.83 4.43c0 2.47 0 4.92.06 6.07 0 1.62 1.12 2.46 3.38 1.12L164 171.05l1.41-.81c.33-.19.6 0 .6.35a1.33 1.33 0 0 1-.6 1l-5.08 2.93-28.23 16.08-4.1 2.4a1.75 1.75 0 0 1-.4.17c-2.06 1.07-3.83.18-4-2.21-.11-2-.11-4.77-.11-7.08 0-3.68 3.85-5.39 5.08-6.1l-1.23.76Z"/></g></g><g id="book6" class="graduationItems"><path class="cls-4" d="M121.28 106.33v11.84l56.64 32.74 1.09-6.32-1.09-5.52-56.64-32.74z"/><path class="cls-52" d="m121.28 106.24 56.62 32.94 1.75-.49a2.3 2.3 0 0 1 .72.05L124.13 106a2.46 2.46 0 0 0-2.28-.07Z"/><path class="cls-53" d="m77.7 142.31 53.8 31.27a2.79 2.79 0 0 0 1.34.32 2.77 2.77 0 0 0 1.34-.32v2.57a3 3 0 0 1-2.68 0l-53.8-31.26a1 1 0 0 1-.56-.77v-2.58a.93.93 0 0 0 .56.77Z"/><path class="cls-54" d="M77.71 140.76a.82.82 0 0 0 0 1.55l53.8 31.27a3 3 0 0 0 2.68 0l43.59-25.17-56.48-32.82Z"/><g class="cls-8"><path class="cls-9" d="M133.07 163.88v9.02l43.23-25.3v-9.01l-43.23 25.29z"/><path class="cls-10" d="M80.05 134.13v8.09l53.02 30.68v-9.02l-53.02-29.75z"/><path class="cls-11" d="m133.51 163.45 41.54-24.48-42.75-24.43-42.79 24.56 44 24.35z"/></g><path class="cls-53" d="M180.36 138.73c-1.09-.67-2.64.35-2.68.37l-43.5 25.13v2.57l42-24.36c.27-.15 2.36-1.3 2.36.93v3.12a3.42 3.42 0 0 1-1.48 2.4l-42.85 24.69v2.57l43.4-25.07a6.77 6.77 0 0 0 3.79-6.24v-3.75a2.57 2.57 0 0 0-1.04-2.36ZM77.7 133l53.8 31.27a3 3 0 0 0 2.68 0v2.57a2.68 2.68 0 0 1-1.34.32 2.75 2.75 0 0 1-1.33-.31l-53.8-31.26a.94.94 0 0 1-.56-.77v-2.58a.93.93 0 0 0 .55.76Z"/><path class="cls-52" d="M77.7 131.41a.82.82 0 0 0 0 1.55l53.81 31.27a3 3 0 0 0 2.68 0L178 138.9l-56.75-32.66Z"/><path style="fill:#fc6363" d="m143.69 163.62-4.06 2.51 7.78 4.47-1.42-3.28 4.5.57-6.8-4.27z"/><path class="cls-56" d="M139.63 166.13v.64l7.78 4.46v-.63l-7.78-4.47zM150.49 168.53v-.64l-4.5-.57.29.67 4.21.54z"/></g><g id="book5" class="graduationItems"><g class="cls-8"><path class="cls-58" d="m159.69 133.37-56.16-32.63a.47.47 0 0 1 .5 0l56.15 32.63a.49.49 0 0 0-.49.05Z" style="clip-path:url(#clip-path-11)"/></g><path class="cls-58" d="m158.05 134.31-56.15-32.63 1.63-.94 56.16 32.63-1.64.94z"/><g class="cls-8"><g class="cls-8" style="clip-path:url(#clip-path-12)"><path class="cls-16" d="m151.24 138.24-56.15-32.63 56.15 32.62Z"/></g></g><g class="cls-8"><g class="cls-8" style="clip-path:url(#clip-path-13)"><path class="cls-16" d="M151.46 130.91 95.31 98.28a2.17 2.17 0 0 1 2.22-.21l56.16 32.63a2.22 2.22 0 0 0-2.23.21Z"/></g></g><path class="cls-18" d="m151.48 138.1-.23.13a1.49 1.49 0 0 0 .23-.13ZM151.47 138.11l-.23.13.23-.13z"/><path class="cls-19" d="M151.46 130.91 95.31 98.28l6.6-3.81 56.15 32.64-6.6 3.8z"/><path class="cls-20" d="m157.1 126.05-2.54 1.47-.3.17a3.5 3.5 0 0 1 .35-.23l2.14-1.23a2.34 2.34 0 0 1 .35-.18Z"/><g class="cls-8"><path class="cls-16" d="M155.66 126.81 99.89 94.19c.11-.08-1.55.7-1.43.64l56.15 32.63a3.5 3.5 0 0 0-.35.23Z" style="clip-path:url(#clip-path-14)"/></g><path class="cls-21" d="M156.81 131.44a9.13 9.13 0 0 1 1.25-4.33l-6.6 3.8-27.42 16a6.93 6.93 0 0 0-2.94 5.3c0 1.89 1.28 2.7 2.9 1.91l27.48-16 6.57-3.79a3.28 3.28 0 0 1-1.24-2.89Z"/><g class="cls-8"><g class="cls-8" style="clip-path:url(#clip-path-15)"><path class="cls-16" d="M151.28 131.03 95.12 98.39h.01l56.15 32.63v.01z"/></g></g><path class="cls-18" d="m151.28 131 .18-.11Z"/><path class="cls-19" d="M151.28 131.02 95.13 98.39l.18-.11 56.15 32.63-.18.11z"/><path d="M104.76 92.31a1.88 1.88 0 0 0-2.08.1l-29.11 16.81-4.74 2.78-.25.15 56.16 32.64.24-.16 4.74-2.74 29.94-17.28a.48.48 0 0 1 .5 0Z" style="fill:#b53502"/><g class="cls-8"><g class="cls-64"><path d="M121.55 155.39 65.4 122.76a3.13 3.13 0 0 1-1.3-2.87 9.9 9.9 0 0 1 4.48-7.78l56.16 32.64a9.89 9.89 0 0 0-4.49 7.77 3.11 3.11 0 0 0 1.3 2.87Z" style="fill:#3598db" class="cls-8"/></g></g><g class="cls-8"><g class="cls-64"><path d="M121.55 155.39 65.4 122.76a3.13 3.13 0 0 1-1.3-2.87 9.9 9.9 0 0 1 4.48-7.78l56.16 32.64a9.89 9.89 0 0 0-4.49 7.77 3.11 3.11 0 0 0 1.3 2.87Z" style="fill:#c94c14" class="cls-8"/></g></g><path d="M159.66 124.57c.38-.22.7 0 .7.4a1.54 1.54 0 0 1-.7 1.21l-1.6.93-33.21 19.35-.18.11a6.93 6.93 0 0 0-3 5.3c0 1.89 1.28 2.7 2.9 1.91L158 134.31l1.64-.94c.38-.22.7 0 .7.4a1.53 1.53 0 0 1-.7 1.2l-5.89 3.41-24.05 13.88L125 155a1.8 1.8 0 0 1-.46.19c-2.39 1.25-4.29.11-4.3-2.67a9.89 9.89 0 0 1 4.49-7.77l.24-.16Z" style="fill:#892502"/><path class="cls-68" d="M69.89 120.5c-.55 2.28-.58 4.48.33 5.11l2.56 1.39c-.51-1-.38-3.51 0-5.25a7.13 7.13 0 0 1 3.7-5.07l-2.62-1.51c-.92.42-3 1.31-3.97 5.33ZM75.45 123.07c-.51 2.42-.62 4.26 0 5.55l4.21 2.45c-1-.69-.83-3.14-.14-6.3s2.57-4.45 3.19-4.48l-3.52-2.07a6.76 6.76 0 0 0-3.74 4.85Z"/><path style="fill:#f7d363" d="m114.14 144.11-18.93-11.09v2.48l18.93 11.17v-2.56z"/></g><g id="book4" class="graduationItems"><g class="cls-8"><g class="cls-8"><g class="cls-8" style="clip-path:url(#clip-path-18)"><path class="cls-32" d="m173.47 122.27-56.64-39.75a.51.51 0 0 1 .5 0L174 122.23a.48.48 0 0 0-.5 0Z"/></g></g><path class="cls-32" d="m171.82 123.22-56.63-39.75 1.64-.95 56.64 39.75-1.65.95z"/><g class="cls-8"><g class="cls-8" style="clip-path:url(#clip-path-19)"><path class="cls-16" d="m165 127.19-56.68-39.75 56.63 39.75Z"/></g></g><g class="cls-8"><g class="cls-8" style="clip-path:url(#clip-path-20)"><path class="cls-16" d="m165.17 113-56.63-33a2.21 2.21 0 0 1 2.24-.21l56.64 32.91a2.23 2.23 0 0 0-2.25.22Z"/></g></g><path class="cls-18" d="m165.19 127.05-.24.13ZM165.18 127.06l-.23.13h-.01l.24-.13z"/><path class="cls-19" d="m165.17 112.95-56.63-32.91 6.65-3.84 56.64 32.91-6.66 3.84z"/><path class="cls-20" d="m170.86 108.05-2.56 1.48-.3.17.35-.23 2.15-1.25a2.84 2.84 0 0 1 .36-.17Z"/><path d="M170.57 120.33c-.2-1.91-.07-9.26 1.26-11.22l-6.66 3.89c-.06 0-27.58 16.06-27.65 16.08-6.13 1.49-3 10.25-3 12.19s1.29 2.72 2.92 1.92c.09 0 27.64-16.05 27.72-16.1l6.63-3.83c-.74-.53-1.08-1.54-1.22-2.93Z" style="fill:#c1ba9f"/><g class="cls-8"><g class="cls-8" style="clip-path:url(#clip-path-21)"><path class="cls-16" d="m165 113.07-56.65-32.91 56.65 32.9Z"/></g></g><path class="cls-18" d="m165 113.07.18-.1Z"/><path class="cls-19" d="m164.99 113.06-56.63-32.91.18-.11 56.63 32.91-.18.11z"/><path class="cls-32" d="M119 74.54a4.63 4.63 0 0 0-4.08.26L86.61 91.08l-4.78 2.76 56.63 32.91 4.79-2.76 25.21-14.46h-.08l2.48-1.43 2.58-1.49a.49.49 0 0 1 .5 0Z"/><path d="m135 144.48-54.91-32a5.94 5.94 0 0 1-3-5.46v-6.72c0-4.52 3.33-5.67 4.77-6.5l56.54 32.8a9.38 9.38 0 0 0-4.69 5.69c-.85 3.45 0 7.7 0 9.3a3.13 3.13 0 0 0 1.31 2.89Z" style="fill:#446d2e" class="cls-8"/><path d="M173.44 106.56c.39-.22.71 0 .71.4a1.57 1.57 0 0 1-.71 1.22l-1.61.93-33.5 19.52-.18.11a5.57 5.57 0 0 0-3.31 5.18c0 2.89.06 5.75.06 7.1 0 1.9 1.32 2.88 4 1.32l33-19.12 1.65-1c.38-.22.7 0 .7.41a1.57 1.57 0 0 1-.7 1.22l-5.94 3.42-24.25 14-4.79 2.76a1.5 1.5 0 0 1-.46.19c-2.41 1.26-4.48.22-4.63-2.57-.13-2.32-.13-5.59-.13-8.29 0-4.31 4.5-6.3 5.94-7.14l-1.44.88Z" style="fill:#54843a"/></g><path class="cls-40" d="M83.38 110.76v-6.72c0-4.52 3.33-5.67 4.77-6.5l-3.68-2.17c-1.44.83-4.77 2-4.77 6.49v6.72a5.89 5.89 0 0 0 3 5.46l3.36 1.96a6 6 0 0 1-2.68-5.24ZM126.41 135.71v-6.72c0-4.51 3.33-5.66 4.77-6.49l-3.68-2.18c-1.44.83-4.77 2-4.77 6.5v6.71a6 6 0 0 0 3 5.47l3.32 1.93a6 6 0 0 1-2.64-5.22Z"/><path class="cls-40" d="M90.64 118.1a6 6 0 0 1-2.87-5.35v-6.72c0-4.1 2.73-5.42 4.32-6.25l-1.55-.92c-1.45.83-4.77 2-4.77 6.5v6.72a5.9 5.9 0 0 0 3 5.46l3.33 1.94a6.06 6.06 0 0 1-1.46-1.38Z"/></g><g id="book3" class="graduationItems"><path class="cls-4" d="M141.62 50.33v11.09L88.6 98.14l-2.29-2.84V84.22l2.29-3.25 53.02-30.64z"/><path class="cls-77" d="m182.4 91-50.35 29.27a2.61 2.61 0 0 1-1.26.3 2.54 2.54 0 0 1-1.25-.3v1.49a2.78 2.78 0 0 0 2.51 0l50.35-29.25a.89.89 0 0 0 .52-.73v-1.49a.87.87 0 0 1-.52.71Z"/><path class="cls-54" d="M182.4 89.56a.76.76 0 0 1 0 1.45l-50.35 29.27a2.78 2.78 0 0 1-2.51 0l-41.28-23.5L141.6 66Z"/><g class="cls-8"><path class="cls-9" d="M130.58 104.2v15.44L90.12 95.97V80.53l40.46 23.67z"/><path class="cls-10" d="M180.2 76.35v14.58l-49.62 28.71V104.2l49.62-27.85z"/><path class="cls-11" d="M130.17 103.8 91.29 80.88l40.01-22.86 40.05 22.99-41.18 22.79z"/></g><path class="cls-53" d="M87.25 81.67c1.41-.56 4 .75 4 .77l38.25 22.09v1.31L90.29 83c-1.42-.84-3.33.49-3.33 2.58v7.54a4.76 4.76 0 0 0 2.47 4l40.11 23.11v1.49L88.54 98a5.52 5.52 0 0 1-3.17-5.46v-7.5s0-2.62 1.88-3.37Z"/><path class="cls-77" d="m182.4 75.26-50.35 29.27a2.71 2.71 0 0 1-2.51 0v1.33a2.46 2.46 0 0 0 1.26.25 2.4 2.4 0 0 0 1.24-.29l50.36-29.48a.89.89 0 0 0 .52-.72v-1.08a.87.87 0 0 1-.52.72Z"/><path class="cls-52" d="M139 50a2.24 2.24 0 0 1 2.13-.06l.53.32 40.74 23.55a.76.76 0 0 1 0 1.45l-50.36 29.27a2.78 2.78 0 0 1-2.51 0l-37.94-21.8a8.65 8.65 0 0 0-3.22-1.17 6 6 0 0 0-2 .61Z"/><path d="m111 99.12 4.06 2.54s-3.8 1.82-4.72 3c-4.23 5.44-1.95 10 .55 19 2.67 9.55-6.55 11.67-6.55 11.67l2.11-3.34-2.11-1.44s6.77-4.11 3.55-10.78c-2.8-5.79-6.89-14-.35-18.49.82-.57 3.46-2.16 3.46-2.16Z" style="fill:#f4cb1c"/></g><g id="book2" class="graduationItems"><g class="cls-8"><path class="cls-14" d="M117.61 48.91a.41.41 0 0 0-.42 0l-1.39.8 50.5 32.32 1.4-.8a.41.41 0 0 1 .42 0Z"/><g class="cls-8"><g class="cls-8" style="clip-path:url(#clip-path-22)"><path class="cls-16" d="m160.49 85.43-55.38-29.58 55.38 29.57Z"/></g></g><g class="cls-8"><g class="cls-8" style="clip-path:url(#clip-path-23)"><path class="cls-16" d="m160.68 73.38-50.51-26.53a1.91 1.91 0 0 1 1.9-.18l50.51 26.52a1.89 1.89 0 0 0-1.9.19Z"/></g></g><path class="cls-18" d="m160.7 85.31-.2.1ZM160.68 85.32l-.19.11Z"/><path class="cls-19" d="m160.68 73.38-50.51-26.53 8.2-4.58 47.94 27.86-5.63 3.25z"/><path class="cls-20" d="m165.49 69.22-2.17 1.26-.25.14.3-.19 1.82-1.06a2.1 2.1 0 0 1 .3-.15Z"/><path class="cls-21" d="M165.25 79.62c-.17-1.62-.07-7.84 1.06-9.49l-5.63 3.25c-.06 0-30.79 17.67-30.85 17.69-5.19 1.26-2.52 8.68-2.51 10.32s1.1 2.3 2.47 1.63c.07 0 30.83-17.67 30.91-17.71l5.6-3.24a3.11 3.11 0 0 1-1.05-2.45Z"/><g class="cls-8"><g class="cls-8" style="clip-path:url(#clip-path-24)"><path class="cls-16" d="m160.52 73.47-50.51-26.52.01-.01 50.51 26.53h-.01z"/></g></g><path class="cls-18" d="m160.52 73.47.16-.09Z"/><path class="cls-19" d="m160.53 73.47-50.51-26.53.15-.09 50.51 26.53-.15.09z"/><path d="M121.57 40.86a3.9 3.9 0 0 0-3.46.22L86.74 58.93l-4 2.34 47.94 27.86 4.05-2.33 28.78-16.33h-.07l2.1-1.22 2.14-1.25a.43.43 0 0 1 .42 0Z" style="fill:#ba6108"/><path d="M127.71 104.15 81.23 77.08a5 5 0 0 1-2.57-4.62v-5.69c0-3.82 2.81-4.79 4-5.5L131 88.84c-.94.55-3.7 2.16-4.39 5s0 6.52 0 7.87a2.67 2.67 0 0 0 1.11 2.46Z" style="fill:#d86c0b" class="cls-8"/><path d="M167.68 68a.37.37 0 0 1 .6.34 1.33 1.33 0 0 1-.6 1l-1.37.79-35.79 20.6-.15.09a4.7 4.7 0 0 0-2.81 4.38c0 2.45 0 4.87.06 6 0 1.61 1.11 2.44 3.35 1.12l35.33-20.25 1.4-.8c.32-.19.6 0 .6.34a1.33 1.33 0 0 1-.6 1l-5 2.9-28 15.93-4.05 2.34a1.19 1.19 0 0 1-.39.16c-2 1.07-3.8.19-3.93-2.18-.11-2-.11-4.73-.11-7 0-3.65 3.81-5.34 5-6l-1.23.74Z" style="fill:#964b06"/></g></g><g id="book1" class="graduationItems"><path class="cls-26" d="M129.45 30.49v10.2l48.97 27.44.77-4.68-.95-4.76-48.79-28.2z"/><path class="cls-27" d="m129.45 30.42 48.77 28.36 1.51-.41a1.78 1.78 0 0 1 .62 0l-48.44-28.2a2.09 2.09 0 0 0-2-.05Z"/><path class="cls-28" d="m91.92 61.48 46.34 26.94a2.61 2.61 0 0 0 2.31 0l.19 1.45a2.54 2.54 0 0 1-2.31 0L92.1 62.94a.82.82 0 0 1-.48-.66l-.18-1.46a.8.8 0 0 0 .48.66Z"/><path class="cls-26" d="M91.92 60.14a.71.71 0 0 0 0 1.34l46.34 26.94a2.54 2.54 0 0 0 2.31 0l37.55-21.68-48.65-28.27Z"/><g class="cls-8"><path style="fill:#c9ba89" d="M139.61 80.06v7.77l37.24-21.79v-7.76l-37.24 21.78z"/><path style="fill:#f2e7b6" d="M93.94 54.43v6.98l45.67 26.42v-7.77L93.94 54.43z"/><path class="cls-11" d="m139.99 79.69 35.78-21.09-36.82-21.04-36.86 21.16 37.9 20.97z"/></g><path class="cls-29" d="M180.35 58.4c-.95-.58-2.28.3-2.31.32l-37.47 21.64v1.46l36.15-21c.23-.13 2-1.12 2 .8v3.45a2.94 2.94 0 0 1-1.27 2.07l-36.88 21.28.18 1.45 37.38-21.6a4.52 4.52 0 0 0 3.09-4.61v-3.23a2.21 2.21 0 0 0-.87-2.03Z"/><path d="m91.92 53.43 46.34 26.93a2.54 2.54 0 0 0 2.31 0v1.46a2.25 2.25 0 0 1-1.15.27 2.21 2.21 0 0 1-1.14-.27L91.92 54.89a.85.85 0 0 1-.48-.67v-1.45a.8.8 0 0 0 .48.66Z" style="fill:#54b7d1"/><path d="M91.92 52.09a.71.71 0 0 0 0 1.34l46.35 26.93a2.54 2.54 0 0 0 2.31 0l37.78-21.82-48.9-28.12Z" style="fill:#3287a5"/></g><g id="graduationHat" class="graduationItems"><path class="cls-89" d="M116.39 43.35c-10 6-9.65 15.58.76 21.39s26.94 5.63 36.93-.38 9.64-15.58-.77-21.39-26.94-5.63-36.92.38Z"/><g class="cls-8"><path class="cls-89" d="m109.11 53.78.07-22.33c0-3.76 2.42-7.51 7.27-10.43l-.06 22.33c-4.85 2.91-7.26 6.67-7.28 10.43Z" style="clip-path:url(#clip-path-25)"/></g><g class="cls-8"><path class="cls-89" d="m116.39 43.35.06-22.35c10-6 26.52-6.17 36.93-.37 5.35 3 8 7 8 11l-.06 22.32c0-4-2.68-8-8-11-10.4-5.8-26.94-5.63-36.92.38Z" style="clip-path:url(#clip-path-26)"/></g><path class="cls-89" d="M116.45 21c-10 6-9.64 15.59.76 21.39s27 5.64 36.93-.37 9.64-15.59-.76-21.39-26.95-5.63-36.93.37Z"/><path class="cls-92" d="M115.76 63.89q-.57-.36-1.08-.75V40.77c.35.26.71.52 1.1.76l.2.14c.4.25.81.5 1.23.74.61.34 1.24.65 1.88.94l.71.31q.61.27 1.26.51c.3.12.62.23.93.34l1.1.36 1.09.32 1 .24c.43.11.85.21 1.28.3l.68.13a45.08 45.08 0 0 0 5.73.72V68.9a42.57 42.57 0 0 1-5.68-.69l-.79-.15-1.24-.29-1-.26c-.36-.09-.72-.2-1.07-.31l-1.13-.37-.91-.32-1.32-.51-.7-.31c-.64-.29-1.27-.61-1.88-.94-.42-.24-.83-.48-1.21-.73Z"/><path class="cls-92" d="M124.47 67.6a32.81 32.81 0 0 1-3.82-1.24V44a34.85 34.85 0 0 0 3.82 1.25Z"/><g class="cls-8"><g class="cls-8" style="clip-path:url(#clip-path-27)"><path class="cls-94" d="M84.76 29.2v.8a1.25 1.25 0 0 0 .73 1v-.82a1.26 1.26 0 0 1-.73-1Z"/></g></g><g class="cls-8"><g class="cls-8" style="clip-path:url(#clip-path-28)"><path class="cls-94" d="M184.84 30.22v.83a1.27 1.27 0 0 0 .74-1v-.83a1.26 1.26 0 0 1-.74 1Z"/></g></g><path style="fill:#1b1819" d="M85.49 30.23v.82l47.75 27.75v-.83L85.49 30.23z"/><path style="fill:#131111" d="m136.77 57.97.01.83 48.06-27.75v-.83l-48.07 27.75z"/><g class="cls-8"><g class="cls-8" style="clip-path:url(#clip-path-29)"><path class="cls-94" d="M133.24 58v.83a3.92 3.92 0 0 0 3.53 0V58a3.86 3.86 0 0 1-3.53 0Z"/></g></g><path d="M85.49 28.17a1.09 1.09 0 0 0 0 2.06L133.24 58a3.86 3.86 0 0 0 3.53 0l48.07-27.75a1.08 1.08 0 0 0 0-2L137.1.43a3.91 3.91 0 0 0-3.54 0Z" style="fill:#37424c"/><path class="cls-100" d="m106.29 63.49 6.19 11.05a6.14 6.14 0 1 1-12.27 0Z"/><path class="cls-89" d="M128.32 26.51c0 2.44 3.07 4.41 6.85 4.41S142 29 142 26.51s-3.07-4.42-6.85-4.42-6.83 1.98-6.83 4.42Z"/><path class="cls-100" d="M105.66 70.09h1.22V45.32c.09-2.37 2.68-3.65 2.71-3.66.22-.12 18.58-10.53 20.14-11.39 1-.55 1.39-.2 1.43-.18a13.19 13.19 0 0 0 1.48.52c0-1.9-1.81-2.26-3.46-1.44s-19.4 11-20.16 11.41c-.1 0-3.24 1.6-3.36 4.71Z"/><path class="cls-100" d="M103 64a3.4 3.4 0 1 0 3.39-3.4A3.39 3.39 0 0 0 103 64Z"/></g><g class="cls-8" id="ladder"><path class="cls-101" d="m215.13 299.82-3.43-1.22-4.3-22.79 3.43 1.23 4.3 22.78zM210.23 273.91l-3.43-1.22-4.53-23.98 3.43 1.23 4.53 23.97z"/><path class="cls-102" d="m191.35 285.58-3.44-1.22 18.89-11.67 3.43 1.22-18.88 11.67z"/><path class="cls-101" d="m205.11 246.81-3.43-1.23-4.53-23.97 3.43 1.22 4.53 23.98z"/><path class="cls-102" d="m186.22 258.48-3.43-1.23 18.89-11.67 3.43 1.23-18.89 11.67z"/><path class="cls-101" d="m199.99 219.69-3.43-1.22-4.53-23.98 3.43 1.23 4.53 23.97z"/><path class="cls-102" d="m181.1 231.37-3.43-1.23 18.89-11.67 3.43 1.22-18.89 11.68z"/><path class="cls-101" d="m194.86 192.59-3.43-1.23-4.53-23.97 3.43 1.22 4.53 23.98z"/><path class="cls-102" d="m175.98 204.26-3.43-1.22 18.88-11.68 3.43 1.23-18.88 11.67z"/><path class="cls-101" d="m189.74 165.48-3.43-1.22-4.53-23.98 3.43 1.22 4.53 23.98z"/><path class="cls-102" d="m170.85 177.16-3.43-1.23 18.89-11.67 3.43 1.22-18.89 11.68z"/><path class="cls-101" d="m184.62 138.37-3.44-1.23-4.52-23.97 3.43 1.22 4.53 23.98z"/><path class="cls-102" d="m165.73 150.04-3.43-1.22 18.88-11.68 3.44 1.23-18.89 11.67z"/><path class="cls-101" d="m179.49 111.26-3.43-1.22-4.53-23.97 3.43 1.22 4.53 23.97z"/><path class="cls-102" d="m160.61 122.94-3.43-1.23 18.88-11.67 3.43 1.22-18.88 11.68zM170.4 63.17l-3.43-1.23 3.3-2.82 3.43 1.22-3.3 2.83z"/><path class="cls-101" d="m174.37 84.16-3.43-1.23-3.97-20.99 3.43 1.23 3.97 20.99z"/><path class="cls-102" d="m155.48 95.83-3.43-1.22 18.89-11.68 3.43 1.23-18.89 11.67zM148.22 77.67l-3.44-1.23 3.3-2.82 3.44 1.22-3.3 2.83z"/><path d="m170.4 63.17 3.3-2.83L218.43 297l-3.3 2.82-4.3-22.82-18.89 11.68 4.31 22.78-3.3 2.82-44.83-236.65 3.4-2.79 4 21 18.89-11.67Zm19.34 102.31-4.53-24-18.89 11.68 4.53 24 18.89-11.68Zm15.37 81.32-4.53-24-18.89 11.68 4.53 24 18.89-11.68Zm-10.25-54.21-4.53-24-18.88 11.68 4.53 24 18.88-11.67Zm-10.24-54.22-4.53-24-18.89 11.7 4.53 24 18.89-11.67Zm-5.13-27.11-4.53-24L156.07 99l4.54 24 18.88-11.68ZM200 219.69l-4.53-24-18.89 11.67 4.53 24L200 219.69Zm10.24 54.22-4.53-24-18.88 11.67 4.53 24 18.88-11.67Z" style="fill:#e2a944"/><path class="cls-101" d="m192.94 314.32-3.43-1.22-44.73-236.66 3.44 1.23 44.72 236.65z"/></g></g></g></svg>