<svg xmlns="http://www.w3.org/2000/svg" height="100%" width="100%" viewBox="0 0 360.16 342.44"><defs><style>.cls-2{fill:#855044}.cls-3{fill:#fff}.cls-4{fill:#442923}.cls-5{fill:#fbb03b}.cls-17,.cls-19,.cls-21{mix-blend-mode:multiply}.cls-8{fill:#476d0a}.cls-9{fill:#80ba24}.cls-10{fill:#cc8b7c}.cls-12{fill:#4c3e7d}.cls-13{fill:#333}.cls-14{fill:#ffd52e}.cls-15{fill:#3e5063}.cls-16{fill:#ffb294}.cls-17,.cls-19{fill:#362c59;opacity:.5}.cls-19{fill:#f7ab8d}.cls-21{fill:#3d3d59;opacity:.3}</style></defs><g style="isolation:isolate"><g id="Ebene_2" data-name="Ebene 2"><g id="stage5Celebration"><g id="universityBuilding"><path class="cls-2" d="M63.7 175.29v88.82l227.6-131.4V43.89L63.7 175.29z"/><path class="cls-3" d="m216.27 107.03.01 3.71 12.53-7.24.01-18.53-12.54 7.24-.01 14.82z"/><path class="cls-4" d="m228.11 86.2-2.15 1.24-8.97 5.18v16.89l11.12-6.42V86.2z"/><path class="cls-3" d="m225.96 87.44-.93.54-8.04 4.64v14.41l8.97-5.18V87.44z"/><path class="cls-5" d="m225.03 87.97-8.04 4.65v13.34l8.04-4.65V87.97zM225 88l-8 4.64Z"/><path class="cls-3" d="m216.65 96.35 8.72-5.03v.94l-8.72 5.03v-.94zM216.65 102l8.72-5.03v.94l-8.72 5.03V102z"/><path class="cls-3" d="M221.42 90.01v13.62l-.82.44V90.3l.82-.29zM216.27 133.39l.01 3.71 12.53-7.24.01-18.53-12.54 7.24-.01 14.82z"/><path class="cls-4" d="m228.11 112.56-2.15 1.24-8.97 5.18v16.89l11.12-6.42v-16.89z"/><path class="cls-3" d="m225.96 113.8-.93.54-8.04 4.64v14.41l8.97-5.18V113.8z"/><path class="cls-5" d="m225.03 114.34-8.04 4.64v13.34l8.04-4.64v-13.34zM225 114.34l-8 4.66Z"/><path class="cls-3" d="m216.65 122.71 8.72-5.03v.94l-8.72 5.03v-.94zM216.65 128.36l8.72-5.03v.94l-8.72 5.03v-.94z"/><path class="cls-3" d="M221.42 116.37v13.62l-.82.44v-13.77l.82-.29zM216.27 159.75l.01 3.72 12.53-7.25.01-18.53-12.54 7.25-.01 14.81z"/><path class="cls-4" d="m228.11 138.93-2.15 1.24-8.97 5.18v16.89l11.12-6.43v-16.88z"/><path class="cls-3" d="m225.96 140.17-.93.53-8.04 4.65v14.4l8.97-5.18v-14.4z"/><path class="cls-5" d="m225.03 140.7-8.04 4.65v13.34l8.04-4.65V140.7zM225 140.7l-8 4.65Z"/><path class="cls-3" d="m216.65 149.07 8.72-5.03v.94l-8.72 5.03v-.94zM216.65 154.72l8.72-5.03v.94l-8.72 5.03v-.94z"/><path class="cls-3" d="M221.42 142.73v13.62l-.82.44v-13.77l.82-.29zM234.72 96.39v3.72l12.54-7.24V74.33l-12.54 7.25v14.81z"/><path class="cls-4" d="m246.55 75.57-2.15 1.24-8.97 5.18v16.89l11.12-6.42V75.57z"/><path class="cls-3" d="m244.4 76.81-.92.53-8.05 4.65v14.4l8.97-5.17V76.81z"/><path class="cls-5" d="m243.48 77.34-8.05 4.65v13.34l8.04-4.65.01-13.34zM243.48 77.34l-8 4.65Z"/><path class="cls-3" d="m235.09 85.72 8.72-5.03v.93l-8.72 5.04v-.94zM235.09 91.36l8.72-5.03v.94l-8.72 5.04v-.95z"/><path class="cls-3" d="M239.86 79.38v13.61l-.82.45V79.67l.82-.29zM234.72 122.76v3.71l12.54-7.24V100.7l-12.54 7.24v14.82z"/><path class="cls-4" d="m246.55 101.93-2.15 1.24-8.97 5.18v16.89l11.12-6.42v-16.89z"/><path class="cls-3" d="m244.4 103.17-.92.54-8.05 4.64v14.41l8.97-5.18v-14.41z"/><path class="cls-5" d="m243.48 103.71-8.05 4.64v13.34l8.04-4.65.01-13.33zM243.48 103.71l-8 4.64Z"/><path class="cls-3" d="m235.09 112.08 8.72-5.03v.94l-8.72 5.03v-.94zM235.09 117.73l8.72-5.03v.94l-8.72 5.03v-.94z"/><path class="cls-3" d="M239.86 105.74v13.62l-.82.44v-13.77l.82-.29zM234.72 149.12v3.71l12.54-7.24v-18.53l-12.54 7.24v14.82z"/><path class="cls-4" d="m246.55 128.29-2.15 1.25-8.97 5.18v16.88l11.12-6.42v-16.89z"/><path class="cls-3" d="m244.4 129.54-.92.53-8.05 4.65v14.4l8.97-5.18v-14.4z"/><path class="cls-5" d="m243.48 130.07-8.05 4.65v13.33l8.04-4.64.01-13.34zM243.48 130.07l-8 4.65Z"/><path class="cls-3" d="m235.09 138.44 8.72-5.03v.94l-8.72 5.03v-.94zM235.09 144.09l8.72-5.03v.94l-8.72 5.03v-.94z"/><path class="cls-3" d="M239.86 132.1v13.62l-.82.44v-13.77l.82-.29zM253.16 85.76v3.71l12.54-7.24V63.7l-12.54 7.24v14.82z"/><path class="cls-4" d="m264.99 64.94-2.15 1.24-8.97 5.18v16.89l11.12-6.42V64.94z"/><path class="cls-3" d="m262.84 66.18-.92.53-8.05 4.65v14.4l8.97-5.18v-14.4z"/><path class="cls-5" d="m261.92 66.71-8.05 4.65v13.33l8.05-4.64V66.71zM261.92 66.71l-8.05 4.65Z"/><path class="cls-3" d="m253.54 75.08 8.71-5.03v.94l-8.71 5.03v-.94zM253.53 80.73l8.72-5.03v.94l-8.71 5.03-.01-.94z"/><path class="cls-3" d="M258.3 68.74v13.62l-.81.44V69.03l.81-.29zM253.16 112.13v3.71l12.54-7.24V90.06l-12.54 7.25v14.82z"/><path class="cls-4" d="m264.99 91.3-2.15 1.24-8.97 5.18v16.89l11.12-6.42V91.3z"/><path class="cls-3" d="m262.84 92.54-.92.54-8.05 4.64v14.41l8.97-5.18V92.54z"/><path class="cls-5" d="m261.92 93.08-8.05 4.64v13.34l8.05-4.65V93.08zM261.92 93.08l-8.05 4.64Z"/><path class="cls-3" d="m253.54 101.45 8.71-5.03v.94l-8.71 5.03v-.94zM253.53 107.1l8.72-5.04v.94l-8.71 5.04-.01-.94z"/><path class="cls-3" d="M258.3 95.11v13.61l-.81.45V95.4l.81-.29z"/><g><path class="cls-3" d="M253.16 138.49v3.71l12.54-7.24v-18.53l-12.54 7.24v14.82z"/><path class="cls-4" d="m264.99 117.66-2.15 1.24-8.97 5.18v16.89l11.12-6.42v-16.89z"/><path class="cls-3" d="m262.84 118.9-.92.54-8.05 4.64v14.41l8.97-5.18V118.9z"/><path class="cls-5" d="m261.92 119.44-8.05 4.64v13.34l8.05-4.64v-13.34zM261.92 119.44l-8.05 4.64Z"/><path class="cls-3" d="m253.54 127.81 8.71-5.03v.94l-8.71 5.03v-.94zM253.53 133.46l8.72-5.03v.94l-8.71 5.03-.01-.94z"/><path class="cls-3" d="M258.3 121.47v13.62l-.81.44v-13.77l.81-.29z"/></g><g><path class="cls-3" d="m271.6 75.13.01 3.71 12.53-7.24V53.07l-12.54 7.24v14.82z"/><path class="cls-4" d="m283.43 54.3-2.14 1.25-8.98 5.18v16.88l11.12-6.42V54.3z"/><path class="cls-3" d="m281.29 55.55-.93.53-8.05 4.65v14.4l8.97-5.18.01-14.4z"/><path class="cls-5" d="m280.36 56.08-8.05 4.64v13.34l8.05-4.64V56.08zM280.36 56.08l-8 4.64Z"/><path class="cls-3" d="m271.98 64.45 8.71-5.03v.94l-8.71 5.03v-.94zM271.98 70.1l8.71-5.03v.94l-8.71 5.03v-.94z"/><path class="cls-3" d="M276.74 58.11v13.62l-.81.44V58.4l.81-.29z"/><g><path class="cls-3" d="m271.6 101.49.01 3.72 12.53-7.24V79.43l-12.54 7.25v14.81z"/><path class="cls-4" d="m283.43 80.67-2.14 1.24-8.98 5.18v16.89l11.12-6.42V80.67z"/><path class="cls-3" d="m281.29 81.91-.93.53-8.05 4.65v14.4l8.97-5.18.01-14.4z"/><path class="cls-5" d="m280.36 82.44-8.05 4.65v13.34l8.05-4.65V82.44zM280.36 82.44l-8 4.65Z"/><path class="cls-3" d="m271.98 90.81 8.71-5.03v.94l-8.71 5.03v-.94zM271.98 96.47l8.71-5.04v.94l-8.71 5.04v-.94z"/><path class="cls-3" d="M276.74 84.47v13.62l-.81.44V84.77l.81-.3z"/></g><g><path class="cls-3" d="m271.6 127.86.01 3.71 12.53-7.24V105.8l-12.54 7.24v14.82z"/><path class="cls-4" d="m283.43 107.03-2.14 1.24-8.98 5.18v16.89l11.12-6.42v-16.89z"/><path class="cls-3" d="m281.29 108.27-.93.54-8.05 4.64v14.41l8.97-5.18.01-14.41z"/><path class="cls-5" d="m280.36 108.81-8.05 4.64v13.34l8.05-4.65v-13.33zM280.36 108.81l-8 4.64Z"/><path class="cls-3" d="m271.98 117.18 8.71-5.03v.94l-8.71 5.03v-.94zM271.98 122.83l8.71-5.03v.94l-8.71 5.03v-.94z"/><path class="cls-3" d="M276.74 110.84v13.61l-.81.45v-13.77l.81-.29z"/></g></g><g style="mix-blend-mode:multiply;opacity:.2"><path class="cls-4" d="m63.7 174.46-61.3-35.4v8.08l61.3 35.4L291.3 51.13v-8.08L63.7 174.46z"/></g><path class="cls-4" d="m2.4 228.72 61.3 35.39v-88.82L2.4 139.9v88.82z"/><path style="opacity:.4;mix-blend-mode:overlay;fill:#fff" d="M63.7 256.03 2.4 220.64v8.08l61.3 35.39 227.6-131.4v-8.08L63.7 256.03z"/><path class="cls-2" d="M0 132.79v6.28l63.7 36.78 230-132.79v-6.28L230 6.29 0 132.79z"/><path class="cls-3" d="M230 0 0 132.79l63.7 36.78 230-132.79L230 0z"/><path class="cls-8" d="M4.79 132.79 230 2.77l58.91 34.01L63.7 166.8 4.79 132.79z"/><path class="cls-9" d="m64.41 111.22 167.03-96.43 57.47 21.99L63.7 166.8l.71-55.58z"/><path class="cls-8" d="m64.41 111.22 167.03-96.43L230 2.77 4.79 132.79l59.62-21.57z"/><path class="cls-4" d="m247.33 209.89-49.89 28.81v-4.57l49.89-28.81v4.57z"/><path class="cls-10" d="m247.33 205.33-49.89 28.8-44.88-25.91 49.9-28.8 44.87 25.91z"/><path class="cls-4" d="m197.44 238.7-44.88-25.91v-4.57l44.88 25.91v4.57zM200.31 238.84v-1.53l-2.87-1.66v3.05l2.87 1.66 2.88 1.66v-1.52l-2.88-1.66z"/><path class="cls-4" d="m250.21 210.03-49.9 28.81v-1.53l49.9-28.8v1.52z"/><path class="cls-10" d="m247.33 206.85-49.89 28.8 2.87 1.67 49.9-28.81-2.88-1.66z"/><path class="cls-4" d="m253.09 213.21-49.9 28.81v-1.52l49.9-28.81v1.52z"/><path class="cls-10" d="m250.21 210.03-49.9 28.81 2.88 1.66 49.9-28.81-2.88-1.66z"/><path class="cls-2" d="m234.06 197.71-49.91 28.81v-29.65l49.91-28.81v29.65z"/><path class="cls-10" d="m218.47 159.08-49.91 28.82 15.59 8.97 49.91-28.81-15.59-8.98z"/><path class="cls-2" d="m218.44 159.1-49.88 28.8v-44.78l49.88-28.8v44.78z"/><path class="cls-4" d="m185.25 150.75 19.65-11.34v27.5l-19.65 11.35v-27.51zM168.56 187.9l-16-9.24v-44.78l16 9.24v44.78z"/><g><path class="cls-4" d="M224.57 164.05a3.35 3.35 0 0 0-.55-.39 6.55 6.55 0 0 0-5.94 0 3.07 3.07 0 0 0-.56.39h-.67v1.32a2.1 2.1 0 0 0 1.23 1.72 6.61 6.61 0 0 0 5.94 0 2.1 2.1 0 0 0 1.23-1.72v-1.32Z"/><path class="cls-10" d="M224 162.34c1.64.94 1.64 2.48 0 3.43a6.61 6.61 0 0 1-5.94 0c-1.64-1-1.64-2.49 0-3.43a6.55 6.55 0 0 1 5.94 0Z"/><path class="cls-3" d="M224 110.11a3.74 3.74 0 0 0-1.59-.77 5.65 5.65 0 0 0-2.77 0 3.64 3.64 0 0 0-1.58.77h-.57v53.53c0 .72.66 1.45 2 1.84a5.42 5.42 0 0 0 3.09 0c1.33-.39 2-1.12 2-1.84v-53.53Z"/><path class="cls-4" d="M211.16 171.78a3.35 3.35 0 0 0-.55-.39 6.57 6.57 0 0 0-6 0 3.35 3.35 0 0 0-.55.39h-.68v1.32a2.1 2.1 0 0 0 1.23 1.72 6.57 6.57 0 0 0 6 0 2.1 2.1 0 0 0 1.23-1.72v-1.32Z"/><path class="cls-10" d="M210.61 170.07c1.64.94 1.64 2.48 0 3.43a6.63 6.63 0 0 1-6 0c-1.64-.95-1.64-2.49 0-3.43a6.57 6.57 0 0 1 6 0Z"/><path class="cls-3" d="M210.6 117.84a3.75 3.75 0 0 0-1.58-.77 5.9 5.9 0 0 0-2.77 0 3.75 3.75 0 0 0-1.58.77h-.58v53.53c0 .72.67 1.45 2 1.84a5.42 5.42 0 0 0 3.09 0c1.33-.39 2-1.12 2-1.84v-53.53Z"/><path class="cls-4" d="M197.75 179.51a3.07 3.07 0 0 0-.56-.39 6.55 6.55 0 0 0-5.94 0 3.35 3.35 0 0 0-.55.39h-.7v1.32a2.09 2.09 0 0 0 1.23 1.72 6.61 6.61 0 0 0 5.94 0 2.09 2.09 0 0 0 1.23-1.72v-1.32Z"/><path class="cls-10" d="M197.19 177.8c1.64.94 1.64 2.48 0 3.43a6.55 6.55 0 0 1-5.94 0c-1.64-.95-1.64-2.49 0-3.43a6.55 6.55 0 0 1 5.94 0Z"/><path class="cls-3" d="M197.19 125.57a3.75 3.75 0 0 0-1.58-.77 5.9 5.9 0 0 0-2.77 0 3.8 3.8 0 0 0-1.59.77h-.57v53.53c0 .72.67 1.45 2 1.84a5.45 5.45 0 0 0 3.1 0c1.33-.39 2-1.12 2-1.84v-53.53Z"/><path class="cls-4" d="M184.33 187.24a3 3 0 0 0-.55-.39 6.55 6.55 0 0 0-5.94 0 3 3 0 0 0-.55.39h-.68v1.32a2.08 2.08 0 0 0 1.23 1.72 6.55 6.55 0 0 0 5.94 0 2.08 2.08 0 0 0 1.23-1.72v-1.32Z"/><path class="cls-10" d="M183.78 185.53c1.64.95 1.64 2.48 0 3.43a6.55 6.55 0 0 1-5.94 0c-1.64-1-1.64-2.48 0-3.43a6.55 6.55 0 0 1 5.94 0Z"/><path class="cls-3" d="M183.78 133.3a3.82 3.82 0 0 0-1.58-.77 5.9 5.9 0 0 0-2.77 0 3.8 3.8 0 0 0-1.59.77h-.57v53.53c0 .72.66 1.45 2 1.85a5.45 5.45 0 0 0 3.1 0c1.33-.4 2-1.13 2-1.85V133.3Z"/></g><path class="cls-4" d="m232.58 120.52-52.64 30.4v-4.56l52.64-30.4v4.56z"/><path style="fill:#f2f2f2" d="m232.58 115.96-52.64 30.39-31.39-18.11 52.65-30.4 31.38 18.12z"/><path class="cls-4" d="m179.94 150.92-31.39-18.12v-4.56l31.39 18.11v4.57z"/><path class="cls-2" d="m235.19 116.22-55.46 32.02v-6.63l55.46-32.02v6.63z"/><path class="cls-10" d="m235.19 109.59-55.46 32.02-33.78-19.51 6.62-3.84 48.84-24.93 33.78 16.26z"/><path class="cls-2" d="m179.73 148.24-33.78-19.5v-6.64l33.78 19.51v6.63z"/><path class="cls-3" d="m231.44 108.76-52.79 30.47 26.39-36.33 26.4 5.86z"/><path class="cls-10" d="m187.07 131.65 2.26-3.11 18.42-19.78 15.01.49 2.25.5-37.94 21.9z"/><path class="cls-4" d="m189.33 128.54 16.71-23.01 16.71 3.72-33.42 19.29z"/><path class="cls-8" d="m145.08 119.85 7.48-47.24 52.48 30.29-26.39 36.33-33.57-19.38z"/><g><path class="cls-3" d="m229.24 174.28 2.13-1.22v9.58l-10.63 6.14v-9.59l8.5-4.91z"/><path class="cls-4" d="M221.21 187.97v-8.51l8.26-4.77 1.43-.82v8.5l-9.69 5.6z"/><path class="cls-3" d="M221.21 186.32v-6.86l7.65-4.42.61-.35v6.86l-8.26 4.77z"/><path class="cls-5" d="M221.21 185.62v-6.16l7.65-4.42v6.16l-7.65 4.42zM221.21 185.62Z"/><path class="cls-3" d="M223.24 178.03v6.67l.54-.31v-6.67l-.54.31zM226.48 176.16v6.67l.54-.31v-6.67l-.54.31z"/><path class="cls-3" d="m221.18 182.87 7.81-4.51-.02-.61-7.9 4.55.11.57z"/></g><g><path class="cls-3" d="M75.33 187.81v3.71l12.54-7.24v-18.53l-12.54 7.24v14.82z"/><path class="cls-4" d="m87.16 166.98-2.14 1.24-8.98 5.18v16.89l11.12-6.42v-16.89z"/><path class="cls-3" d="m85.02 168.22-.93.54-8.05 4.64v14.41l8.97-5.18.01-14.41z"/><path class="cls-5" d="m84.09 168.76-8.05 4.64v13.34l8.05-4.64v-13.34zM84.09 168.76l-8 4.64Z"/><path class="cls-3" d="m75.71 177.13 8.71-5.03v.94l-8.71 5.03v-.94zM75.7 182.78l8.72-5.03v.94l-8.71 5.03-.01-.94z"/><path class="cls-3" d="M80.47 170.79v13.62l-.81.44v-13.77l.81-.29z"/><g><path class="cls-3" d="M75.33 214.17v3.72l12.54-7.24v-18.54l-12.54 7.24v14.82z"/><path class="cls-4" d="m87.16 193.35-2.14 1.24-8.98 5.18v16.89l11.12-6.42v-16.89z"/><path class="cls-3" d="m85.02 194.59-.93.53-8.05 4.65v14.4l8.97-5.18.01-14.4z"/><path class="cls-5" d="m84.09 195.12-8.05 4.65v13.33l8.05-4.64v-13.34zM84.09 195.12l-8 4.65Z"/><path class="cls-3" d="m75.71 203.5 8.71-5.04v.94l-8.71 5.03v-.93zM75.7 209.14l8.72-5.03v.94l-8.71 5.04-.01-.95z"/><path class="cls-3" d="M80.47 197.15v13.62l-.81.44v-13.77l.81-.29z"/></g><g><path class="cls-3" d="M75.33 240.54v3.71l12.54-7.24v-18.54l-12.54 7.25v14.82z"/><path class="cls-4" d="m87.16 219.71-2.14 1.24-8.98 5.18v16.89l11.12-6.42v-16.89z"/><path class="cls-3" d="m85.02 220.95-.93.54-8.05 4.64v14.41l8.97-5.18.01-14.41z"/><path class="cls-5" d="m84.09 221.49-8.05 4.64v13.34l8.05-4.65v-13.33zM84.09 221.49l-8 4.64Z"/><path class="cls-3" d="m75.71 229.86 8.71-5.03v.94l-8.71 5.03v-.94zM75.7 235.51l8.72-5.04v.95l-8.71 5.03-.01-.94z"/><path class="cls-3" d="M80.47 223.52v13.61l-.81.45v-13.77l.81-.29z"/></g><g><path class="cls-3" d="m93.77 177.18.01 3.71 12.53-7.24v-18.53l-12.54 7.24v14.82z"/><path class="cls-4" d="m105.6 156.35-2.14 1.24-8.98 5.18v16.89l11.12-6.42v-16.89z"/><path class="cls-3" d="m103.46 157.59-.93.54-8.05 4.64v14.41l8.97-5.18.01-14.41z"/><path class="cls-5" d="m102.53 158.13-8.05 4.64v13.34l8.05-4.65v-13.33zM102.53 158.13l-8 4.64Z"/><path class="cls-3" d="m94.15 166.5 8.71-5.03v.94l-8.71 5.03v-.94zM94.15 172.15l8.71-5.03v.94l-8.71 5.03v-.94z"/><path class="cls-3" d="M98.91 160.16v13.62l-.81.44v-13.77l.81-.29z"/><g><path class="cls-3" d="m93.77 203.54.01 3.71 12.53-7.24v-18.53l-12.54 7.24v14.82z"/><path class="cls-4" d="m105.6 182.71-2.14 1.25-8.98 5.17v16.89l11.12-6.42v-16.89z"/><path class="cls-3" d="m103.46 183.96-.93.53-8.05 4.64v14.41l8.97-5.18.01-14.4z"/><path class="cls-5" d="m102.53 184.49-8.05 4.64v13.34l8.05-4.64v-13.34zM102.53 184.49l-8 4.65Z"/><path class="cls-3" d="m94.15 192.86 8.71-5.03v.94l-8.71 5.03v-.94zM94.15 198.51l8.71-5.03v.94l-8.71 5.03v-.94z"/><path class="cls-3" d="M98.91 186.52v13.62l-.81.44v-13.77l.81-.29z"/></g><g><path class="cls-3" d="m93.77 229.9.01 3.72 12.53-7.24v-18.54l-12.54 7.25v14.81z"/><path class="cls-4" d="m105.6 209.08-2.14 1.24-8.98 5.18v16.89l11.12-6.42v-16.89z"/><path class="cls-3" d="m103.46 210.32-.93.53-8.05 4.65v14.4l8.97-5.18.01-14.4z"/><path class="cls-5" d="m102.53 210.85-8.05 4.65v13.34l8.05-4.65v-13.34zM102.53 210.85l-8 4.65Z"/><path class="cls-3" d="m94.15 219.23 8.71-5.04v.94l-8.71 5.03v-.93zM94.15 224.88l8.71-5.04v.94l-8.71 5.04v-.94z"/><path class="cls-3" d="M98.91 212.88v13.62l-.81.44v-13.76l.81-.3z"/></g></g><g><path class="cls-3" d="m112.21 166.54.01 3.72 12.53-7.24v-18.54l-12.53 7.25-.01 14.81z"/><path class="cls-4" d="m124.05 145.72-2.15 1.24-8.97 5.18-.01 14.4.01 2.49 11.11-6.42.01-16.89z"/><path class="cls-3" d="m121.9 146.96-.93.54-8.04 4.64-.01 13.34v1.06l8.97-5.17.01-14.41z"/><path class="cls-5" d="m120.97 147.5-8.04 4.64-.01 13.34 8.05-4.65V147.5zM121 147.5l-8 4.64Z"/><path class="cls-3" d="m112.59 155.87 8.71-5.03.01.94-8.72 5.03v-.94zM112.59 161.52l8.71-5.03.01.94-8.72 5.03v-.94z"/><path class="cls-3" d="m117.35 149.53.01 13.61-.82.45v-13.77l.81-.29z"/><g><path class="cls-3" d="m112.21 192.91.01 3.71 12.53-7.24v-18.53l-12.53 7.24-.01 14.82z"/><path class="cls-4" d="m124.05 172.08-2.15 1.24-8.97 5.18-.01 14.41.01 2.48 11.11-6.42.01-16.89z"/><path class="cls-3" d="m121.9 173.32-.93.54-8.04 4.64-.01 13.34v1.07l8.97-5.18.01-14.41z"/><path class="cls-5" d="m120.97 173.86-8.04 4.64-.01 13.34 8.05-4.65v-13.33zM121 173.86l-8 4.64Z"/><path class="cls-3" d="m112.59 182.23 8.71-5.03.01.94-8.72 5.03v-.94zM112.59 187.88l8.71-5.03.01.94-8.72 5.03v-.94z"/><path class="cls-3" d="m117.35 175.89.01 13.62-.82.44v-13.77l.81-.29z"/></g><g><path class="cls-3" d="m112.21 219.27.01 3.72 12.53-7.25v-18.53l-12.53 7.25-.01 14.81z"/><path class="cls-4" d="m124.05 198.45-2.15 1.24-8.97 5.18-.01 14.4.01 2.48 11.11-6.41.01-16.89z"/><path class="cls-3" d="m121.9 199.69-.93.53-8.04 4.65-.01 13.34v1.06l8.97-5.18.01-14.4z"/><path class="cls-5" d="m120.97 200.22-8.04 4.65-.01 13.34 8.05-4.65v-13.34zM121 200.22l-8 4.65Z"/><path class="cls-3" d="m112.59 208.59 8.71-5.03.01.94-8.72 5.03v-.94zM112.59 214.24l8.71-5.03.01.94-8.72 5.03v-.94z"/><path class="cls-3" d="m117.35 202.25.01 13.62-.82.44v-13.77l.81-.29z"/></g></g><g><path class="cls-3" d="m130.65 155.91.01 3.72 12.53-7.24.01-18.54-12.54 7.25-.01 14.81z"/><path class="cls-4" d="m142.49 135.09-2.15 1.24-8.97 5.18v16.89l11.12-6.42v-16.89z"/><path class="cls-3" d="m140.34 136.33-.93.53-8.04 4.65-.01 13.34v1.06l8.98-5.18v-14.4z"/><path class="cls-5" d="m139.41 136.86-8.04 4.65v13.34l8.04-4.65v-13.34zM139.41 136.86l-8 4.65Z"/><path class="cls-3" d="m131.03 145.24 8.72-5.04v.94l-8.72 5.03v-.93zM131.03 150.88l8.72-5.03v.94l-8.72 5.03v-.94z"/><path class="cls-3" d="M135.8 138.9v13.61l-.82.45v-13.77l.82-.29z"/><g><path class="cls-3" d="m130.65 182.28.01 3.71 12.53-7.24.01-18.53-12.54 7.24-.01 14.82z"/><path class="cls-4" d="m142.49 161.45-2.15 1.24-8.97 5.18v16.89l11.12-6.42v-16.89z"/><path class="cls-3" d="m140.34 162.69-.93.54-8.04 4.64-.01 13.34v1.07l8.98-5.18v-14.41z"/><path class="cls-5" d="m139.41 163.23-8.04 4.64v13.34l8.04-4.65v-13.33zM139.41 163.23l-8 4.64Z"/><path class="cls-3" d="m131.03 171.6 8.72-5.03v.94l-8.72 5.03v-.94zM131.03 177.25l8.72-5.03v.94l-8.72 5.03v-.94z"/><path class="cls-3" d="M135.8 165.26v13.62l-.82.44v-13.77l.82-.29z"/></g><g><path class="cls-3" d="m130.65 208.64.01 3.71 12.53-7.24.01-18.53-12.54 7.24-.01 14.82z"/><path class="cls-4" d="m142.49 187.81-2.15 1.25-8.97 5.18v16.88l11.12-6.42v-16.89z"/><path class="cls-3" d="m140.34 189.06-.93.53-8.04 4.65-.01 13.33v1.07l8.98-5.18v-14.4z"/><path class="cls-5" d="m139.41 189.59-8.04 4.64v13.34l8.04-4.64v-13.34zM139.41 189.59l-8 4.64Z"/><path class="cls-3" d="m131.03 197.96 8.72-5.03v.94l-8.72 5.03v-.94zM131.03 203.61l8.72-5.03v.94l-8.72 5.03v-.94z"/><path class="cls-3" d="M135.8 191.62v13.62l-.82.44v-13.77l.82-.29z"/></g></g></g><path class="cls-3" d="m195.71 193.67 2.13-1.23v9.59l-10.63 6.13.01-9.59 8.49-4.9z"/><path class="cls-4" d="M187.69 207.35v-8.5l8.26-4.78 1.42-.82v8.5l-9.68 5.6z"/><path class="cls-3" d="M187.69 205.71v-6.86l7.65-4.42.61-.36v6.87l-8.26 4.77z"/><path class="cls-5" d="M187.69 205v-6.15l7.65-4.42v6.15l-7.65 4.42zM187.69 205Z"/><path class="cls-3" d="M189.71 197.42v6.66l.54-.31v-6.66l-.54.31zM192.95 195.55v6.66l.54-.31v-6.66l-.54.31z"/><path class="cls-3" d="m187.65 202.25 7.81-4.51-.01-.61-7.9 4.56.1.56z"/><path class="cls-4" d="m184.15 226.52-31.59-18.24v-29.65l31.59 18.24v29.65zM202.93 215.62l13.28-7.66v-25.89l-13.28 7.67v25.88z"/><path class="cls-10" d="M214.46 207.22v-22.4l-9.79 5.65v22.4l9.79-5.65z"/><path class="cls-4" d="M213.68 192.24v-5.68l-3.65 2.11v5.67l3.65-2.1zM209.1 194.88v-5.67l-3.65 2.1v5.68l3.65-2.11zM213.68 199.22v-5.67l-3.65 2.11v5.67l3.65-2.11zM209.1 201.87v-5.68l-3.65 2.11v5.68l3.65-2.11zM213.68 206.21v-5.67l-3.65 2.11v5.67l3.65-2.11zM209.1 208.85v-5.67l-3.65 2.11v5.67l3.65-2.11z"/><path class="cls-9" d="m197.84 89.36-45.28-16.75 52.48 30.29 26.4 5.85-33.6-19.39z"/><g><path class="cls-3" d="m50.91 187.23-.01 3.71-12.53-7.24-.01-18.54 12.54 7.25.01 14.82z"/><path class="cls-4" d="m39.07 166.4 2.15 1.24 8.97 5.18.01 14.41-.01 2.48-11.12-6.42V166.4z"/><path class="cls-3" d="m41.22 167.64.93.54 8.04 4.64.01 13.34v1.07l-8.98-5.18v-14.41z"/><path class="cls-5" d="m42.15 168.18 8.04 4.64.01 13.34-8.05-4.65v-13.33zM42.14 168.18l8 4.64Z"/><path class="cls-3" d="m50.53 176.55-8.72-5.03v.94l8.72 5.03v-.94zM50.53 182.2l-8.72-5.03v.94l8.72 5.03v-.94z"/><path class="cls-3" d="M45.76 170.21v13.61l.82.45V170.5l-.82-.29z"/><g><path class="cls-3" d="m50.91 213.59-.01 3.71-12.53-7.24-.01-18.53 12.54 7.24.01 14.82z"/><path class="cls-4" d="m39.07 192.76 2.15 1.24 8.97 5.18.01 14.41-.01 2.48-11.12-6.42v-16.89z"/><path class="cls-3" d="m41.22 194 .93.54 8.04 4.64.01 13.34v1.07l-8.98-5.18V194z"/><path class="cls-5" d="m42.15 194.54 8.04 4.64.01 13.34-8.05-4.64v-13.34zM42.14 194.54l8 4.64Z"/><path class="cls-3" d="m50.53 202.91-8.72-5.03v.94l8.72 5.03v-.94zM50.53 208.56l-8.72-5.03v.94l8.72 5.03v-.94z"/><path class="cls-3" d="M45.76 196.57v13.62l.82.44v-13.77l-.82-.29z"/></g><g><path class="cls-3" d="m50.91 239.95-.01 3.72-12.53-7.24-.01-18.54 12.54 7.25.01 14.81z"/><path class="cls-4" d="m39.07 219.13 2.15 1.24 8.97 5.18.01 14.4-.01 2.49-11.12-6.42v-16.89z"/><path class="cls-3" d="m41.22 220.37.93.53 8.04 4.65.01 13.34v1.06l-8.98-5.18v-14.4z"/><path class="cls-5" d="m42.15 220.9 8.04 4.65.01 13.34-8.05-4.65V220.9zM42.14 220.9l8 4.65Z"/><path class="cls-3" d="m50.53 229.28-8.72-5.04v.94l8.72 5.03v-.93zM50.53 234.92l-8.72-5.03v.94l8.72 5.04v-.95z"/><path class="cls-3" d="M45.76 222.93v13.62l.82.44v-13.77l-.82-.29z"/></g><g><path class="cls-3" d="M26.66 173.28V177l-12.54-7.24v-18.54l12.54 7.25v14.81z"/><path class="cls-4" d="m14.83 152.46 2.15 1.24 8.97 5.18v16.89l-11.12-6.42v-16.89z"/><path class="cls-3" d="m16.98 153.7.92.53 8.05 4.65v14.4l-8.97-5.18v-14.4z"/><path class="cls-5" d="m17.9 154.23 8.05 4.65v13.34l-8.05-4.65v-13.34zM17.9 154.23l8.1 4.65Z"/><path class="cls-3" d="m26.28 162.61-8.71-5.04v.94l8.71 5.04v-.94zM26.29 168.26l-8.72-5.04v.94l8.71 5.04.01-.94z"/><path class="cls-3" d="M21.52 156.27v13.61l.81.45v-13.77l-.81-.29z"/><g><path class="cls-3" d="M26.66 199.65v3.71l-12.54-7.24v-18.53l12.54 7.24v14.82z"/><path class="cls-4" d="m14.83 178.82 2.15 1.24 8.97 5.18v16.89l-11.12-6.42v-16.89z"/><path class="cls-3" d="m16.98 180.06.92.54 8.05 4.64v14.41l-8.97-5.18v-14.41z"/><path class="cls-5" d="m17.9 180.6 8.05 4.64v13.34l-8.05-4.64V180.6zM17.9 180.6l8.1 4.64Z"/><path class="cls-3" d="m26.28 188.97-8.71-5.03v.94l8.71 5.03v-.94zM26.29 194.62l-8.72-5.03v.94l8.71 5.03.01-.94z"/><path class="cls-3" d="M21.52 182.63v13.62l.81.44v-13.77l-.81-.29z"/></g><g><path class="cls-3" d="M26.66 226.01v3.71l-12.54-7.24v-18.53l12.54 7.24v14.82z"/><path class="cls-4" d="m14.83 205.19 2.15 1.24 8.97 5.18v16.89l-11.12-6.43v-16.88z"/><path class="cls-3" d="m16.98 206.43.92.53 8.05 4.65v14.4l-8.97-5.18v-14.4z"/><path class="cls-5" d="m17.9 206.96 8.05 4.65v13.33l-8.05-4.64v-13.34zM17.9 207l8.1 4.61Z"/><path class="cls-3" d="m26.28 215.33-8.71-5.03v.94l8.71 5.03v-.94zM26.29 220.98l-8.72-5.03v.94l8.71 5.03.01-.94z"/><path class="cls-3" d="M21.52 208.99v13.62l.81.44v-13.77l-.81-.29z"/></g></g></g><g><path class="cls-8" d="m87.62 134.56.19-13.68 6.86 3.92-7.05 9.76z"/><path class="cls-9" d="m101.72 126.41-13.91-5.53 6.86 3.92 7.05 1.61z"/><path class="cls-3" d="m101.73 126.37-14.11 8.14 7.05-9.71 7.06 1.57z"/><path class="cls-4" d="m101.73 126.37-14.11 8.14 7.05-9.71 7.06 1.57z"/><path class="cls-5" d="m95.18 126.14 3.28.73-6.56 3.79 3.28-4.52z"/></g><g><path class="cls-8" d="m118.31 117.03.19-13.68 6.87 3.93-7.06 9.75z"/><path class="cls-9" d="m132.42 108.88-13.92-5.53 6.87 3.93 7.05 1.6z"/><path class="cls-3" d="m132.42 108.84-14.11 8.15 7.06-9.71 7.05 1.56z"/><path class="cls-4" d="m132.42 108.84-14.11 8.15 7.06-9.71 7.05 1.56z"/><path class="cls-5" d="m125.88 108.62 3.28.72-6.57 3.8 3.29-4.52z"/></g><g><path class="cls-8" d="m201.42 70.16.19-13.68 6.86 3.93-7.05 9.75z"/><path class="cls-9" d="m215.52 62.01-13.91-5.53 6.86 3.93 7.05 1.6z"/><path class="cls-3" d="m215.53 61.97-14.11 8.15 7.05-9.71 7.06 1.56z"/><path class="cls-4" d="m215.53 61.97-14.11 8.15 7.05-9.71 7.06 1.56z"/><path class="cls-5" d="m208.98 61.74 3.28.73-6.56 3.79 3.28-4.52z"/></g><g><path class="cls-8" d="m232.12 52.64.18-13.69 6.87 3.93-7.05 9.76z"/><path class="cls-9" d="m246.22 44.48-13.92-5.53 6.87 3.93 7.05 1.6z"/><path class="cls-3" d="m246.22 44.45-14.1 8.14 7.05-9.71 7.05 1.57z"/><path class="cls-4" d="m246.22 44.45-14.1 8.14 7.05-9.71 7.05 1.57z"/><path class="cls-5" d="m239.68 44.22 3.28.73-6.56 3.79 3.28-4.52z"/></g></g><g id="celebratingStudents"><g class="studentHat"><path class="cls-12" d="m349.68 149.28-3.61 2.33a2.92 2.92 0 0 0-1.1 2.77 9.26 9.26 0 0 0 4.53 7.06 3 3 0 0 0 3 .15l3.62-2.32Z"/><path class="cls-13" d="M357.9 156c.13 2.67-1.69 3.84-4.07 2.62a9.26 9.26 0 0 1-4.53-7.06c-.13-2.68 1.7-3.85 4.07-2.62a9.26 9.26 0 0 1 4.53 7.06Z"/><path d="m358.67 162.44-10.26-5.29-.54-11.53.29-.19 9.97 5.48.83 11.35-.29.18z"/><path class="cls-12" d="m358.96 162.26-10.26-5.3-.54-11.53 10.25 5.3.55 11.53z"/><path class="cls-14" d="M359 165.69c-.51-.31-.92-.55-2.29-2.63a9.39 9.39 0 0 1-2.48-4.71 20.18 20.18 0 0 1-.57-4.62.16.16 0 0 1 .31-.06 18.88 18.88 0 0 0 .55 4.45 9.48 9.48 0 0 0 2.41 4.7 8.7 8.7 0 0 1 3.13 1.44.45.45 0 0 1 .14.43 1.41 1.41 0 0 1-.75 1 .44.44 0 0 1-.45 0Z"/></g><g class="celebratingStudent"><path d="M329.48 266.26c1 .39 1.83 2 .22 4-1 1.16-2.47 2-3 3.52-.38 1-.25 3.09-1.78 4.94a4.09 4.09 0 0 1-3.77 1.62c-.95-.3-1-1.44-.92-2.4.42-5.07 2-4 3.2-7.51 2.14-6.38-.61-4.22 4.19-5.66.12 0 .61-.26.73-.21s.09.32.1.49c.11 1.03.6 1.04 1.03 1.21ZM352.87 272.34a15 15 0 0 0 1.12 1.47c.95.67 2.26 1.65 1 3.95-.4.73-1.65 2-2 2.75-1.11 2.1-1.5 5.2-5.07 6.57-3.33 1.28-4.29-1.62-2.39-4.25 2.72-3.76 2.73-4.64 3.11-6.79a9.12 9.12 0 0 0-.13-4.32c.56-.16 1.74-.06 2.28-.24s1.38-2.47 1.79-2.42-.09 2.83.29 3.28Z"/><path class="cls-15" d="M354.32 271.07s-2.95 5-5.83 4.05l-4.95-17.53 6.2-3.27s4.88 7.84 4.58 16.75ZM330.77 265.08s-4.06 4.19-6.62 2.55l-.64-18.2 6.8-1.7s2.87 8.77.46 17.35Z"/><path class="cls-16" d="m331.94 174.64 1.13-2.74a1.15 1.15 0 0 1 .83-1.3 11 11 0 0 0 2.56-1.3 10.87 10.87 0 0 1 2.3-1.13c.74-.36.47-.95-.22-1a2.56 2.56 0 0 0-1.32.38c-.51.38-1.54.7-1.51-.38a6 6 0 0 1 .65-2.24l1.43-2c.39-.63-.09-1-.68-.57 0 0-2.1 2.19-2.29 2.54h-.19a24.74 24.74 0 0 1 1-2.87c.37-.68-.19-1-.77-.38a9.08 9.08 0 0 0-1.51 3.19h-.24s.39-2.37.36-2.69c0-.66-.53-.76-.81-.06a11.67 11.67 0 0 0-.75 3.23l-.29.3a5.68 5.68 0 0 1 0-1.56c.08-.5-.33-.56-.58 0a8.57 8.57 0 0 0-.39 2.4 7.07 7.07 0 0 0-.65 3.84l-1 2.95Z"/><path class="cls-12" d="M318.93 253.53a11.38 11.38 0 0 0 9.35 5.54c6.76.43 6.32 5 14.3 4.67.45 0 .89-.06 1.31-.1a16.83 16.83 0 0 0 10.66-5l-2.83-23.87s-2.49-12.76-1.67-18a38.67 38.67 0 0 1 5.12-10.06 8.56 8.56 0 0 0 .14-1.09 8.36 8.36 0 0 0-.76-4.29l-8.25-6.55s-6-1.41-8.46-1.83c-1.6 1.48-8.27 11-9.63 22.4-.65 5.36-1.87 12.94-4.53 17.9s-4.75 20.28-4.75 20.28Z"/><path class="cls-3" d="M347.37 194.59s2.53 1.14 2.3 2.87c-.44 3.37-6.3 3.16-6.3 3.16l-.85-3.37-3.1.35s1.88-6.6 7.95-3.01Z"/><path d="M347.59 181.72a5.74 5.74 0 0 1 3.21 0 5.4 5.4 0 0 1 4.65 5.53 7.43 7.43 0 0 1-3.88 6.72c-2.19 1.36-3.69.89-4.46 0-2.47-2.76-.47-5.88-.36-9.53.02-.51-1.21-1.97.84-2.72Z"/><path class="cls-16" d="m349.54 193.73-.79 3.46s-2.35 2.48-5.88.3c-1.76-1.08-1-2.19-1-2.19l.68-1.73c.13-.27-.11-.74-.27-1A2.79 2.79 0 0 1 342 190c.21-.43 2.15-5.14 3.24-5.9.62-.43 5.82-5 9.22 1.78 0 0 .94 4.52-2.16 6.66a5.41 5.41 0 0 1-2.76 1.19Z"/><path d="M350.77 191.11c.66-1.7.54-2.94.15-3.37-2.22-2.42-2.76-3.11-2.81-5.59a3.47 3.47 0 0 1 2.5-.06 6.85 6.85 0 0 1 3.24 1.85 5.31 5.31 0 0 1 1.3 3.15 6.64 6.64 0 0 1-.66 3.37 6.29 6.29 0 0 1-3.51 3.31c-.23.08-1.14.54-1.32.39-.56-.45.91-2.51 1.11-3.05Z"/><path class="cls-16" d="M351.47 190.54a.94.94 0 0 1 1 0 .69.69 0 0 1 .2.55 1.46 1.46 0 0 1-.18.57 2.55 2.55 0 0 1-1.69 1.24.7.7 0 0 1-.38 0c-.31-.09-.42-.48-.38-.8a2.33 2.33 0 0 1 1.43-1.56Z"/><path class="cls-12" d="M339.63 193.31s-5.74-4.88-7.9-8.83c0 0 1.52-10.64 1.34-12.58a8.56 8.56 0 0 1-4.18 1.26s-2.91 10-2.3 13.23 6.69 10.79 6.85 13.1 3.3.34 3.3.34Z"/><path class="cls-17" d="M343.89 263.64a16.83 16.83 0 0 0 10.66-5l-2.83-23.87s-2.49-12.76-1.67-18a38.67 38.67 0 0 1 5.12-10.06 8.56 8.56 0 0 0 .14-1.09l-4.18-2.82-6.94 8-2.81-.09-2 5.6c6.62 7.05 5.29 36.17 4.51 47.33Z"/><path class="cls-12" d="M352.05 201.36h2.5s2.92 2.36.3 6-5 6.74-5 6.74-3.21 3.91-6.47 3.48c0 0-1.65-.65-.35-4.53l2.26-1Z"/><path class="cls-16" d="M343.1 216.56a2.4 2.4 0 0 0 .24-3.39l-1.62-2.11-1.76-1.8-.66-.44c-.41-.33-.75.12-.58.49a2.65 2.65 0 0 0 .72 1.09 7.09 7.09 0 0 1 1.11 1.24l-2-.91c-.7-.29-1.12.56-.31 1.05l1.81 1.17-.07.32-2.46-.05c-1-.06-1 1-.18 1.06l2.17.49v.38s-1.62.2-2.24.21c-.91.12-.76 1 0 1l2.19-.09a6.63 6.63 0 0 1-2 .47c-.89.11-.71.95.16.84a13.17 13.17 0 0 0 2.62-.48 5.22 5.22 0 0 0 2.86-.54Z"/></g><g class="celebratingStudent"><path d="M293 170c.46.76 1.05 1.44 1.49 2.21a6.7 6.7 0 0 1 .81 4.09.71.71 0 0 1-.1.32.73.73 0 0 1-.24.22 49.45 49.45 0 0 1-5.33 2.85l-2 .94a1.06 1.06 0 0 1-.39.13c-.39 0-.63-.41-.75-.78-.54-1.78-.16-3.68-.14-5.54a15.48 15.48 0 0 1 .08-2.36 4.9 4.9 0 0 1 2.45-3.41c.4-.21.84-.37 1.25-.58a9.33 9.33 0 0 1 1-.5 1.45 1.45 0 0 1 .94-.09c.26.14.17.37.2.65A4.3 4.3 0 0 0 293 170Z"/><path class="cls-16" d="m309.17 160.9.19-2.74a1.08 1.08 0 0 0-.15-1.43 10.93 10.93 0 0 1-1.59-2.13 9.56 9.56 0 0 0-1.44-1.89c-.47-.61 0-1 .6-.74a2.36 2.36 0 0 1 .94.86c.27.52 1 1.22 1.41.31a5.62 5.62 0 0 0 .39-2.13l-.37-2.25c-.06-.69.51-.82.8-.19 0 0 .84 2.69.85 3.06h.18a21.36 21.36 0 0 0 .33-2.81c0-.71.58-.78.8 0a8.5 8.5 0 0 1-.07 3.27l.19.14s.65-2.13.81-2.39c.25-.55.75-.41.69.29a11 11 0 0 1-.7 3l.11.37a5.41 5.41 0 0 0 .63-1.31c.14-.45.5-.32.48.26a8.44 8.44 0 0 1-.67 2.15 6.61 6.61 0 0 1-1.06 3.46l-.42 2.94Z"/><path class="cls-12" d="m296.31 174 .53 3.74s.15 3.68 1.24 1.82a2.9 2.9 0 0 1 .46-.55 16 16 0 0 1 1.94-1.5c3.15-2.17 8.31-5.07 9.64-6.81v-.06c1.8-2.47 2.15-9.75 2.15-9.75a7.86 7.86 0 0 1-2.95-2.78c-.95 1.55-2.58 9.15-2.58 9.15-2.49 1.74-6.89 4.51-9.11 5.89-.79.57-1.32.85-1.32.85Z"/><path class="cls-17" d="m297.92 176.85.62 2.2.86 3.12 2.93-1.67a23 23 0 0 0-1.85-2.95c3.15-2.17 8.31-5.07 9.64-6.81v-.06l-10.71 5.4Z"/><path class="cls-16" d="m274.53 172.81-1.37-2.05a20.13 20.13 0 0 0 0-3.29 8.35 8.35 0 0 1 0-2.86c.42-1.06-.46-1.44-.81-.5 0 0-.33 1.65-.38 2.08s-.5.53-.65.19a7.18 7.18 0 0 1-1.24-3.58c0-.93-.56-1.07-.69-.19 0 0-.31-.08-.38.64a20.6 20.6 0 0 0 .62 4.85c.31.72 2.1 4 2.1 4l1.63 2.77ZM303.6 240a8.11 8.11 0 0 0 .19 2.41c.57 2.13 2.51 3.64 3.25 5.71a5.52 5.52 0 0 1-.13 4 1.55 1.55 0 0 1-.42.62 1.46 1.46 0 0 1-1.43 0 5.72 5.72 0 0 1-2.71-2.84 29.23 29.23 0 0 1-1.34-3.78 1.77 1.77 0 0 0-.25-.54 2.19 2.19 0 0 0-.34-.34 6.17 6.17 0 0 1-1.35-1.62 2.46 2.46 0 0 1-.24-2.53c.22-.32.55-.55.8-.85a3.93 3.93 0 0 0 .58-2.35c0-1.06.05-2.12.08-3.18 0-.08 2 0 2.2 0a6.66 6.66 0 0 0 2.12-.42c.08.36-.21.89-.3 1.26s-.25 1-.35 1.49a21.27 21.27 0 0 0-.36 2.96Z"/><path class="cls-16" d="M296.52 243.52a34 34 0 0 0-1.3 7 11.55 11.55 0 0 0 1.59 6.82c.36.57.8 1.09 1.17 1.66a9.18 9.18 0 0 1 1.39 3.52 1 1 0 0 1-.11.81 1 1 0 0 1-.71.27 6.37 6.37 0 0 1-4.21-1.34 8.59 8.59 0 0 1-2.68-3.58 7.18 7.18 0 0 0-1-2c-.31-.35-.71-.63-1-1a2.48 2.48 0 0 1-.26-2.26 4.2 4.2 0 0 1 1.42-1.86 1.29 1.29 0 0 0 .41-.43 1.16 1.16 0 0 0 .08-.45c.12-3.13.09-6.27-.08-9.4a13.11 13.11 0 0 1 .29-4.72 27.07 27.07 0 0 1 3.7-.34c.57 0 2.89-.28 3.1.33.13.38-.28 1.25-.38 1.63l-.48 1.85c-.32 1.1-.63 2.29-.94 3.49Z"/><path class="cls-12" d="M272.25 174.5s4.29 7.39 6.51 8.22l6.32 2.36s.5 9-.28 11.85c-3.55 18.67-1.53 27.09-5.36 35.62.47.6 6.42 3.44 11.35 4.79 2.76.76 5.19 1 6.18.23 2.74-2.3 7.39.76 10.25-1.15s7-8.48 7-8.48-7.32-25.68-7.79-29.42c-1.32-10.58-2.63-15.1-4.13-18a23 23 0 0 0-1.85-2.95l-1-1.47a30.84 30.84 0 0 1-1.78-2.89l-6.57 1-5 4.29-4.76.3-7.89-7.53ZM298.83 241.14c.22-.32.55-.55.8-.85l.11-.17c-.14 3.28 1.44 2.72 3.67 7.36 1.12 2.34 3.64 1.6 2.88-.8a7.62 7.62 0 0 1 .75 1.48 5.52 5.52 0 0 1-.13 4 1.55 1.55 0 0 1-.42.62 1.46 1.46 0 0 1-1.43 0 5.72 5.72 0 0 1-2.71-2.84 29.23 29.23 0 0 1-1.34-3.78 1.77 1.77 0 0 0-.25-.54 2.19 2.19 0 0 0-.34-.34 6.17 6.17 0 0 1-1.35-1.62 2.46 2.46 0 0 1-.24-2.52ZM289.38 253.33a3.08 3.08 0 0 1 1.42-1.86c.55 4.37 4.67 9.12 6.29 9.22 1.26.07 1.14-.7 1.18-1.25a9.23 9.23 0 0 1 1.1 3.05 1 1 0 0 1-.11.81 1 1 0 0 1-.71.27 6.37 6.37 0 0 1-4.21-1.34 8.59 8.59 0 0 1-2.68-3.58 7.18 7.18 0 0 0-1-2c-.31-.35-.71-.63-1-1a2.48 2.48 0 0 1-.28-2.32Z"/><path class="cls-17" d="M284.8 196.93c-3.55 18.67-1.53 27.09-5.36 35.62.47.6 6.42 3.44 11.35 4.79-6.16-7.37-.68-38.15-3-53.25l-9-1.37 6.32 2.36s.47 8.98-.31 11.85Z"/><path class="cls-3" d="M291.84 173.73c3.26-1.51 4.93 1.9 3.51 3.39l-2.36-1-.55 2.7s-5-.58-3.48-3.74 2.88-1.35 2.88-1.35Z"/><path class="cls-16" d="m288 172.5 1.19 3.35a3.67 3.67 0 0 0 4.21.09 1.67 1.67 0 0 0 .8-1.7l-.65-2.29c-.12-.25.47-1 .63-1.25a2.57 2.57 0 0 0 .32-2.43c-.19-.4-2-4.78-3-5.48-.58-.4-5.41-4.61-8.56 1.65 0 0-.88 4.19 2 6.18a31.7 31.7 0 0 0 3.06 1.88Z"/><path d="M281.51 165.16c.3-2.28 2.17-4.71 4.27-4.77 3.25-1.63 8.45 1.49 7.58 5.42-1.56-2.91-4.1-2.74-6.41-3.41a7 7 0 0 1-.44 2.09c-1 4.37 2.57 5.41 1.52 10.81-.3 1.55-.61 3-1.9 3.93 0-1.09 0-2.64-.76-3.42a6.8 6.8 0 0 1-.66 1.08c-.97-3.12-4.02-5.37-3.2-11.73Z"/></g><g class="studentHat"><path class="cls-14" d="M278.22 145.52c.53-.14 1-.23 2.77-1.68a8.82 8.82 0 0 0 3.53-3.45 18.58 18.58 0 0 0 1.82-3.92.15.15 0 1 0-.26-.14 17.61 17.61 0 0 1-1.75 3.78 8.8 8.8 0 0 1-3.47 3.46 8.2 8.2 0 0 0-3.17.38.43.43 0 0 0-.25.34 1.29 1.29 0 0 0 .38 1.1.43.43 0 0 0 .4.13Z"/><path d="m286.08 145.84-4.89-9.53 5.8-9 .32.01 4.57 9.52-5.49 9.01-.31-.01z"/><path class="cls-12" d="m286.39 145.85-4.89-9.53 5.81-9 4.89 9.53-5.81 9z"/><path d="m291.9 131.82-4-.2a2.74 2.74 0 0 0-2.32 1.5 8.61 8.61 0 0 0-.39 7.78 2.74 2.74 0 0 0 2.17 1.72l4 .2Z" style="fill:#322852"/><path d="M293.71 141.33c-1.34 2.08-3.35 2-4.49-.23a8.59 8.59 0 0 1 .39-7.77c1.35-2.09 3.36-2 4.49.22a8.61 8.61 0 0 1-.39 7.78Z"/></g><g class="celebratingStudent"><path class="cls-12" d="M199.27 228.2c-.82-2.13-1.43-12.79-1.43-12.79l2-1.22s1.94 4.85 3.19 9.08c1.57 5.42.83 5.68.83 6.87a98.94 98.94 0 0 1-3.38 13.47c-1.23-2.15-.18-.3-4.69-8.26Z"/><path class="cls-16" d="m171.74 241.88.61-1.55s1.79-2 1.78-3.1a17.53 17.53 0 0 1 .23-3c.23-.77-.37-.91-.63-.28l.24-2.78c0-.68-.49-.72-.63-.15l-.65 3.81-.32-.1.43-4.11c0-.67-.5-.73-.66-.08l-.55 4.16h-.15l.34-3.85c0-.63-.45-.59-.61 0l-.56 3.87h-.2l.15-3c0-.61-.44-.57-.55 0l-.38 3.14a12 12 0 0 0 0 4.54l.12.73.53 1.67Z"/><path class="cls-12" d="m168.72 244.78 1.1-4.5 2.53.05-.07 2.07c3.83-3.19 2-1.72 8-6.41 2.09 1.12 2.72 3.34 2.86 5.94-1.86 1.12-9.83 5.76-12 5.71-2.53-.05-2.42-2.86-2.42-2.86Z"/><path class="cls-17" d="m175.72 239.62-3.44 5.15v-2.37l3.44-2.78z"/><path class="cls-12" d="M186.19 298.71a2.56 2.56 0 0 1 1.19 1.64c.13.94.35 2.7-.59 3.43s-2.7.91-3.31 1.17a6.23 6.23 0 0 0-2 1.87c-.56.79-1.72 1.12-3.39 1.07s-3.31-.76-3-2.31 3.58-3.72 6.15-4.84 4.95-2.03 4.95-2.03ZM202.49 306.14l1.57 1.9s.89.52.69 2.65a7.94 7.94 0 0 0-.39 1.83c0 .66.08 2.87-1.22 4a4.06 4.06 0 0 1-4 1.21c-1.8-.37-2.38-1.16-1.91-2.72s2.9-4.55 2.9-4.55Z"/><path class="cls-16" d="M185.2 295.75s2.17 3.49 1.43 4.53a19 19 0 0 1-4.61 4.18 3.28 3.28 0 0 1-3 .25s-1.29-.52-1.43-1 1.7-1.27 2.56-2c2.25-2 3.22-2.24 1.7-5.93ZM202.43 304.71l1.63 3.33s.73.65 0 3.56-1.63 3.44-1.63 3.44-3.76-.14-4.29-1a25.54 25.54 0 0 1 1.41-2.25c.85-1.24.57-4.34.57-4.34Z"/><path class="cls-16" d="M178.62 289.28c1.56 1.94 3 5.48 4 8.64 1 1.87 3.42 4.15 3.78.24-1.52-5.87 2.16-9.18-1.91-13l4-11.72c.36.95 1.53 11.76 1.16 15.42s1.45 5.14 1.45 5.14a47.62 47.62 0 0 1 9 13.41 12.21 12.21 0 0 0 1 2.31c2.64.51 2.92-1.7 2.92-1.7s-1.23-4-2.11-8.32c-.19-.93-.34-1.85-.45-2.81a9.3 9.3 0 0 0-4.87-7.58c.11-.92 3.41-12.53 3.41-12.53 3.3-9.09 0-14 0-14l-.34-.7-3.4-7a12.19 12.19 0 0 0-13.18 4.7c-.27.34-.52.69-.77 1.07-5.64 8.58-5.09 23-5.09 23-.01 2.76-.16 3.48 1.4 5.43Z"/><path class="cls-12" d="M175.34 292.4c7.1 5.48 11.14 1.9 15.86 3.25a35.94 35.94 0 0 0 3.9.92c4 .68 7.16.12 11.42-3a87.27 87.27 0 0 0-4.45-25.11s-3.18-13.8-1.7-23.71c.06-.39.1-.79.13-1.17a13.74 13.74 0 0 0-.32-4.05 13.59 13.59 0 0 0-3.33-6.31 45.42 45.42 0 0 1-7.42.38c-6.43.06-9.17 2.36-9.17 2.36 2.85 8.16.2 25.25-1.81 31.38-.27 1.33-3.89 14.09-3.11 25.06Z"/><path class="cls-17" d="M195.1 296.57c4 .68 7.16.12 11.42-3a87.27 87.27 0 0 0-4.45-25.11s-3.18-13.8-1.7-23.71c.06-.39.1-.79.13-1.17 0 0 2.08-6.79 3.06-11.66.13-.64.24-1.25.32-1.8-.07.16-.39 1-.82 2.08-1.09 2.77-2.88 7.31-2.89 7.31-.24.8-.48 1.55-.7 2.27-1.94 6.12-3.35 9.67-2.45 14.79 3.34 18.96 1.83 34.43-1.92 40Z"/><path class="cls-3" d="M190.42 231.62c.06.07 2.29.95 2.77 1.93s-.11 5.83.37 6.54-2.36-1.94-2.36-1.94-1 3.34-2.7 3.78-3.34-3.75-3.34-3.75l-1.46 2.72v-7Z"/><path d="M191.32 234.39c.14-.08 3.56-7.51-.23-10.63s-7-3.48-9.47-2-5.53 9.16.15 12.26 9.55.37 9.55.37Z"/><path class="cls-16" d="M190.76 232s1.92 6.53-2.26 9.89a10.58 10.58 0 0 1-2.53-9.24c1.16-5.56 4.79-.65 4.79-.65Z"/><path class="cls-19" d="M189.84 231.34s.46 8.49-2.68 8.75c0 0-3.76-1.57-4.4-10.09s7.92-6.17 7.08 1.34Z"/><path class="cls-16" d="M190 230s0 7.48-4.2 7.73c0 0-4.52-.7-5.38-9s10.66-6.08 9.58 1.27Z"/><path d="M191.85 235.86s-2.13.3-3.43-2.29c0 0-6.89-1.77-8.1-4.21 0 0-1.68-7.93 3.42-7.21s8.54 4.52 7.9 8.41.21 5.3.21 5.3Z"/><path class="cls-16" d="m198.85 216.58-1.22-1.13s-2.5-1-3-2a18.45 18.45 0 0 0-1.5-2.57c-.55-.59-.07-1 .43-.53l-1.38-2.35c-.33-.59.12-.85.49-.41l2.26 3.14.24-.23L193 207c-.32-.58.13-.88.56-.36l2.32 3.49.12-.13-2-3.33c-.3-.55.15-.71.54-.27l2.21 3.24.18-.09-1.44-2.6c-.26-.55.15-.7.5-.22l1.72 2.65a12 12 0 0 1 2 4.1l.22.71.25 1.73Z"/><g><path class="cls-12" d="m178.92 221.25.66 3.85a2.66 2.66 0 0 0 1.92 1.9 8.42 8.42 0 0 0 7.52-1.28 2.71 2.71 0 0 0 1.19-2.44l-.66-3.84Z"/><path class="cls-13" d="M187.49 216.77c2.28.85 2.61 2.79.74 4.34a8.4 8.4 0 0 1-7.51 1.28c-2.28-.84-2.61-2.78-.74-4.34a8.43 8.43 0 0 1 7.51-1.28Z"/><path d="m193.12 218.41-8.07 6.69-9.84-3.64-.05-.3 8.12-6.4 9.79 3.34.05.31z"/><path class="cls-12" d="m193.07 218.1-8.07 6.7-9.84-3.64 8.07-6.7 9.84 3.64z"/><path class="cls-14" d="M190.47 223.65a.14.14 0 0 1-.18-.09l-.81-2.64a.43.43 0 0 0-.32-.29l-5.1-1.79a.13.13 0 0 1-.11-.17.14.14 0 0 1 .17-.11l5.1 1.79a.7.7 0 0 1 .53.48l.81 2.64a.14.14 0 0 1-.09.18Z"/><path class="cls-14" d="M189.92 221.86c-.16 2.64 0 3.06.24 3.59a.4.4 0 0 0 .32.24 1.27 1.27 0 0 0 1.1-.33.43.43 0 0 0 .13-.39c-.23-.74-.3-.97-1.79-3.11Z"/></g></g><g class="celebratingStudent"><path class="cls-12" d="M215.94 259.86a5 5 0 0 0 3.05 2.87c2.07.7 9.17-.77 12.39-1.49l1.61-.37s5.12.09 3.76-5.45c0 0-1.94-3.31-7.23-1.84l-7.75 2.1s-2.57-7.18-2.85-8.54-2.75-.84-2.75-.84-1.75.89-1.62 2 1.18 7.22 1 9a5.52 5.52 0 0 0 .39 2.56Z"/><path class="cls-16" d="m210.12 242.45.95-.21 1.5 1a6.51 6.51 0 0 0 2.8 3.63l.11 1s.17.66 1.76.4 1.29-1.45 1.29-1.45a2 2 0 0 1-.32-1.1 15.19 15.19 0 0 0-1.54-3.24l-1.14-.59-.91-.53-.65-.11-.85-.37-1.82.07a.68.68 0 0 0-.62.47l-.84.3c-.6.13-.36.75.28.73Z"/><path d="m211.07 242.24 1.5 1a6.51 6.51 0 0 0 2.8 3.63s.47-.13-.11-1-1.91-1.62-1.56-2.32.67-.44.67-.44l-.59-.76Z" style="fill:#d7664d"/><path class="cls-17" d="M215.94 259.86a5 5 0 0 0 3.05 2.87c2.07.7 9.17-.77 12.39-1.49l-1.11-3s-10.82 5-14.32 1.58Z"/><path d="m238.79 330.23 1.75 4.86a5.13 5.13 0 0 1 .47 4.21s-.42 1.24-4.48 1.54a12 12 0 0 0-4 1.07c-1.8.91-8.22.9-8.27-2.14s6.17-3.58 7.14-3.87 3.74-1.84 4.07-3.64 3.32-2.03 3.32-2.03Z"/><path class="cls-15" d="M227.67 311.55a14.36 14.36 0 0 0 .68 2.19c.14.33.23.5.23.5 1.58 4.49 2.65 8.14 3.36 11 1.57 6.39 1.45 9.09 1.45 9.09a5.09 5.09 0 0 0 4.19 1.7c3 0 3.15-1.36 3.15-1.36a83.11 83.11 0 0 0-.38-10.87 34.6 34.6 0 0 0-4.18-13.74L238 301l1.32-6.7 1.16-5.88-.05-.46s-9.36-5.31-11-1.46c-.93 2.23-1.51 7.14-1.85 11.79-.26 3.41-.38 6.67-.4 8.62a20.12 20.12 0 0 0 .49 4.64Z"/><path class="cls-21" d="m227.67 311.55.68 2.19 3.65 11.62c-.22-1-2.16-10.06-2.23-14.21-.1-4.38 8.23-10.15 8.23-10.15l2-6.94-.71.24-11.7 4c-.26 3.41-.38 6.67-.4 8.62a20.12 20.12 0 0 0 .48 4.63Z"/><path d="m224.51 321.91 1.73 5.42s1.47 1.22.94 4.18a5.44 5.44 0 0 1-2.59 1.95 16.25 16.25 0 0 0-4 2.53s-6.06 3.72-8.67.29c-2.17-2.86 6.77-6.69 7.44-7.76s1-5.06 1-5.06Z"/><path class="cls-15" d="M213.73 310.41c3 5 5.57 17.26 5.57 17.26s.7 1.63 3.79 1.2 3.35-2 3.35-2c-.08-1.23-.19-2.4-.34-3.51-1.41-11.63-5.49-17-5.49-17s14.08-5.73 20.79-9.41a9.68 9.68 0 0 0 4.81-5.24 8 8 0 0 0 .32-4.4s-5.38-3-10.25-1.36-19.42 11.89-22 15.07-3.52 4.38-.55 9.39Z"/><path class="cls-21" d="M226.1 323.37c-1.41-11.63-5.49-17-5.49-17s14.08-5.73 20.79-9.41a9.68 9.68 0 0 0 4.81-5.24l-3.8.42s-16.36 11.55-25.89 13.64c4.72 3.96 7.33 10.56 9.58 17.59Z"/><path class="cls-12" d="M213.39 313.74c2.78 4.68 10.55-.71 13.56 2.18a14 14 0 0 0 10.13 4c5.13-.09 9.21-2.85 8.85-4.27-1.24-4.85-3-13 .86-20.45 3.52-6.82 1.82-13.15 6.44-20.78a9.66 9.66 0 0 0 .89-2c.13-.41.23-.82.34-1.19 1.72-6-1.33-7.48-1.33-7.48a59.25 59.25 0 0 1-8.57-5.77c-3.54-3-11.43-4.77-11.93-4.72-5.11 3.61-2.1 19.74-2.43 22.69-.6 5.12-2.18 6.44-4.59 10.54s-7.42 9.12-11.9 14.78c-2.71 3.43-2.36 5.28-.32 12.47Z"/><path class="cls-3" d="m243.91 256.77 1.29 1.69s1.1 5.62-6 7.5l-1.45-2.56-2.6.8s-1.6-10.37 8.76-7.43Z"/><path class="cls-16" d="M237.15 262.17c.76 4.25 6.47-1 7.09-2.71s-.61-5.51-.61-5.51a44.76 44.76 0 0 0-5.33 4.66 5.14 5.14 0 0 0-1 1.33c-.3.82-.43.69-.15 2.23Z"/><path class="cls-19" d="M237.15 262.17c.31 1.13 3.91.46 4.9-3.64l-3.75.08c-1 1.44-1.3 2.25-1.15 3.56Z"/><path class="cls-16" d="M242.23 257.46a3.47 3.47 0 0 1-2.3 3.2c-2.27.67-4.28 1.47-4.94-.32s-2.45-5.67-1.59-8.42 7.58-5.81 9.39-1.78a7.67 7.67 0 0 1-.56 7.32Z"/><path d="m244.4 256.81-1 .69-1.13-1.25-1.19.13a3.79 3.79 0 0 0-1.94-1c-1.14-.16-1-1.38-2-1.61s-5.26-.66-4.68-3.26 5.67-5 9.52-4 3 6.77 3 6.77Z"/><path class="cls-16" d="M242 254.49a1.1 1.1 0 0 1 1.18-.05 1.18 1.18 0 0 1 .48.89 2.46 2.46 0 0 1-.2 1 2.27 2.27 0 0 1-.6.91.94.94 0 0 1-1.59-.62 2.33 2.33 0 0 1 .73-2.13Z"/><path class="cls-17" d="M237.08 319.93c5.13-.09 9.21-2.85 8.85-4.27-1.24-4.85-3-13 .86-20.45 3.52-6.82 1.82-13.15 6.44-20.78a9.66 9.66 0 0 0 .89-2l-7.4-4.15c.64 13.53-3.15 23.83-5.53 26.83-11.09 14.03.96 19.33-4.11 24.82Z"/><path class="cls-16" d="m260.42 287.36-.3 5 .08.72s.9.86.19 4.79l.35 1.91.26.33c.36.35 0 .91-.59.45l-.54-.63c.31.48-.18.74-.59.53l-1.16-1a.94.94 0 0 1-.7-.4l-.65-.93s-.93-.5-1-1.12 0-3.67.56-4.41a6.64 6.64 0 0 1 .69-.88l.68-4.68Z"/><path class="cls-12" d="M253.13 263.72s9.52 5.86 11.77 11.89c0 0 .71 1.25-.56 5.83s-2.84 10.4-2.84 10.4a4.28 4.28 0 0 1-4.74-.37s.51-5.7.36-7a46.42 46.42 0 0 1 .86-6.58l-11-7.57c-4.54-4.01 1.23-9.13 6.15-6.6Z"/><g><path class="cls-12" d="m233.09 245.27.37 3.8a2.59 2.59 0 0 0 1.74 2 8.23 8.23 0 0 0 7.42-.73 2.61 2.61 0 0 0 1.32-2.29l-.37-3.8Z"/><path class="cls-13" d="M241.75 241.51c2.16 1 2.35 2.89.42 4.28a8.24 8.24 0 0 1-7.41.72c-2.17-1-2.35-2.89-.42-4.28a8.21 8.21 0 0 1 7.41-.72Z"/><path d="m247.12 243.49-8.33 5.97-9.34-4.24-.03-.3 8.37-5.66 9.3 3.93.03.3z"/><path class="cls-12" d="m247.09 243.19-8.33 5.97-9.34-4.24 8.34-5.96 9.33 4.23z"/><path class="cls-14" d="M244.17 248.42a.14.14 0 0 1-.17-.11l-.61-2.62a.4.4 0 0 0-.28-.31l-4.85-2.09a.15.15 0 1 1 .08-.28l4.84 2.1a.7.7 0 0 1 .49.51l.61 2.63a.14.14 0 0 1-.11.17Z"/><path class="cls-14" d="M243.77 246.64c-.35 2.56-.2 3 0 3.51a.37.37 0 0 0 .29.26 1.25 1.25 0 0 0 1.09-.25.42.42 0 0 0 .16-.37c-.2-.74-.24-.98-1.54-3.15Z"/></g></g><g class="celebratingStudent"><path d="m144.7 328.09-1.16 4.07s-2.18 4 0 5.29 8.43-.83 8.43-.83 7.65-1.94 5.76-5.91c0 0-1.23-1.94-4.51-1s-4.6-1.26-4.6-1.26Z"/><path class="cls-15" d="M156 310.26c-2 4.43-4.7 15-5.72 19a.34.34 0 0 0 0 .09c-.05.16-.08.29-.11.41-.14.53-.23.88-.27 1-1.57 4.72-6.4 1.46-6.4 1.46-1.06-12 5.53-24.42 5.53-24.42l-1.76-6.05-1.53-5.29v8.28c0 4.49-2.5 15.71-4.08 22.35-.43 1.82-.8 3.29-1 4.18l-.23.95-4.88-.78q-.1-.5-.18-1.05c-1.21-8.86 3.21-28.51 3.21-28.51l-2.32-9.11a20.63 20.63 0 0 1 1.84-15.5l16.76 11.23 1.17.78s2.43 15.65-.03 20.98Z"/><path d="M136.22 341a1.33 1.33 0 0 1-1.65-1.4c0-1.75-.82-9.6 2-10.23s4.07 1.07 4.41 3.15.87 7 .87 7a1.08 1.08 0 0 1-1.16 1.07c-1.13-.04-4.47.41-4.47.41Z"/><path class="cls-16" d="m148.62 253.77 2.13-4.75s-1.26-3.83.88-6.1 6.68-2.91 6.68-2.91 2.33 3.15 2.18 5.23-1 7.08-2.23 7.47-1.49.49-1.84 1.55a16.69 16.69 0 0 0-.14 4ZM171.71 276.52l2.74-.95a5.53 5.53 0 0 0 1.6-1.06 2 2 0 0 1 1.74-1.09 5.1 5.1 0 0 0 2.08-.32c.39-.21 1.24.08.59.78l2.54-.24 1 .21.31.27c.27.32.12.63-.35.66h-.74l-1.5.24.12.29 1.31-.12.65.15.51.4c.32.43.15.85-.28.69l-.56-.27H182l-.14.36h1.29l.72.36.24.42c.18.38 0 .74-.41.49l-.56-.4-1.31-.05-.48.49.06.09.87.28.42.55c.29.48-.07.9-.5.56l-.44-.37s-3.17.46-4.19 0-4.29.22-4.41.17-1.45-2.59-1.45-2.59ZM126.47 236.33l1.12-3.16a48.54 48.54 0 0 1 .29-5.42 7 7 0 0 1 .63-1.56c.26-.52.58-.65.86-.33l.8-1.05c.35-.29.83-.36 1-.05l.59-.65c.52-.62 1-.62.89 0l-1 3.2 1.66-3.22c.46-.83 1-.69.83.06a40.54 40.54 0 0 0-1.4 4.5 7.62 7.62 0 0 0 0 1.49 3.14 3.14 0 0 0 1.09-1.2c.36-.76 1.38-1.49 1.67-1.09s-.8 1.35-.87 1.86-.44 2.21-1.24 2.65-2.6 1.41-2.84 2.94a28.12 28.12 0 0 1-.61 2.8Z"/><path class="cls-12" d="M145.08 253.63c-.19 0-3.48-3.42-3.48-3.42s-8.82-2.64-12.6-2.59c0 0 2.13-11.58 2-12.16 0 0-2.62-1.22-4.56-.59 0 0-5.81 12.6-4.6 17.59 0 0 3.56 4.49 15.15 6.28v6.07c0 6.06 8.06-10.17 8.06-10.17Z"/><path class="cls-12" d="M127.13 309.06s8.52 6.58 16 8.33a18 18 0 0 0 4.8.33c4.07-.19 8.88-1.4 11.6-3.93 1-6.37 1.76-10.16-2.3-26.88 0 0-1.82-8.18-.71-14.65 0-.09 0-.18.05-.26a15.11 15.11 0 0 1 .66-2.53c2.41-6.59 4.06-7.21 4.06-7.21s-5.23-5.13-9.88-7.49-7.85-4.33-9.8-4.56-4.2 7.36-4.65 15.83c-.96 17.44-4.5 24.36-9.83 43.02Z"/><path class="cls-3" d="M147.23 252.6a4.88 4.88 0 0 1 2.51-1.19c-.79 1.29 5.24 4 6.51 3.93 0 0 .09.8.57 3-6.11-2.99-8.5-4.79-9.59-5.74Z"/><path d="M149.66 250.91a3.17 3.17 0 0 0 2.45 2.18c2 .41 4 1.63 5.65-2.88l1.23-1.28 1.07-4s2.76-3.61-.25-6-7.07-1.24-9.86 1.86-1.26 7-.8 8.32a8.54 8.54 0 0 1 .51 1.8Z"/><path class="cls-16" d="M158.75 248.2c0-.23 0-.51-.18-.65a.47.47 0 0 0-.5 0 1.07 1.07 0 0 0-.36.4 3.32 3.32 0 0 0-.37 2.45.9.9 0 0 0 .53.72.71.71 0 0 0 .8-.47 1.78 1.78 0 0 0 0-1.07 6.39 6.39 0 0 1 .08-1.38Z"/><path class="cls-17" d="M146.24 317.39a15 15 0 0 1 1.67.33c4.07-.19 8.88-1.4 11.6-3.93 1-6.37 1.76-10.16-2.3-26.88 0 0-1.82-8.18-.71-14.65 0-.09 0-.18.05-.26l-1.55-3.7c-4.61 7.11 3.13 37.94-8.76 49.09Z"/><path class="cls-12" d="M155 268.3s.1 12 4.17 14.54 16-3.29 16-3.29.67-2.81-.68-4l-11.53 1s.51-12.36-1.65-14.33-6.31 6.08-6.31 6.08Z"/><g><path class="cls-12" d="m149.61 237.46-.05 4.09a2.8 2.8 0 0 0 1.63 2.32 8.8 8.8 0 0 0 8 .1 2.81 2.81 0 0 0 1.69-2.29v-4.09Z"/><path class="cls-13" d="M159.29 234.46c2.19 1.3 2.16 3.36-.06 4.61a8.82 8.82 0 0 1-8-.1c-2.19-1.3-2.16-3.36.06-4.61a8.82 8.82 0 0 1 8 .1Z"/><path d="m164.78 237.2-9.58 5.39-9.46-5.61.01-.33 9.58-5.06 9.45 5.29v.32z"/><path class="cls-12" d="m164.78 236.88-9.58 5.38-9.45-5.61 9.58-5.38 9.45 5.61z"/><path class="cls-14" d="M161.06 242.11a.16.16 0 0 1-.17-.13l-.34-2.87a.44.44 0 0 0-.27-.36l-4.92-2.81a.14.14 0 0 1-.08-.19.15.15 0 0 1 .19-.09l4.92 2.81a.74.74 0 0 1 .46.6l.34 2.87a.15.15 0 0 1-.13.17Z"/><path class="cls-14" d="M160.83 240.16c-.67 2.69-.55 3.15-.43 3.74a.43.43 0 0 0 .29.32 1.32 1.32 0 0 0 1.19-.14.42.42 0 0 0 .2-.38c-.08-.81-.08-1.06-1.25-3.54Z"/></g></g></g></g></g></g></svg>