<svg xmlns="http://www.w3.org/2000/svg" xmlns:xlink="http://www.w3.org/1999/xlink" width="500" zoomAndPan="magnify" viewBox="0 0 375 374.999991" height="500" preserveAspectRatio="xMidYMid meet" version="1.0">
    <defs>
        <clipPath id="id1">
            <path d="M 2.851562 2.851562 L 371.851562 2.851562 L 371.851562 371.851562 L 2.851562 371.851562 Z M 2.851562 2.851562 " clip-rule="nonzero" />
        </clipPath>
        <clipPath id="id2">
            <path d="M 282 205 L 323 205 L 323 297.179688 L 282 297.179688 Z M 282 205 " clip-rule="nonzero" />
        </clipPath>
    </defs>
    <g clip-path="url(#id1)">
        <path fill="#487600" d="M 187.351562 2.851562 C 85.457031 2.851562 2.851562 85.457031 2.851562 187.351562 C 2.851562 289.25 85.457031 371.851562 187.351562 371.851562 C 289.25 371.851562 371.851562 289.25 371.851562 187.351562 C 371.851562 85.457031 289.25 2.851562 187.351562 2.851562 " fill-opacity="1" fill-rule="nonzero" />
    </g>
    <path fill="#000000" d="M 90.507812 219.664062 C 90.214844 217.785156 89.878906 215.65625 88.773438 213.871094 C 86.390625 210.027344 82.558594 210.273438 79.152344 210.808594 C 74.984375 211.460938 71.476562 210.894531 67.039062 210.175781 L 66.839844 210.144531 C 66.6875 210.117188 66.542969 210.222656 66.519531 210.378906 C 66.515625 210.40625 66.519531 210.433594 66.523438 210.457031 L 64.609375 210.710938 C 64.601562 210.664062 64.589844 210.621094 64.558594 210.578125 C 63.949219 209.777344 62.992188 209.378906 61.871094 209.457031 C 60.371094 209.566406 58.886719 210.492188 58.175781 211.769531 C 56.613281 214.578125 55.777344 232.304688 56.066406 237.207031 C 56.179688 239.144531 56.1875 242.8125 56.195312 247.457031 C 56.230469 263.859375 56.289062 291.3125 61.183594 293.933594 C 62.988281 294.898438 68.417969 295.355469 74.410156 295.355469 C 81.722656 295.355469 89.867188 294.671875 93.265625 293.402344 C 94.003906 293.125 94.832031 292.769531 95.332031 292.058594 C 95.734375 291.488281 95.851562 290.785156 95.949219 290.21875 C 97 283.996094 96.636719 277.40625 96.339844 272.109375 C 95.464844 256.269531 93.558594 239.113281 90.507812 219.664062 Z M 90.507812 219.664062 " fill-opacity="1" fill-rule="nonzero" />
    <g clip-path="url(#id2)">
        <path fill="#000000" d="M 317.480469 206.53125 C 316.644531 205.820312 315.6875 205.5625 314.640625 205.769531 C 310.386719 206.617188 305.589844 209.113281 299.976562 213.40625 C 293.683594 218.21875 288.839844 224.8125 286.347656 231.972656 C 284.140625 238.304688 283.566406 245.152344 283.199219 251.078125 C 282.378906 264.421875 281.753906 277.535156 283.101562 291.242188 C 283.199219 292.242188 283.816406 293.140625 284.933594 293.90625 C 288.40625 296.292969 296.597656 297.171875 303.671875 297.171875 C 308.273438 297.171875 312.402344 296.800781 314.457031 296.226562 C 320.285156 294.601562 321.167969 289.507812 321.539062 284.863281 C 321.722656 282.589844 321.960938 267.78125 321.894531 262.855469 C 321.867188 261.027344 321.957031 258.09375 322.070312 254.382812 C 322.550781 238.351562 323.363281 211.523438 317.480469 206.53125 Z M 317.480469 206.53125 " fill-opacity="1" fill-rule="nonzero" />
    </g>
    <path fill="#bb0000" d="M 322.714844 145.027344 C 323.796875 143.765625 323.941406 142.019531 323.933594 140.324219 C 323.925781 139 323.863281 137.660156 323.742188 136.339844 C 323.671875 135.5625 323.5625 134.753906 323.046875 134.140625 C 322.589844 133.601562 321.929688 133.34375 321.234375 133.105469 C 321.011719 133.03125 320.722656 132.929688 320.371094 132.808594 C 307.34375 128.25 300.441406 127.480469 299.273438 130.460938 C 299.054688 131.015625 299.0625 131.625 299.089844 132.152344 C 299.175781 133.882812 299.460938 135.605469 299.933594 137.269531 C 300.023438 137.578125 300.128906 137.910156 300.238281 138.257812 C 300.578125 139.300781 300.957031 140.484375 300.960938 141.539062 C 300.960938 142.382812 300.722656 143.035156 300.226562 143.527344 C 299.710938 144.046875 298.964844 144.003906 298.179688 143.960938 C 297.902344 143.945312 297.613281 143.933594 297.328125 143.945312 C 292.957031 135.910156 289.0625 127.65625 285.269531 119.605469 C 282.21875 113.136719 279.0625 106.445312 275.6875 99.914062 C 275.449219 99.449219 275.167969 98.886719 274.847656 98.246094 C 271.597656 91.726562 264.832031 78.164062 257.722656 80.746094 C 256.277344 81.269531 255.308594 82.539062 254.375 83.761719 C 253.355469 85.09375 252.394531 86.351562 250.90625 86.628906 C 249.480469 86.898438 247.066406 86.5 244.933594 86.144531 C 243.734375 85.949219 242.597656 85.761719 241.710938 85.699219 C 240.429688 85.609375 239.152344 85.503906 237.875 85.398438 C 234.878906 85.148438 231.78125 84.890625 228.730469 84.890625 C 228.726562 84.890625 228.722656 84.890625 228.71875 84.890625 C 220.710938 84.378906 212.75 84.109375 203.261719 83.859375 C 187.585938 83.445312 170.511719 83.78125 151.0625 84.882812 C 148.585938 85.023438 146.023438 85.347656 143.3125 85.695312 C 138.566406 86.296875 133.65625 86.921875 129.28125 86.46875 C 127.605469 86.292969 126.003906 85.632812 124.453125 84.992188 C 121.574219 83.800781 118.597656 82.570312 115.195312 84.574219 C 111.441406 86.785156 109.367188 91.015625 107.535156 94.75 C 100.820312 108.4375 93.234375 121.789062 86.703125 133.046875 C 84.972656 136.023438 83.351562 139.0625 81.785156 142 C 81.738281 142.085938 81.691406 142.167969 81.648438 142.253906 C 81.15625 142.238281 80.652344 142.273438 80.183594 142.304688 C 79.792969 142.332031 79.421875 142.359375 79.105469 142.351562 C 77.949219 142.332031 77.300781 142.066406 77.121094 141.539062 C 77.023438 141.25 77.085938 140.921875 77.175781 140.519531 L 78.417969 135.035156 C 78.675781 133.894531 78.96875 132.597656 78.65625 131.34375 C 78.019531 128.804688 75.1875 127.527344 72.707031 127.570312 C 70.878906 127.605469 69.121094 128.179688 67.421875 128.734375 C 66.828125 128.929688 66.234375 129.125 65.636719 129.296875 C 64.632812 129.585938 63.585938 129.816406 62.574219 130.042969 C 60.453125 130.515625 58.257812 131.003906 56.292969 132.039062 C 53.425781 133.546875 50.882812 136.925781 51.824219 140.222656 C 52.832031 143.75 56.921875 145.113281 59.914062 145.832031 C 65.089844 147.078125 70.398438 147.933594 75.703125 148.375 C 75.90625 148.394531 76.585938 148.445312 77.484375 148.445312 C 77.738281 148.445312 78.011719 148.4375 78.296875 148.429688 C 75.277344 153.839844 72.058594 158.988281 67.816406 163.769531 C 62.503906 169.757812 58.699219 174.632812 58.144531 182.851562 C 57.117188 198.03125 57.355469 214.730469 58.898438 235.414062 C 59.273438 240.449219 59.769531 245.335938 61.679688 249.8125 C 66.253906 260.523438 78.078125 261.761719 88.507812 262.851562 C 89.578125 262.964844 90.632812 263.074219 91.664062 263.191406 C 102.804688 264.480469 114.183594 264.78125 125.105469 264.78125 C 127.480469 264.78125 129.835938 264.765625 132.164062 264.746094 C 163.097656 264.457031 194.121094 263.664062 220.773438 262.941406 C 233.273438 262.601562 245.976562 262.722656 258.261719 262.84375 C 269.746094 262.953125 281.621094 263.070312 293.265625 262.804688 C 297.46875 262.710938 301.816406 262.609375 305.859375 261.082031 C 317.71875 256.597656 317.972656 245.796875 318.21875 235.347656 C 318.261719 233.457031 318.308594 231.503906 318.425781 229.640625 C 319.257812 216.488281 320.117188 202.886719 320.664062 189.132812 C 320.773438 186.386719 320.886719 183.542969 320.335938 180.777344 C 319.472656 176.402344 316.582031 172.828125 313.785156 169.375 C 313.335938 168.8125 312.886719 168.261719 312.457031 167.710938 C 308.824219 163.097656 305.675781 158.183594 302.066406 152.226562 C 301.332031 151.019531 300.621094 149.800781 299.917969 148.578125 C 305.890625 148.273438 311.914062 147.738281 317.835938 146.976562 C 319.660156 146.742188 321.539062 146.398438 322.714844 145.027344 Z M 322.714844 145.027344 " fill-opacity="1" fill-rule="nonzero" />
    <path fill="#a6a6a6" d="M 285.585938 249.800781 C 285.335938 247.722656 282.953125 245.335938 281.210938 243.59375 C 280.800781 243.179688 280.425781 242.804688 280.125 242.484375 C 276.234375 238.261719 269.191406 232.46875 263.796875 230.046875 C 259.375 228.054688 254.5625 227.933594 249.90625 227.816406 C 248.800781 227.789062 247.699219 227.761719 246.601562 227.710938 C 242.90625 227.535156 210.382812 227.628906 178.929688 227.722656 C 153.839844 227.800781 130.140625 227.871094 125.09375 227.785156 C 111.011719 227.539062 105.976562 234.023438 98.335938 243.828125 C 97.738281 244.59375 97.222656 245.378906 96.808594 246.164062 C 96 247.703125 95.941406 249.125 96.640625 250.390625 C 98.773438 254.261719 107.253906 255.011719 108.210938 255.085938 C 118.78125 255.882812 130.132812 256.660156 139.949219 257.324219 C 144.375 257.625 148.902344 257.875 153.398438 258.070312 C 160.1875 258.363281 166.992188 258.480469 173.789062 258.480469 C 191.027344 258.480469 208.207031 257.699219 224.976562 256.9375 C 234.523438 256.503906 244.390625 256.054688 254.140625 255.757812 C 254.753906 255.738281 255.804688 255.742188 257.136719 255.746094 C 265.015625 255.777344 281.394531 255.847656 284.878906 251.929688 C 285.441406 251.296875 285.679688 250.578125 285.585938 249.800781 Z M 285.585938 249.800781 " fill-opacity="1" fill-rule="nonzero" />
    <path fill="#a6a6a6" d="M 183.871094 168.546875 L 183.910156 168.5625 C 185.273438 169.152344 186.6875 169.367188 188.105469 169.367188 C 190.160156 169.367188 192.21875 168.914062 194.125 168.492188 L 194.40625 168.429688 C 195.035156 168.289062 195.726562 167.425781 195.921875 167.132812 C 196.148438 166.789062 196.191406 166.402344 196.042969 166.015625 C 195.753906 165.261719 194.796875 164.710938 194.035156 164.515625 C 190.980469 163.742188 186.714844 163.351562 183.898438 164.566406 C 183.105469 164.910156 182.609375 165.671875 182.605469 166.558594 C 182.601562 167.441406 183.089844 168.203125 183.871094 168.546875 Z M 183.871094 168.546875 " fill-opacity="1" fill-rule="nonzero" />
    <path fill="#e4e4e4" d="M 261.519531 179.648438 C 259.523438 176.746094 254.261719 176.089844 248.878906 175.808594 C 241.976562 175.449219 236.402344 175.175781 231.335938 174.949219 C 217.867188 174.335938 206.710938 173.972656 196.226562 173.804688 C 170.183594 173.382812 147.519531 174.214844 126.945312 176.351562 C 120.464844 177.023438 113.832031 178.886719 113.765625 187.609375 C 113.742188 190.347656 114.695312 193.28125 116.59375 196.324219 C 120.6875 202.886719 127.886719 208.113281 136.871094 211.035156 C 145.140625 213.730469 153.8125 214.421875 161.949219 214.769531 C 164.378906 214.875 166.507812 214.980469 168.550781 215.085938 C 174.53125 215.390625 179.695312 215.652344 189.226562 215.652344 C 190.167969 215.652344 191.1875 215.652344 192.273438 215.65625 C 193.5 215.660156 194.808594 215.660156 196.1875 215.660156 C 208.257812 215.660156 225.390625 215.441406 235.007812 212.960938 C 243.824219 210.683594 252.105469 206.148438 257.730469 200.515625 C 262.90625 195.332031 266.300781 186.589844 261.519531 179.648438 Z M 261.519531 179.648438 " fill-opacity="1" fill-rule="nonzero" />
    <path fill="#ffffff" d="M 108.277344 174.996094 C 106.503906 174.511719 102.6875 173.757812 100.84375 173.449219 C 99.90625 173.292969 98.992188 173.136719 98.089844 172.984375 C 89.769531 171.574219 82.585938 170.355469 73.679688 170.789062 C 71.464844 170.894531 68.738281 171.273438 67.265625 173.257812 C 66.085938 174.847656 66.097656 176.917969 66.222656 179.074219 C 66.261719 179.796875 66.28125 180.566406 66.300781 181.359375 C 66.390625 185.066406 66.492188 189.265625 68.871094 192.0625 C 71.9375 195.667969 78.242188 195.835938 82.84375 195.957031 C 83.335938 195.96875 83.8125 195.980469 84.261719 196 C 85.296875 196.035156 86.429688 196.113281 87.625 196.195312 C 89.492188 196.324219 91.527344 196.46875 93.5625 196.46875 C 96.851562 196.46875 100.128906 196.097656 102.648438 194.714844 C 102.835938 194.609375 103.015625 194.488281 103.1875 194.359375 C 106.285156 192.03125 107.453125 187.9375 108.582031 183.980469 C 108.792969 183.234375 109.007812 182.492188 109.234375 181.757812 C 109.277344 181.613281 109.371094 181.335938 109.492188 180.992188 C 110.050781 179.398438 110.546875 177.929688 110.515625 177.425781 C 110.445312 176.15625 109.304688 175.277344 108.277344 174.996094 Z M 108.277344 174.996094 " fill-opacity="1" fill-rule="nonzero" />
    <path fill="#ffffff" d="M 310.851562 176.503906 L 310.800781 176.191406 C 309.988281 171.378906 308.222656 169.644531 303.8125 169.308594 C 299.40625 168.972656 295.097656 170.066406 290.929688 171.121094 C 288.863281 171.644531 286.894531 172 284.988281 172.34375 C 283.074219 172.6875 281.09375 173.042969 279.007812 173.570312 C 278.46875 173.707031 277.773438 173.847656 276.972656 174.011719 C 274.285156 174.554688 270.605469 175.300781 269.148438 176.710938 C 266.296875 179.472656 269.808594 185.957031 272.132812 190.25 C 272.6875 191.277344 273.167969 192.164062 273.453125 192.804688 C 273.996094 194.039062 274.675781 195.570312 275.980469 196.441406 C 277.03125 197.148438 278.328125 197.316406 279.566406 197.425781 C 281.617188 197.613281 283.683594 197.703125 285.757812 197.703125 C 292.710938 197.703125 299.71875 196.671875 306.324219 194.652344 C 313.546875 192.445312 311.859375 182.464844 310.851562 176.503906 Z M 310.851562 176.503906 " fill-opacity="1" fill-rule="nonzero" />
    <path fill="#bb0000" d="M 266.730469 186.015625 C 245.09375 184.433594 219.925781 184.796875 197.71875 185.121094 L 194.230469 185.171875 C 178.964844 185.386719 162.152344 185.726562 145.890625 186.050781 C 134.0625 186.289062 121.832031 186.53125 110.605469 186.722656 C 109.984375 186.734375 109.492188 187.246094 109.503906 187.863281 C 109.511719 188.476562 110.011719 188.96875 110.621094 188.96875 C 110.628906 188.96875 110.636719 188.96875 110.640625 188.96875 C 121.871094 188.777344 134.105469 188.53125 145.9375 188.292969 C 162.191406 187.96875 179.003906 187.632812 194.261719 187.414062 L 197.753906 187.363281 C 219.910156 187.042969 245.027344 186.679688 266.566406 188.253906 C 267.179688 188.285156 267.71875 187.832031 267.765625 187.214844 C 267.808594 186.597656 267.34375 186.058594 266.730469 186.015625 Z M 266.730469 186.015625 " fill-opacity="1" fill-rule="nonzero" />
    <path fill="#bb0000" d="M 261.203125 200.722656 C 261.199219 200.722656 261.195312 200.722656 261.191406 200.722656 C 234.550781 200.992188 206.828125 201.417969 188.261719 201.726562 L 181.570312 201.835938 C 161.347656 202.164062 140.429688 202.503906 118.855469 203.574219 C 118.234375 203.601562 117.761719 204.128906 117.789062 204.75 C 117.820312 205.347656 118.316406 205.816406 118.90625 205.816406 C 118.925781 205.816406 118.945312 205.816406 118.964844 205.8125 C 140.503906 204.746094 161.402344 204.40625 181.609375 204.078125 L 188.296875 203.96875 C 206.859375 203.660156 234.578125 203.238281 261.214844 202.96875 C 261.832031 202.960938 262.328125 202.453125 262.320312 201.832031 C 262.316406 201.21875 261.816406 200.722656 261.203125 200.722656 Z M 261.203125 200.722656 " fill-opacity="1" fill-rule="nonzero" />
    <path fill="#000000" d="M 314.539062 245.351562 C 314.453125 245.054688 314.140625 244.886719 313.84375 244.96875 C 309.777344 246.152344 295.003906 245.890625 290.234375 242.257812 C 287.878906 240.464844 285.597656 238.152344 283.066406 234.984375 C 275.867188 225.984375 266.765625 222.035156 252.636719 221.773438 C 242.664062 221.585938 232.507812 221.800781 222.6875 222.003906 C 218.175781 222.097656 213.511719 222.195312 208.929688 222.253906 L 120.53125 223.363281 C 114.957031 223.433594 107.320312 223.53125 101.90625 227.675781 C 99.355469 229.628906 97.507812 232.300781 95.71875 234.886719 C 94.125 237.191406 92.480469 239.574219 90.359375 241.378906 C 86.066406 245.039062 80.535156 245.867188 76.652344 245.914062 C 71.648438 245.96875 66.667969 244.871094 61.851562 243.800781 C 61.550781 243.734375 61.25 243.921875 61.183594 244.226562 C 61.117188 244.527344 61.304688 244.828125 61.609375 244.894531 C 66.355469 245.949219 71.257812 247.039062 76.242188 247.039062 C 76.382812 247.039062 76.527344 247.039062 76.667969 247.035156 C 80.734375 246.984375 86.539062 246.109375 91.085938 242.234375 C 93.316406 240.332031 95.007812 237.886719 96.640625 235.523438 C 98.378906 233.011719 100.175781 230.414062 102.585938 228.566406 C 107.324219 224.941406 113.523438 224.574219 120.546875 224.484375 L 208.945312 223.375 C 213.53125 223.316406 218.199219 223.21875 222.710938 223.125 C 232.523438 222.921875 242.667969 222.707031 252.617188 222.894531 C 266.378906 223.148438 275.222656 226.976562 282.195312 235.6875 C 284.785156 238.929688 287.125 241.300781 289.558594 243.152344 C 292.609375 245.476562 298.730469 246.277344 302.105469 246.550781 C 306.863281 246.933594 311.820312 246.726562 314.15625 246.046875 C 314.453125 245.960938 314.621094 245.648438 314.539062 245.351562 Z M 314.539062 245.351562 " fill-opacity="1" fill-rule="nonzero" />
    <path fill="#000000" d="M 189.929688 207.324219 C 191.628906 207.324219 193.316406 207.046875 194.875 206.449219 C 198.433594 205.09375 201.46875 201.929688 203.003906 197.992188 C 204.488281 194.175781 204.390625 190.085938 202.734375 186.769531 C 201.144531 183.582031 196.40625 179.742188 192.445312 179.367188 C 186.078125 178.769531 181.898438 179.496094 178.058594 185.054688 C 174.78125 189.796875 174.335938 195.5 176.871094 200.304688 C 179.136719 204.601562 184.609375 207.324219 189.929688 207.324219 Z M 189.929688 207.324219 " fill-opacity="1" fill-rule="nonzero" />
    <path fill="#000000" d="M 266.085938 172.777344 C 266.210938 172.777344 266.339844 172.734375 266.445312 172.644531 C 275.695312 164.808594 283.441406 155.496094 289.472656 144.96875 C 289.628906 144.699219 289.535156 144.355469 289.265625 144.203125 C 289 144.046875 288.65625 144.140625 288.503906 144.410156 C 282.539062 154.824219 274.871094 164.035156 265.722656 171.789062 C 265.488281 171.988281 265.457031 172.34375 265.65625 172.578125 C 265.765625 172.710938 265.925781 172.777344 266.085938 172.777344 Z M 266.085938 172.777344 " fill-opacity="1" fill-rule="nonzero" />
    <path fill="#000000" d="M 102.449219 157.519531 C 105.941406 161.832031 110.273438 166.527344 115.894531 168.671875 C 115.957031 168.699219 116.027344 168.710938 116.09375 168.710938 C 116.316406 168.710938 116.53125 168.574219 116.617188 168.347656 C 116.726562 168.058594 116.582031 167.734375 116.292969 167.625 C 110.933594 165.578125 106.890625 161.21875 103.316406 156.8125 C 100.609375 153.46875 98.027344 149.953125 95.652344 146.363281 C 95.480469 146.105469 95.136719 146.035156 94.878906 146.207031 C 94.621094 146.375 94.550781 146.726562 94.71875 146.984375 C 97.117188 150.605469 99.714844 154.148438 102.449219 157.519531 Z M 102.449219 157.519531 " fill-opacity="1" fill-rule="nonzero" />
    <path fill="#e4e4e4" d="M 309.183594 236.835938 C 308.65625 232.523438 307.871094 228.195312 306.84375 223.976562 C 306.53125 222.699219 306.101562 221.277344 304.914062 220.503906 C 303.046875 219.289062 297.097656 217.925781 293.871094 219.253906 C 292.730469 219.726562 292.007812 220.515625 291.785156 221.539062 C 291.570312 222.519531 291.828125 223.503906 292.109375 224.425781 C 293.402344 228.65625 295.101562 232.78125 297.167969 236.691406 C 298.277344 238.796875 299.609375 240.847656 301.828125 241.589844 C 302.515625 241.824219 303.222656 241.898438 303.917969 241.898438 C 304.652344 241.898438 305.375 241.816406 306.050781 241.734375 C 306.625 241.667969 307.339844 241.582031 307.945312 241.191406 C 309.414062 240.238281 309.355469 238.25 309.183594 236.835938 Z M 307.335938 240.25 C 306.953125 240.5 306.40625 240.5625 305.921875 240.621094 C 304.722656 240.761719 303.359375 240.925781 302.183594 240.527344 C 300.339844 239.910156 299.160156 238.066406 298.15625 236.167969 C 296.125 232.320312 294.453125 228.257812 293.179688 224.097656 C 292.933594 223.285156 292.722656 222.496094 292.878906 221.777344 C 293.023438 221.113281 293.488281 220.625 294.296875 220.292969 C 295.085938 219.96875 296.105469 219.832031 297.199219 219.832031 C 299.925781 219.832031 303.105469 220.667969 304.304688 221.445312 C 305.148438 221.996094 305.484375 223.128906 305.753906 224.242188 C 306.769531 228.417969 307.550781 232.703125 308.070312 236.972656 C 308.289062 238.742188 308.054688 239.785156 307.335938 240.25 Z M 307.335938 240.25 " fill-opacity="1" fill-rule="nonzero" />
    <path fill="#e4e4e4" d="M 81.015625 217.542969 C 77.050781 215.960938 73.882812 216.027344 71.605469 217.742188 C 67.289062 220.992188 67.152344 229.5625 67.792969 236.179688 C 67.894531 237.21875 68.046875 238.308594 68.675781 239.21875 C 69.328125 240.167969 70.410156 240.734375 71.714844 240.816406 C 71.820312 240.824219 71.925781 240.828125 72.035156 240.828125 C 73.113281 240.828125 74.207031 240.492188 75.078125 239.886719 C 76.953125 238.585938 77.949219 236.421875 78.738281 234.5 C 80.496094 230.199219 81.886719 225.71875 82.871094 221.179688 C 83.03125 220.445312 83.15625 219.667969 82.804688 218.949219 C 82.429688 218.1875 81.652344 217.800781 81.015625 217.542969 Z M 81.777344 220.9375 C 80.804688 225.414062 79.433594 229.832031 77.699219 234.074219 C 76.976562 235.847656 76.066406 237.835938 74.4375 238.964844 C 73.695312 239.480469 72.703125 239.753906 71.78125 239.695312 C 70.828125 239.636719 70.050781 239.238281 69.59375 238.578125 C 69.121094 237.890625 68.996094 236.960938 68.910156 236.070312 C 68.292969 229.742188 68.378906 221.578125 72.277344 218.640625 C 73.261719 217.898438 74.464844 217.527344 75.878906 217.527344 C 77.253906 217.527344 78.832031 217.882812 80.601562 218.585938 C 81.078125 218.777344 81.59375 219.03125 81.796875 219.441406 C 81.992188 219.839844 81.898438 220.375 81.777344 220.9375 Z M 81.777344 220.9375 " fill-opacity="1" fill-rule="nonzero" />
    <path fill="#e4e4e4" d="M 256.886719 88.316406 C 259.574219 89.90625 261.691406 92.515625 262.699219 95.476562 C 262.78125 95.707031 262.996094 95.855469 263.230469 95.855469 C 263.289062 95.855469 263.351562 95.84375 263.410156 95.824219 C 263.703125 95.726562 263.859375 95.40625 263.761719 95.113281 C 262.667969 91.902344 260.367188 89.074219 257.457031 87.351562 C 257.1875 87.191406 256.847656 87.28125 256.6875 87.546875 C 256.53125 87.816406 256.621094 88.160156 256.886719 88.316406 Z M 256.886719 88.316406 " fill-opacity="1" fill-rule="nonzero" />
    <path fill="#e4e4e4" d="M 116.425781 95.140625 C 116.480469 95.15625 116.539062 95.164062 116.59375 95.164062 C 116.832031 95.164062 117.054688 95.011719 117.128906 94.773438 C 117.832031 92.519531 119.035156 90.398438 120.601562 88.632812 C 120.804688 88.402344 120.785156 88.046875 120.554688 87.839844 C 120.324219 87.632812 119.96875 87.65625 119.761719 87.886719 C 118.09375 89.769531 116.8125 92.035156 116.058594 94.4375 C 115.96875 94.734375 116.132812 95.046875 116.425781 95.140625 Z M 116.425781 95.140625 " fill-opacity="1" fill-rule="nonzero" />
    <path fill="#e4e4e4" d="M 267.605469 99.445312 C 265.972656 96.234375 253.839844 95.269531 242.59375 94.617188 L 241.332031 94.546875 C 234.363281 94.132812 226.671875 94.339844 219.234375 94.542969 C 214.949219 94.660156 210.515625 94.78125 206.273438 94.78125 C 201.695312 94.78125 197.3125 94.769531 193.03125 94.761719 C 179.726562 94.726562 167.15625 94.699219 152.804688 95.003906 C 146.210938 95.148438 139.511719 95.371094 133.03125 95.589844 C 129.382812 95.710938 125.730469 95.835938 122.082031 95.941406 C 112.105469 96.242188 110.109375 101.445312 107.585938 108.03125 C 106.886719 109.851562 106.167969 111.734375 105.21875 113.703125 C 104.371094 115.46875 103.484375 117.253906 102.625 118.980469 C 100.25 123.753906 97.796875 128.691406 95.898438 133.78125 L 95.699219 134.3125 C 94.496094 137.53125 93.625 139.855469 94.636719 141.28125 C 95.324219 142.253906 96.78125 142.695312 99.332031 142.695312 C 99.496094 142.695312 99.664062 142.695312 99.839844 142.691406 C 104.339844 142.59375 108.917969 142.410156 113.34375 142.234375 C 115.910156 142.132812 118.476562 142.03125 121.042969 141.941406 C 149.164062 140.992188 177.699219 140.1875 205.851562 139.550781 C 217.144531 139.292969 226.554688 139.125 236.285156 139.464844 C 245.363281 139.464844 254.632812 139.785156 263.59375 140.09375 C 269.402344 140.296875 275.410156 140.503906 281.300781 140.621094 C 281.742188 140.628906 282.296875 140.640625 282.757812 140.351562 C 283.347656 139.988281 283.558594 139.285156 283.667969 138.789062 C 284.304688 135.847656 283.253906 132.828125 282.121094 129.984375 C 278.375 120.582031 271.632812 107.351562 267.605469 99.445312 Z M 267.605469 99.445312 " fill-opacity="1" fill-rule="nonzero" />
    <path fill="#e4e4e4" d="M 231.609375 243.375 C 226.648438 242.03125 221.46875 241.945312 216.464844 241.863281 C 211.472656 241.78125 206.683594 241.988281 202.054688 242.191406 C 197.445312 242.394531 192.675781 242.601562 187.722656 242.519531 C 178.890625 242.375 169.761719 242.226562 160.777344 242.117188 C 156.421875 242.066406 151.484375 242.007812 146.847656 243.109375 C 139.257812 244.914062 133.441406 248.910156 129.5625 254.996094 C 129.398438 255.257812 129.472656 255.601562 129.734375 255.769531 C 129.828125 255.828125 129.933594 255.859375 130.035156 255.859375 C 130.21875 255.859375 130.402344 255.765625 130.507812 255.597656 C 134.222656 249.769531 139.808594 245.933594 147.105469 244.203125 C 151.605469 243.132812 156.261719 243.1875 160.765625 243.242188 C 169.746094 243.347656 178.875 243.496094 187.703125 243.640625 C 192.691406 243.726562 197.476562 243.515625 202.105469 243.3125 C 206.714844 243.113281 211.480469 242.902344 216.445312 242.984375 C 221.382812 243.066406 226.488281 243.152344 231.316406 244.457031 C 238.039062 246.28125 244.578125 250.5625 248.382812 255.632812 C 248.570312 255.882812 248.917969 255.933594 249.164062 255.746094 C 249.414062 255.558594 249.460938 255.207031 249.277344 254.960938 C 245.332031 249.695312 238.558594 245.257812 231.609375 243.375 Z M 231.609375 243.375 " fill-opacity="1" fill-rule="nonzero" />
    <path fill="#e4e4e4" d="M 103.933594 184.476562 C 104.003906 184.78125 103.8125 185.082031 103.511719 185.152344 C 103.46875 185.160156 103.429688 185.164062 103.386719 185.164062 C 103.132812 185.164062 102.902344 184.988281 102.84375 184.730469 C 102.398438 182.8125 101.078125 181.070312 99.21875 179.953125 C 97.359375 178.835938 95.203125 178.488281 93.308594 179 C 93.011719 179.082031 92.703125 178.902344 92.621094 178.601562 C 92.539062 178.304688 92.71875 177.996094 93.015625 177.914062 C 95.203125 177.324219 97.675781 177.714844 99.792969 178.988281 C 101.914062 180.265625 103.421875 182.265625 103.933594 184.476562 Z M 306.589844 181.480469 C 306.078125 179.265625 304.570312 177.265625 302.449219 175.992188 C 300.332031 174.714844 297.863281 174.324219 295.671875 174.914062 C 295.375 174.996094 295.199219 175.304688 295.277344 175.605469 C 295.359375 175.902344 295.664062 176.082031 295.964844 176 C 297.859375 175.488281 300.015625 175.835938 301.875 176.953125 C 303.738281 178.070312 305.058594 179.8125 305.5 181.730469 C 305.558594 181.992188 305.789062 182.164062 306.042969 182.164062 C 306.085938 182.164062 306.128906 182.160156 306.171875 182.152344 C 306.472656 182.082031 306.660156 181.78125 306.589844 181.480469 Z M 306.589844 181.480469 " fill-opacity="1" fill-rule="nonzero" />
</svg>