<?xml version="1.0" encoding="UTF-8"?>
<svg xmlns="http://www.w3.org/2000/svg" xmlns:xlink="http://www.w3.org/1999/xlink" viewBox="0 0 50 50" width="50px" height="50px">
<g id="surface1824889">
<path style=" stroke:none;fill-rule:nonzero;fill:rgb(100%,100%,100%);fill-opacity:1;" d="M 3 8 C 2.277344 7.988281 1.609375 8.367188 1.246094 8.992188 C 0.878906 9.613281 0.878906 10.386719 1.246094 11.007812 C 1.609375 11.632812 2.277344 12.011719 3 12 L 47 12 C 47.722656 12.011719 48.390625 11.632812 48.753906 11.007812 C 49.121094 10.386719 49.121094 9.613281 48.753906 8.992188 C 48.390625 8.367188 47.722656 7.988281 47 8 Z M 3 23 C 2.277344 22.988281 1.609375 23.367188 1.246094 23.992188 C 0.878906 24.613281 0.878906 25.386719 1.246094 26.007812 C 1.609375 26.632812 2.277344 27.011719 3 27 L 47 27 C 47.722656 27.011719 48.390625 26.632812 48.753906 26.007812 C 49.121094 25.386719 49.121094 24.613281 48.753906 23.992188 C 48.390625 23.367188 47.722656 22.988281 47 23 Z M 3 38 C 2.277344 37.988281 1.609375 38.367188 1.246094 38.992188 C 0.878906 39.613281 0.878906 40.386719 1.246094 41.007812 C 1.609375 41.632812 2.277344 42.011719 3 42 L 47 42 C 47.722656 42.011719 48.390625 41.632812 48.753906 41.007812 C 49.121094 40.386719 49.121094 39.613281 48.753906 38.992188 C 48.390625 38.367188 47.722656 37.988281 47 38 Z M 3 38 "/>
</g>
</svg>
