<svg xmlns="http://www.w3.org/2000/svg" xmlns:xlink="http://www.w3.org/1999/xlink" width="500" zoomAndPan="magnify" viewBox="0 0 375 374.999991" height="500" preserveAspectRatio="xMidYMid meet" version="1.0"><defs><clipPath id="id1"><path d="M 2.851562 2.851562 L 371.851562 2.851562 L 371.851562 371.851562 L 2.851562 371.851562 Z M 2.851562 2.851562 " clip-rule="nonzero"/></clipPath><clipPath id="id2"><path d="M 56 65.898438 L 300 65.898438 L 300 308.898438 L 56 308.898438 Z M 56 65.898438 " clip-rule="nonzero"/></clipPath></defs><g clip-path="url(#id1)"><path fill="#486915" d="M 187.351562 2.851562 C 85.457031 2.851562 2.851562 85.457031 2.851562 187.351562 C 2.851562 289.25 85.457031 371.851562 187.351562 371.851562 C 289.25 371.851562 371.851562 289.25 371.851562 187.351562 C 371.851562 85.457031 289.25 2.851562 187.351562 2.851562 " fill-opacity="1" fill-rule="nonzero"/></g><path fill="#2e2c2c" d="M 276.9375 257.5625 C 276.9375 257.5625 285.214844 277.128906 299.277344 276.546875 C 313.339844 275.910156 318.804688 270.871094 318.804688 270.871094 L 314.507812 303.433594 C 314.507812 303.433594 272.640625 304.601562 269.773438 266.734375 C 269.242188 259.523438 276.9375 257.5625 276.9375 257.5625 Z M 276.9375 257.5625 " fill-opacity="1" fill-rule="nonzero"/><path fill="#2e2c2c" d="M 261.230469 187.398438 C 261.230469 188.765625 261.195312 190.128906 261.128906 191.492188 C 261.0625 192.859375 260.960938 194.21875 260.828125 195.578125 C 260.695312 196.9375 260.527344 198.292969 260.324219 199.644531 C 260.125 200.996094 259.890625 202.34375 259.625 203.683594 C 259.359375 205.023438 259.058594 206.355469 258.726562 207.679688 C 258.394531 209.003906 258.03125 210.320312 257.632812 211.628906 C 257.238281 212.9375 256.808594 214.234375 256.347656 215.519531 C 255.886719 216.804688 255.394531 218.082031 254.871094 219.34375 C 254.347656 220.605469 253.796875 221.851562 253.210938 223.089844 C 252.625 224.324219 252.011719 225.542969 251.367188 226.746094 C 250.722656 227.953125 250.050781 229.140625 249.347656 230.3125 C 248.644531 231.484375 247.914062 232.636719 247.152344 233.773438 C 246.394531 234.910156 245.605469 236.027344 244.792969 237.125 C 243.980469 238.222656 243.136719 239.296875 242.269531 240.355469 C 241.402344 241.410156 240.511719 242.445312 239.59375 243.457031 C 238.675781 244.46875 237.734375 245.457031 236.765625 246.421875 C 235.800781 247.390625 234.808594 248.332031 233.796875 249.25 C 232.785156 250.167969 231.75 251.058594 230.691406 251.925781 C 229.636719 252.792969 228.558594 253.632812 227.460938 254.445312 C 226.363281 255.257812 225.246094 256.046875 224.109375 256.804688 C 222.972656 257.5625 221.816406 258.292969 220.644531 258.996094 C 219.472656 259.699219 218.285156 260.371094 217.078125 261.015625 C 215.871094 261.660156 214.652344 262.273438 213.417969 262.859375 C 212.179688 263.441406 210.929688 263.996094 209.667969 264.519531 C 208.40625 265.042969 207.132812 265.53125 205.84375 265.992188 C 204.558594 266.453125 203.257812 266.882812 201.949219 267.277344 C 200.644531 267.675781 199.324219 268.039062 198 268.371094 C 196.675781 268.703125 195.339844 269.003906 194 269.269531 C 192.660156 269.535156 191.3125 269.769531 189.960938 269.96875 C 188.609375 270.167969 187.253906 270.335938 185.890625 270.472656 C 184.53125 270.605469 183.167969 270.707031 181.804688 270.773438 C 180.4375 270.839844 179.070312 270.871094 177.707031 270.871094 C 176.339844 270.871094 174.972656 270.839844 173.605469 270.773438 C 172.242188 270.707031 170.878906 270.605469 169.519531 270.472656 C 168.15625 270.335938 166.800781 270.167969 165.449219 269.96875 C 164.097656 269.769531 162.75 269.535156 161.410156 269.269531 C 160.070312 269.003906 158.734375 268.703125 157.410156 268.371094 C 156.085938 268.039062 154.765625 267.675781 153.460938 267.277344 C 152.152344 266.882812 150.855469 266.453125 149.566406 265.992188 C 148.28125 265.53125 147.003906 265.042969 145.742188 264.519531 C 144.480469 263.996094 143.230469 263.441406 141.992188 262.859375 C 140.757812 262.273438 139.539062 261.660156 138.332031 261.015625 C 137.125 260.371094 135.9375 259.699219 134.765625 258.996094 C 133.59375 258.292969 132.4375 257.5625 131.300781 256.804688 C 130.164062 256.046875 129.046875 255.257812 127.949219 254.445312 C 126.851562 253.632812 125.773438 252.792969 124.71875 251.925781 C 123.660156 251.058594 122.625 250.167969 121.613281 249.25 C 120.601562 248.332031 119.609375 247.390625 118.644531 246.421875 C 117.675781 245.457031 116.734375 244.46875 115.816406 243.457031 C 114.898438 242.445312 114.007812 241.410156 113.140625 240.355469 C 112.273438 239.296875 111.433594 238.222656 110.617188 237.125 C 109.804688 236.027344 109.015625 234.910156 108.257812 233.773438 C 107.496094 232.636719 106.765625 231.484375 106.0625 230.3125 C 105.359375 229.140625 104.6875 227.953125 104.042969 226.746094 C 103.398438 225.542969 102.785156 224.324219 102.199219 223.089844 C 101.617188 221.851562 101.0625 220.605469 100.539062 219.34375 C 100.015625 218.082031 99.523438 216.804688 99.0625 215.519531 C 98.601562 214.234375 98.171875 212.9375 97.777344 211.628906 C 97.378906 210.320312 97.015625 209.003906 96.683594 207.679688 C 96.351562 206.355469 96.050781 205.023438 95.785156 203.683594 C 95.519531 202.34375 95.285156 200.996094 95.085938 199.644531 C 94.882812 198.292969 94.714844 196.9375 94.582031 195.578125 C 94.449219 194.21875 94.347656 192.859375 94.28125 191.492188 C 94.214844 190.128906 94.179688 188.765625 94.179688 187.398438 C 94.179688 186.03125 94.214844 184.667969 94.28125 183.300781 C 94.347656 181.9375 94.449219 180.574219 94.582031 179.214844 C 94.714844 177.855469 94.882812 176.5 95.085938 175.148438 C 95.285156 173.796875 95.519531 172.453125 95.785156 171.113281 C 96.050781 169.773438 96.351562 168.441406 96.683594 167.113281 C 97.015625 165.789062 97.378906 164.472656 97.777344 163.167969 C 98.171875 161.859375 98.601562 160.5625 99.0625 159.277344 C 99.523438 157.988281 100.015625 156.714844 100.539062 155.453125 C 101.0625 154.191406 101.617188 152.941406 102.199219 151.707031 C 102.785156 150.472656 103.398438 149.253906 104.042969 148.046875 C 104.6875 146.84375 105.359375 145.65625 106.0625 144.484375 C 106.765625 143.3125 107.496094 142.15625 108.257812 141.023438 C 109.015625 139.886719 109.804688 138.769531 110.617188 137.671875 C 111.433594 136.574219 112.273438 135.496094 113.140625 134.441406 C 114.007812 133.386719 114.898438 132.351562 115.816406 131.339844 C 116.734375 130.328125 117.675781 129.339844 118.644531 128.371094 C 119.609375 127.40625 120.601562 126.464844 121.613281 125.546875 C 122.625 124.628906 123.660156 123.738281 124.71875 122.871094 C 125.773438 122.003906 126.851562 121.164062 127.949219 120.351562 C 129.046875 119.535156 130.164062 118.75 131.300781 117.992188 C 132.4375 117.230469 133.59375 116.5 134.765625 115.800781 C 135.9375 115.097656 137.125 114.421875 138.332031 113.78125 C 139.539062 113.136719 140.757812 112.523438 141.992188 111.9375 C 143.230469 111.351562 144.480469 110.800781 145.742188 110.277344 C 147.003906 109.753906 148.28125 109.261719 149.566406 108.800781 C 150.855469 108.34375 152.152344 107.914062 153.460938 107.515625 C 154.765625 107.121094 156.085938 106.757812 157.410156 106.425781 C 158.734375 106.09375 160.070312 105.792969 161.410156 105.527344 C 162.75 105.261719 164.097656 105.027344 165.449219 104.828125 C 166.800781 104.625 168.15625 104.457031 169.519531 104.324219 C 170.878906 104.191406 172.242188 104.089844 173.605469 104.023438 C 174.972656 103.957031 176.339844 103.921875 177.707031 103.921875 C 179.070312 103.921875 180.4375 103.957031 181.804688 104.023438 C 183.167969 104.089844 184.53125 104.191406 185.890625 104.324219 C 187.253906 104.457031 188.609375 104.625 189.960938 104.828125 C 191.3125 105.027344 192.660156 105.261719 194 105.527344 C 195.339844 105.792969 196.675781 106.09375 198 106.425781 C 199.324219 106.757812 200.644531 107.121094 201.949219 107.515625 C 203.257812 107.914062 204.558594 108.34375 205.84375 108.800781 C 207.132812 109.261719 208.40625 109.753906 209.667969 110.277344 C 210.929688 110.800781 212.179688 111.351562 213.417969 111.9375 C 214.652344 112.523438 215.871094 113.136719 217.078125 113.78125 C 218.285156 114.421875 219.472656 115.097656 220.644531 115.800781 C 221.816406 116.5 222.972656 117.230469 224.109375 117.992188 C 225.246094 118.75 226.363281 119.535156 227.460938 120.351562 C 228.558594 121.164062 229.636719 122.003906 230.691406 122.871094 C 231.75 123.738281 232.785156 124.628906 233.796875 125.546875 C 234.808594 126.464844 235.800781 127.40625 236.765625 128.371094 C 237.734375 129.339844 238.675781 130.328125 239.59375 131.339844 C 240.511719 132.351562 241.402344 133.386719 242.269531 134.441406 C 243.136719 135.496094 243.980469 136.574219 244.792969 137.671875 C 245.605469 138.769531 246.394531 139.886719 247.152344 141.023438 C 247.914062 142.15625 248.644531 143.3125 249.347656 144.484375 C 250.050781 145.65625 250.722656 146.84375 251.367188 148.046875 C 252.011719 149.253906 252.625 150.472656 253.210938 151.707031 C 253.796875 152.941406 254.347656 154.191406 254.871094 155.453125 C 255.394531 156.714844 255.886719 157.988281 256.347656 159.277344 C 256.808594 160.5625 257.238281 161.859375 257.632812 163.167969 C 258.03125 164.472656 258.394531 165.789062 258.726562 167.113281 C 259.058594 168.441406 259.359375 169.773438 259.625 171.113281 C 259.890625 172.453125 260.125 173.796875 260.324219 175.148438 C 260.527344 176.5 260.695312 177.855469 260.828125 179.214844 C 260.960938 180.574219 261.0625 181.9375 261.128906 183.300781 C 261.195312 184.667969 261.230469 186.03125 261.230469 187.398438 Z M 261.230469 187.398438 " fill-opacity="1" fill-rule="nonzero"/><g clip-path="url(#id2)"><path fill="#d9d9d9" d="M 177.707031 65.898438 C 110.578125 65.898438 56.132812 120.308594 56.132812 187.398438 C 56.132812 254.484375 110.578125 308.898438 177.707031 308.898438 C 244.832031 308.898438 299.277344 254.484375 299.277344 187.398438 C 299.277344 120.308594 244.832031 65.898438 177.707031 65.898438 Z M 177.707031 87.484375 C 196.117188 87.484375 210.976562 102.386719 210.976562 120.734375 C 210.976562 139.085938 196.066406 153.988281 177.707031 153.988281 C 159.34375 153.988281 144.433594 139.085938 144.433594 120.734375 C 144.433594 102.386719 159.292969 87.484375 177.707031 87.484375 Z M 199.410156 183.527344 C 199.410156 185.808594 197.605469 187.609375 195.324219 187.609375 C 193.042969 187.609375 191.238281 185.808594 191.238281 183.527344 C 191.238281 181.246094 193.042969 179.441406 195.324219 179.441406 C 197.605469 179.441406 199.410156 181.246094 199.410156 183.527344 Z M 181.792969 165.867188 C 181.792969 168.148438 179.988281 169.949219 177.707031 169.949219 C 175.421875 169.949219 173.621094 168.148438 173.621094 165.867188 C 173.621094 163.585938 175.421875 161.78125 177.707031 161.78125 C 179.933594 161.78125 181.792969 163.640625 181.792969 165.867188 Z M 164.121094 183.527344 C 164.121094 185.808594 162.316406 187.609375 160.035156 187.609375 C 157.753906 187.609375 155.949219 185.808594 155.949219 183.527344 C 155.949219 181.246094 157.753906 179.441406 160.035156 179.441406 C 162.316406 179.441406 164.121094 181.246094 164.121094 183.527344 Z M 81.234375 168.675781 C 81.234375 150.328125 96.144531 135.425781 114.503906 135.425781 C 132.863281 135.425781 147.777344 150.328125 147.777344 168.675781 C 147.777344 187.027344 132.863281 201.929688 114.503906 201.929688 C 96.144531 201.929688 81.234375 187.078125 81.234375 168.675781 Z M 137.695312 274.109375 C 119.332031 274.109375 104.421875 259.207031 104.421875 240.855469 C 104.421875 222.507812 119.332031 207.605469 137.695312 207.605469 C 156.109375 207.605469 170.964844 222.507812 170.964844 240.855469 C 170.964844 259.207031 156.054688 274.109375 137.695312 274.109375 Z M 168.417969 183.527344 C 168.417969 178.382812 172.558594 174.246094 177.707031 174.246094 C 182.851562 174.246094 186.992188 178.382812 186.992188 183.527344 C 186.992188 188.671875 182.851562 192.808594 177.707031 192.808594 C 172.558594 192.808594 168.417969 188.617188 168.417969 183.527344 Z M 177.707031 205.21875 C 175.421875 205.21875 173.621094 203.414062 173.621094 201.132812 C 173.621094 198.851562 175.421875 197.050781 177.707031 197.050781 C 179.988281 197.050781 181.792969 198.851562 181.792969 201.132812 C 181.792969 203.414062 179.933594 205.21875 177.707031 205.21875 Z M 217.078125 274.109375 C 198.71875 274.109375 183.808594 259.207031 183.808594 240.855469 C 183.808594 222.507812 198.71875 207.605469 217.078125 207.605469 C 235.492188 207.605469 250.351562 222.507812 250.351562 240.855469 C 250.40625 259.207031 235.492188 274.109375 217.078125 274.109375 Z M 240.851562 201.980469 C 222.492188 201.980469 207.582031 187.078125 207.582031 168.730469 C 207.582031 150.378906 222.492188 135.425781 240.851562 135.425781 C 259.265625 135.425781 274.125 150.328125 274.125 168.675781 C 274.125 187.027344 259.265625 201.980469 240.851562 201.980469 Z M 240.851562 201.980469 " fill-opacity="1" fill-rule="nonzero"/></g><path fill="#b4b4b5" d="M 178.5 299.246094 C 116.785156 299.246094 66.535156 249.074219 66.535156 187.34375 C 66.535156 125.667969 116.734375 75.445312 178.5 75.445312 C 240.214844 75.445312 290.46875 125.613281 290.46875 187.34375 C 290.414062 249.074219 240.214844 299.246094 178.5 299.246094 Z M 178.5 80.800781 C 119.703125 80.800781 71.839844 128.636719 71.839844 187.398438 C 71.839844 246.160156 119.703125 293.996094 178.5 293.996094 C 237.296875 293.996094 285.164062 246.160156 285.164062 187.398438 C 285.109375 128.636719 237.296875 80.800781 178.5 80.800781 Z M 178.5 80.800781 " fill-opacity="1" fill-rule="nonzero"/></svg>