<svg xmlns="http://www.w3.org/2000/svg" xmlns:xlink="http://www.w3.org/1999/xlink" width="500" zoomAndPan="magnify" viewBox="0 0 375 374.999991" height="500" preserveAspectRatio="xMidYMid meet" version="1.0"><defs><clipPath id="id1"><path d="M 2.851562 2.851562 L 371.851562 2.851562 L 371.851562 371.851562 L 2.851562 371.851562 Z M 2.851562 2.851562 " clip-rule="nonzero"/></clipPath><clipPath id="id2"><path d="M 140 286 L 235 286 L 235 299.519531 L 140 299.519531 Z M 140 286 " clip-rule="nonzero"/></clipPath><clipPath id="id3"><path d="M 88 134.1875 L 287 134.1875 L 287 187.4375 L 88 187.4375 Z M 88 134.1875 " clip-rule="nonzero"/></clipPath></defs><g clip-path="url(#id1)"><path fill="#6e9f20" d="M 187.351562 2.851562 C 85.457031 2.851562 2.851562 85.457031 2.851562 187.351562 C 2.851562 289.25 85.457031 371.851562 187.351562 371.851562 C 289.25 371.851562 371.851562 289.25 371.851562 187.351562 C 371.851562 85.457031 289.25 2.851562 187.351562 2.851562 " fill-opacity="1" fill-rule="nonzero"/></g><g clip-path="url(#id2)"><path fill="#a6a6a6" d="M 233.257812 298.304688 C 231.546875 299.539062 145.386719 299.445312 142.726562 298.304688 C 140.070312 297.167969 140.640625 288.503906 142.726562 287.273438 C 144.816406 286.039062 230.757812 285.839844 232.847656 286.886719 C 234.933594 287.929688 234.964844 297.074219 233.257812 298.304688 Z M 233.257812 298.304688 " fill-opacity="1" fill-rule="nonzero"/></g><path fill="#d9d9d9" d="M 233.042969 287.273438 C 231.332031 288.507812 145.175781 288.414062 142.515625 287.273438 C 139.859375 286.136719 159.921875 268.1875 162.007812 266.953125 C 164.09375 265.71875 211.242188 265.910156 213.328125 266.953125 C 215.417969 267.996094 234.75 286.039062 233.042969 287.273438 Z M 233.042969 287.273438 " fill-opacity="1" fill-rule="nonzero"/><path fill="#d9d9d9" d="M 174.371094 247.996094 L 201.050781 247.996094 L 201.050781 275.117188 L 174.371094 275.117188 Z M 174.371094 247.996094 " fill-opacity="1" fill-rule="nonzero"/><path fill="#a6a6a6" d="M 306.90625 249.941406 C 302.523438 256.265625 76.25 255.777344 69.433594 249.941406 C 62.621094 244.105469 64.082031 87.9375 69.433594 81.613281 C 74.785156 75.292969 301.558594 76.261719 306.90625 81.613281 C 312.261719 86.96875 311.289062 243.617188 306.90625 249.941406 Z M 306.90625 249.941406 " fill-opacity="1" fill-rule="nonzero"/><path fill="#ffffff" d="M 298.820312 239.238281 C 293.8125 245.566406 82.648438 244.101562 76.640625 239.238281 C 70.636719 234.375 72.636719 98.640625 76.640625 92.320312 C 80.640625 85.996094 293.816406 87.9375 298.820312 92.320312 C 303.820312 96.699219 303.828125 232.914062 298.820312 239.238281 Z M 298.820312 239.238281 " fill-opacity="1" fill-rule="nonzero"/><path fill="#737373" d="M 82.480469 233.765625 C 76.972656 229.304688 78.199219 114.75 81.53125 90.941406 C 78.683594 91.347656 76.96875 91.804688 76.640625 92.316406 C 72.640625 98.640625 70.636719 234.375 76.640625 239.238281 C 82.648438 244.101562 293.8125 245.5625 298.820312 239.238281 C 299.234375 238.710938 299.617188 237.269531 299.964844 235.097656 C 268.136719 239.84375 88.023438 238.253906 82.480469 233.765625 Z M 82.480469 233.765625 " fill-opacity="1" fill-rule="nonzero"/><g clip-path="url(#id3)"><path fill="#000000" d="M 106.554688 181.417969 C 106.890625 182.046875 105.96875 182.652344 105.507812 182.179688 C 103.011719 179.441406 100.066406 177.167969 97.226562 174.625 C 97.152344 174.734375 97.082031 174.84375 97.007812 174.953125 C 94.832031 178.164062 92.53125 181.265625 90.203125 184.375 C 89.792969 184.886719 88.835938 184.332031 89.085938 183.71875 C 90.71875 180.140625 92.710938 176.75 94.902344 173.527344 C 95.046875 173.308594 95.203125 173.097656 95.355469 172.878906 C 92.839844 170.421875 90.601562 167.765625 88.28125 165.25 C 87.914062 164.832031 88.601562 163.957031 89.109375 164.277344 C 91.90625 166.269531 94.378906 168.5625 96.820312 170.8125 L 97.449219 169.960938 C 97.773438 169.515625 98.109375 169.140625 98.4375 168.773438 C 99.753906 167.308594 101.105469 165.933594 102.453125 164.53125 C 102.847656 164.152344 103.738281 164.824219 103.464844 165.3125 C 102.4375 166.988281 101.300781 168.601562 100.175781 170.164062 C 99.898438 170.554688 99.621094 170.933594 99.398438 171.296875 L 98.644531 172.484375 C 100.035156 173.757812 101.433594 175.0625 102.757812 176.472656 C 104.167969 177.976562 105.496094 179.609375 106.554688 181.417969 Z M 111.035156 169.625 C 114.203125 169.683594 117.242188 168.953125 120.101562 168.539062 C 121.457031 168.328125 122.921875 168.335938 124.460938 168.242188 C 125.226562 168.199219 126.007812 168.140625 126.800781 168.023438 C 127.589844 167.898438 128.398438 167.738281 129.191406 167.386719 C 129.648438 167.148438 129.171875 166.132812 128.8125 166.164062 C 128.152344 166.257812 127.433594 166.234375 126.710938 166.195312 C 125.984375 166.152344 125.242188 166.078125 124.488281 166.019531 C 123.734375 165.957031 122.96875 165.902344 122.175781 165.882812 C 121.78125 165.875 121.382812 165.875 120.96875 165.898438 C 120.5625 165.917969 120.117188 165.96875 119.738281 166.023438 C 116.574219 166.488281 113.765625 167.59375 110.890625 168.339844 C 110.410156 168.488281 110.496094 169.589844 111.035156 169.625 Z M 129.265625 174.710938 C 126.140625 174.332031 123 173.992188 119.796875 174.042969 C 116.609375 174.09375 113.332031 174.53125 110.28125 175.679688 C 109.773438 175.894531 110.058594 176.960938 110.582031 176.941406 C 113.671875 176.640625 116.730469 176.640625 119.839844 176.585938 C 122.941406 176.53125 126.105469 176.449219 129.285156 175.988281 C 129.730469 175.898438 129.707031 174.785156 129.265625 174.710938 Z M 139.609375 153.613281 C 142.023438 153.90625 144.4375 154.007812 146.855469 153.84375 C 149.269531 153.679688 151.691406 153.25 154.03125 152.476562 C 154.421875 152.320312 154.242188 151.230469 153.835938 151.195312 C 149.039062 151.066406 144.3125 151.238281 139.539062 152.339844 C 139.207031 152.4375 139.265625 153.550781 139.609375 153.613281 Z M 157.816406 150.824219 C 157.582031 148 157.582031 145.175781 158.164062 142.351562 C 158.523438 141.089844 159.578125 141.492188 159.425781 142.574219 C 159.144531 145.195312 159.367188 147.941406 159.769531 150.582031 C 159.898438 151.414062 160.0625 152.242188 160.261719 153.050781 C 160.269531 152.664062 160.292969 152.257812 160.367188 151.832031 C 160.433594 151.386719 160.585938 150.90625 160.820312 150.4375 C 160.953125 150.207031 161.105469 149.980469 161.277344 149.765625 C 161.460938 149.550781 161.675781 149.355469 161.90625 149.191406 C 162.375 148.863281 162.898438 148.671875 163.390625 148.578125 C 163.886719 148.484375 164.355469 148.480469 164.796875 148.511719 C 165.6875 148.582031 166.480469 148.8125 167.234375 149.09375 C 167.984375 149.382812 168.691406 149.730469 169.363281 150.144531 C 170.039062 150.558594 170.683594 151.011719 171.300781 151.625 C 171.464844 151.785156 171.589844 151.941406 171.722656 152.097656 C 171.851562 152.257812 171.988281 152.410156 172.113281 152.578125 C 172.347656 152.929688 172.59375 153.269531 172.777344 153.675781 C 173.167969 154.453125 173.417969 155.394531 173.324219 156.359375 C 173.238281 157.324219 172.804688 158.222656 172.226562 158.898438 C 171.644531 159.578125 170.941406 160.078125 170.203125 160.449219 C 168.722656 161.171875 167.078125 161.449219 165.449219 161.179688 C 164.640625 161.042969 163.832031 160.738281 163.140625 160.226562 C 162.789062 159.964844 162.480469 159.648438 162.226562 159.300781 C 161.90625 159.660156 161.378906 159.800781 160.910156 159.597656 C 160.734375 159.519531 160.582031 159.402344 160.46875 159.261719 C 159.921875 158.585938 159.511719 157.878906 159.226562 157.175781 C 159.085938 156.824219 158.933594 156.472656 158.832031 156.117188 C 158.722656 155.765625 158.601562 155.414062 158.523438 155.058594 C 158.15625 153.648438 157.941406 152.234375 157.816406 150.824219 Z M 162.800781 154.128906 C 162.832031 154.816406 162.894531 155.542969 162.894531 156.332031 C 162.890625 156.746094 162.878906 157.1875 162.808594 157.648438 C 162.820312 157.671875 162.832031 157.6875 162.84375 157.710938 C 163.351562 158.8125 164.457031 159.417969 165.679688 159.515625 C 166.902344 159.621094 168.203125 159.296875 169.257812 158.6875 C 169.78125 158.378906 170.242188 157.992188 170.566406 157.558594 C 170.894531 157.125 171.070312 156.660156 171.085938 156.191406 C 171.136719 155.261719 170.484375 154.191406 169.609375 153.351562 C 169.195312 152.960938 168.652344 152.589844 168.097656 152.269531 C 167.539062 151.945312 166.949219 151.667969 166.351562 151.449219 C 165.761719 151.238281 165.152344 151.078125 164.609375 151.042969 C 164.058594 151 163.605469 151.097656 163.375 151.269531 C 163.144531 151.417969 162.953125 151.753906 162.859375 152.277344 C 162.761719 152.796875 162.765625 153.449219 162.800781 154.128906 Z M 178.902344 149.21875 C 179.339844 149.222656 179.847656 149.269531 180.34375 149.3125 C 180.851562 149.359375 181.359375 149.402344 181.863281 149.449219 C 182.589844 149.503906 183.316406 149.542969 184.054688 149.554688 C 184.054688 149.578125 184.054688 149.601562 184.058594 149.621094 C 184.101562 150.570312 184.074219 151.65625 184.191406 152.785156 C 184.316406 153.90625 184.578125 155.140625 185.292969 156.175781 C 185.566406 156.523438 186.503906 155.929688 186.464844 155.628906 C 186.273438 154.710938 186.34375 153.761719 186.429688 152.753906 C 186.515625 151.742188 186.652344 150.691406 186.601562 149.496094 C 186.601562 149.488281 186.597656 149.484375 186.597656 149.476562 C 187.109375 149.433594 187.621094 149.371094 188.140625 149.285156 C 188.675781 149.195312 189.210938 149.078125 189.757812 148.910156 C 190.035156 148.820312 190.308594 148.722656 190.59375 148.585938 C 190.875 148.449219 191.175781 148.304688 191.496094 147.957031 C 191.574219 147.871094 191.585938 147.6875 191.515625 147.582031 C 191.453125 147.46875 191.324219 147.386719 191.191406 147.324219 C 191.054688 147.257812 190.910156 147.207031 190.804688 147.152344 C 190.75 147.125 190.707031 147.097656 190.679688 147.074219 C 190.65625 147.046875 190.636719 147.03125 190.617188 147.027344 C 190.546875 147.027344 190.347656 147.074219 190.136719 147.082031 C 189.925781 147.101562 189.6875 147.101562 189.453125 147.105469 C 188.980469 147.105469 188.480469 147.082031 187.984375 147.066406 C 187.402344 147.046875 186.816406 147.03125 186.222656 147.019531 C 186.167969 146.761719 186.113281 146.507812 186.0625 146.253906 C 185.859375 145.261719 185.644531 144.292969 185.742188 143.425781 C 185.742188 143.195312 184.765625 142.640625 184.546875 142.96875 C 184.214844 143.539062 184.054688 144.152344 183.957031 144.746094 C 183.863281 145.339844 183.839844 145.921875 183.847656 146.488281 C 183.847656 146.675781 183.859375 146.863281 183.867188 147.050781 C 183.1875 147.078125 182.5 147.132812 181.8125 147.214844 C 181.285156 147.28125 180.757812 147.363281 180.222656 147.476562 C 179.6875 147.59375 179.15625 147.722656 178.582031 147.964844 C 178.152344 148.195312 178.667969 149.191406 178.902344 149.21875 Z M 178.988281 159.679688 C 179.476562 159.574219 180.019531 159.570312 180.578125 159.601562 C 181.132812 159.632812 181.707031 159.699219 182.296875 159.765625 C 182.886719 159.832031 183.488281 159.902344 184.152344 159.929688 C 184.3125 159.9375 184.492188 159.9375 184.667969 159.933594 C 184.835938 159.933594 185.082031 159.910156 185.214844 159.898438 L 186.097656 159.808594 C 188.445312 159.570312 190.835938 159.320312 193.261719 158.898438 C 193.671875 158.804688 193.671875 157.699219 193.261719 157.605469 C 190.828125 157.1875 188.335938 157.023438 185.835938 157.28125 C 185.527344 157.3125 185.214844 157.351562 184.902344 157.394531 C 184.734375 157.417969 184.675781 157.425781 184.539062 157.441406 C 184.414062 157.449219 184.285156 157.460938 184.144531 157.464844 C 183.589844 157.492188 182.972656 157.503906 182.347656 157.539062 C 181.71875 157.578125 181.074219 157.644531 180.417969 157.78125 C 179.765625 157.917969 179.089844 158.117188 178.464844 158.511719 C 178.105469 158.773438 178.726562 159.710938 178.988281 159.679688 Z M 210.089844 162.917969 C 210.167969 163.035156 210.28125 163.136719 210.417969 163.203125 C 210.832031 163.410156 211.332031 163.238281 211.535156 162.828125 L 211.542969 162.808594 C 212.046875 161.792969 212.238281 160.753906 212.359375 159.75 C 212.476562 158.742188 212.5 157.753906 212.503906 156.777344 C 212.5 155.804688 212.476562 154.84375 212.464844 153.898438 C 212.453125 152.953125 212.453125 152.015625 212.539062 151.148438 C 212.960938 147.632812 212.902344 144.113281 213.472656 140.839844 C 219.1875 141.078125 224.894531 140.621094 230.5 139.863281 C 236.453125 139.0625 242.304688 137.9375 248.164062 137.195312 C 251.09375 136.820312 254.023438 136.546875 256.957031 136.445312 L 265.871094 136.285156 C 271.828125 136.15625 277.78125 136.023438 283.734375 135.894531 C 285.1875 135.851562 285.898438 135.5625 285.914062 135.28125 C 285.933594 134.964844 285.1875 134.652344 283.738281 134.601562 C 277.78125 134.445312 271.824219 134.351562 265.867188 134.273438 L 261.398438 134.222656 C 259.90625 134.210938 258.429688 134.179688 256.90625 134.191406 C 253.878906 134.226562 250.863281 134.449219 247.875 134.789062 C 241.894531 135.457031 236.023438 136.546875 230.160156 137.34375 C 224.296875 138.148438 218.417969 138.664062 212.558594 138.441406 L 212.535156 138.441406 C 211.972656 138.417969 211.460938 138.808594 211.34375 139.378906 C 210.949219 141.359375 210.824219 143.335938 210.742188 145.265625 C 210.664062 147.203125 210.625 149.066406 210.460938 150.960938 C 210.386719 152.003906 210.425781 152.984375 210.464844 153.953125 L 210.597656 156.8125 C 210.628906 157.75 210.636719 158.675781 210.566406 159.574219 C 210.542969 159.890625 210.503906 160.199219 210.457031 160.503906 C 209.050781 158.480469 207.679688 156.398438 206.136719 154.421875 C 205.363281 153.453125 204.730469 153.167969 204.503906 153.355469 C 204.269531 153.546875 204.421875 154.195312 205.109375 155.183594 C 206.855469 157.660156 208.371094 160.320312 210.089844 162.917969 Z M 229.0625 153.0625 C 229.445312 153.667969 229.777344 154.390625 229.824219 155.238281 C 229.886719 156.085938 229.582031 156.960938 229.113281 157.578125 C 228.640625 158.210938 228.058594 158.644531 227.464844 158.976562 C 226.863281 159.300781 226.242188 159.527344 225.613281 159.679688 C 224.355469 159.980469 223.046875 160.007812 221.757812 159.648438 C 221.601562 159.601562 221.445312 159.546875 221.289062 159.484375 C 221.199219 160.015625 220.753906 160.429688 220.191406 160.457031 C 219.574219 160.488281 219.042969 160.03125 218.96875 159.425781 C 218.964844 159.402344 218.964844 159.378906 218.960938 159.355469 C 218.960938 159.34375 218.960938 159.328125 218.957031 159.3125 C 218.726562 157.285156 218.699219 155.324219 218.605469 153.390625 C 218.511719 151.425781 218.390625 149.476562 217.914062 147.636719 C 217.695312 146.804688 218.707031 146.324219 219.128906 147.230469 C 219.828125 148.972656 220.171875 150.789062 220.4375 152.582031 C 220.632812 152.335938 220.855469 152.101562 221.121094 151.886719 C 221.75 151.378906 222.472656 151.078125 223.1875 150.929688 C 223.902344 150.777344 224.621094 150.765625 225.328125 150.863281 C 226.03125 150.964844 226.722656 151.179688 227.371094 151.535156 C 228.015625 151.886719 228.625 152.394531 229.0625 153.0625 Z M 227.472656 155.410156 C 227.441406 155.117188 227.285156 154.769531 227.046875 154.425781 C 226.644531 153.859375 225.84375 153.464844 224.992188 153.363281 C 224.144531 153.25 223.230469 153.441406 222.710938 153.867188 C 222.226562 154.226562 221.808594 155.167969 221.585938 156.128906 C 221.460938 156.648438 221.378906 157.195312 221.332031 157.742188 C 221.585938 157.863281 221.863281 157.953125 222.164062 158.003906 C 223.097656 158.164062 224.136719 158.054688 225.070312 157.738281 C 225.992188 157.4375 226.875 156.894531 227.261719 156.277344 C 227.453125 155.972656 227.507812 155.699219 227.472656 155.410156 Z M 233.050781 146.300781 C 232.734375 146.816406 232.371094 147.34375 231.992188 147.882812 L 231.417969 148.722656 C 231.21875 149.023438 231.023438 149.3125 230.8125 149.746094 L 230.78125 149.808594 C 230.679688 150.019531 230.640625 150.265625 230.683594 150.515625 C 230.796875 151.144531 231.398438 151.5625 232.027344 151.453125 C 233.339844 151.21875 234.460938 150.886719 235.609375 150.6875 C 236.730469 150.488281 237.886719 150.367188 238.726562 150.742188 C 239.097656 150.925781 240.085938 150.300781 239.441406 149.664062 C 238.820312 149.183594 238.09375 148.96875 237.417969 148.847656 C 236.730469 148.730469 236.0625 148.722656 235.410156 148.742188 C 235.078125 148.75 234.75 148.769531 234.421875 148.800781 C 234.695312 148.425781 234.964844 148.042969 235.222656 147.625 C 235.597656 146.996094 235.972656 146.332031 236.1875 145.433594 C 236.285156 144.984375 236.34375 144.433594 236.167969 143.816406 C 235.996094 143.195312 235.515625 142.648438 235.050781 142.371094 C 234.582031 142.066406 234.019531 141.917969 233.535156 141.898438 C 233.042969 141.875 232.59375 141.949219 232.1875 142.0625 C 231.371094 142.300781 230.679688 142.691406 230.070312 143.164062 C 229.460938 143.644531 228.925781 144.203125 228.511719 144.890625 C 228.308594 145.230469 228.136719 145.609375 228.035156 146.023438 C 227.929688 146.4375 227.898438 146.90625 228.019531 147.355469 C 228.078125 147.539062 228.203125 147.648438 228.34375 147.6875 C 228.484375 147.726562 228.636719 147.699219 228.769531 147.636719 C 229.046875 147.5 229.265625 147.292969 229.28125 147.128906 C 229.273438 146.714844 229.527344 146.257812 229.882812 145.851562 C 230.242188 145.445312 230.710938 145.089844 231.199219 144.808594 C 231.691406 144.53125 232.222656 144.324219 232.707031 144.246094 C 232.945312 144.203125 233.171875 144.199219 233.347656 144.230469 C 233.527344 144.261719 233.625 144.3125 233.710938 144.382812 C 233.804688 144.46875 233.78125 144.464844 233.785156 144.492188 C 233.785156 144.527344 233.789062 144.664062 233.734375 144.859375 C 233.628906 145.261719 233.363281 145.789062 233.050781 146.300781 Z M 246.550781 153.386719 C 245.539062 153.457031 244.527344 153.625 243.535156 153.917969 C 242.542969 154.21875 241.5625 154.636719 240.6875 155.261719 C 240.445312 155.457031 240.960938 156.445312 241.222656 156.421875 C 242.117188 156.25 243.03125 156.175781 243.949219 156.105469 C 244.875 156.046875 245.796875 155.984375 246.71875 155.925781 C 248.574219 155.816406 250.445312 155.640625 252.351562 155.5 C 252.675781 155.453125 252.875 154.367188 252.550781 154.222656 C 250.617188 153.511719 248.578125 153.265625 246.550781 153.386719 Z M 264.824219 149.589844 C 264.796875 148.875 264.757812 148.3125 264.746094 147.65625 C 264.730469 147.015625 264.714844 146.347656 264.671875 145.667969 C 264.574219 144.320312 264.429688 142.894531 263.8125 141.523438 C 263.601562 141.136719 262.570312 141.570312 262.585938 141.894531 C 262.71875 143.082031 262.558594 144.347656 262.445312 145.636719 C 262.421875 145.863281 262.402344 146.097656 262.378906 146.328125 C 262.078125 146.378906 261.761719 146.421875 261.453125 146.460938 C 260.851562 146.535156 260.25 146.605469 259.644531 146.667969 C 259.101562 146.71875 258.558594 146.773438 258.019531 146.824219 C 258.28125 146.28125 258.578125 145.734375 258.898438 145.1875 C 259.5625 144.074219 260.289062 142.949219 261.085938 141.890625 C 261.285156 141.597656 260.554688 140.753906 260.210938 140.960938 C 259.019531 141.785156 257.972656 142.773438 257.050781 143.894531 C 256.589844 144.457031 256.167969 145.058594 255.792969 145.714844 C 255.425781 146.371094 255.097656 147.078125 254.898438 147.914062 L 254.890625 147.945312 C 254.871094 148.035156 254.859375 148.128906 254.859375 148.226562 C 254.863281 148.914062 255.421875 149.472656 256.109375 149.46875 C 256.882812 149.46875 257.511719 149.375 258.167969 149.261719 C 258.808594 149.148438 259.4375 149 260.058594 148.828125 C 260.683594 148.660156 261.296875 148.457031 261.90625 148.222656 C 262.027344 148.175781 262.144531 148.128906 262.261719 148.078125 C 262.246094 148.625 262.261719 149.191406 262.277344 149.664062 C 262.316406 150.957031 262.355469 152.289062 262.507812 153.644531 C 262.660156 154.996094 262.929688 156.378906 263.433594 157.6875 C 263.632812 158.128906 264.699219 157.835938 264.703125 157.40625 C 264.566406 154.855469 264.90625 152.3125 264.824219 149.589844 Z M 275.550781 148.25 C 275.527344 149.511719 275.527344 150.765625 275.585938 152.011719 C 275.648438 153.253906 275.765625 154.496094 276.070312 155.652344 C 276.25 156.347656 275.28125 156.898438 274.855469 156.105469 C 274.300781 154.90625 273.988281 153.65625 273.753906 152.40625 C 273.386719 152.886719 272.945312 153.332031 272.40625 153.695312 C 271.925781 154.019531 271.378906 154.261719 270.816406 154.398438 C 270.25 154.535156 269.648438 154.585938 269.015625 154.484375 C 268.386719 154.386719 267.699219 154.105469 267.171875 153.570312 C 266.636719 153.042969 266.359375 152.324219 266.285156 151.707031 C 266.207031 151.089844 266.257812 150.480469 266.445312 149.890625 C 266.628906 149.308594 266.949219 148.792969 267.320312 148.367188 C 268.070312 147.523438 268.996094 146.988281 269.945312 146.660156 C 270.902344 146.339844 271.898438 146.179688 272.941406 146.308594 C 273.460938 146.382812 274.003906 146.519531 274.515625 146.863281 C 274.664062 146.960938 274.804688 147.082031 274.933594 147.222656 C 275.324219 147.421875 275.558594 147.824219 275.550781 148.25 Z M 273.277344 148.027344 C 273.132812 148.007812 272.980469 148 272.824219 148.003906 C 272.121094 148.015625 271.367188 148.230469 270.707031 148.546875 C 270.039062 148.859375 269.457031 149.3125 269.09375 149.808594 C 268.71875 150.308594 268.617188 150.832031 268.710938 151.339844 C 268.757812 151.582031 268.839844 151.710938 268.933594 151.792969 C 269.027344 151.875 269.179688 151.949219 269.410156 151.984375 C 269.878906 152.054688 270.53125 151.902344 271.003906 151.585938 C 271.503906 151.265625 271.945312 150.742188 272.324219 150.09375 C 272.679688 149.484375 272.976562 148.777344 273.277344 148.027344 Z M 285.824219 152.957031 C 285.027344 153.960938 283.839844 154.320312 282.777344 154.132812 C 282.242188 154.046875 281.753906 153.8125 281.371094 153.5 C 280.984375 153.191406 280.722656 152.789062 280.566406 152.328125 C 280.25 151.421875 280.4375 150.121094 280.9375 149.023438 C 281.191406 148.480469 281.53125 147.992188 281.941406 147.640625 C 282.347656 147.285156 282.84375 147.097656 283.441406 147.125 C 283.757812 147.117188 284.21875 146.089844 283.722656 145.878906 C 283.304688 145.714844 282.828125 145.664062 282.347656 145.6875 C 282.113281 145.710938 281.871094 145.753906 281.640625 145.816406 C 281.421875 145.898438 281.179688 145.964844 280.980469 146.085938 C 280.136719 146.519531 279.492188 147.1875 279.007812 147.917969 C 278.523438 148.652344 278.191406 149.464844 278.015625 150.339844 C 277.839844 151.214844 277.835938 152.191406 278.148438 153.132812 C 278.460938 154.070312 279.089844 154.933594 279.90625 155.484375 C 280.714844 156.046875 281.667969 156.34375 282.609375 156.359375 C 283.546875 156.375 284.492188 156.125 285.265625 155.621094 C 285.652344 155.367188 285.996094 155.0625 286.28125 154.71875 C 286.566406 154.367188 286.785156 153.988281 286.953125 153.59375 C 287.140625 153.023438 286.089844 152.644531 285.824219 152.957031 Z M 284.015625 163.160156 C 281.070312 163.203125 278.105469 162.964844 275.097656 162.855469 C 272.078125 162.722656 269.046875 162.867188 266.058594 163.070312 C 263.066406 163.273438 260.097656 163.53125 257.148438 163.640625 C 254.148438 163.753906 251.152344 163.925781 248.160156 164.140625 C 242.179688 164.574219 236.226562 165.164062 230.28125 165.707031 C 224.332031 166.238281 218.378906 166.765625 212.429688 167.234375 C 200.53125 168.164062 188.621094 168.875 176.710938 168.925781 C 173.734375 168.933594 170.757812 168.917969 167.78125 168.835938 L 165.550781 168.777344 C 164.792969 168.753906 164.035156 168.738281 163.277344 168.738281 C 161.765625 168.738281 160.257812 168.78125 158.757812 168.839844 C 155.761719 168.960938 152.789062 169.152344 149.828125 169.199219 C 146.898438 169.230469 143.90625 168.984375 140.882812 169.007812 C 138.835938 169.03125 137.820312 169.5 137.871094 169.785156 C 137.917969 170.09375 138.902344 170.234375 140.871094 170.300781 C 143.820312 170.378906 146.78125 170.722656 149.828125 170.785156 C 152.839844 170.832031 155.835938 170.726562 158.808594 170.683594 C 160.296875 170.664062 161.777344 170.65625 163.253906 170.695312 C 163.992188 170.710938 164.722656 170.742188 165.460938 170.78125 L 167.707031 170.890625 C 170.703125 171.039062 173.703125 171.113281 176.703125 171.160156 C 188.699219 171.316406 200.691406 170.703125 212.632812 169.769531 C 218.601562 169.300781 224.558594 168.746094 230.515625 168.15625 C 236.472656 167.558594 242.40625 166.890625 248.339844 166.359375 C 251.308594 166.09375 254.277344 165.863281 257.246094 165.683594 C 260.261719 165.507812 263.242188 165.171875 266.207031 164.894531 C 269.171875 164.613281 272.109375 164.390625 275.0625 164.425781 C 278.027344 164.445312 281.03125 164.585938 284.054688 164.4375 C 285.773438 164.332031 286.59375 163.914062 286.558594 163.625 C 286.523438 163.320312 285.671875 163.140625 284.015625 163.160156 Z M 213.035156 184.734375 C 210.898438 184.402344 208.683594 184.265625 206.464844 184.4375 C 207.117188 183.765625 207.761719 183.078125 208.390625 182.363281 C 209.09375 181.558594 209.773438 180.722656 210.398438 179.804688 C 210.710938 179.34375 211.011719 178.863281 211.277344 178.332031 C 211.542969 177.796875 211.792969 177.21875 211.902344 176.472656 C 211.9375 176.089844 211.964844 175.664062 211.800781 175.179688 C 211.769531 175.050781 211.726562 174.972656 211.6875 174.882812 L 211.5625 174.617188 C 211.46875 174.445312 211.34375 174.273438 211.226562 174.113281 C 210.953125 173.796875 210.628906 173.507812 210.261719 173.332031 C 209.898438 173.132812 209.527344 173.039062 209.167969 172.976562 C 208.449219 172.867188 207.804688 172.953125 207.210938 173.085938 C 206.613281 173.226562 206.066406 173.433594 205.542969 173.675781 C 204.507812 174.171875 203.570312 174.796875 202.738281 175.566406 C 202.324219 175.949219 201.9375 176.371094 201.597656 176.84375 C 201.261719 177.316406 200.957031 177.847656 200.804688 178.480469 C 200.757812 178.742188 200.808594 178.953125 200.925781 179.085938 C 201.035156 179.21875 201.183594 179.269531 201.332031 179.261719 C 201.484375 179.257812 201.636719 179.207031 201.757812 179.136719 C 201.871094 179.0625 201.980469 178.972656 202.035156 178.835938 C 202.34375 178.105469 203.0625 177.417969 203.820312 176.867188 C 204.585938 176.308594 205.453125 175.859375 206.324219 175.539062 C 206.761719 175.382812 207.203125 175.261719 207.628906 175.203125 C 208.050781 175.140625 208.460938 175.132812 208.769531 175.210938 C 209.082031 175.289062 209.246094 175.414062 209.363281 175.570312 C 209.386719 175.625 209.417969 175.664062 209.445312 175.722656 L 209.476562 175.8125 C 209.488281 175.84375 209.507812 175.878906 209.5 175.878906 C 209.507812 175.890625 209.5 176 209.484375 176.125 C 209.429688 176.40625 209.269531 176.800781 209.058594 177.1875 C 208.847656 177.578125 208.589844 177.976562 208.316406 178.371094 C 207.757812 179.160156 207.125 179.9375 206.46875 180.703125 C 205.8125 181.472656 205.128906 182.230469 204.433594 182.992188 C 203.738281 183.765625 203.046875 184.492188 202.324219 185.375 L 202.285156 185.421875 C 202.050781 185.710938 201.964844 186.109375 202.085938 186.488281 C 202.277344 187.089844 202.921875 187.421875 203.523438 187.230469 C 206.488281 186.285156 209.6875 185.992188 212.929688 186.023438 C 213.890625 186.015625 214.011719 184.917969 213.035156 184.734375 Z M 224.40625 176.929688 C 224.632812 177.117188 224.652344 177.4375 224.535156 177.71875 C 224.464844 177.894531 224.308594 178.042969 224.105469 178.078125 C 223.828125 180.15625 224.058594 182.441406 224.09375 184.761719 C 224.078125 185.617188 222.972656 185.6875 222.804688 184.886719 C 222.59375 183.753906 222.351562 182.605469 222.171875 181.421875 C 221.867188 181.808594 221.53125 182.175781 221.160156 182.527344 C 220.773438 182.886719 220.351562 183.230469 219.816406 183.527344 C 219.683594 183.601562 219.542969 183.671875 219.382812 183.730469 C 219.238281 183.796875 219.0625 183.851562 218.886719 183.898438 C 218.714844 183.949219 218.5 183.96875 218.304688 183.988281 C 218.082031 183.984375 217.867188 183.988281 217.632812 183.925781 C 217.398438 183.882812 217.179688 183.785156 216.964844 183.675781 C 216.769531 183.558594 216.578125 183.414062 216.429688 183.265625 C 216.292969 183.117188 216.144531 182.953125 216.058594 182.800781 C 215.957031 182.644531 215.863281 182.488281 215.804688 182.339844 C 215.535156 181.738281 215.429688 181.191406 215.367188 180.671875 C 215.328125 180.421875 215.3125 180.121094 215.3125 179.824219 L 215.335938 179.375 C 215.355469 179.226562 215.382812 179.078125 215.410156 178.929688 C 215.53125 178.335938 215.773438 177.761719 216.109375 177.269531 C 216.78125 176.273438 217.773438 175.621094 218.78125 175.261719 C 219.289062 175.078125 219.800781 174.964844 220.363281 174.917969 C 220.917969 174.871094 221.542969 174.925781 222.105469 175.160156 C 222.539062 175.335938 222.898438 175.59375 223.203125 175.847656 C 223.277344 175.851562 223.351562 175.863281 223.429688 175.882812 C 223.882812 176 224.195312 176.375 224.261719 176.8125 C 224.308594 176.851562 224.359375 176.890625 224.40625 176.929688 Z M 218.144531 181.574219 C 218.144531 181.574219 218.140625 181.585938 218.140625 181.582031 Z M 218.210938 181.46875 C 218.210938 181.46875 218.207031 181.472656 218.207031 181.472656 C 218.207031 181.472656 218.210938 181.46875 218.210938 181.46875 Z M 221.617188 177.808594 C 221.773438 177.507812 221.902344 177.195312 221.984375 176.929688 C 221.832031 176.855469 221.6875 176.796875 221.546875 176.765625 C 221.246094 176.695312 220.941406 176.707031 220.597656 176.78125 C 220.257812 176.851562 219.882812 176.976562 219.554688 177.144531 C 218.890625 177.46875 218.34375 177.945312 218.042969 178.492188 C 217.890625 178.761719 217.796875 179.050781 217.753906 179.351562 L 217.734375 179.578125 L 217.734375 179.808594 C 217.746094 179.96875 217.757812 180.117188 217.796875 180.320312 C 217.855469 180.699219 217.957031 181.046875 218.070312 181.265625 C 218.09375 181.332031 218.125 181.363281 218.148438 181.398438 C 218.164062 181.433594 218.175781 181.441406 218.183594 181.449219 C 218.207031 181.441406 218.226562 181.449219 218.269531 181.429688 C 218.3125 181.417969 218.355469 181.410156 218.414062 181.378906 C 218.46875 181.359375 218.53125 181.328125 218.597656 181.289062 C 218.859375 181.148438 219.15625 180.925781 219.4375 180.667969 C 220.007812 180.152344 220.539062 179.511719 221 178.839844 C 221.226562 178.503906 221.4375 178.15625 221.617188 177.808594 Z M 221.617188 177.808594 " fill-opacity="1" fill-rule="nonzero"/></g></svg>