<svg xmlns="http://www.w3.org/2000/svg" xmlns:xlink="http://www.w3.org/1999/xlink" width="500" zoomAndPan="magnify" viewBox="0 0 375 374.999991" height="500" preserveAspectRatio="xMidYMid meet" version="1.0">
    <defs>
        <clipPath id="id1">
            <path d="M 2.851562 2.851562 L 371.851562 2.851562 L 371.851562 371.851562 L 2.851562 371.851562 Z M 2.851562 2.851562 " clip-rule="nonzero" />
        </clipPath>
        <clipPath id="id2">
            <path d="M 98 100.183594 L 340.820312 100.183594 L 340.820312 262 L 98 262 Z M 98 100.183594 " clip-rule="nonzero" />
        </clipPath>
        <clipPath id="id3">
            <path d="M 72 149 L 326 149 L 326 274.933594 L 72 274.933594 Z M 72 149 " clip-rule="nonzero" />
        </clipPath>
        <clipPath id="id4">
            <path d="M 34.070312 110 L 339 110 L 339 274.933594 L 34.070312 274.933594 Z M 34.070312 110 " clip-rule="nonzero" />
        </clipPath>
        <clipPath id="id5">
            <path d="M 34.070312 100.183594 L 340.820312 100.183594 L 340.820312 274.933594 L 34.070312 274.933594 Z M 34.070312 100.183594 " clip-rule="nonzero" />
        </clipPath>
    </defs>
    <g clip-path="url(#id1)">
        <path fill="#487600" d="M 187.351562 2.851562 C 85.457031 2.851562 2.851562 85.457031 2.851562 187.351562 C 2.851562 289.25 85.457031 371.851562 187.351562 371.851562 C 289.25 371.851562 371.851562 289.25 371.851562 187.351562 C 371.851562 85.457031 289.25 2.851562 187.351562 2.851562 " fill-opacity="1" fill-rule="nonzero" />
    </g>
    <g clip-path="url(#id2)">
        <path fill="#6d625d" d="M 134.71875 173.007812 L 143.730469 173.007812 L 143.730469 256.609375 L 134.71875 256.609375 Z M 118.96875 170.171875 L 118.96875 170.140625 L 98.210938 170.140625 L 98.210938 259.304688 L 118.96875 259.304688 L 118.96875 259.273438 C 124.386719 258.925781 128.675781 254.425781 128.675781 248.914062 L 128.675781 180.53125 C 128.675781 175.019531 124.386719 170.523438 118.96875 170.171875 Z M 293.859375 175.207031 L 310.1875 175.207031 L 310.1875 249.128906 C 310.1875 256.207031 304.453125 261.949219 297.382812 261.949219 L 288.519531 261.949219 C 288.085938 261.949219 287.65625 261.925781 287.234375 261.882812 C 286.746094 261.921875 286.253906 261.949219 285.753906 261.949219 L 152.742188 261.949219 L 152.742188 175.207031 L 178.109375 175.207031 L 141.53125 148.558594 C 140.203125 147.59375 139.417969 146.046875 139.417969 144.402344 L 139.417969 139.875 L 139.015625 141.792969 L 125.3125 148.085938 L 125.3125 149.023438 C 125.3125 151.097656 123.628906 152.78125 121.558594 152.78125 L 118.328125 152.78125 C 116.253906 152.78125 114.574219 151.097656 114.574219 149.023438 L 114.574219 104.257812 C 114.574219 102.179688 116.253906 100.496094 118.328125 100.496094 L 121.558594 100.496094 C 123.628906 100.496094 125.3125 102.179688 125.3125 104.257812 L 125.3125 114.1875 L 144.773438 114.1875 L 144.773438 114.191406 L 282.894531 116.914062 C 284.929688 116.953125 286.746094 118.191406 287.53125 120.066406 L 303.734375 158.777344 C 304.46875 160.527344 304.175781 162.542969 302.976562 164.015625 Z M 275.714844 175.207031 L 281.113281 175.207031 C 281.300781 174.570312 281.613281 173.957031 282.058594 173.410156 L 291.117188 162.296875 C 292.316406 160.824219 292.605469 158.808594 291.871094 157.058594 L 280.640625 130.222656 C 279.855469 128.34375 278.035156 127.105469 276.003906 127.066406 L 154.933594 124.679688 C 152.054688 124.621094 149.691406 126.941406 149.691406 129.820312 L 149.691406 139.164062 C 149.691406 140.808594 150.480469 142.355469 151.808594 143.324219 L 193.179688 173.460938 C 193.832031 173.9375 194.332031 174.539062 194.6875 175.207031 Z M 325.203125 184.296875 L 325.203125 207.414062 L 340.515625 211.324219 L 340.515625 179.933594 Z M 325.203125 184.296875 " fill-opacity="1" fill-rule="nonzero" />
    </g>
    <g clip-path="url(#id3)">
        <path fill="#d9d9d9" d="M 127.199219 175.207031 L 134.71875 175.207031 L 134.71875 254.410156 L 127.09375 254.410156 C 128.089844 252.816406 128.675781 250.933594 128.675781 248.914062 L 128.675781 180.53125 C 128.675781 178.582031 128.128906 176.765625 127.199219 175.207031 Z M 74.414062 149.195312 C 72.492188 149.195312 71.441406 151.449219 72.667969 152.9375 L 76.53125 157.621094 C 76.867188 158.03125 77.050781 158.546875 77.050781 159.078125 L 77.050781 264.738281 C 77.050781 265.273438 76.867188 265.789062 76.53125 266.199219 L 72.667969 270.882812 C 71.441406 272.371094 72.492188 274.625 74.414062 274.625 L 84.519531 274.625 L 84.519531 149.195312 Z M 143.730469 254.410156 L 152.742188 254.410156 L 152.742188 175.207031 L 143.730469 175.207031 Z M 310.1875 185.613281 L 310.1875 205.644531 L 325.203125 205.644531 L 325.203125 185.613281 Z M 303.304688 207.605469 L 303.304688 228.878906 C 303.304688 241.972656 292.703125 252.585938 279.625 252.585938 L 201.78125 252.585938 C 188.703125 252.585938 178.101562 241.972656 178.101562 228.878906 L 178.101562 207.605469 C 178.101562 194.511719 188.703125 183.898438 201.78125 183.898438 L 279.625 183.898438 C 292.703125 183.898438 303.304688 194.511719 303.304688 207.605469 Z M 290.757812 214.890625 C 290.757812 204.050781 281.980469 195.265625 271.152344 195.265625 L 210.253906 195.265625 C 207.21875 195.265625 204.347656 195.957031 201.78125 197.1875 L 201.78125 240.957031 C 204.347656 242.1875 207.21875 242.878906 210.253906 242.878906 L 271.152344 242.878906 C 281.980469 242.878906 290.757812 234.089844 290.757812 223.253906 Z M 290.757812 214.890625 " fill-opacity="1" fill-rule="nonzero" />
    </g>
    <g clip-path="url(#id4)">
        <path fill="#423d3d" d="M 171.222656 197.347656 L 171.222656 206.730469 C 171.222656 209.601562 168.894531 211.933594 166.023438 211.933594 C 163.152344 211.933594 160.824219 209.601562 160.824219 206.730469 L 160.824219 197.347656 C 160.824219 194.476562 163.152344 192.144531 166.023438 192.144531 C 168.894531 192.144531 171.222656 194.476562 171.222656 197.347656 Z M 81.355469 110.03125 L 45.320312 110.03125 C 39.273438 110.03125 34.371094 114.9375 34.371094 120.992188 L 34.371094 129.109375 C 34.371094 135.164062 39.273438 140.070312 45.320312 140.070312 L 114.574219 140.070312 L 114.574219 110.03125 Z M 84.519531 274.289062 L 111.898438 259.304688 L 111.898438 170.140625 L 84.519531 149.578125 Z M 148.324219 161.539062 C 141.761719 160.863281 134.492188 158.730469 128.875 155.832031 C 126.457031 154.585938 124.683594 153.382812 123.410156 152.285156 C 122.863281 152.597656 122.230469 152.78125 121.558594 152.78125 L 119.300781 152.78125 C 123.980469 158.574219 136.765625 163.675781 147.984375 164.828125 C 161.761719 166.242188 177.527344 175.503906 177.6875 175.597656 L 177.976562 175.109375 L 165.6875 166.15625 C 160.429688 164.070312 154.261719 162.148438 148.324219 161.539062 Z M 310.1875 219.070312 L 310.1875 249.558594 L 339 249.558594 L 339 219.070312 Z M 192.652344 161.117188 C 190.484375 157.71875 187.214844 152.585938 186.503906 142.699219 C 186.011719 135.890625 182.109375 130.058594 175.21875 125.832031 C 174.769531 125.554688 174.324219 125.300781 173.878906 125.054688 L 164.804688 124.875 C 167.683594 125.679688 182.304688 130.367188 183.207031 142.9375 C 183.980469 153.660156 187.523438 159.21875 189.867188 162.894531 C 190.820312 164.390625 191.570312 165.566406 191.652344 166.402344 C 191.859375 168.511719 191.5 170.6875 191.207031 172.023438 L 193.179688 173.464844 C 193.503906 173.699219 193.789062 173.96875 194.042969 174.261719 C 194.214844 173.691406 195.3125 169.898438 194.941406 166.082031 C 194.78125 164.457031 193.84375 162.980469 192.652344 161.117188 Z M 192.652344 161.117188 " fill-opacity="1" fill-rule="nonzero" />
    </g>
    <g clip-path="url(#id5)">
        <path fill="#000000" d="M 166.023438 212.238281 C 169.054688 212.238281 171.523438 209.765625 171.523438 206.730469 L 171.523438 197.347656 C 171.523438 194.3125 169.054688 191.839844 166.023438 191.839844 C 162.988281 191.839844 160.519531 194.3125 160.519531 197.347656 L 160.519531 206.730469 C 160.519531 209.765625 162.988281 212.238281 166.023438 212.238281 Z M 161.125 197.347656 C 161.125 194.648438 163.324219 192.449219 166.023438 192.449219 C 168.722656 192.449219 170.917969 194.644531 170.917969 197.347656 L 170.917969 206.730469 C 170.917969 209.429688 168.722656 211.628906 166.023438 211.628906 C 163.324219 211.628906 161.125 209.429688 161.125 206.730469 Z M 340.820312 211.714844 L 340.820312 179.53125 L 325.121094 184.007812 L 324.898438 184.070312 L 324.898438 185.308594 L 310.492188 185.308594 L 310.492188 174.902344 L 294.5 174.902344 L 303.210938 164.207031 C 304.484375 162.644531 304.792969 160.519531 304.015625 158.660156 L 287.8125 119.949219 C 286.980469 117.964844 285.054688 116.652344 282.902344 116.609375 L 144.773438 113.886719 L 144.773438 113.882812 L 125.613281 113.882812 L 125.613281 104.257812 C 125.613281 102.015625 123.792969 100.195312 121.558594 100.195312 L 118.328125 100.195312 C 116.089844 100.195312 114.269531 102.015625 114.269531 104.257812 L 114.269531 109.726562 L 45.320312 109.726562 C 39.117188 109.726562 34.070312 114.78125 34.070312 120.992188 L 34.070312 129.109375 C 34.070312 135.320312 39.117188 140.375 45.320312 140.375 L 114.269531 140.375 L 114.269531 149.023438 C 114.269531 151.261719 116.089844 153.082031 118.328125 153.082031 L 119.15625 153.082031 C 123.773438 158.664062 136.359375 163.9375 147.957031 165.128906 C 159.03125 166.265625 171.578125 172.605469 175.820312 174.902344 L 144.035156 174.902344 L 144.035156 172.703125 L 134.414062 172.703125 L 134.414062 174.902344 L 127.363281 174.902344 C 125.589844 172.046875 122.515625 170.09375 118.96875 169.871094 L 118.96875 169.835938 L 112.003906 169.835938 L 84.820312 149.425781 L 84.820312 148.890625 L 74.414062 148.890625 C 73.410156 148.890625 72.519531 149.460938 72.089844 150.371094 C 71.65625 151.289062 71.789062 152.347656 72.433594 153.128906 L 76.296875 157.816406 C 76.585938 158.167969 76.75 158.617188 76.75 159.078125 L 76.75 264.742188 C 76.75 265.203125 76.585938 265.652344 76.296875 266.003906 L 72.433594 270.691406 C 71.789062 271.472656 71.65625 272.53125 72.089844 273.449219 C 72.519531 274.359375 73.410156 274.929688 74.414062 274.929688 L 84.820312 274.929688 L 84.820312 274.46875 L 111.976562 259.609375 L 118.96875 259.609375 L 118.96875 259.574219 C 122.441406 259.359375 125.46875 257.476562 127.257812 254.714844 L 134.414062 254.714844 L 134.414062 256.914062 L 144.035156 256.914062 L 144.035156 254.714844 L 152.4375 254.714844 L 152.4375 262.25 L 285.757812 262.25 C 286.210938 262.25 286.703125 262.230469 287.203125 262.183594 C 287.640625 262.230469 288.082031 262.25 288.519531 262.25 L 297.382812 262.25 C 304.363281 262.25 310.089844 256.757812 310.46875 249.859375 L 339.300781 249.859375 L 339.300781 218.765625 L 310.492188 218.765625 L 310.492188 205.949219 L 324.898438 205.949219 L 324.898438 207.648438 Z M 325.507812 184.527344 L 340.214844 180.335938 L 340.214844 210.933594 L 325.507812 207.175781 Z M 114.269531 139.765625 L 45.320312 139.765625 C 39.453125 139.765625 34.675781 134.984375 34.675781 129.109375 L 34.675781 120.992188 C 34.675781 115.113281 39.453125 110.335938 45.320312 110.335938 L 114.269531 110.335938 Z M 84.214844 274.320312 L 74.414062 274.320312 C 73.636719 274.320312 72.972656 273.898438 72.640625 273.191406 C 72.308594 272.484375 72.40625 271.675781 72.902344 271.078125 L 76.765625 266.390625 C 77.144531 265.929688 77.355469 265.34375 77.355469 264.742188 L 77.355469 159.078125 C 77.355469 158.476562 77.144531 157.890625 76.765625 157.429688 L 72.902344 152.742188 C 72.410156 152.144531 72.308594 151.335938 72.640625 150.628906 C 72.972656 149.921875 73.636719 149.5 74.414062 149.5 L 84.214844 149.5 Z M 111.597656 259.125 L 84.820312 273.777344 L 84.820312 150.1875 L 111.597656 170.289062 Z M 118.296875 259.003906 L 112.203125 259.003906 L 112.203125 170.441406 L 118.296875 170.441406 C 123.851562 170.441406 128.371094 174.96875 128.371094 180.53125 L 128.371094 248.914062 C 128.371094 254.476562 123.851562 259.003906 118.296875 259.003906 Z M 134.414062 254.105469 L 127.628906 254.105469 C 128.484375 252.566406 128.980469 250.800781 128.980469 248.914062 L 128.980469 180.53125 C 128.980469 178.714844 128.523438 177.007812 127.722656 175.511719 L 134.414062 175.511719 Z M 143.425781 256.304688 L 135.023438 256.304688 L 135.023438 173.3125 L 143.425781 173.3125 Z M 152.4375 254.105469 L 144.035156 254.105469 L 144.035156 175.511719 L 152.4375 175.511719 Z M 282.890625 117.21875 C 284.800781 117.253906 286.515625 118.421875 287.253906 120.1875 L 303.453125 158.894531 C 304.144531 160.546875 303.875 162.4375 302.742188 163.824219 L 293.714844 174.902344 L 281.539062 174.902344 C 281.722656 174.433594 281.972656 174 282.296875 173.601562 L 291.351562 162.488281 C 292.625 160.925781 292.929688 158.800781 292.152344 156.941406 L 280.921875 130.105469 C 280.089844 128.117188 278.160156 126.804688 276.007812 126.761719 L 154.9375 124.375 C 153.464844 124.347656 152.074219 124.898438 151.019531 125.933594 C 149.96875 126.964844 149.390625 128.347656 149.390625 129.824219 L 149.390625 139.164062 C 149.390625 140.902344 150.226562 142.546875 151.628906 143.570312 L 193 173.707031 C 193.460938 174.042969 193.84375 174.449219 194.152344 174.902344 L 178.207031 174.902344 L 141.710938 148.3125 C 140.464844 147.40625 139.71875 145.945312 139.71875 144.402344 L 139.71875 119.332031 C 139.71875 118.019531 140.234375 116.792969 141.171875 115.875 C 142.105469 114.957031 143.34375 114.460938 144.648438 114.492188 Z M 191.953125 166.371094 C 191.867188 165.464844 191.097656 164.257812 190.121094 162.726562 C 187.792969 159.078125 184.277344 153.558594 183.511719 142.914062 C 182.726562 132.039062 171.898438 126.984375 166.886719 125.21875 L 173.800781 125.355469 C 174.21875 125.585938 174.636719 125.832031 175.0625 126.089844 C 181.863281 130.265625 185.714844 136.015625 186.199219 142.722656 C 186.917969 152.683594 190.214844 157.855469 192.394531 161.28125 C 193.5625 163.113281 194.484375 164.558594 194.636719 166.109375 C 194.945312 169.269531 194.230469 172.414062 193.894531 173.667969 C 193.722656 173.507812 193.546875 173.355469 193.355469 173.214844 L 191.542969 171.894531 C 191.851562 170.457031 192.152344 168.394531 191.953125 166.371094 Z M 191.003906 171.503906 L 151.988281 143.078125 C 150.742188 142.171875 149.996094 140.707031 149.996094 139.164062 L 149.996094 129.824219 C 149.996094 128.511719 150.511719 127.285156 151.445312 126.367188 C 152.382812 125.449219 153.621094 124.960938 154.925781 124.984375 L 164.757812 125.175781 C 167.714844 126.007812 182.019531 130.648438 182.90625 142.960938 C 183.683594 153.753906 187.25 159.351562 189.609375 163.058594 C 190.542969 164.515625 191.277344 165.667969 191.351562 166.429688 C 191.527344 168.253906 191.28125 170.125 191.003906 171.503906 Z M 195.242188 166.050781 C 195.078125 164.355469 194.121094 162.855469 192.90625 160.953125 C 190.757812 157.582031 187.511719 152.488281 186.804688 142.679688 C 186.308594 135.769531 182.355469 129.851562 175.378906 125.570312 C 175.269531 125.503906 175.160156 125.445312 175.050781 125.378906 L 275.996094 127.371094 C 277.910156 127.410156 279.621094 128.574219 280.359375 130.339844 L 291.59375 157.175781 C 292.285156 158.828125 292.011719 160.71875 290.878906 162.105469 L 281.824219 173.21875 C 281.414062 173.726562 281.105469 174.292969 280.898438 174.902344 L 194.867188 174.902344 L 194.820312 174.808594 C 194.6875 174.59375 194.539062 174.386719 194.378906 174.191406 C 194.648438 173.253906 195.59375 169.660156 195.242188 166.050781 Z M 125.613281 114.492188 L 142.058594 114.492188 C 141.582031 114.738281 141.136719 115.054688 140.746094 115.441406 C 139.691406 116.472656 139.113281 117.855469 139.113281 119.328125 L 139.113281 141.40625 L 125.613281 147.613281 Z M 125.613281 148.28125 L 139.113281 142.082031 L 139.113281 144.398438 C 139.113281 146.136719 139.949219 147.78125 141.351562 148.804688 L 163.667969 165.058594 C 158.070312 162.992188 152.925781 161.703125 148.351562 161.234375 C 141.828125 160.566406 134.597656 158.445312 129.011719 155.5625 C 126.953125 154.5 125.246094 153.410156 123.917969 152.316406 C 124.941406 151.578125 125.613281 150.378906 125.613281 149.023438 Z M 118.328125 152.476562 C 116.425781 152.476562 114.875 150.925781 114.875 149.023438 L 114.875 104.257812 C 114.875 102.351562 116.425781 100.800781 118.328125 100.800781 L 121.558594 100.800781 C 123.460938 100.800781 125.007812 102.351562 125.007812 104.257812 L 125.007812 149.023438 C 125.007812 150.925781 123.460938 152.476562 121.558594 152.476562 Z M 148.015625 164.523438 C 136.828125 163.375 124.730469 158.410156 119.953125 153.082031 L 121.558594 153.082031 C 122.210938 153.082031 122.824219 152.925781 123.371094 152.648438 C 124.753906 153.816406 126.554688 154.976562 128.734375 156.101562 C 134.386719 159.015625 141.695312 161.160156 148.292969 161.839844 C 153.375 162.363281 159.179688 163.90625 165.539062 166.425781 L 177.175781 174.902344 L 177.082031 174.902344 C 173.199219 172.726562 159.972656 165.75 148.015625 164.523438 Z M 309.882812 249.128906 C 309.882812 256.03125 304.273438 261.644531 297.382812 261.644531 L 288.519531 261.644531 C 288.101562 261.644531 287.679688 261.621094 287.210938 261.582031 C 286.671875 261.625 286.195312 261.644531 285.753906 261.644531 L 153.046875 261.644531 L 153.046875 175.511719 L 309.882812 175.511719 Z M 338.695312 219.375 L 338.695312 249.253906 L 310.488281 249.253906 C 310.488281 249.210938 310.492188 249.171875 310.492188 249.128906 L 310.492188 219.375 Z M 310.488281 205.339844 L 310.488281 185.914062 L 324.898438 185.914062 L 324.898438 205.339844 Z M 201.78125 252.886719 L 279.625 252.886719 C 292.847656 252.886719 303.609375 242.117188 303.609375 228.878906 L 303.609375 207.605469 C 303.609375 194.367188 292.847656 183.59375 279.625 183.59375 L 201.78125 183.59375 C 188.558594 183.59375 177.800781 194.367188 177.800781 207.605469 L 177.800781 228.878906 C 177.800781 242.117188 188.558594 252.886719 201.78125 252.886719 Z M 202.085938 197.382812 C 204.652344 196.183594 207.398438 195.570312 210.253906 195.570312 L 271.15625 195.570312 C 281.796875 195.570312 290.453125 204.234375 290.453125 214.890625 L 290.453125 223.25 C 290.453125 233.90625 281.796875 242.574219 271.15625 242.574219 L 210.253906 242.574219 C 207.398438 242.574219 204.652344 241.960938 202.085938 240.757812 Z M 202.085938 241.421875 C 204.660156 242.585938 207.402344 243.179688 210.253906 243.179688 L 271.15625 243.179688 C 282.132812 243.179688 291.0625 234.238281 291.0625 223.253906 L 291.0625 214.890625 C 291.0625 203.902344 282.128906 194.960938 271.15625 194.960938 L 210.253906 194.960938 C 207.402344 194.960938 204.660156 195.558594 202.085938 196.71875 L 202.085938 184.203125 L 279.625 184.203125 C 292.515625 184.203125 303 194.703125 303 207.605469 L 303 228.878906 C 303 241.78125 292.515625 252.28125 279.625 252.28125 L 202.085938 252.28125 Z M 201.480469 228.550781 L 191.84375 228.550781 L 191.84375 209.589844 L 201.480469 209.589844 Z M 178.40625 207.605469 C 178.40625 194.804688 188.730469 184.375 201.480469 184.210938 L 201.480469 208.984375 L 191.234375 208.984375 L 191.234375 229.160156 L 201.480469 229.160156 L 201.480469 252.273438 C 188.730469 252.109375 178.40625 241.679688 178.40625 228.878906 Z M 178.40625 207.605469 " fill-opacity="1" fill-rule="nonzero" />
    </g>
</svg>