<svg xmlns="http://www.w3.org/2000/svg" xmlns:xlink="http://www.w3.org/1999/xlink" width="500" zoomAndPan="magnify" viewBox="0 0 375 374.999991" height="500" preserveAspectRatio="xMidYMid meet" version="1.0"><defs><clipPath id="id1"><path d="M 2.851562 2.851562 L 371.851562 2.851562 L 371.851562 371.851562 L 2.851562 371.851562 Z M 2.851562 2.851562 " clip-rule="nonzero"/></clipPath><clipPath id="id2"><path d="M 75.253906 74.972656 L 299.503906 74.972656 L 299.503906 299.972656 L 75.253906 299.972656 Z M 75.253906 74.972656 " clip-rule="nonzero"/></clipPath><clipPath id="id3"><path d="M 84.523438 84.523438 L 111 84.523438 L 111 111 L 84.523438 111 Z M 84.523438 84.523438 " clip-rule="nonzero"/></clipPath><clipPath id="id4"><path d="M 110 84.523438 L 137 84.523438 L 137 111 L 110 111 Z M 110 84.523438 " clip-rule="nonzero"/></clipPath><clipPath id="id5"><path d="M 136 84.523438 L 162 84.523438 L 162 111 L 136 111 Z M 136 84.523438 " clip-rule="nonzero"/></clipPath><clipPath id="id6"><path d="M 161 84.523438 L 188 84.523438 L 188 111 L 161 111 Z M 161 84.523438 " clip-rule="nonzero"/></clipPath><clipPath id="id7"><path d="M 187 84.523438 L 214 84.523438 L 214 111 L 187 111 Z M 187 84.523438 " clip-rule="nonzero"/></clipPath><clipPath id="id8"><path d="M 213 84.523438 L 240 84.523438 L 240 111 L 213 111 Z M 213 84.523438 " clip-rule="nonzero"/></clipPath><clipPath id="id9"><path d="M 239 84.523438 L 265 84.523438 L 265 111 L 239 111 Z M 239 84.523438 " clip-rule="nonzero"/></clipPath><clipPath id="id10"><path d="M 264 84.523438 L 290.773438 84.523438 L 290.773438 111 L 264 111 Z M 264 84.523438 " clip-rule="nonzero"/></clipPath><clipPath id="id11"><path d="M 264 110 L 290.773438 110 L 290.773438 137 L 264 137 Z M 264 110 " clip-rule="nonzero"/></clipPath><clipPath id="id12"><path d="M 84.523438 110 L 111 110 L 111 137 L 84.523438 137 Z M 84.523438 110 " clip-rule="nonzero"/></clipPath><clipPath id="id13"><path d="M 84.523438 136 L 111 136 L 111 162 L 84.523438 162 Z M 84.523438 136 " clip-rule="nonzero"/></clipPath><clipPath id="id14"><path d="M 264 136 L 290.773438 136 L 290.773438 162 L 264 162 Z M 264 136 " clip-rule="nonzero"/></clipPath><clipPath id="id15"><path d="M 264 161 L 290.773438 161 L 290.773438 188 L 264 188 Z M 264 161 " clip-rule="nonzero"/></clipPath><clipPath id="id16"><path d="M 84.523438 161 L 111 161 L 111 188 L 84.523438 188 Z M 84.523438 161 " clip-rule="nonzero"/></clipPath><clipPath id="id17"><path d="M 84.523438 187 L 111 187 L 111 214 L 84.523438 214 Z M 84.523438 187 " clip-rule="nonzero"/></clipPath><clipPath id="id18"><path d="M 264 187 L 290.773438 187 L 290.773438 214 L 264 214 Z M 264 187 " clip-rule="nonzero"/></clipPath><clipPath id="id19"><path d="M 264 213 L 290.773438 213 L 290.773438 240 L 264 240 Z M 264 213 " clip-rule="nonzero"/></clipPath><clipPath id="id20"><path d="M 84.523438 213 L 111 213 L 111 240 L 84.523438 240 Z M 84.523438 213 " clip-rule="nonzero"/></clipPath><clipPath id="id21"><path d="M 84.523438 239 L 111 239 L 111 265 L 84.523438 265 Z M 84.523438 239 " clip-rule="nonzero"/></clipPath><clipPath id="id22"><path d="M 264 239 L 290.773438 239 L 290.773438 265 L 264 265 Z M 264 239 " clip-rule="nonzero"/></clipPath><clipPath id="id23"><path d="M 264 264 L 290.773438 264 L 290.773438 290.773438 L 264 290.773438 Z M 264 264 " clip-rule="nonzero"/></clipPath><clipPath id="id24"><path d="M 239 264 L 265 264 L 265 290.773438 L 239 290.773438 Z M 239 264 " clip-rule="nonzero"/></clipPath><clipPath id="id25"><path d="M 213 264 L 240 264 L 240 290.773438 L 213 290.773438 Z M 213 264 " clip-rule="nonzero"/></clipPath><clipPath id="id26"><path d="M 187 264 L 214 264 L 214 290.773438 L 187 290.773438 Z M 187 264 " clip-rule="nonzero"/></clipPath><clipPath id="id27"><path d="M 161 264 L 188 264 L 188 290.773438 L 161 290.773438 Z M 161 264 " clip-rule="nonzero"/></clipPath><clipPath id="id28"><path d="M 136 264 L 162 264 L 162 290.773438 L 136 290.773438 Z M 136 264 " clip-rule="nonzero"/></clipPath><clipPath id="id29"><path d="M 110 264 L 137 264 L 137 290.773438 L 110 290.773438 Z M 110 264 " clip-rule="nonzero"/></clipPath><clipPath id="id30"><path d="M 84.523438 264 L 111 264 L 111 290.773438 L 84.523438 290.773438 Z M 84.523438 264 " clip-rule="nonzero"/></clipPath></defs><g clip-path="url(#id1)"><path fill="#6e9f20" d="M 187.351562 2.851562 C 85.457031 2.851562 2.851562 85.457031 2.851562 187.351562 C 2.851562 289.25 85.457031 371.851562 187.351562 371.851562 C 289.25 371.851562 371.851562 289.25 371.851562 187.351562 C 371.851562 85.457031 289.25 2.851562 187.351562 2.851562 " fill-opacity="1" fill-rule="nonzero"/></g><g clip-path="url(#id2)"><path stroke-linecap="butt" transform="matrix(0.749217, 0, 0, 0.749844, 75.254472, 74.972697)" fill="none" stroke-linejoin="miter" d="M -0.000754532 -0.0000549805 L 299.311747 -0.0000549805 L 299.311747 300.062464 L -0.000754532 300.062464 L -0.000754532 -0.0000549805 " stroke="#704717" stroke-width="26" stroke-opacity="1" stroke-miterlimit="4"/></g><g clip-path="url(#id3)"><path fill="#e4e4e4" d="M 110.304688 110.308594 L 84.523438 110.308594 L 84.523438 84.527344 L 110.304688 84.527344 L 110.304688 110.308594 " fill-opacity="1" fill-rule="nonzero"/></g><g clip-path="url(#id4)"><path fill="#000000" d="M 136.085938 110.308594 L 110.304688 110.308594 L 110.304688 84.527344 L 136.085938 84.527344 L 136.085938 110.308594 " fill-opacity="1" fill-rule="nonzero"/></g><g clip-path="url(#id5)"><path fill="#e4e4e4" d="M 161.867188 110.308594 L 136.085938 110.308594 L 136.085938 84.527344 L 161.867188 84.527344 L 161.867188 110.308594 " fill-opacity="1" fill-rule="nonzero"/></g><g clip-path="url(#id6)"><path fill="#000000" d="M 187.648438 110.308594 L 161.867188 110.308594 L 161.867188 84.527344 L 187.648438 84.527344 L 187.648438 110.308594 " fill-opacity="1" fill-rule="nonzero"/></g><g clip-path="url(#id7)"><path fill="#e4e4e4" d="M 213.429688 110.308594 L 187.648438 110.308594 L 187.648438 84.527344 L 213.429688 84.527344 L 213.429688 110.308594 " fill-opacity="1" fill-rule="nonzero"/></g><g clip-path="url(#id8)"><path fill="#000000" d="M 239.210938 110.308594 L 213.429688 110.308594 L 213.429688 84.527344 L 239.210938 84.527344 L 239.210938 110.308594 " fill-opacity="1" fill-rule="nonzero"/></g><g clip-path="url(#id9)"><path fill="#e4e4e4" d="M 264.992188 110.308594 L 239.210938 110.308594 L 239.210938 84.527344 L 264.992188 84.527344 L 264.992188 110.308594 " fill-opacity="1" fill-rule="nonzero"/></g><g clip-path="url(#id10)"><path fill="#000000" d="M 290.773438 110.308594 L 264.992188 110.308594 L 264.992188 84.527344 L 290.773438 84.527344 L 290.773438 110.308594 " fill-opacity="1" fill-rule="nonzero"/></g><g clip-path="url(#id11)"><path fill="#e4e4e4" d="M 264.992188 136.085938 L 290.773438 136.085938 L 290.773438 110.308594 L 264.992188 110.308594 L 264.992188 136.085938 " fill-opacity="1" fill-rule="nonzero"/></g><path fill="#000000" d="M 239.210938 136.089844 L 264.992188 136.089844 L 264.992188 110.304688 L 239.210938 110.304688 L 239.210938 136.089844 " fill-opacity="1" fill-rule="nonzero"/><path fill="#e4e4e4" d="M 213.433594 136.089844 L 239.210938 136.089844 L 239.210938 110.304688 L 213.433594 110.304688 L 213.433594 136.089844 " fill-opacity="1" fill-rule="nonzero"/><path fill="#000000" d="M 187.648438 136.089844 L 213.433594 136.089844 L 213.433594 110.304688 L 187.648438 110.304688 L 187.648438 136.089844 " fill-opacity="1" fill-rule="nonzero"/><path fill="#e4e4e4" d="M 161.867188 136.089844 L 187.648438 136.089844 L 187.648438 110.304688 L 161.867188 110.304688 L 161.867188 136.089844 " fill-opacity="1" fill-rule="nonzero"/><path fill="#000000" d="M 136.085938 136.089844 L 161.867188 136.089844 L 161.867188 110.304688 L 136.085938 110.304688 L 136.085938 136.089844 " fill-opacity="1" fill-rule="nonzero"/><path fill="#e4e4e4" d="M 110.304688 136.089844 L 136.085938 136.089844 L 136.085938 110.304688 L 110.304688 110.304688 L 110.304688 136.089844 " fill-opacity="1" fill-rule="nonzero"/><g clip-path="url(#id12)"><path fill="#000000" d="M 84.523438 136.089844 L 110.304688 136.089844 L 110.304688 110.304688 L 84.523438 110.304688 L 84.523438 136.089844 " fill-opacity="1" fill-rule="nonzero"/></g><g clip-path="url(#id13)"><path fill="#e4e4e4" d="M 110.304688 161.871094 L 84.523438 161.871094 L 84.523438 136.085938 L 110.304688 136.085938 L 110.304688 161.871094 " fill-opacity="1" fill-rule="nonzero"/></g><path fill="#000000" d="M 136.085938 161.871094 L 110.304688 161.871094 L 110.304688 136.085938 L 136.085938 136.085938 L 136.085938 161.871094 " fill-opacity="1" fill-rule="nonzero"/><path fill="#e4e4e4" d="M 161.867188 161.871094 L 136.085938 161.871094 L 136.085938 136.085938 L 161.867188 136.085938 L 161.867188 161.871094 " fill-opacity="1" fill-rule="nonzero"/><path fill="#000000" d="M 187.648438 161.871094 L 161.867188 161.871094 L 161.867188 136.085938 L 187.648438 136.085938 L 187.648438 161.871094 " fill-opacity="1" fill-rule="nonzero"/><path fill="#e4e4e4" d="M 213.429688 161.871094 L 187.648438 161.871094 L 187.648438 136.085938 L 213.429688 136.085938 L 213.429688 161.871094 " fill-opacity="1" fill-rule="nonzero"/><path fill="#000000" d="M 239.210938 161.871094 L 213.429688 161.871094 L 213.429688 136.085938 L 239.210938 136.085938 L 239.210938 161.871094 " fill-opacity="1" fill-rule="nonzero"/><path fill="#e4e4e4" d="M 264.992188 161.867188 L 239.210938 161.867188 L 239.210938 136.089844 L 264.992188 136.089844 L 264.992188 161.867188 " fill-opacity="1" fill-rule="nonzero"/><g clip-path="url(#id14)"><path fill="#000000" d="M 290.773438 161.867188 L 264.992188 161.867188 L 264.992188 136.085938 L 290.773438 136.085938 L 290.773438 161.867188 " fill-opacity="1" fill-rule="nonzero"/></g><g clip-path="url(#id15)"><path fill="#e4e4e4" d="M 264.992188 187.648438 L 290.773438 187.648438 L 290.773438 161.867188 L 264.992188 161.867188 L 264.992188 187.648438 " fill-opacity="1" fill-rule="nonzero"/></g><path fill="#000000" d="M 239.210938 187.648438 L 264.992188 187.648438 L 264.992188 161.867188 L 239.210938 161.867188 L 239.210938 187.648438 " fill-opacity="1" fill-rule="nonzero"/><path fill="#e4e4e4" d="M 213.429688 187.648438 L 239.210938 187.648438 L 239.210938 161.871094 L 213.429688 161.871094 L 213.429688 187.648438 " fill-opacity="1" fill-rule="nonzero"/><path fill="#000000" d="M 187.648438 187.648438 L 213.429688 187.648438 L 213.429688 161.867188 L 187.648438 161.867188 L 187.648438 187.648438 " fill-opacity="1" fill-rule="nonzero"/><path fill="#e4e4e4" d="M 161.867188 187.648438 L 187.648438 187.648438 L 187.648438 161.867188 L 161.867188 161.867188 L 161.867188 187.648438 " fill-opacity="1" fill-rule="nonzero"/><path fill="#000000" d="M 136.085938 187.648438 L 161.867188 187.648438 L 161.867188 161.867188 L 136.085938 161.867188 L 136.085938 187.648438 " fill-opacity="1" fill-rule="nonzero"/><path fill="#e4e4e4" d="M 110.304688 187.648438 L 136.085938 187.648438 L 136.085938 161.867188 L 110.304688 161.867188 L 110.304688 187.648438 " fill-opacity="1" fill-rule="nonzero"/><g clip-path="url(#id16)"><path fill="#000000" d="M 84.523438 187.648438 L 110.304688 187.648438 L 110.304688 161.867188 L 84.523438 161.867188 L 84.523438 187.648438 " fill-opacity="1" fill-rule="nonzero"/></g><g clip-path="url(#id17)"><path fill="#e4e4e4" d="M 110.304688 213.429688 L 84.523438 213.429688 L 84.523438 187.648438 L 110.304688 187.648438 L 110.304688 213.429688 " fill-opacity="1" fill-rule="nonzero"/></g><path fill="#000000" d="M 136.085938 213.429688 L 110.304688 213.429688 L 110.304688 187.648438 L 136.085938 187.648438 L 136.085938 213.429688 " fill-opacity="1" fill-rule="nonzero"/><path fill="#e4e4e4" d="M 161.867188 213.429688 L 136.085938 213.429688 L 136.085938 187.648438 L 161.867188 187.648438 L 161.867188 213.429688 " fill-opacity="1" fill-rule="nonzero"/><path fill="#000000" d="M 187.648438 213.429688 L 161.867188 213.429688 L 161.867188 187.648438 L 187.648438 187.648438 L 187.648438 213.429688 " fill-opacity="1" fill-rule="nonzero"/><path fill="#e4e4e4" d="M 213.429688 213.429688 L 187.648438 213.429688 L 187.648438 187.648438 L 213.429688 187.648438 L 213.429688 213.429688 " fill-opacity="1" fill-rule="nonzero"/><path fill="#000000" d="M 239.210938 213.429688 L 213.429688 213.429688 L 213.429688 187.648438 L 239.210938 187.648438 L 239.210938 213.429688 " fill-opacity="1" fill-rule="nonzero"/><path fill="#e4e4e4" d="M 264.992188 213.429688 L 239.210938 213.429688 L 239.210938 187.648438 L 264.992188 187.648438 L 264.992188 213.429688 " fill-opacity="1" fill-rule="nonzero"/><g clip-path="url(#id18)"><path fill="#000000" d="M 290.773438 213.429688 L 264.992188 213.429688 L 264.992188 187.648438 L 290.773438 187.648438 L 290.773438 213.429688 " fill-opacity="1" fill-rule="nonzero"/></g><g clip-path="url(#id19)"><path fill="#e4e4e4" d="M 264.992188 239.210938 L 290.773438 239.210938 L 290.773438 213.429688 L 264.992188 213.429688 L 264.992188 239.210938 " fill-opacity="1" fill-rule="nonzero"/></g><path fill="#000000" d="M 239.210938 239.210938 L 264.992188 239.210938 L 264.992188 213.429688 L 239.210938 213.429688 L 239.210938 239.210938 " fill-opacity="1" fill-rule="nonzero"/><path fill="#e4e4e4" d="M 213.429688 239.210938 L 239.210938 239.210938 L 239.210938 213.429688 L 213.429688 213.429688 L 213.429688 239.210938 " fill-opacity="1" fill-rule="nonzero"/><path fill="#000000" d="M 187.648438 239.210938 L 213.429688 239.210938 L 213.429688 213.429688 L 187.648438 213.429688 L 187.648438 239.210938 " fill-opacity="1" fill-rule="nonzero"/><path fill="#e4e4e4" d="M 161.867188 239.210938 L 187.648438 239.210938 L 187.648438 213.429688 L 161.867188 213.429688 L 161.867188 239.210938 " fill-opacity="1" fill-rule="nonzero"/><path fill="#000000" d="M 136.089844 239.210938 L 161.867188 239.210938 L 161.867188 213.429688 L 136.089844 213.429688 L 136.089844 239.210938 " fill-opacity="1" fill-rule="nonzero"/><path fill="#e4e4e4" d="M 110.304688 239.210938 L 136.089844 239.210938 L 136.089844 213.429688 L 110.304688 213.429688 L 110.304688 239.210938 " fill-opacity="1" fill-rule="nonzero"/><g clip-path="url(#id20)"><path fill="#000000" d="M 84.523438 239.210938 L 110.304688 239.210938 L 110.304688 213.429688 L 84.523438 213.429688 L 84.523438 239.210938 " fill-opacity="1" fill-rule="nonzero"/></g><g clip-path="url(#id21)"><path fill="#e4e4e4" d="M 110.304688 264.992188 L 84.523438 264.992188 L 84.523438 239.210938 L 110.304688 239.210938 L 110.304688 264.992188 " fill-opacity="1" fill-rule="nonzero"/></g><path fill="#000000" d="M 136.085938 264.992188 L 110.304688 264.992188 L 110.304688 239.210938 L 136.085938 239.210938 L 136.085938 264.992188 " fill-opacity="1" fill-rule="nonzero"/><path fill="#e4e4e4" d="M 161.867188 264.992188 L 136.089844 264.992188 L 136.089844 239.210938 L 161.867188 239.210938 L 161.867188 264.992188 " fill-opacity="1" fill-rule="nonzero"/><path fill="#000000" d="M 187.648438 264.992188 L 161.867188 264.992188 L 161.867188 239.210938 L 187.648438 239.210938 L 187.648438 264.992188 " fill-opacity="1" fill-rule="nonzero"/><path fill="#e4e4e4" d="M 213.429688 264.992188 L 187.648438 264.992188 L 187.648438 239.210938 L 213.429688 239.210938 L 213.429688 264.992188 " fill-opacity="1" fill-rule="nonzero"/><path fill="#000000" d="M 239.210938 264.992188 L 213.429688 264.992188 L 213.429688 239.210938 L 239.210938 239.210938 L 239.210938 264.992188 " fill-opacity="1" fill-rule="nonzero"/><path fill="#e4e4e4" d="M 264.992188 264.992188 L 239.210938 264.992188 L 239.210938 239.210938 L 264.992188 239.210938 L 264.992188 264.992188 " fill-opacity="1" fill-rule="nonzero"/><g clip-path="url(#id22)"><path fill="#000000" d="M 290.773438 264.992188 L 264.992188 264.992188 L 264.992188 239.210938 L 290.773438 239.210938 L 290.773438 264.992188 " fill-opacity="1" fill-rule="nonzero"/></g><g clip-path="url(#id23)"><path fill="#e4e4e4" d="M 264.992188 290.773438 L 290.773438 290.773438 L 290.773438 264.992188 L 264.992188 264.992188 L 264.992188 290.773438 " fill-opacity="1" fill-rule="nonzero"/></g><g clip-path="url(#id24)"><path fill="#000000" d="M 239.210938 290.773438 L 264.992188 290.773438 L 264.992188 264.992188 L 239.210938 264.992188 L 239.210938 290.773438 " fill-opacity="1" fill-rule="nonzero"/></g><g clip-path="url(#id25)"><path fill="#e4e4e4" d="M 213.429688 290.773438 L 239.210938 290.773438 L 239.210938 264.992188 L 213.429688 264.992188 L 213.429688 290.773438 " fill-opacity="1" fill-rule="nonzero"/></g><g clip-path="url(#id26)"><path fill="#000000" d="M 187.648438 290.773438 L 213.429688 290.773438 L 213.429688 264.992188 L 187.648438 264.992188 L 187.648438 290.773438 " fill-opacity="1" fill-rule="nonzero"/></g><g clip-path="url(#id27)"><path fill="#e4e4e4" d="M 161.867188 290.773438 L 187.648438 290.773438 L 187.648438 264.992188 L 161.867188 264.992188 L 161.867188 290.773438 " fill-opacity="1" fill-rule="nonzero"/></g><g clip-path="url(#id28)"><path fill="#000000" d="M 136.089844 290.773438 L 161.867188 290.773438 L 161.867188 264.992188 L 136.089844 264.992188 L 136.089844 290.773438 " fill-opacity="1" fill-rule="nonzero"/></g><g clip-path="url(#id29)"><path fill="#e4e4e4" d="M 110.304688 290.773438 L 136.085938 290.773438 L 136.085938 264.992188 L 110.304688 264.992188 L 110.304688 290.773438 " fill-opacity="1" fill-rule="nonzero"/></g><g clip-path="url(#id30)"><path fill="#000000" d="M 84.523438 290.773438 L 110.304688 290.773438 L 110.304688 264.992188 L 84.523438 264.992188 L 84.523438 290.773438 " fill-opacity="1" fill-rule="nonzero"/></g></svg>