<?xml version="1.0" encoding="UTF-8" standalone="no"?>
<!-- Created with Inkscape (http://www.inkscape.org/) -->

<svg
   width="19.324718mm"
   height="41.25135mm"
   viewBox="0 0 19.324718 41.25135"
   version="1.1"
   id="svg46460"
   inkscape:version="1.1.2 (0a00cf5339, 2022-02-04)"
   sodipodi:docname="char6.svg"
   xmlns:inkscape="http://www.inkscape.org/namespaces/inkscape"
   xmlns:sodipodi="http://sodipodi.sourceforge.net/DTD/sodipodi-0.dtd"
   xmlns="http://www.w3.org/2000/svg"
   xmlns:svg="http://www.w3.org/2000/svg">
  <sodipodi:namedview
     id="namedview46462"
     pagecolor="#ffffff"
     bordercolor="#666666"
     borderopacity="1.0"
     inkscape:pageshadow="2"
     inkscape:pageopacity="0.0"
     inkscape:pagecheckerboard="0"
     inkscape:document-units="mm"
     showgrid="false"
     fit-margin-top="0"
     fit-margin-left="0"
     fit-margin-right="0"
     fit-margin-bottom="0"
     inkscape:zoom="4.1978414"
     inkscape:cx="14.531278"
     inkscape:cy="79.088267"
     inkscape:window-width="1680"
     inkscape:window-height="1013"
     inkscape:window-x="0"
     inkscape:window-y="0"
     inkscape:window-maximized="1"
     inkscape:current-layer="layer1" />
  <defs
     id="defs46457" />
  <g
     inkscape:label="Ebene 1"
     inkscape:groupmode="layer"
     id="layer1"
     transform="translate(-217.45529,-125.55681)">
    <path
       d="m 224.18914,136.40558 c 0,0 0.0367,-0.31997 -0.95885,-0.90946 -0.99483,-0.58914 -1.36666,-0.58808 -1.68874,-0.9084 -0.32244,-0.32103 -0.77894,-0.5401 -0.77894,-0.5401 l -0.40922,-4.67466 c 0,0 -0.52917,-1.72509 -1.31833,0.06 -0.78916,1.78541 -0.18627,4.51591 -0.12594,5.56895 0.19191,3.36232 3.78142,5.08 3.78142,5.08 0.0565,-0.15522 1.33774,-3.6763 1.4986,-3.6763"
       style="fill:#f7641e;fill-opacity:1;fill-rule:evenodd;stroke:none;stroke-width:0.0352778"
       id="path3748" />
    <path
       d="m 236.40302,154.82552 c -0.21096,0.1838 -0.44415,0.32174 -0.67028,0.45085 -1.01142,0.56551 -1.8542,0.68545 -2.94005,0.0476 -0.94827,-0.55986 -1.26224,-1.72967 -1.40935,-2.82434 -0.30515,-2.22744 -0.0462,-3.79624 -0.87806,-4.7558 -0.20497,-0.24059 -0.43921,-0.39299 -0.66181,-0.48965 -0.46814,-0.20391 -0.88407,-0.16052 -0.88407,-0.16052 l 0.42122,-1.17193 c 0,0 0.34996,0.006 0.80998,0.1778 0.83432,0.30763 1.42663,0.92287 1.76212,1.73003 0.14852,0.35877 0.23813,0.79763 0.29069,1.28446 0.24236,2.23449 -0.0233,4.8835 1.45133,5.65785 0.51506,0.26564 1.05022,0.10407 1.5427,-0.19861 0.31044,-0.18627 0.57326,-0.42051 0.74753,-0.52494 0.54011,-0.3115 1.24002,0.0769 0.41805,0.77717"
       style="fill:#f7641e;fill-opacity:1;fill-rule:evenodd;stroke:none;stroke-width:0.0352778"
       id="path3750" />
    <path
       d="m 224.69714,160.41035 c 0,0 0.28258,1.03822 -0.20919,1.36913 -0.49178,0.3302 -2.17664,0.61066 -2.71816,0.81597 -0.54151,0.20532 -0.91087,0.8128 -1.63689,0.55175 -0.72566,-0.26141 -0.40428,-0.60149 -0.40428,-0.60149 0,0 -0.44803,0.0815 -0.51223,-0.25682 -0.0639,-0.33867 0.40146,-0.54116 0.40146,-0.54116 0,0 -0.22119,-0.0127 -0.10654,-0.2406 0.11465,-0.22754 0.30233,-0.37641 0.51223,-0.35701 0.20955,0.0198 0.42228,0.009 0.42228,0.009 1.72649,-0.907 1.5808,-0.96415 1.9438,-1.22309 0,0 1.97556,-0.32878 2.30752,0.47414"
       style="fill:#f7641e;fill-opacity:1;fill-rule:evenodd;stroke:none;stroke-width:0.0352778"
       id="path3752" />
    <path
       d="m 228.75444,163.21352 c 0,0 -0.0109,0.45261 -0.36054,0.87701 -0.3496,0.42474 -1.16628,1.0608 -1.03646,1.56986 0.12947,0.5087 0.50024,0.45755 0.66181,0.39405 0,0 -0.0307,0.13406 0.25435,0.35207 0.37536,0.28716 0.85725,-0.13194 1.03858,-0.5722 0,0 -0.0815,0.43956 0.41381,0.37359 0.4953,-0.0656 0.51506,-0.38312 0.68333,-0.74542 0.16792,-0.36266 0.42439,-0.93486 0.53199,-1.54658 0.10724,-0.61136 0.10478,-0.98143 -0.12206,-1.38853 -0.22613,-0.40711 -1.78082,-0.0744 -2.06481,0.68615"
       style="fill:#f7641e;fill-opacity:1;fill-rule:evenodd;stroke:none;stroke-width:0.0352778"
       id="path3754" />
    <path
       d="m 222.57307,145.1767 c 0,0 -1.3709,2.1343 -1.44039,4.826 -0.0699,2.69204 -0.20461,2.33433 0.45296,4.66901 0.65793,2.33433 0.82797,3.46146 0.74295,4.43759 -0.085,0.97685 -0.25858,0.9899 0.75248,1.24002 1.01035,0.25012 1.3342,0.36301 1.57021,-0.0272 0.23566,-0.39017 0.17463,0.24342 0.50024,-1.92122 0.32562,-2.1643 0.37183,-2.27719 -0.1457,-3.51967 -0.51823,-1.24248 0.69674,-3.81882 1.20227,-5.4035 0.50518,-1.58467 -0.79093,-0.0437 -0.79093,-0.0437 0,0 -0.14393,-2.42358 -0.22154,-3.17465 -0.078,-0.75036 -2.62255,-1.08267 -2.62255,-1.08267"
       style="fill:#e14b10;fill-opacity:1;fill-rule:evenodd;stroke:none;stroke-width:0.0352778"
       id="path3756" />
    <path
       d="m 230.97377,162.93095 c -0.46285,1.0802 -1.01212,0.94897 -2.10962,0.59372 -1.13135,-0.35736 0.0402,-1.17969 -0.0621,-2.67935 -0.10407,-1.50706 -0.87842,-2.48003 -1.71803,-3.91019 -0.83961,-1.4298 -0.99977,-2.64654 -1.58115,-4.80659 -0.18521,-0.67346 -1.41217,-5.22711 -1.5427,-5.71112 1.79388,-0.74366 4.10175,-1.69651 4.11798,-1.70286 0,0 0.17215,0.15698 0.42439,0.5842 0.63359,1.0668 1.15534,2.84409 1.32891,4.05871 0.24589,1.58256 0.18345,3.81352 -0.0681,5.29025 0.95814,2.29094 1.20685,2.5774 1.31127,3.10903 0.18344,0.88406 -0.33161,1.42029 -0.0444,3.09775 0.0773,0.45966 0.36795,1.1303 -0.0564,2.07645"
       style="fill:#e14b10;fill-opacity:1;fill-rule:evenodd;stroke:none;stroke-width:0.0352778"
       id="path3758" />
    <path
       d="m 230.21106,140.23393 c -0.18909,0.69356 -0.48084,2.16958 -0.64382,3.78319 -0.15522,1.5187 -0.0963,3.38525 0.018,4.18606 -0.19861,2.22532 -0.16616,-1.01459 -4.17759,1.80693 -0.13335,0.0952 -0.2727,0.17497 -0.41487,0.24059 -1.64394,0.77399 -3.76237,-0.10689 -3.76237,-0.10689 0,0 0.009,-4.20723 -0.36795,-6.84777 -0.37359,-2.63737 2.00554,-6.28685 2.16006,-6.69608 0.15416,-0.40675 1.01494,-0.25223 2.10643,-0.68862 1.09503,-0.43603 2.10044,0.28787 3.28436,1.19874 1.18075,0.91087 2.09304,2.04258 1.79776,3.12385"
       style="fill:#e14b10;fill-opacity:1;fill-rule:evenodd;stroke:none;stroke-width:0.0352778"
       id="path3760" />
    <path
       d="m 227.55676,139.15231 c 0,0 -0.40499,2.79753 0.47413,2.97568 0.87877,0.17815 1.09961,0.5207 2.49273,-0.10442 1.39312,-0.62548 1.80975,-1.8923 2.5848,-3.41771 0.77541,-1.52471 0.76377,-2.97286 0.60819,-3.50026 -0.15557,-0.52741 -0.34607,-0.14076 -0.58384,-0.28364 -0.23778,-0.14287 -0.21132,-0.24976 -0.83009,1.22661 -0.61877,1.47638 -1.05763,1.98473 -1.05763,1.98473 l -1.10631,-0.03 c 0,0 -0.6223,-0.34995 -1.59914,-0.53516 -0.96026,-0.18274 -0.91228,1.07174 -0.98284,1.68416"
       style="fill:#f7641e;fill-opacity:1;fill-rule:evenodd;stroke:none;stroke-width:0.0352778"
       id="path3762" />
    <path
       d="m 220.35339,129.37296 0.37677,-0.95144 c 0,0 0.29598,-0.33479 0.24694,-0.81104 -0.0494,-0.47625 -0.14781,-0.67698 -0.23953,-1.06539 -0.0921,-0.38841 0.0212,-0.48436 -0.53376,-0.68086 -0.55456,-0.1965 -0.54186,0.48613 -0.52952,0.68086 0.0123,0.19438 -0.15204,-0.3369 -0.92533,-0.70132 -0.77329,-0.36407 -1.00965,-0.36654 -1.22626,-0.0931 -0.21696,0.27305 0.54681,0.37818 0.69815,0.5133 0.15205,0.13511 0.12665,0.23318 0.12665,0.23318 0,0 -0.74437,-0.37218 -0.87031,-0.11218 -0.12629,0.25964 0.33479,0.46778 0.33479,0.46778 l 0.31644,0.0815 c 0,0 -0.30162,-0.11253 -0.49424,0.16122 -0.19262,0.27376 -0.24871,0.39123 -0.0138,0.46179 0.23495,0.0706 0.38276,0.0437 0.38276,0.0437 0,0 -0.25717,0.0967 -0.24165,0.38171 0.0162,0.2854 0.09,0.45438 0.26635,0.40534 0.17674,-0.0487 0.14111,-0.1397 0.23954,-0.1457 0.0988,-0.006 0.11641,0.01 0.4893,0.40252 0.37288,0.393 -0.13441,0.42686 0.27128,0.66852 0.4057,0.242 1.19098,0.16228 1.32539,0.0596"
       style="fill:#f4921e;fill-opacity:1;fill-rule:evenodd;stroke:none;stroke-width:0.0352778"
       id="path3764" />
    <path
       d="m 233.25836,132.72188 c -0.11889,-0.34678 -0.77435,-0.64947 -1.17511,-1.05022 -0.4004,-0.40041 -0.52493,0.009 -1.14511,-0.34114 -0.6911,-0.38876 -0.67346,0.13653 -0.48366,0.33232 0.10689,0.11253 0.36794,0.35313 0.47201,0.35313 -0.0508,0.003 -0.34748,0.0148 -0.51646,0.13335 -0.18415,0.13053 -0.36195,0.25223 -0.30868,0.42439 0.0536,0.17216 0.0328,0.21061 0.18697,0.15699 0.14252,-0.0501 0.40075,-0.13618 0.4452,-0.14817 -0.0476,0.0296 -0.4452,0.27023 -0.47801,0.35313 -0.0321,0.0861 -0.0709,0.27023 0.12488,0.27023 0.19862,0 0.52494,-0.21379 0.59055,-0.21978 0.0649,0 0.19297,0.25823 0.19297,0.25823 0,0 -0.12171,0.0857 -0.22895,0.0801 -0.10372,-0.009 -0.40322,0.15417 -0.32314,0.29951 0.0801,0.14534 0.0801,0.2286 0.2106,0.18979 0.13053,-0.0353 0.12453,-0.0797 0.34714,-0.10089 0.2226,-0.0208 0.37712,0.20179 0.39758,0.24342 0.26105,0.49565 0.36477,0.63782 0.65264,0.88688 0.2801,0.24377 1.13771,0.22684 1.42734,-0.0621 0.26987,-0.28469 -0.24624,-1.63477 -0.38876,-2.05916 z m -7.91281,3.51578 c -0.16898,-0.0406 -0.98037,-0.23566 -1.37372,-0.33196 -0.2801,0.84102 -1.74448,5.54178 -1.98473,6.7437 -0.27305,1.37371 0.16017,0.96414 -0.21343,3.27236 -0.34995,2.17664 0.30269,4.32118 2.43876,4.76497 2.10926,0.44591 1.76706,-2.46239 1.03222,-4.49791 -0.0325,-0.0893 -0.0621,-0.17816 -0.0893,-0.26706 -1.20403,-3.66324 0.32209,-6.62199 0.82797,-8.39046 0.21943,-0.79516 0.16016,-1.25201 -0.63782,-1.29364"
       style="fill:#f4921e;fill-opacity:1;fill-rule:evenodd;stroke:none;stroke-width:0.0352778"
       id="path3766" />
    <path
       d="m 225.49795,131.55312 c -0.82762,0.38665 -1.37019,1.0287 -1.57798,1.66829 -0.20849,0.63888 -0.57855,2.84974 -1.00506,3.83223 -0.18662,0.43038 1.85843,0.62476 3.20781,0.4639 1.34902,-0.16087 1.52717,-0.81386 1.61078,-0.91934 0.0836,-0.10513 0.21872,0.0378 0.14358,-0.95074 -0.0755,-0.98777 -0.0579,-0.63288 0.0667,-1.34337 0.12418,-0.71015 0.14993,-1.66229 -0.20003,-2.14983 -0.3496,-0.48789 -1.16416,-1.10596 -2.24578,-0.60114"
       style="fill:#e14b10;fill-opacity:1;fill-rule:evenodd;stroke:none;stroke-width:0.0352778"
       id="path3768" />
    <path
       d="m 223.4155,137.67523 c 0,0 0.16687,-2.4571 0.27834,-2.88361 0.11113,-0.4265 0.2593,-1.98437 0.85302,-2.0955 0.59302,-0.11147 1.74272,0.5006 1.94663,1.07527 0.20426,0.57503 -0.29634,2.09585 -0.29634,2.61479 0,0.51929 -0.2413,1.28905 -0.2413,1.28905 h -2.54035"
       style="fill:#f4921e;fill-opacity:1;fill-rule:evenodd;stroke:none;stroke-width:0.0352778"
       id="path3770" />
    <path
       d="m 225.3459,131.02607 c -0.26035,-0.4011 -0.0452,-0.46954 -0.54892,-0.4766 -0.50377,-0.007 -0.63853,0.2025 -0.64911,0.81174 -0.0109,0.6089 0.5722,0.77964 0.5722,0.77964 0.35913,-0.33161 0.59655,-0.49283 1.01847,-0.68333 0.0317,0 -0.0949,0.0275 -0.39264,-0.43145"
       style="fill:#e14b10;fill-opacity:1;fill-rule:evenodd;stroke:none;stroke-width:0.0352778"
       id="path3772" />
    <path
       d="m 227.86297,131.96129 c 0.30903,-0.37818 0.0212,-0.52846 0.47837,-0.58702 0.4572,-0.0582 0.54186,0.36547 0.45332,0.81703 -0.0882,0.4512 -0.20885,0.73131 -0.51717,0.94615 -0.30833,0.21484 -0.55739,0.19191 -0.55739,0.19191 0,0 -0.69392,-0.31574 -0.33761,-1.0354 0.19579,0 0.38805,-0.21943 0.48048,-0.33267"
       style="fill:#f7641e;fill-opacity:1;fill-rule:evenodd;stroke:none;stroke-width:0.0352778"
       id="path3774" />
    <path
       d="m 224.45055,133.08947 c 0,0 -0.28081,0.28399 -0.40816,0.83538 -0.12665,0.55104 -0.31997,1.54834 0.18238,1.99319 0.50201,0.44486 0.8435,0.12206 1.25342,-0.0808 0.56833,-0.28117 0.67593,-1.27776 0.68086,-1.57727 0.005,-0.29986 -0.19685,-0.50306 -0.44626,-0.7239 -0.24941,-0.22084 -1.05833,-0.635 -1.26224,-0.44662"
       style="fill:#caa661;fill-opacity:1;fill-rule:evenodd;stroke:none;stroke-width:0.0352778"
       id="path3776" />
    <path
       d="m 227.48656,132.5028 c 0.0649,0.0286 0.16686,-0.0134 0.22472,-0.0353 0.46954,-0.17568 0.37923,-0.36971 0.50659,-0.49741 0.0935,-0.0931 0.18027,-0.18133 0.27657,-0.0367 0.21202,0.3182 -0.0564,0.7119 -0.29492,0.90276 -0.115,0.0921 -0.24871,0.22542 -0.41451,0.18415 -0.10866,-0.0272 -0.16404,-0.10866 -0.23954,-0.18415 -0.0437,-0.0441 -0.0829,-0.1016 -0.10125,-0.15664 -0.0317,-0.0949 0.0367,-0.12065 0.0367,-0.1658 l 0.006,-0.0109"
       style="fill:#2a1509;fill-opacity:1;fill-rule:evenodd;stroke:none;stroke-width:0.0352778"
       id="path3778" />
    <path
       d="m 225.07567,131.73868 c 0.0275,0.0303 -0.0593,-0.0571 -0.0822,-0.091 -0.0409,-0.0617 -0.0804,-0.12171 -0.11959,-0.18415 -0.0974,-0.15558 -0.19897,-0.72249 -0.4699,-0.45156 -0.30163,0.30163 -0.004,0.85514 0.29492,1.00401 0.0928,0.0466 0.28998,-0.22084 0.37782,-0.22084 l -0.001,-0.0565"
       style="fill:#2a1509;fill-opacity:1;fill-rule:evenodd;stroke:none;stroke-width:0.0352778"
       id="path3780" />
    <path
       d="m 218.96768,127.35048 c 0.0533,0.0265 0.23777,0.12383 0.29527,0.10442 0.12418,-0.0413 0.16475,-0.18132 0.31398,-0.21872 0.31997,-0.0801 0.43391,0.36336 0.36159,0.58067 -0.0526,0.1584 -0.16968,0.14147 -0.2667,0.23778 -0.14428,0.14428 -0.4071,0.52952 -0.65616,0.34254 -0.0928,-0.0691 -0.13759,-0.127 -0.17145,-0.22824 -0.0219,-0.0653 0.0635,-0.25048 0.0194,-0.29528 -0.0617,-0.0614 -0.16792,-0.11783 -0.19085,-0.2092 -0.0205,-0.0822 0.13934,-0.34254 0.1651,-0.28822 0,0 0.0459,-0.0677 0.12982,-0.0258"
       style="fill:#2a1509;fill-opacity:1;fill-rule:evenodd;stroke:none;stroke-width:0.0352778"
       id="path3782" />
    <path
       d="m 224.28087,134.69249 c 0,0 -0.14817,-0.33372 -0.0494,-0.33372 0.0991,0 0.34607,0.0864 0.39546,0.17286 0.0494,0.0864 -0.34607,0.16086 -0.34607,0.16086"
       style="fill:#392011;fill-opacity:1;fill-rule:evenodd;stroke:none;stroke-width:0.0352778"
       id="path3784" />
    <path
       d="m 226.07333,131.61415 c 0,0 -0.54398,-0.0243 -0.84067,0.32174 -0.0519,0.0603 -0.0991,0.12029 -0.14217,0.1778 -0.20179,0.27093 -0.42968,0.42227 -0.30304,0.48965 0.29704,0.1577 0.43604,-0.62124 1.2118,-0.74154 0.3556,-0.0554 0.0741,-0.24765 0.0741,-0.24765"
       style="fill:#392011;fill-opacity:1;fill-rule:evenodd;stroke:none;stroke-width:0.0352778"
       id="path3786" />
    <path
       d="m 227.20469,132.12427 c 0,0 -0.54399,-0.0247 -0.84067,0.32138 -0.0519,0.0607 -0.0995,0.12065 -0.14217,0.17815 -0.20179,0.27094 -0.43004,0.42193 -0.30268,0.48966 0.29633,0.15734 0.43568,-0.62124 1.21108,-0.74189 0.35595,-0.0554 0.0744,-0.2473 0.0744,-0.2473"
       style="fill:#392011;fill-opacity:1;fill-rule:evenodd;stroke:none;stroke-width:0.0352778"
       id="path3788" />
    <path
       d="m 226.86461,131.76267 c 0,0 -0.43568,-0.0526 -0.88089,0.29351 -0.4452,0.34643 -0.65228,0.57186 -0.33055,0.57186 0.32138,0 0.54398,-0.56868 0.86537,-0.56868 0.32138,0 0.4699,-0.2226 0.34607,-0.29669"
       style="fill:#392011;fill-opacity:1;fill-rule:evenodd;stroke:none;stroke-width:0.0352778"
       id="path3790" />
    <path
       d="m 230.92014,147.53607 c -0.11253,0.13618 -0.2607,0.19262 -0.41486,0.20779 -0.20497,-0.24059 -0.43956,-0.39194 -0.66181,-0.48965 0.40393,0.0847 0.62159,-0.006 0.69109,-0.63218 0.024,-0.20461 -0.18697,-0.40358 -0.34396,-0.52247 0.22542,0.0836 0.47731,0.20497 0.72672,0.38594 0.12771,0.27023 0.28505,0.71226 0.003,1.05057"
       style="fill:#392011;fill-opacity:1;fill-rule:evenodd;stroke:none;stroke-width:0.0352778"
       id="path3792" />
    <path
       d="m 232.32385,150.12017 c -0.0741,0.1718 -0.1898,0.33832 -0.42722,0.37077 -0.33514,0.0448 -0.54892,-0.0444 -0.69744,-0.16616 l -0.0917,-0.98213 c 0.28787,0.61348 1.10596,0.18803 1.14794,-0.11536 0.0328,0.28434 0.0536,0.5842 0.0684,0.89288"
       style="fill:#392011;fill-opacity:1;fill-rule:evenodd;stroke:none;stroke-width:0.0352778"
       id="path3794" />
    <path
       d="m 232.61136,153.09585 c -0.0921,0.16299 -0.0921,0.34714 -0.45685,0.43639 -0.18979,0.0473 -0.3884,0.0413 -0.57256,-0.0148 -0.0861,-0.32067 -0.15098,-0.66498 -0.19861,-1.01776 0.0977,0.20461 0.41522,0.3616 0.83362,0.13053 0.15451,-0.0833 0.23142,-0.17816 0.26705,-0.27023 0.0296,0.25541 0.0741,0.50447 0.12735,0.73589"
       style="fill:#392011;fill-opacity:1;fill-rule:evenodd;stroke:none;stroke-width:0.0352778"
       id="path3796" />
    <path
       d="m 233.86055,155.70676 -0.0328,0.0148 c -0.32032,-0.0504 -0.66146,-0.1778 -1.03505,-0.39758 0.26987,0.12171 0.5842,-0.12736 0.67345,-0.33232 0.0769,-0.17498 -0.13935,-0.46284 -0.23142,-0.57256 0.19085,0.20814 0.46602,0.39829 0.75635,0.45967 0.0624,0.24624 0.31468,0.59937 -0.13052,0.82797"
       style="fill:#392011;fill-opacity:1;fill-rule:evenodd;stroke:none;stroke-width:0.0352778"
       id="path3798" />
    <path
       d="m 236.40302,154.82552 c -0.21096,0.1838 -0.44415,0.32174 -0.67028,0.45085 0.0205,-0.15134 0.22578,-0.48048 -0.11571,-0.63182 -0.35913,-0.16016 -0.37077,-0.0624 -0.37077,-0.0624 0.22825,-0.15099 0.43039,-0.31433 0.58138,-0.42722 0.23988,0.14993 0.63641,0.22084 0.57538,0.67063"
       style="fill:#392011;fill-opacity:1;fill-rule:evenodd;stroke:none;stroke-width:0.0352778"
       id="path3800" />
    <path
       d="m 229.67413,143.09425 c -0.0653,0.49177 -0.14181,1.1878 -0.16616,1.68522 -0.37288,0.25788 -0.95638,0.5722 -1.40617,0.60537 -0.51611,0.0416 -0.89888,-0.14535 -1.05904,-0.24307 -0.0536,-0.0328 -0.0801,-0.0536 -0.0801,-0.0536 0.33373,-0.0342 0.81386,-0.22931 1.11549,-0.37359 0.37676,-0.18415 1.06785,-0.97014 1.59596,-1.62031"
       style="fill:#392011;fill-opacity:1;fill-rule:evenodd;stroke:none;stroke-width:0.0352778"
       id="path3802" />
    <path
       d="m 229.53761,147.72269 c -0.20638,0.0889 -0.46391,0.1778 -0.68827,0.19615 -0.68827,0.0561 -1.13912,-0.29704 -1.13912,-0.29704 0,0 0.44485,-0.0473 1.11548,-0.37394 0.19615,-0.0928 0.50412,-0.38912 0.65582,-0.54575 0.0116,0.41839 0.0356,0.76553 0.0561,1.02058"
       style="fill:#392011;fill-opacity:1;fill-rule:evenodd;stroke:none;stroke-width:0.0352778"
       id="path3804" />
    <path
       d="m 229.93519,150.26834 c -0.21026,0.0861 -0.40922,0.14252 -0.5782,0.15416 -0.68863,0.0564 -1.13948,-0.29668 -1.13948,-0.29668 0,0 0.44521,-0.0473 1.11231,-0.3736 0.1337,-0.0656 0.30868,-0.20778 0.50165,-0.39475 0.0476,0.30585 0.0801,0.61136 0.10372,0.91087"
       style="fill:#392011;fill-opacity:1;fill-rule:evenodd;stroke:none;stroke-width:0.0352778"
       id="path3806" />
    <path
       d="m 223.33824,135.5822 c -0.12876,-0.0497 -0.70837,-0.2226 -1.30916,0.17286 -0.60078,0.39582 -0.93345,2.08986 -0.93345,2.08986 0,0 -0.25752,-0.89006 -0.12911,-1.83022 0.12911,-0.9398 0.68721,-1.38465 1.41675,-1.18709 0.72955,0.19791 0.95497,0.75459 0.95497,0.75459"
       style="fill:#392011;fill-opacity:1;fill-rule:evenodd;stroke:none;stroke-width:0.0352778"
       id="path3808" />
    <path
       d="m 229.90555,137.8943 c -0.12876,-0.0494 -0.30303,-0.0377 -0.90416,0.35807 -0.60079,0.39547 -0.93381,2.08951 -0.93381,2.08951 0,0 -0.25717,-0.89006 -0.12841,-1.82986 0.12841,-0.9398 0.34643,-1.18639 1.07668,-0.98848 0.72954,0.19755 0.8897,0.37076 0.8897,0.37076"
       style="fill:#392011;fill-opacity:1;fill-rule:evenodd;stroke:none;stroke-width:0.0352778"
       id="path3810" />
    <path
       d="m 231.3336,137.88831 c 0.21025,-0.29069 0.46919,-0.16792 -0.13159,0.22789 -0.60113,0.39582 -0.93345,2.08986 -0.93345,2.08986 0,0 -0.46707,-0.66711 -0.33796,-1.60691 0.12877,-0.9398 -0.34043,-0.86536 0.38912,-0.6678 0.72954,0.1979 1.01388,-0.043 1.01388,-0.043"
       style="fill:#392011;fill-opacity:1;fill-rule:evenodd;stroke:none;stroke-width:0.0352778"
       id="path3812" />
    <path
       d="m 221.7003,134.70802 c -0.11113,-0.037 -0.61207,-0.16687 -1.13136,0.12982 -0.51894,0.29668 -0.80645,1.56704 -0.80645,1.56704 0,0 -0.22261,-0.66781 -0.11113,-1.37231 0.11113,-0.70485 0.59337,-1.03858 1.22379,-0.89006 0.63041,0.14852 0.82515,0.56551 0.82515,0.56551"
       style="fill:#392011;fill-opacity:1;fill-rule:evenodd;stroke:none;stroke-width:0.0352778"
       id="path3814" />
    <path
       d="m 220.68535,133.60241 c -0.0222,-0.0755 -0.14146,-0.40076 -0.50306,-0.57397 -0.36159,-0.17321 -1.17122,0.15275 -1.17122,0.15275 0,0 0.28328,-0.37712 0.71402,-0.58455 0.4311,-0.20708 0.79869,-0.0688 0.95744,0.33514 0.1584,0.40428 0.003,0.67063 0.003,0.67063"
       style="fill:#392011;fill-opacity:1;fill-rule:evenodd;stroke:none;stroke-width:0.0352778"
       id="path3816" />
    <path
       d="m 231.41403,137.77083 c 0,0 -0.37112,0.14817 0.12347,0.49424 0.4946,0.34643 0.44521,0.19791 0.44521,0.19791 0,0 -0.33373,-0.76482 -0.26917,-0.99659 0.0649,-0.23213 0.0836,-0.31997 0.0836,-0.31997 l -0.38312,0.62441"
       style="fill:#392011;fill-opacity:1;fill-rule:evenodd;stroke:none;stroke-width:0.0352778"
       id="path3818" />
    <path
       d="m 219.69899,161.34309 c 0,0 -0.28117,-0.33619 -0.5708,0.11324 -0.29033,0.44944 -0.115,0.48119 -0.115,0.48119 0,0 0.35454,-0.33831 0.50341,-0.26952 0.14887,0.0695 0.21555,-0.12382 0.18239,-0.32491"
       style="fill:#392011;fill-opacity:1;fill-rule:evenodd;stroke:none;stroke-width:0.0352778"
       id="path3820" />
    <path
       d="m 219.50672,162.06452 c 0,0 -0.3055,-0.31397 -0.56056,0.15593 -0.25541,0.47025 -0.0783,0.48825 -0.0783,0.48825 0,0 0.32809,-0.36372 0.48154,-0.30622 0.15346,0.0575 0.20567,-0.1397 0.15734,-0.33796"
       style="fill:#392011;fill-opacity:1;fill-rule:evenodd;stroke:none;stroke-width:0.0352778"
       id="path3822" />
    <path
       d="m 220.16501,162.60251 c 0,0 -0.30551,-0.31433 -0.56092,0.15557 -0.25541,0.47026 -0.078,0.4886 -0.078,0.4886 0,0 0.32808,-0.36371 0.48154,-0.30621 0.15346,0.0575 0.20602,-0.14005 0.15734,-0.33796"
       style="fill:#392011;fill-opacity:1;fill-rule:evenodd;stroke:none;stroke-width:0.0352778"
       id="path3824" />
    <path
       d="m 227.6827,165.50234 c 0,0 -0.42404,-0.11112 -0.3997,0.42334 0.024,0.5341 0.18521,0.45825 0.18521,0.45825 0,0 0.0928,-0.48083 0.254,-0.51082 0.16122,-0.03 0.10407,-0.22578 -0.0395,-0.37077"
       style="fill:#392011;fill-opacity:1;fill-rule:evenodd;stroke:none;stroke-width:0.0352778"
       id="path3826" />
    <path
       d="m 228.58475,165.92321 c 0,0 -0.42368,-0.11183 -0.39969,0.42262 0.0243,0.53446 0.18556,0.45862 0.18556,0.45862 0,0 0.0928,-0.48084 0.254,-0.51083 0.16122,-0.03 0.10372,-0.22613 -0.0399,-0.37041"
       style="fill:#392011;fill-opacity:1;fill-rule:evenodd;stroke:none;stroke-width:0.0352778"
       id="path3828" />
    <path
       d="m 229.73446,165.76234 c 0,0 -0.42369,-0.11148 -0.3997,0.42298 0.024,0.53446 0.18556,0.45861 0.18556,0.45861 0,0 0.0928,-0.48119 0.254,-0.51117 0.16122,-0.0296 0.10407,-0.22578 -0.0399,-0.37042"
       style="fill:#392011;fill-opacity:1;fill-rule:evenodd;stroke:none;stroke-width:0.0352778"
       id="path3830" />
    <path
       d="m 229.2134,153.27259 c -0.66745,0.22261 -1.13735,0.86572 -1.13735,1.58292 0,0.71684 0,0.71684 0,0.71684 0,0 0.14852,-1.28587 0.76659,-1.40934 0.61806,-0.12383 0.93944,-0.14852 1.11266,-0.39547 0.17286,-0.2473 0,-1.87889 0,-1.87889 0,0 -0.0744,1.16169 -0.7419,1.38394"
       style="fill:#2a1509;fill-opacity:1;fill-rule:evenodd;stroke:none;stroke-width:0.0352778"
       id="path3832" />
    <path
       d="m 229.57571,155.82882 c -0.43321,0.32703 -0.61807,0.91264 -0.44133,1.43757 0.46426,1.38007 -0.20955,-0.35031 0.38947,-0.69497 0.42157,-0.24271 0.65017,-0.33973 0.71579,-0.56339 0.0656,-0.2233 -0.4625,-1.37407 -0.4625,-1.37407 0,0 0.23178,0.86819 -0.20143,1.19486"
       style="fill:#2a1509;fill-opacity:1;fill-rule:evenodd;stroke:none;stroke-width:0.0352778"
       id="path3834" />
    <path
       d="m 231.07784,158.61436 c -0.13653,0.0504 -0.31786,0.0921 -0.5581,0.15698 -0.66569,0.18133 -0.45755,2.03271 -0.55174,0.57574 -0.0385,-0.55457 0.28751,-1.07386 0.78916,-1.27882 0.14252,-0.0593 0.24659,-0.17498 0.3175,-0.31151 0.0653,0.31468 0.0445,0.57856 0.003,0.85761"
       style="fill:#2a1509;fill-opacity:1;fill-rule:evenodd;stroke:none;stroke-width:0.0352778"
       id="path3836" />
    <path
       d="m 224.35319,152.93111 c -0.69956,0.072 -1.29823,0.5969 -1.45415,1.29681 -0.15593,0.69991 -0.15593,0.69991 -0.15593,0.69991 0,0 0.42439,-1.22273 1.0548,-1.20897 0.63006,0.0141 0.94898,0.0596 1.17193,-0.14393 0.2226,-0.20356 0.40852,-1.83374 0.40852,-1.83374 0,0 -0.32526,1.11795 -1.02517,1.18992"
       style="fill:#2a1509;fill-opacity:1;fill-rule:evenodd;stroke:none;stroke-width:0.0352778"
       id="path3838" />
    <path
       d="m 224.44773,155.5787 c -0.49389,0.22508 -0.80186,0.75636 -0.74366,1.30704 0.15311,1.4478 -0.12805,-0.3877 0.53129,-0.59372 0.4639,-0.14499 0.98354,-0.36759 1.09608,-0.5715 0.11289,-0.20355 -0.42722,-1.26436 -0.42722,-1.26436 0,0 0.0374,0.89782 -0.45649,1.12254"
       style="fill:#2a1509;fill-opacity:1;fill-rule:evenodd;stroke:none;stroke-width:0.0352778"
       id="path3840" />
    <path
       d="m 225.10989,158.22842 c -0.14428,0.0197 -0.32984,0.0208 -0.57855,0.0325 -0.68933,0.0321 -0.88935,1.88419 -0.66393,0.44168 0.0829,-0.54998 0.51435,-0.98566 1.04846,-1.07668 0.15169,-0.0268 0.27834,-0.11712 0.37747,-0.23495 -0.005,0.32103 -0.0822,0.57432 -0.18345,0.8375"
       style="fill:#2a1509;fill-opacity:1;fill-rule:evenodd;stroke:none;stroke-width:0.0352778"
       id="path3842" />
    <path
       d="m 219.25096,126.78004 c -0.0279,-0.067 -0.24448,-0.12947 -0.24448,0.0395 0,0.16898 0.23002,0.4819 0.34502,0.44238 0.11501,-0.0395 0.004,-0.23389 -0.10054,-0.48189"
       style="fill:#2a1509;fill-opacity:1;fill-rule:nonzero;stroke:none;stroke-width:0.0352778"
       id="path3844" />
  </g>
</svg>
