<?xml version="1.0" encoding="UTF-8" standalone="no"?>
<!-- Created with Inkscape (http://www.inkscape.org/) -->

<svg
   width="17.126137mm"
   height="40.89502mm"
   viewBox="0 0 17.126137 40.89502"
   version="1.1"
   id="svg36162"
   inkscape:version="1.1.2 (0a00cf5339, 2022-02-04)"
   sodipodi:docname="char2.svg"
   xmlns:inkscape="http://www.inkscape.org/namespaces/inkscape"
   xmlns:sodipodi="http://sodipodi.sourceforge.net/DTD/sodipodi-0.dtd"
   xmlns="http://www.w3.org/2000/svg"
   xmlns:svg="http://www.w3.org/2000/svg">
  <sodipodi:namedview
     id="namedview36164"
     pagecolor="#ffffff"
     bordercolor="#666666"
     borderopacity="1.0"
     inkscape:pageshadow="2"
     inkscape:pageopacity="0.0"
     inkscape:pagecheckerboard="0"
     inkscape:document-units="mm"
     showgrid="false"
     fit-margin-top="0"
     fit-margin-left="0"
     fit-margin-right="0"
     fit-margin-bottom="0"
     inkscape:zoom="2.9683221"
     inkscape:cx="-2.3582346"
     inkscape:cy="61.650991"
     inkscape:window-width="1920"
     inkscape:window-height="1011"
     inkscape:window-x="1680"
     inkscape:window-y="32"
     inkscape:window-maximized="1"
     inkscape:current-layer="layer1" />
  <defs
     id="defs36159" />
  <g
     inkscape:label="Ebene 1"
     inkscape:groupmode="layer"
     id="layer1"
     transform="translate(-156.15962,-90.080704)">
    <path
       d="m 158.79978,106.9463 c 0,0 0.6635,-0.70238 1.07307,-1.01458 0.40983,-0.31221 1.56105,-1.77553 1.77561,-2.02918 0.2147,-0.25365 1.22932,-1.05375 1.22932,-1.05375 0,0 0.79996,-3.024363 1.05354,-3.180291 0.25382,-0.156281 -0.0974,-2.048934 0.64406,-2.419703 0.7414,-0.37077 1.2488,-0.09737 1.54136,0.741539 0.2927,0.838905 -0.27312,2.380545 -0.35112,3.512255 -0.0781,1.13171 -0.52684,1.81434 -1.1708,3.00461 -0.64382,1.19027 -2.08784,2.55623 -3.00496,2.90759 -0.91694,0.35102 -1.83402,0.56586 -1.83402,0.56586 0,0 -0.11698,-0.74154 -0.95606,-1.03435"
       style="fill:#ffca48;fill-opacity:1;fill-rule:nonzero;stroke:none;stroke-width:0.0352778"
       id="path2946" />
    <path
       d="m 164.08756,121.81448 c 0,0 -0.99508,1.58044 -1.6976,1.81469 -0.70238,0.23424 -1.9316,0.8195 -1.69746,1.40476 0.23414,0.58561 1.52192,0.2928 2.4584,-0.0586 0.93666,-0.35102 1.1708,-0.81951 1.69764,-0.93628 0.5268,-0.11712 0.93648,0.29246 1.05364,-0.46848 0.11712,-0.76095 -0.2927,-1.69757 -0.2927,-1.69757 0,0 -0.35126,0.8195 -0.64382,0.8195 -0.2927,0 -0.8781,-0.87806 -0.8781,-0.87806"
       style="fill:#ff8958;fill-opacity:1;fill-rule:nonzero;stroke:none;stroke-width:0.0352778"
       id="path2948" />
    <path
       d="m 169.15091,126.96574 c 0,0 -0.0294,0.84878 -0.40972,1.28764 -0.38047,0.43921 -1.28792,1.55116 -1.02443,2.19533 0.26349,0.64382 0.0584,0.58526 1.11224,0.40958 1.05364,-0.17533 1.46332,-0.32173 1.75602,-1.46332 0.2927,-1.14159 0.73173,-1.43404 0.8781,-1.69757 0.14633,-0.26317 -0.11701,-1.43404 -0.11701,-1.43404 l -2.1952,0.70238"
       style="fill:#ff8958;fill-opacity:1;fill-rule:nonzero;stroke:none;stroke-width:0.0352778"
       id="path2950" />
    <path
       d="m 164.08756,121.58023 c 0,0 -0.99508,1.58045 -1.6976,1.81469 -0.70238,0.23425 -1.9316,0.81951 -1.69746,1.40512 0.23414,0.58525 1.52192,0.29245 2.4584,-0.0586 0.93666,-0.35137 1.1708,-0.81951 1.69764,-0.93663 0.5268,-0.11712 0.93648,0.29281 1.05364,-0.46849 0.11712,-0.76094 -0.2927,-1.69757 -0.2927,-1.69757 0,0 -0.35126,0.81951 -0.64382,0.81951 -0.2927,0 -0.8781,-0.87807 -0.8781,-0.87807"
       style="fill:#ffca48;fill-opacity:1;fill-rule:nonzero;stroke:none;stroke-width:0.0352778"
       id="path2952" />
    <path
       d="m 169.15091,126.73149 c 0,0 -0.0294,0.84879 -0.40972,1.288 -0.38047,0.43885 -1.28792,1.55116 -1.02443,2.19498 0.26349,0.64382 0.0584,0.58526 1.11224,0.40993 1.05364,-0.17569 1.46332,-0.32209 1.75602,-1.46368 0.2927,-1.14123 0.73173,-1.43404 0.8781,-1.69756 0.14633,-0.26318 -0.11701,-1.43405 -0.11701,-1.43405 l -2.1952,0.70238"
       style="fill:#ffca48;fill-opacity:1;fill-rule:nonzero;stroke:none;stroke-width:0.0352778"
       id="path2954" />
    <path
       d="m 163.97044,122.28297 c 0,0 -1.1122,-0.99519 -0.99508,-2.34174 0.11712,-1.3462 1.1122,-11.59016 1.4049,-13.17061 0.2927,-1.58044 -0.25368,-5.95101 0.0976,-6.77051 0.35112,-0.819503 0.78038,-1.775531 0.78038,-1.775531 l 1.93174,1.229078 c 0,0 -0.40986,7.844013 0.0586,9.600143 0.46824,1.75613 0.46824,3.39513 0,4.91702 -0.46842,1.52188 -0.40982,2.1657 -0.23414,4.44852 0.17558,2.28318 -1.4049,3.21945 -1.4049,3.21945 0,0 -0.23414,1.69757 -1.63904,0.64418"
       style="fill:#f21820;fill-opacity:1;fill-rule:nonzero;stroke:none;stroke-width:0.0352778"
       id="path2956" />
    <path
       d="m 165.96074,108.81955 c 0.0259,0.35031 0.99508,6.67315 1.75602,9.3659 0.76098,2.6924 0.99522,8.22431 1.0535,8.86813 0.0587,0.64382 1.96124,0.17568 2.48793,-0.35137 0.52684,-0.52669 1.20001,-5.70723 0.67317,-7.112 -0.52669,-1.40476 -0.93651,-1.58044 -0.93651,-2.22426 0,-0.64417 0.58539,-8.13647 -0.11713,-9.8926 -0.70238,-1.75612 -0.2927,-5.03413 -0.11715,-6.61458 0.17571,-1.580443 -4.64383,-1.678163 -4.64383,-1.678163 0,0 -0.27312,8.058503 -0.156,9.638943"
       style="fill:#f21820;fill-opacity:1;fill-rule:nonzero;stroke:none;stroke-width:0.0352778"
       id="path2958" />
    <path
       d="m 167.77518,109.52194 c 0,0 1.40494,-1.3462 2.16602,-2.16571 0.76095,-0.8195 1.05365,-1.52188 1.05365,-1.52188 0,0 -1.46347,-2.69275 -1.99031,-3.98075 -0.5268,-1.28763 0.52684,-2.458504 1.40491,-2.575273 0.87809,-0.117123 2.69257,4.448523 2.86826,6.556023 0.17557,2.10714 -2.57556,3.98039 -3.10237,4.56565 -0.52684,0.58526 -1.58048,0.23424 -1.58048,0.23424 0,0 -0.17558,-0.99518 -0.81968,-1.1123"
       style="fill:#ffca48;fill-opacity:1;fill-rule:nonzero;stroke:none;stroke-width:0.0352778"
       id="path2960" />
    <path
       d="m 167.77518,109.52194 c 0,0 -0.3121,0.078 -0.85848,0.35136 -0.54628,0.27305 -0.99512,1.18992 -1.22922,1.3462 -0.23414,0.15628 -0.8194,0.078 -0.8194,0.078 0,0 -0.23424,0.0198 -0.11712,0.23424 0.11712,0.21449 0.93652,0.17568 0.93652,0.17568 0,0 0.27326,-0.0977 0.33182,-0.11712 0.0586,-0.0198 -0.33182,0.40958 -0.33182,0.40958 l -0.31214,0.0977 c 0,0 -0.19512,-0.17569 -0.44884,-0.13653 -0.25354,0.0388 -0.0194,0.31221 0.15614,0.35102 0.17558,0.0391 0.48782,0.17568 0.48782,0.17568 l 0.91698,-0.37077 -0.29256,0.48789 -0.33172,0.33161 c 0,0 -0.25368,-0.078 -0.4488,0.0392 -0.1953,0.11712 -0.31214,0.37077 0.0195,0.37077 0.33172,0 0.72196,0 0.72196,0 0,0 0.33158,-0.35137 0.42926,-0.39017 0.0976,-0.0392 0.39014,-0.54646 0.39014,-0.54646 l -0.11702,0.66358 c 0,0 -0.27312,0.15593 -0.35112,0.31186 -0.0781,0.15628 -0.0977,0.21484 0.0586,0.21484 0.156,0 0.62428,-0.29281 0.62428,-0.29281 0.56787,-1.47637 0.42291,-1.15147 0.68294,-1.6196 0,0 0.19512,0.0198 0.21456,0.19544 0.0196,0.17533 -0.19512,0.35101 0.039,0.56585 0.23428,0.21449 0.3513,-0.0586 0.3513,-0.19544 0,-0.13652 0.0195,-0.91687 0.0781,-0.97543 0.0584,-0.0586 0.039,-0.64382 0.039,-0.64382 0,0 -0.078,-1.0929 -0.81968,-1.1123"
       style="fill:#7b4b2a;fill-opacity:1;fill-rule:nonzero;stroke:none;stroke-width:0.0352778"
       id="path2962" />
    <path
       d="m 159.44359,106.98546 c 0,0 -0.62427,-0.64382 -1.03409,-0.8195 -0.40968,-0.17568 -1.15108,-0.33161 -1.2682,-0.37077 -0.11713,-0.0392 -0.39042,0.0392 -0.27327,0.21449 0.11713,0.17568 0.64397,0.35137 0.76109,0.40993 0.11684,0.0586 0.35112,0.42933 0.35112,0.42933 l -0.83894,0.44873 -0.5854,0.078 c 0,0 -0.11713,-0.17569 -0.31225,-0.0977 -0.19501,0.0783 0,0.2928 0.078,0.2928 0.0783,0 0.23428,0.17568 0.40985,0.19509 0.17569,0.0194 0.64396,-0.0388 0.64396,-0.0388 l -0.42926,0.39017 c 0,0 -0.29269,0.078 -0.35126,0.11713 -0.0586,0.0388 -0.17557,0.25364 0.0196,0.25364 0.19501,0 0.60484,0 0.60484,0 l 0.60494,-0.19544 -0.58551,0.37113 c 0,0 -0.31213,0.0586 -0.3707,0.0586 -0.0586,0 -0.13656,0.19473 0.0195,0.25329 0.15614,0.0586 0.44884,0.13688 0.5854,0.0783 0.13656,-0.0586 0.9561,-0.42933 0.9561,-0.42933 l -0.3707,0.39017 c 0,0 -0.31242,0.11712 -0.40982,0.17568 -0.0976,0.0586 -0.0976,0.27305 0.0194,0.27305 0.11713,0 0.72207,-0.25364 0.72207,-0.25364 0.54063,-0.44203 0.32,-0.24977 0.97554,-0.85866 0,0 0.5855,-0.37042 0.60494,-0.68263 0.0194,-0.31221 -0.52695,-0.68298 -0.52695,-0.68298"
       style="fill:#7b4b2a;fill-opacity:1;fill-rule:nonzero;stroke:none;stroke-width:0.0352778"
       id="path2964" />
    <path
       d="m 166.33144,96.331926 c 0,0 -0.99508,0.253648 -1.63904,0.663223 -0.64382,0.409927 -0.83908,1.443919 -0.79996,1.678164 0.0389,0.233891 0.39014,0.721783 0.54638,1.209675 0.156,0.487892 0.3707,0.721782 0.78024,0.702382 0.40986,-0.0194 0.66354,-0.0388 0.74168,0.15628 0.078,0.19508 0.56582,0.64382 0.85852,0.58526 0.2927,-0.0586 0.52666,-0.17569 0.97564,0.19508 0.4487,0.37077 0.48782,0.21449 0.85852,0.31221 0.3707,0.0977 0.78038,-0.40957 1.46333,-0.0977 0.68297,0.31256 0.72196,0.0586 0.91711,-0.078 0.19512,-0.13653 0.44867,-0.0614 0.72179,-0.27305 0.78052,-0.60502 -0.25355,-2.614791 -0.78024,-3.297416 -0.2534,-0.328789 -2.24399,-2.009775 -4.64397,-1.756128"
       style="fill:#305489;fill-opacity:1;fill-rule:nonzero;stroke:none;stroke-width:0.0352778"
       id="path2966" />
    <path
       d="m 166.94122,96.578165 c 0,0 0.0292,0.504825 -0.10252,0.694972 -0.13162,0.190501 -0.40241,0.146403 -0.0438,0.592667 0.35856,0.446617 1.36098,0.424392 2.19509,-0.02893 0.83414,-0.453672 0.70968,-0.541866 0.5781,-0.805039 -0.13177,-0.263525 -0.32936,-0.241652 -0.14637,-0.709788 0.18288,-0.468137 -2.48045,0.256116 -2.48045,0.256116"
       style="fill:#6d3f1f;fill-opacity:1;fill-rule:nonzero;stroke:none;stroke-width:0.0352778"
       id="path2968" />
    <path
       d="m 166.15586,94.244187 c 0,0 -0.12693,0.809625 0.0488,0.936273 0.17554,0.127 1.06331,0.15628 1.09266,0.166158 0.0292,0.0095 0.69271,-1.268589 0.73173,-1.307395 0.039,-0.03916 0.0486,-0.507294 0.01,-0.52705 -0.0391,-0.0194 -0.23428,-0.126647 -0.37098,-0.126647 -0.13642,0 -1.28764,0.05856 -1.30718,0.155928 -0.0194,0.09772 -0.20479,0.702733 -0.20479,0.702733"
       style="fill:#f7641e;fill-opacity:1;fill-rule:nonzero;stroke:none;stroke-width:0.0352778"
       id="path2970" />
    <path
       d="m 167.13136,93.522051 c 0,0.07796 -0.27312,0.858661 -0.3901,1.151114 -0.11712,0.292806 -0.19526,1.092906 -0.15614,1.756128 0.039,0.663575 0.0976,0.780697 0.2927,0.897467 0.19512,0.117122 0.4487,0.371122 0.78038,0.214841 0.33182,-0.15628 1.11206,-0.390172 1.38536,-0.605014 0.27326,-0.214488 0.68294,-0.936272 0.68294,-0.936272 0,0 0.42926,-0.702733 0.2927,-1.014942 -0.13656,-0.312208 -0.11712,-1.521883 -1.03409,-1.639005 -0.91709,-0.11677 -1.85375,0.175683 -1.85375,0.175683"
       style="fill:#7b4b2a;fill-opacity:1;fill-rule:nonzero;stroke:none;stroke-width:0.0352778"
       id="path2972" />
    <path
       d="m 171.59993,95.300757 c -0.0455,0.356305 -0.65828,0.484364 -0.65828,0.484364 0,0 0.0912,0.347839 -0.092,0.594783 -0.1826,0.246592 -0.51361,-0.265642 -0.59627,-0.155575 -0.082,0.109714 -0.28293,0.280106 -0.42926,0.08784 -0.14637,-0.191911 0.30328,-0.197909 0.30328,-0.197909 0,0 0,-0.06385 -0.14633,-0.173213 -0.14637,-0.110067 0.0548,-0.274462 0.0548,-0.274462 0,0 -0.0548,-0.01834 -0.27435,-0.100894 -0.21248,-0.07937 -0.1083,-0.493536 -0.10128,-0.520347 -0.006,0.0035 -0.10954,0.06773 -0.37469,-0.04692 -0.27383,-0.118886 -0.19195,-0.466372 -0.19195,-0.466372 0,0 -0.0211,0.01693 -0.0562,0.04092 -0.12403,0.08608 -0.42086,0.266347 -0.55672,0.123472 -0.17311,-0.182386 -0.16457,-0.512233 -0.16457,-0.512233 0,0 -0.18256,0.228953 -0.53012,0.17392 -0.3478,-0.05433 -0.3478,-0.539751 -0.3478,-0.539751 -0.0351,0.02928 -0.10763,0.08961 -0.32893,0.274462 -0.32964,0.274814 -0.51223,0.05539 -0.51223,0.05539 0,0 -0.14634,0.475191 -0.3295,0.502708 -0.18274,0.02752 -0.20133,-0.136878 -0.20133,-0.136878 0,0 -0.10954,0.03598 -0.19209,-0.09172 -0.082,-0.128058 0.0732,-0.420511 0.10072,-0.420511 0,0 -0.20133,-0.128411 -0.2195,-0.310797 -0.0182,-0.183445 0.35649,-0.292806 0.35649,-0.292806 0,0 -0.30152,-0.03704 -0.26526,-0.210961 0.0369,-0.173567 0.37536,-0.227894 0.37536,-0.227894 0,0 -0.21015,-0.05539 -0.16454,-0.247298 0.0456,-0.191911 0.39331,-0.191911 0.39331,-0.191911 0,0 -0.13754,-0.301978 0.0544,-0.412044 0.1827,-0.104423 0.3653,-0.07655 0.38336,-0.07373 0,0 -0.0813,-0.365478 0.12884,-0.502355 0.21071,-0.136878 0.52158,0.01799 0.52158,0.01799 0,0 -0.0912,-0.328789 0.18316,-0.438855 0.27407,-0.109714 0.43903,0.128411 0.43903,0.128411 0,0 -0.0275,-0.164747 0.27397,-0.256117 0.1101,-0.03316 0.21015,-0.01446 0.29266,0.02258 0.14514,0.06526 0.23802,0.186619 0.23802,0.186619 0,0 0.009,-0.209197 0.36601,-0.236714 0.35662,-0.02752 0.51234,0.283634 0.51234,0.283634 0,0 0.13698,-0.182739 0.53026,-0.100895 0.39331,0.08255 0.45723,0.594784 0.45723,0.594784 0,0 0.0211,-0.01305 0.0649,-0.01305 0.069,3.53e-4 0.19208,0.03175 0.37401,0.186972 0.30205,0.255764 0.12827,0.749653 0.12827,0.749653 0,0 0.31076,0.146403 0.41134,0.466725 0.0979,0.311503 -0.31485,0.579614 -0.33761,0.594431 0,0 0.30152,-0.0092 0.35595,0.411691 0.055,0.420159 -0.33831,0.704145 -0.33831,0.704145 0,0 0.15572,0.109361 0.10982,0.466725"
       style="fill:#305489;fill-opacity:1;fill-rule:nonzero;stroke:none;stroke-width:0.0352778"
       id="path2974" />
    <path
       d="m 170.78,91.746168 c 0,0 0.12707,0.28328 -0.0485,0.517525 -0.17569,0.234244 -0.23425,0.175683 -0.23425,0.175683 0,0 0.01,0.195086 -0.0193,0.360539 -0.0294,0.166511 -0.27341,0.331964 -0.30262,0.331964 -0.0294,0 0.14633,0.08784 0.0977,0.302683 -0.0492,0.214136 -0.42969,0.204964 -0.42969,0.204964 0,0 0.16634,0.184856 0.0393,0.38982 -0.12707,0.204611 -0.42912,0.116769 -0.42912,0.116769 0,0 0.13642,0.03951 0.0193,0.22472 -0.11702,0.185208 -0.35126,0.07796 -0.35126,0.07796 0,0 -0.0339,0.05045 -0.0842,0.124178 -0.12403,0.08608 -0.42086,0.266347 -0.55672,0.123472 -0.17311,-0.182386 -0.16457,-0.512233 -0.16457,-0.512233 0,0 -0.18256,0.228953 -0.53012,0.17392 -0.3478,-0.05433 -0.3478,-0.539751 -0.3478,-0.539751 l 0.0151,-0.06209 c 0,0 -0.27326,0.02928 -0.2534,-0.312209 0.0193,-0.341489 0.2927,-0.341489 0.2927,-0.341489 0,0 -0.44898,-0.204964 -0.2734,-0.57538 0.17085,-0.361245 0.49001,-0.2413 0.50698,-0.23495 -0.13438,-0.2921 0.10527,-0.684389 0.38047,-0.478014 -0.11769,-0.402167 0.0631,-0.549275 0.44178,-0.45085 -0.0332,-0.01341 -0.16425,-0.08361 0.095,-0.299861 0.16605,-0.137936 0.2716,-0.09454 0.312,0.0702 l 0.0103,0.05891 c 0,0 0.009,-0.209197 0.36601,-0.236714 0.35662,-0.02752 0.51234,0.283634 0.51234,0.283634 0,0 0.13698,-0.182739 0.53026,-0.100895 0.39331,0.08255 0.45723,0.594784 0.45723,0.594784 0,0 0.0211,-0.01305 0.0649,-0.01305 l -0.11646,0.02575"
       style="fill:#f21820;fill-opacity:1;fill-rule:nonzero;stroke:none;stroke-width:0.0352778"
       id="path2976" />
    <path
       d="m 166.74098,92.741354 c 0,0 -0.0292,0.0099 -0.22419,0.292805 -0.19487,0.283281 0.12703,0.546806 0.12703,0.546806 0,0 -0.18563,-0.02011 -0.2541,0.243417 -0.0678,0.263172 0.20726,0.32385 0.20726,0.32385 0,0 -0.14634,0.475191 -0.3295,0.502708 -0.18274,0.02752 -0.20133,-0.136878 -0.20133,-0.136878 0,0 -0.10954,0.03598 -0.19209,-0.09172 -0.082,-0.128058 0.0732,-0.420511 0.10072,-0.420511 0,0 -0.20133,-0.128411 -0.2195,-0.310797 -0.0182,-0.183445 0.35649,-0.292806 0.35649,-0.292806 0,0 -0.30152,-0.03704 -0.26526,-0.210961 0.0369,-0.173567 0.37536,-0.227894 0.37536,-0.227894 0,0 -0.21015,-0.05539 -0.16454,-0.247298 0.0456,-0.191911 0.39331,-0.191911 0.39331,-0.191911 0,0 -0.13754,-0.301978 0.0544,-0.412044 0.1827,-0.104423 0.3653,-0.07655 0.38336,-0.07373 0,0 -0.13741,0.102306 -0.30318,0.297392 -0.16619,0.195439 0.15572,0.409575 0.15572,0.409575"
       style="fill:#ff8958;fill-opacity:1;fill-rule:nonzero;stroke:none;stroke-width:0.0352778"
       id="path2978" />
    <path
       d="m 171.59993,95.300757 c -0.0455,0.356305 -0.65828,0.484364 -0.65828,0.484364 0,0 0.0912,0.347839 -0.092,0.594783 -0.1826,0.246592 -0.56251,-0.08996 -0.64506,0.02011 -0.082,0.109362 -0.40982,0.318912 -0.55605,0.127 -0.14633,-0.192263 0,-0.390172 0,-0.390172 0,0 -0.16591,0.02893 -0.15614,-0.312208 0.005,-0.183092 0.35127,-0.273403 0.35127,-0.273403 0.0415,-0.01764 0.66354,0.136878 0.67288,-0.175683 0.01,-0.312209 0.01,-0.312209 0.01,-0.312209 0,0 0.54624,0.08784 0.65388,-0.351014 0.0885,-0.361244 0.0176,-0.418394 -0.01,-0.427213 0.0209,0.0011 0.0766,-0.01235 0.16563,-0.138995 0.11712,-0.165453 0.13642,-0.427919 0.13642,-0.427919 0,0 0.30152,-0.0092 0.35595,0.411691 0.055,0.420159 -0.33831,0.704145 -0.33831,0.704145 0,0 0.15572,0.109361 0.10982,0.466725"
       style="fill:#f7641e;fill-opacity:1;fill-rule:nonzero;stroke:none;stroke-width:0.0352778"
       id="path2980" />
    <path
       d="m 166.27658,103.29294 c 0,0.25858 -0.20958,0.46849 -0.46813,0.46849 -0.25877,0 -0.46839,-0.20991 -0.46839,-0.46849 0,-0.25859 0.20962,-0.46814 0.46839,-0.46814 0.25855,0 0.46813,0.20955 0.46813,0.46814"
       style="fill:#173b75;fill-opacity:1;fill-rule:nonzero;stroke:none;stroke-width:0.0352778"
       id="path2982" />
    <path
       d="m 166.156,105.11115 c 0,0.25859 -0.20958,0.46814 -0.46824,0.46814 -0.25865,0 -0.46828,-0.20955 -0.46828,-0.46814 0,-0.25893 0.20963,-0.46848 0.46828,-0.46848 0.25866,0 0.46824,0.20955 0.46824,0.46848"
       style="fill:#173b75;fill-opacity:1;fill-rule:nonzero;stroke:none;stroke-width:0.0352778"
       id="path2984" />
    <path
       d="m 166.23386,108.00005 c 0,0.25859 -0.20958,0.46814 -0.46824,0.46814 -0.25866,0 -0.46828,-0.20955 -0.46828,-0.46814 0,-0.25858 0.20962,-0.46813 0.46828,-0.46813 0.25866,0 0.46824,0.20955 0.46824,0.46813"
       style="fill:#221e61;fill-opacity:1;fill-rule:nonzero;stroke:none;stroke-width:0.0352778"
       id="path2986" />
    <path
       d="m 158.80665,106.7865 c 0,0.65793 -0.53329,1.19133 -1.19119,1.19133 -0.658,0 -1.19129,-0.5334 -1.19129,-1.19133 0,-0.65758 0.53329,-1.19098 1.19129,-1.19098 0.6579,0 1.19119,0.5334 1.19119,1.19098"
       style="fill:#f21820;fill-opacity:1;fill-rule:nonzero;stroke:none;stroke-width:0.0352778"
       id="path2988" />
    <path
       d="m 159.11149,98.693068 c 0.12333,0.805039 -0.56004,1.488372 -1.36511,1.365252 -0.50147,-0.07691 -0.91158,-0.486835 -0.98831,-0.988485 -0.12322,-0.805039 0.56014,-1.48837 1.36508,-1.36525 0.50161,0.07691 0.91158,0.486833 0.98834,0.988483"
       style="fill:#ff8958;fill-opacity:1;fill-rule:nonzero;stroke:none;stroke-width:0.0352778"
       id="path2990" />
    <path
       d="m 162.91391,91.272034 c 0,0.657578 -0.53333,1.190978 -1.19119,1.190978 -0.65786,0 -1.19119,-0.5334 -1.19119,-1.190978 0,-0.65793 0.53333,-1.19133 1.19119,-1.19133 0.65786,0 1.19119,0.5334 1.19119,1.19133"
       style="fill:#f21820;fill-opacity:1;fill-rule:nonzero;stroke:none;stroke-width:0.0352778"
       id="path2992" />
    <path
       d="m 167.32169,105.68089 c 0,0.65793 -0.5333,1.19098 -1.19119,1.19098 -0.65772,0 -1.1913,-0.53305 -1.1913,-1.19098 0,-0.65793 0.53358,-1.19098 1.1913,-1.19098 0.65789,0 1.19119,0.53305 1.19119,1.19098"
       style="fill:#ffca48;fill-opacity:1;fill-rule:nonzero;stroke:none;stroke-width:0.0352778"
       id="path2994" />
    <path
       d="m 167.08176,100.71731 c 0,0.65793 -0.53329,1.19133 -1.19115,1.19133 -0.6579,0 -1.19119,-0.5334 -1.19119,-1.19133 0,-0.65793 0.53329,-1.190981 1.19119,-1.190981 0.65786,0 1.19115,0.533051 1.19115,1.190981"
       style="fill:#ff8958;fill-opacity:1;fill-rule:nonzero;stroke:none;stroke-width:0.0352778"
       id="path2996" />
    <path
       d="m 170.41509,96.127668 c 0,0.361244 -0.29281,0.65405 -0.65412,0.65405 -0.36121,0 -0.65405,-0.292806 -0.65405,-0.65405 0,-0.360892 0.29284,-0.653697 0.65405,-0.653697 0.36131,0 0.65412,0.292805 0.65412,0.653697"
       style="fill:#f21820;fill-opacity:1;fill-rule:nonzero;stroke:none;stroke-width:0.0352778"
       id="path2998" />
  </g>
</svg>
