<?xml version="1.0" encoding="UTF-8" standalone="no"?>
<!-- Created with Inkscape (http://www.inkscape.org/) -->

<svg
   width="23.20961mm"
   height="38.862331mm"
   viewBox="0 0 23.20961 38.862331"
   version="1.1"
   id="svg49539"
   inkscape:version="1.1.2 (0a00cf5339, 2022-02-04)"
   sodipodi:docname="char9.svg"
   xmlns:inkscape="http://www.inkscape.org/namespaces/inkscape"
   xmlns:sodipodi="http://sodipodi.sourceforge.net/DTD/sodipodi-0.dtd"
   xmlns="http://www.w3.org/2000/svg"
   xmlns:svg="http://www.w3.org/2000/svg">
  <sodipodi:namedview
     id="namedview49541"
     pagecolor="#ffffff"
     bordercolor="#666666"
     borderopacity="1.0"
     inkscape:pageshadow="2"
     inkscape:pageopacity="0.0"
     inkscape:pagecheckerboard="0"
     inkscape:document-units="mm"
     showgrid="false"
     fit-margin-top="0"
     fit-margin-left="0"
     fit-margin-right="0"
     fit-margin-bottom="0"
     inkscape:zoom="2.9683221"
     inkscape:cx="34.699738"
     inkscape:cy="35.036629"
     inkscape:window-width="1920"
     inkscape:window-height="1011"
     inkscape:window-x="1680"
     inkscape:window-y="32"
     inkscape:window-maximized="1"
     inkscape:current-layer="layer1" />
  <defs
     id="defs49536">
    <clipPath
       clipPathUnits="userSpaceOnUse"
       id="clipPath1592">
      <path
         d="m 2476.25,1363.35 c -29.89,0 -59.81,0.74 -89.63,2.24 44.59,65.85 105.16,128.81 181.85,187.01 -0.66,-5.01 -0.97,-7.8 -0.97,-7.8 0,0 13.51,-17.03 40.52,-30.07 -1.06,-33.35 0.47,-81.04 -4.52,-146.85 -42.22,-3.02 -84.74,-4.53 -127.25,-4.53"
         id="path1590" />
    </clipPath>
    <clipPath
       clipPathUnits="userSpaceOnUse"
       id="clipPath1688">
      <path
         d="m 2858.7,1623.86 c -8.27,0 -17.21,1.43 -26.66,4.58 -7.78,2.59 -15.26,3.97 -22.33,4.47 -0.69,5.09 -3.99,27.99 -11.16,56.2 40.18,18.67 81.76,35.81 124.57,51.44 -5.02,-29.41 -8.5,-56.87 -9.16,-69.45 -1.36,-25.78 -23.21,-47.24 -55.26,-47.24"
         id="path1686" />
    </clipPath>
  </defs>
  <g
     inkscape:label="Ebene 1"
     inkscape:groupmode="layer"
     id="layer1"
     transform="translate(-88.940213,-138.16067)">
    <path
       d="m 98.662776,140.3578 c 0,0.53235 -0.43145,0.96379 -0.96344,0.96379 -0.53199,0 -0.96343,-0.43144 -0.96343,-0.96379 0,-0.53163 0.43144,-0.96308 0.96343,-0.96308 0.53199,0 0.96344,0.43145 0.96344,0.96308"
       style="fill:#000000;fill-opacity:1;fill-rule:nonzero;stroke:none;stroke-width:0.0352778"
       id="path2164" />
    <path
       d="m 103.33955,147.53084 c 0,0 2.82963,-2.04682 5.23804,-0.72214 2.40842,1.32433 2.95029,2.52871 1.20439,2.58868 -1.74625,0.0603 -5.59929,2.76966 -5.59929,2.76966 l -0.84314,-4.6362"
       style="fill:#305489;fill-opacity:1;fill-rule:nonzero;stroke:none;stroke-width:0.0352778"
       id="path2166" />
    <path
       d="m 98.181936,146.36702 -0.12065,1.38465 c 0,0 -0.06,2.2278 -1.02341,2.95029 -0.95285,0.71155 -6.12916,-0.70662 -7.40586,-2.34809 -1.264,-1.6256 -0.42122,-6.32213 -0.36089,-8.42892 0.0501,-1.71909 0.79692,-2.04047 1.7459,-1.56563 0.60219,0.30127 1.32468,4.93677 1.38465,6.08118 0.0603,1.14406 1.26435,2.04682 2.88995,1.50495 1.62596,-0.54186 2.89031,0.42157 2.89031,0.42157"
       style="fill:#173b75;fill-opacity:1;fill-rule:nonzero;stroke:none;stroke-width:0.0352778"
       id="path2168" />
    <path
       d="m 103.05839,148.05295 c 0.90346,0.0603 2.16782,1.08373 2.40841,2.88995 0.24095,1.80622 0.48189,2.58869 0.48189,2.58869 0,0 -3.79342,-5.53897 -2.8903,-5.47864"
       style="fill:#173b75;fill-opacity:1;fill-rule:nonzero;stroke:none;stroke-width:0.0352778"
       id="path2170" />
    <path
       d="m 96.074446,145.82515 c 0,0 0.90311,-7.22488 4.214634,-6.68302 3.31153,0.54187 4.33493,9.75396 4.33493,9.75396 0,0 -1.38465,1.74589 -4.1543,1.56492 -2.769664,-0.18062 -4.395264,-4.63586 -4.395264,-4.63586"
       style="fill:#173b75;fill-opacity:1;fill-rule:nonzero;stroke:none;stroke-width:0.0352778"
       id="path2172" />
    <path
       d="m 99.024726,172.85848 c -0.0603,0.18066 -0.18062,0.78289 -0.84279,1.14406 -0.66251,0.36132 -1.32468,1.32429 -1.56563,1.86655 -0.24059,0.54183 0.0603,0.96312 0.84279,1.14406 0.78281,0.18023 3.371854,-2.16779 3.612804,-2.529 0.24059,-0.36131 -0.0603,-2.34816 -0.0603,-2.34816 l -1.986844,0.72249"
       style="fill:#305489;fill-opacity:1;fill-rule:nonzero;stroke:none;stroke-width:0.0352778"
       id="path2174" />
    <path
       d="m 97.880666,162.38243 c 0,0 0.96344,3.37185 3.431824,4.9971 2.46874,1.62556 6.62305,-0.78282 6.62305,-0.78282 0,0 0.20002,1.06998 1.08373,1.80615 1.44498,1.20414 3.13055,-0.18023 3.13055,-0.18023 0,0 -2.70933,-2.22776 -2.28776,-5.23836 0.42157,-3.01026 1.385,-4.09399 1.385,-4.09399 0,0 -2.76965,-0.06 -3.55247,1.92652 -0.78281,1.98684 -0.36124,2.70933 -0.36124,2.70933 0,0 -1.6256,0.90347 -2.46839,-0.42121 -0.84279,-1.32468 -1.20403,-3.97405 -1.20403,-3.97405 l -5.780264,3.25156"
       style="fill:#305489;fill-opacity:1;fill-rule:nonzero;stroke:none;stroke-width:0.0352778"
       id="path2176" />
    <path
       d="m 96.857256,147.63138 -0.1203,1.38465 c 0,0 -0.0272,0.99236 -0.33125,1.86725 -1.70745,0.13159 -5.68678,-1.13206 -6.77369,-2.52941 -1.264,-1.6256 -0.42122,-6.32213 -0.36089,-8.42892 0.012,-0.41452 0.0632,-0.73766 0.14252,-0.98813 0.0998,0.013 0.19403,0.0427 0.27869,0.0847 0.6022,0.30127 1.32469,5.53932 1.38501,6.68338 0.06,1.14406 1.26436,2.04681 2.88996,1.50495 1.6256,-0.54187 2.88995,0.42157 2.88995,0.42157"
       style="fill:#f4fefe;fill-opacity:1;fill-rule:nonzero;stroke:none;stroke-width:0.0352778"
       id="path2178" />
    <path
       d="m 93.425436,163.55647 c -1.03258,2.21051 2.22744,7.34519 2.22744,7.34519 0,0 1.08408,0.90304 1.68592,0.66216 0.6022,-0.24059 1.44498,-0.8424 1.14406,-1.26435 -0.30092,-0.42125 -1.08373,-4.75615 -0.96343,-5.29802 0.12065,-0.54187 0.66251,-1.08373 0.66251,-1.08373 0,0 1.866204,-2.76966 2.047174,-4.39526 0.18027,-1.6256 1.56527,-11.07828 1.56527,-11.43953 0,-0.36124 -3.492144,-1.74589 -3.492144,-1.74589 0,0 -1.56528,0.48154 -2.40841,2.46838 -0.84279,1.9872 1.385,6.5024 -2.46839,14.75105"
       style="fill:#173b75;fill-opacity:1;fill-rule:nonzero;stroke:none;stroke-width:0.0352778"
       id="path2180" />
    <path
       d="m 98.904426,147.87232 c 0,0 -1.56563,0.72249 -1.56563,5.17772 0,4.45559 -0.18062,10.05488 0.84314,13.12545 1.02341,3.07062 0.30092,7.22486 0.66217,7.28494 0.36124,0.0602 0.90311,0.54211 1.625604,0.12058 0.72248,-0.42129 4.09433,-9.09109 3.19122,-15.59384 -0.90311,-6.50275 0.06,-9.33203 -1.08409,-10.11485 -1.1437,-0.78281 -3.672414,0 -3.672414,0"
       style="fill:#173b75;fill-opacity:1;fill-rule:nonzero;stroke:none;stroke-width:0.0352778"
       id="path2182" />
    <path
       d="m 98.864206,146.20651 c 0,0 0.20074,0.64241 0.0198,1.06362 -0.18027,0.42122 -0.46143,0.36125 -0.56162,1.18428 -0.10019,0.82268 1.44498,1.0033 2.448284,0.2607 1.00364,-0.7426 0.48189,-0.93345 0.48189,-0.93345 0,0 0.0402,-0.4512 0,-0.69215 -0.0402,-0.24059 0.0402,-1.64571 0.0402,-1.64571 l -2.428534,0.76271"
       style="fill:#f7aa95;fill-opacity:1;fill-rule:nonzero;stroke:none;stroke-width:0.0352778"
       id="path2184" />
    <path
       d="m 105.94869,153.53159 c 0,0 1.80623,-0.84279 2.70934,-2.16712 0.90311,-1.32468 1.56527,-0.42157 1.86655,0.11995 0.30091,0.54222 -0.54222,2.22814 -2.1075,4.15466 -0.29986,0.36865 -0.61807,0.66957 -0.94509,0.91052 -1.38077,1.01882 -2.90019,0.97578 -3.69076,0.53446 -2.06975,-1.15711 -2.81587,-5.68537 -1.86655,-7.94738 0,0 0.24059,-1.14406 1.14371,-1.08373 0.90346,0.0603 2.8903,5.47864 2.8903,5.47864"
       style="fill:#173b75;fill-opacity:1;fill-rule:nonzero;stroke:none;stroke-width:0.0352778"
       id="path2186" />
    <path
       d="m 107.47199,156.5496 c -1.38077,1.01882 -2.90019,0.97578 -3.69076,0.53446 -1.94981,-1.08973 -2.75202,-5.23734 -1.99179,-7.60589 0.79728,-0.42722 2.60033,0.58173 2.8949,2.78906 0.24095,1.80622 0.48154,2.58904 0.48154,2.58904 0,0 1.80622,-0.1203 2.70933,-1.44498 0.90311,-1.32468 1.08374,-0.78246 1.38501,-0.2406 0.25153,0.45262 -0.16933,1.87114 -1.78823,3.37891"
       style="fill:#f4fefe;fill-opacity:1;fill-rule:nonzero;stroke:none;stroke-width:0.0352778"
       id="path2188" />
    <path
       d="m 96.435686,147.33046 c 0,0 0.90311,-6.32213 1.92652,-6.68303 1.02376,-0.36159 2.761894,0.68404 3.266374,2.30294 0.87312,2.79929 0.70767,11.84557 0.58702,14.61558 -0.1203,2.76931 -4.214284,8.42892 -5.538964,5.59929 -1.32468,-2.82998 -1.03646,-4.32999 -1.20403,-7.10459 -0.45191,-7.46584 0.96308,-8.73019 0.96308,-8.73019"
       style="fill:#f4fefe;fill-opacity:1;fill-rule:nonzero;stroke:none;stroke-width:0.0352778"
       id="path2190" />
    <path
       d="m 101.03697,145.21062 c -0.0547,-0.20215 -0.14005,-0.39441 -0.18344,-0.5969 -0.24306,0.0183 -0.12206,-1.06645 -0.26353,-1.30246 -0.13546,-0.22542 -1.504954,-0.34607 -1.715914,-0.39123 -0.21061,-0.0452 -0.45155,-0.19579 -0.45155,-0.19579 0,0 -0.46638,1.11407 -0.43639,1.39982 0.03,0.28646 0.06,0.10548 0.06,0.37677 0,0.27058 -0.16545,0.46637 -0.06,0.82761 0.10513,0.36125 0.45156,1.08374 0.4064,1.29435 -0.0451,0.21096 0.33091,0.25611 0.79763,0.39158 0.46673,0.13511 1.655944,-0.67733 1.776244,-0.84279 0.0765,-0.10548 0.13475,-0.40463 0.16686,-0.60889 -0.0335,-0.1143 -0.0639,-0.23107 -0.0963,-0.35207"
       style="fill:#ffc2ab;fill-opacity:1;fill-rule:nonzero;stroke:none;stroke-width:0.0352778"
       id="path2192" />
    <path
       d="m 97.800586,143.6778 -0.52176,1.34443 0.40111,0.12065 0.0201,-0.86289 0.42157,0.2607 0.18062,-0.80292 0.32103,0.52211 0.48154,-0.78281 0.26105,1.12395 0.58209,-0.32103 0.100194,0.883 0.502,0.1203 -0.10054,0.80292 0.66216,0.0801 -0.20038,0.64241 0.62195,0.18027 c 0,0 -0.34114,-1.8662 -1.24425,-3.35139 -0.903114,-1.48519 -1.665814,-0.7426 -1.726144,-0.72249 -0.06,0.0201 -0.76235,0.76271 -0.76235,0.76271"
       style="fill:#d4d6d8;fill-opacity:1;fill-rule:nonzero;stroke:none;stroke-width:0.0352778"
       id="path2194" />
    <path
       d="m 97.278826,145.14288 c 0,0 0.0399,-1.64571 0.64206,-2.56893 0.60219,-0.92322 2.473684,-0.0402 2.955224,0.96344 0.48153,1.0033 0.65722,3.45158 0.65722,3.45158 0,0 -0.41628,-2.71427 -2.368204,-3.73274 -0.86571,-0.45191 -1.68557,1.12395 -1.8863,1.88665"
       style="fill:#ff8958;fill-opacity:1;fill-rule:nonzero;stroke:none;stroke-width:0.0352778"
       id="path2196" />
    <path
       d="m 97.980856,146.48732 c -0.0801,0 -0.70203,-1.34444 -0.70203,-1.34444 l 0.52176,0.22084 0.1203,0.32103 0.38135,-0.0201 0.24095,0.50165 0.54186,-0.10019 0.32103,0.46179 0.54187,-0.1009 0.281164,0.32138 0.2406,-0.16051 0.28116,0.36124 0.16051,-0.1404 0.62195,0.18027 c 0,0 -0.60219,0.68262 -1.48519,0.58243 -0.883014,-0.10054 -2.067284,-1.08408 -2.067284,-1.08408"
       style="fill:#eaebec;fill-opacity:1;fill-rule:nonzero;stroke:none;stroke-width:0.0352778"
       id="path2198" />
    <path
       d="m 98.883966,146.70816 c -1.05622,-0.45262 -1.60514,-1.56528 -1.60514,-1.56528 0,0 -0.32103,1.04352 0.0399,1.72579 0.36124,0.68263 1.68592,1.32468 2.689574,1.16417 1.0033,-0.16052 1.68557,-1.16417 1.68557,-1.16417 0,0 -0.56197,0.80292 -2.809874,-0.16051"
       style="fill:#ff8958;fill-opacity:1;fill-rule:nonzero;stroke:none;stroke-width:0.0352778"
       id="path2200" />
    <path
       d="m 104.21267,143.56209 c 0,0.53234 -0.43144,0.96378 -0.96343,0.96378 -0.53199,0 -0.96308,-0.43144 -0.96308,-0.96378 0,-0.53164 0.43109,-0.96309 0.96308,-0.96309 0.53199,0 0.96343,0.43145 0.96343,0.96309"
       style="fill:#000000;fill-opacity:1;fill-rule:nonzero;stroke:none;stroke-width:0.0352778"
       id="path2202" />
    <path
       d="m 95.893826,171.0523 c 0,0 -1.6256,1.32471 -1.98685,2.0472 -0.36124,0.72252 -0.54187,2.0471 -0.1203,2.0471 0.42157,0 2.04717,0 2.82963,-0.78274 0.78282,-0.78285 1.68593,-1.50538 1.7459,-1.92691 0.0603,-0.42125 -0.0582,-1.51515 -0.0582,-1.51515 0,0 -0.99342,0.5242 -1.36348,0.53661 -0.28046,0.009 -1.04669,-0.40611 -1.04669,-0.40611"
       style="fill:#305489;fill-opacity:1;fill-rule:nonzero;stroke:none;stroke-width:0.0352778"
       id="path2204" />
    <path
       d="m 97.433696,139.82405 c 0,0.0914 -0.0741,0.16545 -0.1658,0.16545 -0.0914,0 -0.16581,-0.0741 -0.16581,-0.16545 0,-0.0917 0.0744,-0.16616 0.16581,-0.16616 0.0917,0 0.1658,0.0744 0.1658,0.16616"
       style="fill:#ffffff;fill-opacity:1;fill-rule:nonzero;stroke:none;stroke-width:0.0352778"
       id="path2206" />
    <path
       d="m 103.09931,143.1264 c 0,0.0917 -0.0744,0.16581 -0.16616,0.16581 -0.0914,0 -0.16581,-0.0741 -0.16581,-0.16581 0,-0.0917 0.0744,-0.1658 0.16581,-0.1658 0.0917,0 0.16616,0.0741 0.16616,0.1658"
       style="fill:#ffffff;fill-opacity:1;fill-rule:nonzero;stroke:none;stroke-width:0.0352778"
       id="path2208" />
    <path
       d="m 102.38493,144.1858 c 0.0409,0 0.0804,-0.005 0.11854,-0.0138 -0.13582,-0.16616 -0.21731,-0.37853 -0.21731,-0.60995 0,-0.15629 0.037,-0.3041 0.10336,-0.43463 -0.001,0 -0.003,0 -0.005,0 -0.2861,0 -0.51823,0.23707 -0.51823,0.52917 0,0.29245 0.23213,0.52917 0.51823,0.52917"
       style="fill:#40adc5;fill-opacity:1;fill-rule:nonzero;stroke:none;stroke-width:0.0352778"
       id="path4678" />
    <path
       d="m 102.50347,144.17204 c 0.2293,-0.0547 0.40005,-0.26459 0.40005,-0.51541 0,-0.29069 -0.22966,-0.5267 -0.514,-0.52917 -0.0663,0.13053 -0.10336,0.27834 -0.10336,0.43463 0,0.23142 0.0815,0.44379 0.21731,0.60995"
       style="fill:#000000;fill-opacity:1;fill-rule:nonzero;stroke:none;stroke-width:0.0352778"
       id="path4680" />
    <path
       d="m 103.71949,162.37714 c 0.0487,-0.10936 0.0557,-0.2279 0.0275,-0.33726 -0.008,0.11218 -0.0176,0.22507 -0.0275,0.33726"
       style="fill:#4fa3c0;fill-opacity:1;fill-rule:nonzero;stroke:none;stroke-width:0.0352778"
       id="path5690" />
    <path
       d="m 90.418706,148.87986 c 0.19333,0 0.37818,-0.10584 0.46743,-0.28857 0.12559,-0.25683 0.0145,-0.56939 -0.24835,-0.69745 -0.0762,-0.0374 -0.15663,-0.055 -0.23566,-0.055 -0.19367,0 -0.37782,0.10583 -0.46707,0.28857 -0.12559,0.25682 -0.0145,0.56939 0.248,0.6978 0.0762,0.037 0.15663,0.0547 0.23565,0.0547"
       style="fill:#fbffff;fill-opacity:1;fill-rule:nonzero;stroke:none;stroke-width:0.0352778"
       id="path6476" />
  </g>
</svg>
