<svg xmlns="http://www.w3.org/2000/svg" height="100%" width="100%" viewBox="0 0 360.16 342.44">
  <defs>
    <style>
      .cls-1 {
        isolation: isolate;
      }

      .cls-2 {
        fill: #855044;
      }

      .cls-3, .cls-7 {
        fill: #fff;
      }

      .cls-4 {
        fill: #442923;
      }

      .cls-5 {
        fill: #fbb03b;
      }

      .cls-6 {
        opacity: 0.2;
      }

      .cls-17, .cls-19, .cls-21, .cls-6 {
        mix-blend-mode: multiply;
      }

      .cls-7 {
        opacity: 0.4;
        mix-blend-mode: overlay;
      }

      .cls-8 {
        fill: #476d0a;
      }

      .cls-9 {
        fill: #80ba24;
      }

      .cls-10 {
        fill: #cc8b7c;
      }

      .cls-11 {
        fill: #f2f2f2;
      }

      .cls-12 {
        fill: #4c3e7d;
      }

      .cls-13 {
        fill: #333;
      }

      .cls-14 {
        fill: #ffd52e;
      }

      .cls-15 {
        fill: #3e5063;
      }

      .cls-16 {
        fill: #ffb294;
      }

      .cls-17 {
        fill: #362c59;
      }

      .cls-17, .cls-19 {
        opacity: 0.5;
      }

      .cls-18 {
        fill: #322852;
      }

      .cls-19 {
        fill: #f7ab8d;
      }

      .cls-20 {
        fill: #d7664d;
      }

      .cls-21 {
        fill: #3d3d59;
        opacity: 0.3;
      }
    </style>
  </defs>
  <g class="cls-1">
    <g id="Ebene_2" data-name="Ebene 2">
      <g id="stage5Celebration">
        <g id="universityBuilding">
          <polygon class="cls-2" points="63.7 175.29 63.7 264.11 291.3 132.71 291.3 43.89 63.7 175.29"/>
          <g>
            <g>
              <g>
                <polygon class="cls-3" points="216.27 107.03 216.28 110.74 228.81 103.5 228.82 84.97 216.28 92.21 216.27 107.03"/>
                <polygon class="cls-4" points="228.11 86.2 225.96 87.44 216.99 92.62 216.99 107.03 216.99 109.51 228.11 103.09 228.11 86.2"/>
                <polygon class="cls-3" points="225.96 87.44 225.03 87.98 216.99 92.62 216.99 105.96 216.99 107.03 225.96 101.85 225.96 87.44"/>
                <polygon class="cls-5" points="225.03 87.97 216.99 92.62 216.99 105.96 225.03 101.31 225.03 87.97"/>
                <path class="cls-5" d="M225,88l-8,4.64Z"/>
                <polygon class="cls-3" points="216.65 96.35 225.37 91.32 225.37 92.26 216.65 97.29 216.65 96.35"/>
                <polygon class="cls-3" points="216.65 102 225.37 96.97 225.37 97.91 216.65 102.94 216.65 102"/>
                <polygon class="cls-3" points="221.42 90.01 221.42 103.63 220.6 104.07 220.6 90.3 221.42 90.01"/>
              </g>
              <g>
                <polygon class="cls-3" points="216.27 133.39 216.28 137.1 228.81 129.86 228.82 111.33 216.28 118.57 216.27 133.39"/>
                <polygon class="cls-4" points="228.11 112.56 225.96 113.8 216.99 118.98 216.99 133.39 216.99 135.87 228.11 129.45 228.11 112.56"/>
                <polygon class="cls-3" points="225.96 113.8 225.03 114.34 216.99 118.98 216.99 132.32 216.99 133.39 225.96 128.21 225.96 113.8"/>
                <polygon class="cls-5" points="225.03 114.34 216.99 118.98 216.99 132.32 225.03 127.68 225.03 114.34"/>
                <path class="cls-5" d="M225,114.34,217,119Z"/>
                <polygon class="cls-3" points="216.65 122.71 225.37 117.68 225.37 118.62 216.65 123.65 216.65 122.71"/>
                <polygon class="cls-3" points="216.65 128.36 225.37 123.33 225.37 124.27 216.65 129.3 216.65 128.36"/>
                <polygon class="cls-3" points="221.42 116.37 221.42 129.99 220.6 130.43 220.6 116.66 221.42 116.37"/>
              </g>
              <g>
                <polygon class="cls-3" points="216.27 159.75 216.28 163.47 228.81 156.22 228.82 137.69 216.28 144.94 216.27 159.75"/>
                <polygon class="cls-4" points="228.11 138.93 225.96 140.17 216.99 145.35 216.99 159.75 216.99 162.24 228.11 155.81 228.11 138.93"/>
                <polygon class="cls-3" points="225.96 140.17 225.03 140.7 216.99 145.35 216.99 158.69 216.99 159.75 225.96 154.57 225.96 140.17"/>
                <polygon class="cls-5" points="225.03 140.7 216.99 145.35 216.99 158.69 225.03 154.04 225.03 140.7"/>
                <path class="cls-5" d="M225,140.7l-8,4.65Z"/>
                <polygon class="cls-3" points="216.65 149.07 225.37 144.04 225.37 144.98 216.65 150.01 216.65 149.07"/>
                <polygon class="cls-3" points="216.65 154.72 225.37 149.69 225.37 150.63 216.65 155.66 216.65 154.72"/>
                <polygon class="cls-3" points="221.42 142.73 221.42 156.35 220.6 156.79 220.6 143.02 221.42 142.73"/>
              </g>
            </g>
            <g>
              <g>
                <polygon class="cls-3" points="234.72 96.39 234.72 100.11 247.26 92.87 247.26 74.33 234.72 81.58 234.72 96.39"/>
                <polygon class="cls-4" points="246.55 75.57 244.4 76.81 235.43 81.99 235.43 96.39 235.43 98.88 246.55 92.46 246.55 75.57"/>
                <polygon class="cls-3" points="244.4 76.81 243.48 77.34 235.43 81.99 235.43 95.33 235.43 96.39 244.4 91.22 244.4 76.81"/>
                <polygon class="cls-5" points="243.48 77.34 235.43 81.99 235.43 95.33 243.47 90.68 243.48 77.34"/>
                <path class="cls-5" d="M243.48,77.34l-8,4.65Z"/>
                <polygon class="cls-3" points="235.09 85.72 243.81 80.69 243.81 81.62 235.09 86.66 235.09 85.72"/>
                <polygon class="cls-3" points="235.09 91.36 243.81 86.33 243.81 87.27 235.09 92.31 235.09 91.36"/>
                <polygon class="cls-3" points="239.86 79.38 239.86 92.99 239.04 93.44 239.04 79.67 239.86 79.38"/>
              </g>
              <g>
                <polygon class="cls-3" points="234.72 122.76 234.72 126.47 247.26 119.23 247.26 100.7 234.72 107.94 234.72 122.76"/>
                <polygon class="cls-4" points="246.55 101.93 244.4 103.17 235.43 108.35 235.43 122.76 235.43 125.24 246.55 118.82 246.55 101.93"/>
                <polygon class="cls-3" points="244.4 103.17 243.48 103.71 235.43 108.35 235.43 121.69 235.43 122.76 244.4 117.58 244.4 103.17"/>
                <polygon class="cls-5" points="243.48 103.71 235.43 108.35 235.43 121.69 243.47 117.04 243.48 103.71"/>
                <path class="cls-5" d="M243.48,103.71l-8,4.64Z"/>
                <polygon class="cls-3" points="235.09 112.08 243.81 107.05 243.81 107.99 235.09 113.02 235.09 112.08"/>
                <polygon class="cls-3" points="235.09 117.73 243.81 112.7 243.81 113.64 235.09 118.67 235.09 117.73"/>
                <polygon class="cls-3" points="239.86 105.74 239.86 119.36 239.04 119.8 239.04 106.03 239.86 105.74"/>
              </g>
              <g>
                <polygon class="cls-3" points="234.72 149.12 234.72 152.83 247.26 145.59 247.26 127.06 234.72 134.3 234.72 149.12"/>
                <polygon class="cls-4" points="246.55 128.29 244.4 129.54 235.43 134.72 235.43 149.12 235.43 151.6 246.55 145.18 246.55 128.29"/>
                <polygon class="cls-3" points="244.4 129.54 243.48 130.07 235.43 134.72 235.43 148.05 235.43 149.12 244.4 143.94 244.4 129.54"/>
                <polygon class="cls-5" points="243.48 130.07 235.43 134.72 235.43 148.05 243.47 143.41 243.48 130.07"/>
                <path class="cls-5" d="M243.48,130.07l-8,4.65Z"/>
                <polygon class="cls-3" points="235.09 138.44 243.81 133.41 243.81 134.35 235.09 139.38 235.09 138.44"/>
                <polygon class="cls-3" points="235.09 144.09 243.81 139.06 243.81 140 235.09 145.03 235.09 144.09"/>
                <polygon class="cls-3" points="239.86 132.1 239.86 145.72 239.04 146.16 239.04 132.39 239.86 132.1"/>
              </g>
            </g>
            <g>
              <g>
                <polygon class="cls-3" points="253.16 85.76 253.16 89.47 265.7 82.23 265.7 63.7 253.16 70.94 253.16 85.76"/>
                <polygon class="cls-4" points="264.99 64.94 262.84 66.18 253.87 71.36 253.87 85.76 253.87 88.25 264.99 81.83 264.99 64.94"/>
                <polygon class="cls-3" points="262.84 66.18 261.92 66.71 253.87 71.36 253.87 84.69 253.87 85.76 262.84 80.58 262.84 66.18"/>
                <polygon class="cls-5" points="261.92 66.71 253.87 71.36 253.87 84.69 261.92 80.05 261.92 66.71"/>
                <path class="cls-5" d="M261.92,66.71l-8.05,4.65Z"/>
                <polygon class="cls-3" points="253.54 75.08 262.25 70.05 262.25 70.99 253.54 76.02 253.54 75.08"/>
                <polygon class="cls-3" points="253.53 80.73 262.25 75.7 262.25 76.64 253.54 81.67 253.53 80.73"/>
                <polygon class="cls-3" points="258.3 68.74 258.3 82.36 257.49 82.8 257.49 69.03 258.3 68.74"/>
              </g>
              <g>
                <polygon class="cls-3" points="253.16 112.13 253.16 115.84 265.7 108.6 265.7 90.06 253.16 97.31 253.16 112.13"/>
                <polygon class="cls-4" points="264.99 91.3 262.84 92.54 253.87 97.72 253.87 112.13 253.87 114.61 264.99 108.19 264.99 91.3"/>
                <polygon class="cls-3" points="262.84 92.54 261.92 93.08 253.87 97.72 253.87 111.06 253.87 112.13 262.84 106.95 262.84 92.54"/>
                <polygon class="cls-5" points="261.92 93.08 253.87 97.72 253.87 111.06 261.92 106.41 261.92 93.08"/>
                <path class="cls-5" d="M261.92,93.08l-8.05,4.64Z"/>
                <polygon class="cls-3" points="253.54 101.45 262.25 96.42 262.25 97.36 253.54 102.39 253.54 101.45"/>
                <polygon class="cls-3" points="253.53 107.1 262.25 102.06 262.25 103 253.54 108.04 253.53 107.1"/>
                <polygon class="cls-3" points="258.3 95.11 258.3 108.72 257.49 109.17 257.49 95.4 258.3 95.11"/>
              </g>
              <g>
                <polygon class="cls-3" points="253.16 138.49 253.16 142.2 265.7 134.96 265.7 116.43 253.16 123.67 253.16 138.49"/>
                <polygon class="cls-4" points="264.99 117.66 262.84 118.9 253.87 124.08 253.87 138.49 253.87 140.97 264.99 134.55 264.99 117.66"/>
                <polygon class="cls-3" points="262.84 118.9 261.92 119.44 253.87 124.08 253.87 137.42 253.87 138.49 262.84 133.31 262.84 118.9"/>
                <polygon class="cls-5" points="261.92 119.44 253.87 124.08 253.87 137.42 261.92 132.78 261.92 119.44"/>
                <path class="cls-5" d="M261.92,119.44l-8.05,4.64Z"/>
                <polygon class="cls-3" points="253.54 127.81 262.25 122.78 262.25 123.72 253.54 128.75 253.54 127.81"/>
                <polygon class="cls-3" points="253.53 133.46 262.25 128.43 262.25 129.37 253.54 134.4 253.53 133.46"/>
                <polygon class="cls-3" points="258.3 121.47 258.3 135.09 257.49 135.53 257.49 121.76 258.3 121.47"/>
              </g>
            </g>
            <g>
              <g>
                <polygon class="cls-3" points="271.6 75.13 271.61 78.84 284.14 71.6 284.14 53.07 271.6 60.31 271.6 75.13"/>
                <polygon class="cls-4" points="283.43 54.3 281.29 55.55 272.31 60.73 272.31 75.13 272.31 77.61 283.43 71.19 283.43 54.3"/>
                <polygon class="cls-3" points="281.29 55.55 280.36 56.08 272.31 60.73 272.31 74.06 272.31 75.13 281.28 69.95 281.29 55.55"/>
                <polygon class="cls-5" points="280.36 56.08 272.31 60.72 272.31 74.06 280.36 69.42 280.36 56.08"/>
                <path class="cls-5" d="M280.36,56.08l-8,4.64Z"/>
                <polygon class="cls-3" points="271.98 64.45 280.69 59.42 280.69 60.36 271.98 65.39 271.98 64.45"/>
                <polygon class="cls-3" points="271.98 70.1 280.69 65.07 280.69 66.01 271.98 71.04 271.98 70.1"/>
                <polygon class="cls-3" points="276.74 58.11 276.74 71.73 275.93 72.17 275.93 58.4 276.74 58.11"/>
              </g>
              <g>
                <polygon class="cls-3" points="271.6 101.49 271.61 105.21 284.14 97.97 284.14 79.43 271.6 86.68 271.6 101.49"/>
                <polygon class="cls-4" points="283.43 80.67 281.29 81.91 272.31 87.09 272.31 101.49 272.31 103.98 283.43 97.56 283.43 80.67"/>
                <polygon class="cls-3" points="281.29 81.91 280.36 82.44 272.31 87.09 272.31 100.43 272.31 101.49 281.28 96.31 281.29 81.91"/>
                <polygon class="cls-5" points="280.36 82.44 272.31 87.09 272.31 100.43 280.36 95.78 280.36 82.44"/>
                <path class="cls-5" d="M280.36,82.44l-8,4.65Z"/>
                <polygon class="cls-3" points="271.98 90.81 280.69 85.78 280.69 86.72 271.98 91.75 271.98 90.81"/>
                <polygon class="cls-3" points="271.98 96.47 280.69 91.43 280.69 92.37 271.98 97.41 271.98 96.47"/>
                <polygon class="cls-3" points="276.74 84.47 276.74 98.09 275.93 98.53 275.93 84.77 276.74 84.47"/>
              </g>
              <g>
                <polygon class="cls-3" points="271.6 127.86 271.61 131.57 284.14 124.33 284.14 105.8 271.6 113.04 271.6 127.86"/>
                <polygon class="cls-4" points="283.43 107.03 281.29 108.27 272.31 113.45 272.31 127.86 272.31 130.34 283.43 123.92 283.43 107.03"/>
                <polygon class="cls-3" points="281.29 108.27 280.36 108.81 272.31 113.45 272.31 126.79 272.31 127.86 281.28 122.68 281.29 108.27"/>
                <polygon class="cls-5" points="280.36 108.81 272.31 113.45 272.31 126.79 280.36 122.14 280.36 108.81"/>
                <path class="cls-5" d="M280.36,108.81l-8,4.64Z"/>
                <polygon class="cls-3" points="271.98 117.18 280.69 112.15 280.69 113.09 271.98 118.12 271.98 117.18"/>
                <polygon class="cls-3" points="271.98 122.83 280.69 117.8 280.69 118.74 271.98 123.77 271.98 122.83"/>
                <polygon class="cls-3" points="276.74 110.84 276.74 124.45 275.93 124.9 275.93 111.13 276.74 110.84"/>
              </g>
            </g>
          </g>
          <g class="cls-6">
            <polygon class="cls-4" points="63.7 174.46 2.4 139.06 2.4 147.14 63.7 182.54 291.3 51.13 291.3 43.05 63.7 174.46"/>
          </g>
          <polygon class="cls-4" points="2.4 228.72 63.7 264.11 63.7 175.29 2.4 139.9 2.4 228.72"/>
          <polygon class="cls-7" points="63.7 256.03 2.4 220.64 2.4 228.72 63.7 264.11 291.3 132.71 291.3 124.63 63.7 256.03"/>
          <polygon class="cls-2" points="0 132.79 0 139.07 63.7 175.85 293.7 43.06 293.7 36.78 230 6.29 0 132.79"/>
          <polygon class="cls-3" points="230 0 0 132.79 63.7 169.57 293.7 36.78 230 0"/>
          <polygon class="cls-8" points="4.79 132.79 230 2.77 288.91 36.78 63.7 166.8 4.79 132.79"/>
          <polygon class="cls-9" points="64.41 111.22 231.44 14.79 288.91 36.78 63.7 166.8 64.41 111.22"/>
          <polygon class="cls-8" points="64.41 111.22 231.44 14.79 230 2.77 4.79 132.79 64.41 111.22"/>
          <polygon class="cls-4" points="247.33 209.89 197.44 238.7 197.44 234.13 247.33 205.32 247.33 209.89"/>
          <polygon class="cls-10" points="247.33 205.33 197.44 234.13 152.56 208.22 202.46 179.42 247.33 205.33"/>
          <polygon class="cls-4" points="197.44 238.7 152.56 212.79 152.56 208.22 197.44 234.13 197.44 238.7"/>
          <polygon class="cls-4" points="200.31 238.84 200.31 237.31 197.44 235.65 197.44 238.7 200.31 240.36 203.19 242.02 203.19 240.5 200.31 238.84"/>
          <polygon class="cls-4" points="250.21 210.03 200.31 238.84 200.31 237.31 250.21 208.51 250.21 210.03"/>
          <polygon class="cls-10" points="247.33 206.85 197.44 235.65 200.31 237.32 250.21 208.51 247.33 206.85"/>
          <polygon class="cls-4" points="253.09 213.21 203.19 242.02 203.19 240.5 253.09 211.69 253.09 213.21"/>
          <polygon class="cls-10" points="250.21 210.03 200.31 238.84 203.19 240.5 253.09 211.69 250.21 210.03"/>
          <polygon class="cls-2" points="234.06 197.71 184.15 226.52 184.15 196.87 234.06 168.06 234.06 197.71"/>
          <polygon class="cls-10" points="218.47 159.08 168.56 187.9 184.15 196.87 234.06 168.06 218.47 159.08"/>
          <polygon class="cls-2" points="218.44 159.1 168.56 187.9 168.56 143.12 218.44 114.32 218.44 159.1"/>
          <polygon class="cls-4" points="185.25 150.75 204.9 139.41 204.9 166.91 185.25 178.26 185.25 150.75"/>
          <polygon class="cls-4" points="168.56 187.9 152.56 178.66 152.56 133.88 168.56 143.12 168.56 187.9"/>
          <g>
            <path class="cls-4" d="M224.57,164.05a3.35,3.35,0,0,0-.55-.39,6.55,6.55,0,0,0-5.94,0,3.07,3.07,0,0,0-.56.39h-.67v1.32a2.1,2.1,0,0,0,1.23,1.72,6.61,6.61,0,0,0,5.94,0,2.1,2.1,0,0,0,1.23-1.72v-1.32Z"/>
            <path class="cls-10" d="M224,162.34c1.64.94,1.64,2.48,0,3.43a6.61,6.61,0,0,1-5.94,0c-1.64-1-1.64-2.49,0-3.43a6.55,6.55,0,0,1,5.94,0Z"/>
            <path class="cls-3" d="M224,110.11a3.74,3.74,0,0,0-1.59-.77,5.65,5.65,0,0,0-2.77,0,3.64,3.64,0,0,0-1.58.77h-.57v53.53c0,.72.66,1.45,2,1.84a5.42,5.42,0,0,0,3.09,0c1.33-.39,2-1.12,2-1.84V110.11Z"/>
            <path class="cls-4" d="M211.16,171.78a3.35,3.35,0,0,0-.55-.39,6.57,6.57,0,0,0-6,0,3.35,3.35,0,0,0-.55.39h-.68v1.32a2.1,2.1,0,0,0,1.23,1.72,6.57,6.57,0,0,0,6,0,2.1,2.1,0,0,0,1.23-1.72v-1.32Z"/>
            <path class="cls-10" d="M210.61,170.07c1.64.94,1.64,2.48,0,3.43a6.63,6.63,0,0,1-6,0c-1.64-.95-1.64-2.49,0-3.43a6.57,6.57,0,0,1,6,0Z"/>
            <path class="cls-3" d="M210.6,117.84a3.75,3.75,0,0,0-1.58-.77,5.9,5.9,0,0,0-2.77,0,3.75,3.75,0,0,0-1.58.77h-.58v53.53c0,.72.67,1.45,2,1.84a5.42,5.42,0,0,0,3.09,0c1.33-.39,2-1.12,2-1.84V117.84Z"/>
            <path class="cls-4" d="M197.75,179.51a3.07,3.07,0,0,0-.56-.39,6.55,6.55,0,0,0-5.94,0,3.35,3.35,0,0,0-.55.39H190v1.32a2.09,2.09,0,0,0,1.23,1.72,6.61,6.61,0,0,0,5.94,0,2.09,2.09,0,0,0,1.23-1.72v-1.32Z"/>
            <path class="cls-10" d="M197.19,177.8c1.64.94,1.64,2.48,0,3.43a6.55,6.55,0,0,1-5.94,0c-1.64-.95-1.64-2.49,0-3.43a6.55,6.55,0,0,1,5.94,0Z"/>
            <path class="cls-3" d="M197.19,125.57a3.75,3.75,0,0,0-1.58-.77,5.9,5.9,0,0,0-2.77,0,3.8,3.8,0,0,0-1.59.77h-.57V179.1c0,.72.67,1.45,2,1.84a5.45,5.45,0,0,0,3.1,0c1.33-.39,2-1.12,2-1.84V125.57Z"/>
            <path class="cls-4" d="M184.33,187.24a3,3,0,0,0-.55-.39,6.55,6.55,0,0,0-5.94,0,3,3,0,0,0-.55.39h-.68v1.32a2.08,2.08,0,0,0,1.23,1.72,6.55,6.55,0,0,0,5.94,0,2.08,2.08,0,0,0,1.23-1.72v-1.32Z"/>
            <path class="cls-10" d="M183.78,185.53c1.64.95,1.64,2.48,0,3.43a6.55,6.55,0,0,1-5.94,0c-1.64-1-1.64-2.48,0-3.43a6.55,6.55,0,0,1,5.94,0Z"/>
            <path class="cls-3" d="M183.78,133.3a3.82,3.82,0,0,0-1.58-.77,5.9,5.9,0,0,0-2.77,0,3.8,3.8,0,0,0-1.59.77h-.57v53.53c0,.72.66,1.45,2,1.85a5.45,5.45,0,0,0,3.1,0c1.33-.4,2-1.13,2-1.85V133.3Z"/>
          </g>
          <polygon class="cls-4" points="232.58 120.52 179.94 150.92 179.94 146.36 232.58 115.96 232.58 120.52"/>
          <polygon class="cls-11" points="232.58 115.96 179.94 146.35 148.55 128.24 201.2 97.84 232.58 115.96"/>
          <polygon class="cls-4" points="179.94 150.92 148.55 132.8 148.55 128.24 179.94 146.35 179.94 150.92"/>
          <polygon class="cls-2" points="235.19 116.22 179.73 148.24 179.73 141.61 235.19 109.59 235.19 116.22"/>
          <polygon class="cls-10" points="235.19 109.59 179.73 141.61 145.95 122.1 152.57 118.26 201.41 93.33 235.19 109.59"/>
          <polygon class="cls-2" points="179.73 148.24 145.95 128.74 145.95 122.1 179.73 141.61 179.73 148.24"/>
          <polygon class="cls-3" points="231.44 108.76 178.65 139.23 205.04 102.9 231.44 108.76"/>
          <polygon class="cls-10" points="187.07 131.65 189.33 128.54 207.75 108.76 222.76 109.25 225.01 109.75 187.07 131.65"/>
          <polygon class="cls-4" points="189.33 128.54 206.04 105.53 222.75 109.25 189.33 128.54"/>
          <polygon class="cls-8" points="145.08 119.85 152.56 72.61 205.04 102.9 178.65 139.23 145.08 119.85"/>
          <g>
            <polygon class="cls-3" points="229.24 174.28 231.37 173.06 231.37 182.64 220.74 188.78 220.74 179.19 229.24 174.28"/>
            <polygon class="cls-4" points="221.21 187.97 221.21 186.32 221.21 179.46 229.47 174.69 230.9 173.87 230.9 182.37 221.21 187.97"/>
            <polygon class="cls-3" points="221.21 186.32 221.21 185.62 221.21 179.46 228.86 175.04 229.47 174.69 229.47 181.55 221.21 186.32"/>
            <polygon class="cls-5" points="221.21 185.62 221.21 179.46 228.86 175.04 228.86 181.2 221.21 185.62"/>
            <path class="cls-5" d="M221.21,185.62v0Z"/>
            <polygon class="cls-3" points="223.24 178.03 223.24 184.7 223.78 184.39 223.78 177.72 223.24 178.03"/>
            <polygon class="cls-3" points="226.48 176.16 226.48 182.83 227.02 182.52 227.02 175.85 226.48 176.16"/>
            <polygon class="cls-3" points="221.18 182.87 228.99 178.36 228.97 177.75 221.07 182.3 221.18 182.87"/>
          </g>
          <g>
            <g>
              <g>
                <polygon class="cls-3" points="75.33 187.81 75.33 191.52 87.87 184.28 87.87 165.75 75.33 172.99 75.33 187.81"/>
                <polygon class="cls-4" points="87.16 166.98 85.02 168.22 76.04 173.4 76.04 187.81 76.04 190.29 87.16 183.87 87.16 166.98"/>
                <polygon class="cls-3" points="85.02 168.22 84.09 168.76 76.04 173.4 76.04 186.74 76.04 187.81 85.01 182.63 85.02 168.22"/>
                <polygon class="cls-5" points="84.09 168.76 76.04 173.4 76.04 186.74 84.09 182.1 84.09 168.76"/>
                <path class="cls-5" d="M84.09,168.76l-8,4.64Z"/>
                <polygon class="cls-3" points="75.71 177.13 84.42 172.1 84.42 173.04 75.71 178.07 75.71 177.13"/>
                <polygon class="cls-3" points="75.7 182.78 84.42 177.75 84.42 178.69 75.71 183.72 75.7 182.78"/>
                <polygon class="cls-3" points="80.47 170.79 80.47 184.41 79.66 184.85 79.66 171.08 80.47 170.79"/>
              </g>
              <g>
                <polygon class="cls-3" points="75.33 214.17 75.33 217.89 87.87 210.65 87.87 192.11 75.33 199.35 75.33 214.17"/>
                <polygon class="cls-4" points="87.16 193.35 85.02 194.59 76.04 199.77 76.04 214.17 76.04 216.66 87.16 210.24 87.16 193.35"/>
                <polygon class="cls-3" points="85.02 194.59 84.09 195.12 76.04 199.77 76.04 213.1 76.04 214.17 85.01 208.99 85.02 194.59"/>
                <polygon class="cls-5" points="84.09 195.12 76.04 199.77 76.04 213.1 84.09 208.46 84.09 195.12"/>
                <path class="cls-5" d="M84.09,195.12l-8,4.65Z"/>
                <polygon class="cls-3" points="75.71 203.5 84.42 198.46 84.42 199.4 75.71 204.43 75.71 203.5"/>
                <polygon class="cls-3" points="75.7 209.14 84.42 204.11 84.42 205.05 75.71 210.09 75.7 209.14"/>
                <polygon class="cls-3" points="80.47 197.15 80.47 210.77 79.66 211.21 79.66 197.44 80.47 197.15"/>
              </g>
              <g>
                <polygon class="cls-3" points="75.33 240.54 75.33 244.25 87.87 237.01 87.87 218.47 75.33 225.72 75.33 240.54"/>
                <polygon class="cls-4" points="87.16 219.71 85.02 220.95 76.04 226.13 76.04 240.54 76.04 243.02 87.16 236.6 87.16 219.71"/>
                <polygon class="cls-3" points="85.02 220.95 84.09 221.49 76.04 226.13 76.04 239.47 76.04 240.54 85.01 235.36 85.02 220.95"/>
                <polygon class="cls-5" points="84.09 221.49 76.04 226.13 76.04 239.47 84.09 234.82 84.09 221.49"/>
                <path class="cls-5" d="M84.09,221.49l-8,4.64Z"/>
                <polygon class="cls-3" points="75.71 229.86 84.42 224.83 84.42 225.77 75.71 230.8 75.71 229.86"/>
                <polygon class="cls-3" points="75.7 235.51 84.42 230.47 84.42 231.42 75.71 236.45 75.7 235.51"/>
                <polygon class="cls-3" points="80.47 223.52 80.47 237.13 79.66 237.58 79.66 223.81 80.47 223.52"/>
              </g>
            </g>
            <g>
              <g>
                <polygon class="cls-3" points="93.77 177.18 93.78 180.89 106.31 173.65 106.31 155.12 93.77 162.36 93.77 177.18"/>
                <polygon class="cls-4" points="105.6 156.35 103.46 157.59 94.48 162.77 94.48 177.18 94.48 179.66 105.6 173.24 105.6 156.35"/>
                <polygon class="cls-3" points="103.46 157.59 102.53 158.13 94.48 162.77 94.48 176.11 94.48 177.18 103.45 172 103.46 157.59"/>
                <polygon class="cls-5" points="102.53 158.13 94.48 162.77 94.48 176.11 102.53 171.46 102.53 158.13"/>
                <path class="cls-5" d="M102.53,158.13l-8,4.64Z"/>
                <polygon class="cls-3" points="94.15 166.5 102.86 161.47 102.86 162.41 94.15 167.44 94.15 166.5"/>
                <polygon class="cls-3" points="94.15 172.15 102.86 167.12 102.86 168.06 94.15 173.09 94.15 172.15"/>
                <polygon class="cls-3" points="98.91 160.16 98.91 173.78 98.1 174.22 98.1 160.45 98.91 160.16"/>
              </g>
              <g>
                <polygon class="cls-3" points="93.77 203.54 93.78 207.25 106.31 200.01 106.31 181.48 93.77 188.72 93.77 203.54"/>
                <polygon class="cls-4" points="105.6 182.71 103.46 183.96 94.48 189.13 94.48 203.54 94.48 206.02 105.6 199.6 105.6 182.71"/>
                <polygon class="cls-3" points="103.46 183.96 102.53 184.49 94.48 189.13 94.48 202.47 94.48 203.54 103.45 198.36 103.46 183.96"/>
                <polygon class="cls-5" points="102.53 184.49 94.48 189.13 94.48 202.47 102.53 197.83 102.53 184.49"/>
                <path class="cls-5" d="M102.53,184.49l-8,4.65Z"/>
                <polygon class="cls-3" points="94.15 192.86 102.86 187.83 102.86 188.77 94.15 193.8 94.15 192.86"/>
                <polygon class="cls-3" points="94.15 198.51 102.86 193.48 102.86 194.42 94.15 199.45 94.15 198.51"/>
                <polygon class="cls-3" points="98.91 186.52 98.91 200.14 98.1 200.58 98.1 186.81 98.91 186.52"/>
              </g>
              <g>
                <polygon class="cls-3" points="93.77 229.9 93.78 233.62 106.31 226.38 106.31 207.84 93.77 215.09 93.77 229.9"/>
                <polygon class="cls-4" points="105.6 209.08 103.46 210.32 94.48 215.5 94.48 229.9 94.48 232.39 105.6 225.97 105.6 209.08"/>
                <polygon class="cls-3" points="103.46 210.32 102.53 210.85 94.48 215.5 94.48 228.84 94.48 229.9 103.45 224.72 103.46 210.32"/>
                <polygon class="cls-5" points="102.53 210.85 94.48 215.5 94.48 228.84 102.53 224.19 102.53 210.85"/>
                <path class="cls-5" d="M102.53,210.85l-8,4.65Z"/>
                <polygon class="cls-3" points="94.15 219.23 102.86 214.19 102.86 215.13 94.15 220.16 94.15 219.23"/>
                <polygon class="cls-3" points="94.15 224.88 102.86 219.84 102.86 220.78 94.15 225.82 94.15 224.88"/>
                <polygon class="cls-3" points="98.91 212.88 98.91 226.5 98.1 226.94 98.1 213.18 98.91 212.88"/>
              </g>
            </g>
            <g>
              <g>
                <polygon class="cls-3" points="112.21 166.54 112.22 170.26 124.75 163.02 124.75 144.48 112.22 151.73 112.21 166.54"/>
                <polygon class="cls-4" points="124.05 145.72 121.9 146.96 112.93 152.14 112.92 166.54 112.93 169.03 124.04 162.61 124.05 145.72"/>
                <polygon class="cls-3" points="121.9 146.96 120.97 147.5 112.93 152.14 112.92 165.48 112.92 166.54 121.89 161.37 121.9 146.96"/>
                <polygon class="cls-5" points="120.97 147.5 112.93 152.14 112.92 165.48 120.97 160.83 120.97 147.5"/>
                <path class="cls-5" d="M121,147.5l-8,4.64Z"/>
                <polygon class="cls-3" points="112.59 155.87 121.3 150.84 121.31 151.78 112.59 156.81 112.59 155.87"/>
                <polygon class="cls-3" points="112.59 161.52 121.3 156.49 121.31 157.43 112.59 162.46 112.59 161.52"/>
                <polygon class="cls-3" points="117.35 149.53 117.36 163.14 116.54 163.59 116.54 149.82 117.35 149.53"/>
              </g>
              <g>
                <polygon class="cls-3" points="112.21 192.91 112.22 196.62 124.75 189.38 124.75 170.85 112.22 178.09 112.21 192.91"/>
                <polygon class="cls-4" points="124.05 172.08 121.9 173.32 112.93 178.5 112.92 192.91 112.93 195.39 124.04 188.97 124.05 172.08"/>
                <polygon class="cls-3" points="121.9 173.32 120.97 173.86 112.93 178.5 112.92 191.84 112.92 192.91 121.89 187.73 121.9 173.32"/>
                <polygon class="cls-5" points="120.97 173.86 112.93 178.5 112.92 191.84 120.97 187.19 120.97 173.86"/>
                <path class="cls-5" d="M121,173.86l-8,4.64Z"/>
                <polygon class="cls-3" points="112.59 182.23 121.3 177.2 121.31 178.14 112.59 183.17 112.59 182.23"/>
                <polygon class="cls-3" points="112.59 187.88 121.3 182.85 121.31 183.79 112.59 188.82 112.59 187.88"/>
                <polygon class="cls-3" points="117.35 175.89 117.36 189.51 116.54 189.95 116.54 176.18 117.35 175.89"/>
              </g>
              <g>
                <polygon class="cls-3" points="112.21 219.27 112.22 222.99 124.75 215.74 124.75 197.21 112.22 204.46 112.21 219.27"/>
                <polygon class="cls-4" points="124.05 198.45 121.9 199.69 112.93 204.87 112.92 219.27 112.93 221.75 124.04 215.34 124.05 198.45"/>
                <polygon class="cls-3" points="121.9 199.69 120.97 200.22 112.93 204.87 112.92 218.21 112.92 219.27 121.89 214.09 121.9 199.69"/>
                <polygon class="cls-5" points="120.97 200.22 112.93 204.87 112.92 218.21 120.97 213.56 120.97 200.22"/>
                <path class="cls-5" d="M121,200.22l-8,4.65Z"/>
                <polygon class="cls-3" points="112.59 208.59 121.3 203.56 121.31 204.5 112.59 209.53 112.59 208.59"/>
                <polygon class="cls-3" points="112.59 214.24 121.3 209.21 121.31 210.15 112.59 215.18 112.59 214.24"/>
                <polygon class="cls-3" points="117.35 202.25 117.36 215.87 116.54 216.31 116.54 202.54 117.35 202.25"/>
              </g>
            </g>
            <g>
              <g>
                <polygon class="cls-3" points="130.65 155.91 130.66 159.63 143.19 152.39 143.2 133.85 130.66 141.1 130.65 155.91"/>
                <polygon class="cls-4" points="142.49 135.09 140.34 136.33 131.37 141.51 131.37 155.91 131.37 158.4 142.49 151.98 142.49 135.09"/>
                <polygon class="cls-3" points="140.34 136.33 139.41 136.86 131.37 141.51 131.36 154.85 131.36 155.91 140.34 150.73 140.34 136.33"/>
                <polygon class="cls-5" points="139.41 136.86 131.37 141.51 131.37 154.85 139.41 150.2 139.41 136.86"/>
                <path class="cls-5" d="M139.41,136.86l-8,4.65Z"/>
                <polygon class="cls-3" points="131.03 145.24 139.75 140.2 139.75 141.14 131.03 146.17 131.03 145.24"/>
                <polygon class="cls-3" points="131.03 150.88 139.75 145.85 139.75 146.79 131.03 151.82 131.03 150.88"/>
                <polygon class="cls-3" points="135.8 138.9 135.8 152.51 134.98 152.96 134.98 139.19 135.8 138.9"/>
              </g>
              <g>
                <polygon class="cls-3" points="130.65 182.28 130.66 185.99 143.19 178.75 143.2 160.22 130.66 167.46 130.65 182.28"/>
                <polygon class="cls-4" points="142.49 161.45 140.34 162.69 131.37 167.87 131.37 182.28 131.37 184.76 142.49 178.34 142.49 161.45"/>
                <polygon class="cls-3" points="140.34 162.69 139.41 163.23 131.37 167.87 131.36 181.21 131.36 182.28 140.34 177.1 140.34 162.69"/>
                <polygon class="cls-5" points="139.41 163.23 131.37 167.87 131.37 181.21 139.41 176.56 139.41 163.23"/>
                <path class="cls-5" d="M139.41,163.23l-8,4.64Z"/>
                <polygon class="cls-3" points="131.03 171.6 139.75 166.57 139.75 167.51 131.03 172.54 131.03 171.6"/>
                <polygon class="cls-3" points="131.03 177.25 139.75 172.22 139.75 173.16 131.03 178.19 131.03 177.25"/>
                <polygon class="cls-3" points="135.8 165.26 135.8 178.88 134.98 179.32 134.98 165.55 135.8 165.26"/>
              </g>
              <g>
                <polygon class="cls-3" points="130.65 208.64 130.66 212.35 143.19 205.11 143.2 186.58 130.66 193.82 130.65 208.64"/>
                <polygon class="cls-4" points="142.49 187.81 140.34 189.06 131.37 194.24 131.37 208.64 131.37 211.12 142.49 204.7 142.49 187.81"/>
                <polygon class="cls-3" points="140.34 189.06 139.41 189.59 131.37 194.24 131.36 207.57 131.36 208.64 140.34 203.46 140.34 189.06"/>
                <polygon class="cls-5" points="139.41 189.59 131.37 194.23 131.37 207.57 139.41 202.93 139.41 189.59"/>
                <path class="cls-5" d="M139.41,189.59l-8,4.64Z"/>
                <polygon class="cls-3" points="131.03 197.96 139.75 192.93 139.75 193.87 131.03 198.9 131.03 197.96"/>
                <polygon class="cls-3" points="131.03 203.61 139.75 198.58 139.75 199.52 131.03 204.55 131.03 203.61"/>
                <polygon class="cls-3" points="135.8 191.62 135.8 205.24 134.98 205.68 134.98 191.91 135.8 191.62"/>
              </g>
            </g>
          </g>
          <polygon class="cls-3" points="195.71 193.67 197.84 192.44 197.84 202.03 187.21 208.16 187.22 198.57 195.71 193.67"/>
          <polygon class="cls-4" points="187.69 207.35 187.69 205.71 187.69 198.85 195.95 194.07 197.37 193.25 197.37 201.75 187.69 207.35"/>
          <polygon class="cls-3" points="187.69 205.71 187.69 205 187.69 198.85 195.34 194.43 195.95 194.07 195.95 200.94 187.69 205.71"/>
          <polygon class="cls-5" points="187.69 205 187.69 198.85 195.34 194.43 195.34 200.58 187.69 205"/>
          <path class="cls-5" d="M187.69,205v0Z"/>
          <polygon class="cls-3" points="189.71 197.42 189.71 204.08 190.25 203.77 190.25 197.11 189.71 197.42"/>
          <polygon class="cls-3" points="192.95 195.55 192.95 202.21 193.49 201.9 193.49 195.24 192.95 195.55"/>
          <polygon class="cls-3" points="187.65 202.25 195.46 197.74 195.45 197.13 187.55 201.69 187.65 202.25"/>
          <polygon class="cls-4" points="184.15 226.52 152.56 208.28 152.56 178.63 184.15 196.87 184.15 226.52"/>
          <polygon class="cls-4" points="202.93 215.62 216.21 207.96 216.21 182.07 202.93 189.74 202.93 215.62"/>
          <polygon class="cls-10" points="214.46 207.22 214.46 184.82 204.67 190.47 204.67 212.87 214.46 207.22"/>
          <polygon class="cls-4" points="213.68 192.24 213.68 186.56 210.03 188.67 210.03 194.34 213.68 192.24"/>
          <polygon class="cls-4" points="209.1 194.88 209.1 189.21 205.45 191.31 205.45 196.99 209.1 194.88"/>
          <polygon class="cls-4" points="213.68 199.22 213.68 193.55 210.03 195.66 210.03 201.33 213.68 199.22"/>
          <polygon class="cls-4" points="209.1 201.87 209.1 196.19 205.45 198.3 205.45 203.98 209.1 201.87"/>
          <polygon class="cls-4" points="213.68 206.21 213.68 200.54 210.03 202.65 210.03 208.32 213.68 206.21"/>
          <polygon class="cls-4" points="209.1 208.85 209.1 203.18 205.45 205.29 205.45 210.96 209.1 208.85"/>
          <polygon class="cls-9" points="197.84 89.36 152.56 72.61 205.04 102.9 231.44 108.75 197.84 89.36"/>
          <g>
            <g>
              <g>
                <polygon class="cls-3" points="50.91 187.23 50.9 190.94 38.37 183.7 38.36 165.16 50.9 172.41 50.91 187.23"/>
                <polygon class="cls-4" points="39.07 166.4 41.22 167.64 50.19 172.82 50.2 187.23 50.19 189.71 39.07 183.29 39.07 166.4"/>
                <polygon class="cls-3" points="41.22 167.64 42.15 168.18 50.19 172.82 50.2 186.16 50.2 187.23 41.22 182.05 41.22 167.64"/>
                <polygon class="cls-5" points="42.15 168.18 50.19 172.82 50.2 186.16 42.15 181.51 42.15 168.18"/>
                <path class="cls-5" d="M42.14,168.18l8,4.64Z"/>
                <polygon class="cls-3" points="50.53 176.55 41.81 171.52 41.81 172.46 50.53 177.49 50.53 176.55"/>
                <polygon class="cls-3" points="50.53 182.2 41.81 177.17 41.81 178.11 50.53 183.14 50.53 182.2"/>
                <polygon class="cls-3" points="45.76 170.21 45.76 183.82 46.58 184.27 46.58 170.5 45.76 170.21"/>
              </g>
              <g>
                <polygon class="cls-3" points="50.91 213.59 50.9 217.3 38.37 210.06 38.36 191.53 50.9 198.77 50.91 213.59"/>
                <polygon class="cls-4" points="39.07 192.76 41.22 194 50.19 199.18 50.2 213.59 50.19 216.07 39.07 209.65 39.07 192.76"/>
                <polygon class="cls-3" points="41.22 194 42.15 194.54 50.19 199.18 50.2 212.52 50.2 213.59 41.22 208.41 41.22 194"/>
                <polygon class="cls-5" points="42.15 194.54 50.19 199.18 50.2 212.52 42.15 207.88 42.15 194.54"/>
                <path class="cls-5" d="M42.14,194.54l8,4.64Z"/>
                <polygon class="cls-3" points="50.53 202.91 41.81 197.88 41.81 198.82 50.53 203.85 50.53 202.91"/>
                <polygon class="cls-3" points="50.53 208.56 41.81 203.53 41.81 204.47 50.53 209.5 50.53 208.56"/>
                <polygon class="cls-3" points="45.76 196.57 45.76 210.19 46.58 210.63 46.58 196.86 45.76 196.57"/>
              </g>
              <g>
                <polygon class="cls-3" points="50.91 239.95 50.9 243.67 38.37 236.43 38.36 217.89 50.9 225.14 50.91 239.95"/>
                <polygon class="cls-4" points="39.07 219.13 41.22 220.37 50.19 225.55 50.2 239.95 50.19 242.44 39.07 236.02 39.07 219.13"/>
                <polygon class="cls-3" points="41.22 220.37 42.15 220.9 50.19 225.55 50.2 238.89 50.2 239.95 41.22 234.77 41.22 220.37"/>
                <polygon class="cls-5" points="42.15 220.9 50.19 225.55 50.2 238.89 42.15 234.24 42.15 220.9"/>
                <path class="cls-5" d="M42.14,220.9l8,4.65Z"/>
                <polygon class="cls-3" points="50.53 229.28 41.81 224.24 41.81 225.18 50.53 230.21 50.53 229.28"/>
                <polygon class="cls-3" points="50.53 234.92 41.81 229.89 41.81 230.83 50.53 235.87 50.53 234.92"/>
                <polygon class="cls-3" points="45.76 222.93 45.76 236.55 46.58 236.99 46.58 223.22 45.76 222.93"/>
              </g>
            </g>
            <g>
              <g>
                <polygon class="cls-3" points="26.66 173.28 26.66 177 14.12 169.76 14.12 151.22 26.66 158.47 26.66 173.28"/>
                <polygon class="cls-4" points="14.83 152.46 16.98 153.7 25.95 158.88 25.95 173.28 25.95 175.77 14.83 169.35 14.83 152.46"/>
                <polygon class="cls-3" points="16.98 153.7 17.9 154.23 25.95 158.88 25.95 172.22 25.95 173.28 16.98 168.1 16.98 153.7"/>
                <polygon class="cls-5" points="17.9 154.23 25.95 158.88 25.95 172.22 17.9 167.57 17.9 154.23"/>
                <path class="cls-5" d="M17.9,154.23,26,158.88Z"/>
                <polygon class="cls-3" points="26.28 162.61 17.57 157.57 17.57 158.51 26.28 163.55 26.28 162.61"/>
                <polygon class="cls-3" points="26.29 168.26 17.57 163.22 17.57 164.16 26.28 169.2 26.29 168.26"/>
                <polygon class="cls-3" points="21.52 156.27 21.52 169.88 22.33 170.33 22.33 156.56 21.52 156.27"/>
              </g>
              <g>
                <polygon class="cls-3" points="26.66 199.65 26.66 203.36 14.12 196.12 14.12 177.59 26.66 184.83 26.66 199.65"/>
                <polygon class="cls-4" points="14.83 178.82 16.98 180.06 25.95 185.24 25.95 199.65 25.95 202.13 14.83 195.71 14.83 178.82"/>
                <polygon class="cls-3" points="16.98 180.06 17.9 180.6 25.95 185.24 25.95 198.58 25.95 199.65 16.98 194.47 16.98 180.06"/>
                <polygon class="cls-5" points="17.9 180.6 25.95 185.24 25.95 198.58 17.9 193.94 17.9 180.6"/>
                <path class="cls-5" d="M17.9,180.6,26,185.24Z"/>
                <polygon class="cls-3" points="26.28 188.97 17.57 183.94 17.57 184.88 26.28 189.91 26.28 188.97"/>
                <polygon class="cls-3" points="26.29 194.62 17.57 189.59 17.57 190.53 26.28 195.56 26.29 194.62"/>
                <polygon class="cls-3" points="21.52 182.63 21.52 196.25 22.33 196.69 22.33 182.92 21.52 182.63"/>
              </g>
              <g>
                <polygon class="cls-3" points="26.66 226.01 26.66 229.72 14.12 222.48 14.12 203.95 26.66 211.19 26.66 226.01"/>
                <polygon class="cls-4" points="14.83 205.19 16.98 206.43 25.95 211.61 25.95 226.01 25.95 228.5 14.83 222.07 14.83 205.19"/>
                <polygon class="cls-3" points="16.98 206.43 17.9 206.96 25.95 211.61 25.95 224.94 25.95 226.01 16.98 220.83 16.98 206.43"/>
                <polygon class="cls-5" points="17.9 206.96 25.95 211.61 25.95 224.94 17.9 220.3 17.9 206.96"/>
                <path class="cls-5" d="M17.9,207,26,211.61Z"/>
                <polygon class="cls-3" points="26.28 215.33 17.57 210.3 17.57 211.24 26.28 216.27 26.28 215.33"/>
                <polygon class="cls-3" points="26.29 220.98 17.57 215.95 17.57 216.89 26.28 221.92 26.29 220.98"/>
                <polygon class="cls-3" points="21.52 208.99 21.52 222.61 22.33 223.05 22.33 209.28 21.52 208.99"/>
              </g>
            </g>
          </g>
          <g>
            <polygon class="cls-8" points="87.62 134.56 87.81 120.88 94.67 124.8 87.62 134.56"/>
            <polygon class="cls-9" points="101.72 126.41 87.81 120.88 94.67 124.8 101.72 126.41"/>
            <polygon class="cls-3" points="101.73 126.37 87.62 134.51 94.67 124.8 101.73 126.37"/>
            <polygon class="cls-4" points="101.73 126.37 87.62 134.51 94.67 124.8 101.73 126.37"/>
            <polygon class="cls-5" points="95.18 126.14 98.46 126.87 91.9 130.66 95.18 126.14"/>
          </g>
          <g>
            <polygon class="cls-8" points="118.31 117.03 118.5 103.35 125.37 107.28 118.31 117.03"/>
            <polygon class="cls-9" points="132.42 108.88 118.5 103.35 125.37 107.28 132.42 108.88"/>
            <polygon class="cls-3" points="132.42 108.84 118.31 116.99 125.37 107.28 132.42 108.84"/>
            <polygon class="cls-4" points="132.42 108.84 118.31 116.99 125.37 107.28 132.42 108.84"/>
            <polygon class="cls-5" points="125.88 108.62 129.16 109.34 122.59 113.14 125.88 108.62"/>
          </g>
          <g>
            <polygon class="cls-8" points="201.42 70.16 201.61 56.48 208.47 60.41 201.42 70.16"/>
            <polygon class="cls-9" points="215.52 62.01 201.61 56.48 208.47 60.41 215.52 62.01"/>
            <polygon class="cls-3" points="215.53 61.97 201.42 70.12 208.47 60.41 215.53 61.97"/>
            <polygon class="cls-4" points="215.53 61.97 201.42 70.12 208.47 60.41 215.53 61.97"/>
            <polygon class="cls-5" points="208.98 61.74 212.26 62.47 205.7 66.26 208.98 61.74"/>
          </g>
          <g>
            <polygon class="cls-8" points="232.12 52.64 232.3 38.95 239.17 42.88 232.12 52.64"/>
            <polygon class="cls-9" points="246.22 44.48 232.3 38.95 239.17 42.88 246.22 44.48"/>
            <polygon class="cls-3" points="246.22 44.45 232.12 52.59 239.17 42.88 246.22 44.45"/>
            <polygon class="cls-4" points="246.22 44.45 232.12 52.59 239.17 42.88 246.22 44.45"/>
            <polygon class="cls-5" points="239.68 44.22 242.96 44.95 236.4 48.74 239.68 44.22"/>
          </g>
        </g>
        <g id="celebratingStudents">
          <g>
            <g class="studentHat">
              <path class="cls-12" d="M349.68,149.28l-3.61,2.33a2.92,2.92,0,0,0-1.1,2.77,9.26,9.26,0,0,0,4.53,7.06,3,3,0,0,0,3,.15l3.62-2.32Z"/>
              <path class="cls-13" d="M357.9,156c.13,2.67-1.69,3.84-4.07,2.62a9.26,9.26,0,0,1-4.53-7.06c-.13-2.68,1.7-3.85,4.07-2.62A9.26,9.26,0,0,1,357.9,156Z"/>
              <g>
                <polygon points="358.67 162.44 348.41 157.15 347.87 145.62 348.16 145.43 358.13 150.91 358.96 162.26 358.67 162.44"/>
                <polygon class="cls-12" points="358.96 162.26 348.7 156.96 348.16 145.43 358.41 150.73 358.96 162.26"/>
              </g>
              <path class="cls-14" d="M359,165.69c-.51-.31-.92-.55-2.29-2.63a9.39,9.39,0,0,1-2.48-4.71,20.18,20.18,0,0,1-.57-4.62.16.16,0,0,1,.31-.06,18.88,18.88,0,0,0,.55,4.45,9.48,9.48,0,0,0,2.41,4.7,8.7,8.7,0,0,1,3.13,1.44.45.45,0,0,1,.14.43,1.41,1.41,0,0,1-.75,1A.44.44,0,0,1,359,165.69Z"/>
            </g>
            <g class="celebratingStudent">
              <path d="M329.48,266.26c1,.39,1.83,2,.22,4-1,1.16-2.47,2-3,3.52-.38,1-.25,3.09-1.78,4.94a4.09,4.09,0,0,1-3.77,1.62c-.95-.3-1-1.44-.92-2.4.42-5.07,2-4,3.2-7.51,2.14-6.38-.61-4.22,4.19-5.66.12,0,.61-.26.73-.21s.09.32.1.49C328.56,266.08,329.05,266.09,329.48,266.26Z"/>
              <path d="M352.87,272.34a15,15,0,0,0,1.12,1.47c.95.67,2.26,1.65,1,3.95-.4.73-1.65,2-2,2.75-1.11,2.1-1.5,5.2-5.07,6.57-3.33,1.28-4.29-1.62-2.39-4.25,2.72-3.76,2.73-4.64,3.11-6.79a9.12,9.12,0,0,0-.13-4.32c.56-.16,1.74-.06,2.28-.24s1.38-2.47,1.79-2.42S352.49,271.89,352.87,272.34Z"/>
              <path class="cls-15" d="M354.32,271.07s-2.95,5-5.83,4.05l-4.95-17.53,6.2-3.27S354.62,262.16,354.32,271.07Z"/>
              <path class="cls-15" d="M330.77,265.08s-4.06,4.19-6.62,2.55l-.64-18.2,6.8-1.7S333.18,256.5,330.77,265.08Z"/>
              <path class="cls-16" d="M331.94,174.64l1.13-2.74a1.15,1.15,0,0,1,.83-1.3,11,11,0,0,0,2.56-1.3,10.87,10.87,0,0,1,2.3-1.13c.74-.36.47-.95-.22-1a2.56,2.56,0,0,0-1.32.38c-.51.38-1.54.7-1.51-.38a6,6,0,0,1,.65-2.24l1.43-2c.39-.63-.09-1-.68-.57,0,0-2.1,2.19-2.29,2.54l-.19,0a24.74,24.74,0,0,1,1-2.87c.37-.68-.19-1-.77-.38a9.08,9.08,0,0,0-1.51,3.19l-.24,0s.39-2.37.36-2.69c0-.66-.53-.76-.81-.06a11.67,11.67,0,0,0-.75,3.23l-.29.3a5.68,5.68,0,0,1,0-1.56c.08-.5-.33-.56-.58,0a8.57,8.57,0,0,0-.39,2.4,7.07,7.07,0,0,0-.65,3.84l-1,2.95Z"/>
              <path class="cls-12" d="M318.93,253.53a11.38,11.38,0,0,0,9.35,5.54c6.76.43,6.32,5,14.3,4.67.45,0,.89-.06,1.31-.1a16.83,16.83,0,0,0,10.66-5l-2.83-23.87s-2.49-12.76-1.67-18a38.67,38.67,0,0,1,5.12-10.06,8.56,8.56,0,0,0,.14-1.09,8.36,8.36,0,0,0-.76-4.29l-8.25-6.55s-6-1.41-8.46-1.83c-1.6,1.48-8.27,11-9.63,22.4-.65,5.36-1.87,12.94-4.53,17.9S318.93,253.53,318.93,253.53Z"/>
              <path class="cls-3" d="M347.37,194.59s2.53,1.14,2.3,2.87c-.44,3.37-6.3,3.16-6.3,3.16l-.85-3.37-3.1.35S341.3,191,347.37,194.59Z"/>
              <path d="M347.59,181.72a5.74,5.74,0,0,1,3.21,0,5.4,5.4,0,0,1,4.65,5.53,7.43,7.43,0,0,1-3.88,6.72c-2.19,1.36-3.69.89-4.46,0-2.47-2.76-.47-5.88-.36-9.53C346.77,183.93,345.54,182.47,347.59,181.72Z"/>
              <path class="cls-16" d="M349.54,193.73l-.79,3.46s-2.35,2.48-5.88.3c-1.76-1.08-1-2.19-1-2.19l.68-1.73c.13-.27-.11-.74-.27-1A2.79,2.79,0,0,1,342,190c.21-.43,2.15-5.14,3.24-5.9.62-.43,5.82-5,9.22,1.78,0,0,.94,4.52-2.16,6.66A5.41,5.41,0,0,1,349.54,193.73Z"/>
              <path d="M350.77,191.11c.66-1.7.54-2.94.15-3.37-2.22-2.42-2.76-3.11-2.81-5.59a3.47,3.47,0,0,1,2.5-.06,6.85,6.85,0,0,1,3.24,1.85,5.31,5.31,0,0,1,1.3,3.15,6.64,6.64,0,0,1-.66,3.37,6.29,6.29,0,0,1-3.51,3.31c-.23.08-1.14.54-1.32.39C349.1,193.71,350.57,191.65,350.77,191.11Z"/>
              <path class="cls-16" d="M351.47,190.54a.94.94,0,0,1,1,0,.69.69,0,0,1,.2.55,1.46,1.46,0,0,1-.18.57,2.55,2.55,0,0,1-1.69,1.24.7.7,0,0,1-.38,0c-.31-.09-.42-.48-.38-.8A2.33,2.33,0,0,1,351.47,190.54Z"/>
              <path class="cls-12" d="M339.63,193.31s-5.74-4.88-7.9-8.83c0,0,1.52-10.64,1.34-12.58a8.56,8.56,0,0,1-4.18,1.26s-2.91,10-2.3,13.23,6.69,10.79,6.85,13.1,3.3.34,3.3.34Z"/>
              <path class="cls-17" d="M343.89,263.64a16.83,16.83,0,0,0,10.66-5l-2.83-23.87s-2.49-12.76-1.67-18a38.67,38.67,0,0,1,5.12-10.06,8.56,8.56,0,0,0,.14-1.09l-4.18-2.82-6.94,8-2.81-.09-2,5.6C346,223.36,344.67,252.48,343.89,263.64Z"/>
              <path class="cls-12" d="M352.05,201.36l2.5,0s2.92,2.36.3,6-5,6.74-5,6.74-3.21,3.91-6.47,3.48c0,0-1.65-.65-.35-4.53l2.26-1Z"/>
              <path class="cls-16" d="M343.1,216.56a2.4,2.4,0,0,0,.24-3.39l-1.62-2.11-1.76-1.8-.66-.44c-.41-.33-.75.12-.58.49a2.65,2.65,0,0,0,.72,1.09,7.09,7.09,0,0,1,1.11,1.24l-2-.91c-.7-.29-1.12.56-.31,1.05l1.81,1.17-.07.32-2.46-.05c-1-.06-1,1-.18,1.06l2.17.49,0,.38s-1.62.2-2.24.21c-.91.12-.76,1,0,1l2.19-.09a6.63,6.63,0,0,1-2,.47c-.89.11-.71.95.16.84a13.17,13.17,0,0,0,2.62-.48A5.22,5.22,0,0,0,343.1,216.56Z"/>
            </g>
          </g>
          <g>
            <g class="celebratingStudent">
              <path d="M293,170c.46.76,1.05,1.44,1.49,2.21a6.7,6.7,0,0,1,.81,4.09.71.71,0,0,1-.1.32.73.73,0,0,1-.24.22,49.45,49.45,0,0,1-5.33,2.85l-2,.94a1.06,1.06,0,0,1-.39.13c-.39,0-.63-.41-.75-.78-.54-1.78-.16-3.68-.14-5.54a15.48,15.48,0,0,1,.08-2.36,4.9,4.9,0,0,1,2.45-3.41c.4-.21.84-.37,1.25-.58a9.33,9.33,0,0,1,1-.5,1.45,1.45,0,0,1,.94-.09c.26.14.17.37.2.65A4.3,4.3,0,0,0,293,170Z"/>
              <g>
                <path class="cls-16" d="M309.17,160.9l.19-2.74a1.08,1.08,0,0,0-.15-1.43,10.93,10.93,0,0,1-1.59-2.13,9.56,9.56,0,0,0-1.44-1.89c-.47-.61,0-1,.6-.74a2.36,2.36,0,0,1,.94.86c.27.52,1,1.22,1.41.31a5.62,5.62,0,0,0,.39-2.13l-.37-2.25c-.06-.69.51-.82.8-.19,0,0,.84,2.69.85,3.06l.18,0a21.36,21.36,0,0,0,.33-2.81c0-.71.58-.78.8,0a8.5,8.5,0,0,1-.07,3.27l.19.14s.65-2.13.81-2.39c.25-.55.75-.41.69.29a11,11,0,0,1-.7,3l.11.37a5.41,5.41,0,0,0,.63-1.31c.14-.45.5-.32.48.26a8.44,8.44,0,0,1-.67,2.15,6.61,6.61,0,0,1-1.06,3.46L312.1,161Z"/>
                <path class="cls-12" d="M296.31,174l.53,3.74s.15,3.68,1.24,1.82a2.9,2.9,0,0,1,.46-.55,16,16,0,0,1,1.94-1.5c3.15-2.17,8.31-5.07,9.64-6.81l0-.06c1.8-2.47,2.15-9.75,2.15-9.75a7.86,7.86,0,0,1-2.95-2.78c-.95,1.55-2.58,9.15-2.58,9.15-2.49,1.74-6.89,4.51-9.11,5.89C296.84,173.72,296.31,174,296.31,174Z"/>
              </g>
              <path class="cls-17" d="M297.92,176.85l.62,2.2.86,3.12,2.93-1.67a23,23,0,0,0-1.85-2.95c3.15-2.17,8.31-5.07,9.64-6.81l0-.06-10.71,5.4Z"/>
              <path class="cls-16" d="M274.53,172.81l-1.37-2.05a20.13,20.13,0,0,0,0-3.29,8.35,8.35,0,0,1,0-2.86c.42-1.06-.46-1.44-.81-.5,0,0-.33,1.65-.38,2.08s-.5.53-.65.19a7.18,7.18,0,0,1-1.24-3.58c0-.93-.56-1.07-.69-.19,0,0-.31-.08-.38.64a20.6,20.6,0,0,0,.62,4.85c.31.72,2.1,4,2.1,4l1.63,2.77Z"/>
              <path class="cls-16" d="M303.6,240a8.11,8.11,0,0,0,.19,2.41c.57,2.13,2.51,3.64,3.25,5.71a5.52,5.52,0,0,1-.13,4,1.55,1.55,0,0,1-.42.62,1.46,1.46,0,0,1-1.43,0,5.72,5.72,0,0,1-2.71-2.84,29.23,29.23,0,0,1-1.34-3.78,1.77,1.77,0,0,0-.25-.54,2.19,2.19,0,0,0-.34-.34,6.17,6.17,0,0,1-1.35-1.62,2.46,2.46,0,0,1-.24-2.53c.22-.32.55-.55.8-.85a3.93,3.93,0,0,0,.58-2.35c0-1.06.05-2.12.08-3.18,0-.08,2,0,2.2,0a6.66,6.66,0,0,0,2.12-.42c.08.36-.21.89-.3,1.26s-.25,1-.35,1.49A21.27,21.27,0,0,0,303.6,240Z"/>
              <path class="cls-16" d="M296.52,243.52a34,34,0,0,0-1.3,7,11.55,11.55,0,0,0,1.59,6.82c.36.57.8,1.09,1.17,1.66a9.18,9.18,0,0,1,1.39,3.52,1,1,0,0,1-.11.81,1,1,0,0,1-.71.27,6.37,6.37,0,0,1-4.21-1.34,8.59,8.59,0,0,1-2.68-3.58,7.18,7.18,0,0,0-1-2c-.31-.35-.71-.63-1-1a2.48,2.48,0,0,1-.26-2.26,4.2,4.2,0,0,1,1.42-1.86,1.29,1.29,0,0,0,.41-.43,1.16,1.16,0,0,0,.08-.45c.12-3.13.09-6.27-.08-9.4a13.11,13.11,0,0,1,.29-4.72,27.07,27.07,0,0,1,3.7-.34c.57,0,2.89-.28,3.1.33.13.38-.28,1.25-.38,1.63l-.48,1.85C297.14,241.13,296.83,242.32,296.52,243.52Z"/>
              <path class="cls-12" d="M272.25,174.5s4.29,7.39,6.51,8.22l6.32,2.36s.5,9-.28,11.85c-3.55,18.67-1.53,27.09-5.36,35.62.47.6,6.42,3.44,11.35,4.79,2.76.76,5.19,1,6.18.23,2.74-2.3,7.39.76,10.25-1.15s7-8.48,7-8.48-7.32-25.68-7.79-29.42c-1.32-10.58-2.63-15.1-4.13-18a23,23,0,0,0-1.85-2.95l-1-1.47a30.84,30.84,0,0,1-1.78-2.89l-6.57,1-5,4.29-4.76.3-7.89-7.53Z"/>
              <path class="cls-12" d="M298.83,241.14c.22-.32.55-.55.8-.85,0,0,.07-.11.11-.17-.14,3.28,1.44,2.72,3.67,7.36,1.12,2.34,3.64,1.6,2.88-.8a7.62,7.62,0,0,1,.75,1.48,5.52,5.52,0,0,1-.13,4,1.55,1.55,0,0,1-.42.62,1.46,1.46,0,0,1-1.43,0,5.72,5.72,0,0,1-2.71-2.84,29.23,29.23,0,0,1-1.34-3.78,1.77,1.77,0,0,0-.25-.54,2.19,2.19,0,0,0-.34-.34,6.17,6.17,0,0,1-1.35-1.62A2.46,2.46,0,0,1,298.83,241.14Z"/>
              <path class="cls-12" d="M289.38,253.33a3.08,3.08,0,0,1,1.42-1.86c.55,4.37,4.67,9.12,6.29,9.22,1.26.07,1.14-.7,1.18-1.25a9.23,9.23,0,0,1,1.1,3.05,1,1,0,0,1-.11.81,1,1,0,0,1-.71.27,6.37,6.37,0,0,1-4.21-1.34,8.59,8.59,0,0,1-2.68-3.58,7.18,7.18,0,0,0-1-2c-.31-.35-.71-.63-1-1A2.48,2.48,0,0,1,289.38,253.33Z"/>
              <path class="cls-17" d="M284.8,196.93c-3.55,18.67-1.53,27.09-5.36,35.62.47.6,6.42,3.44,11.35,4.79-6.16-7.37-.68-38.15-3-53.25l-9-1.37,6.32,2.36S285.58,194.06,284.8,196.93Z"/>
              <path class="cls-3" d="M291.84,173.73c3.26-1.51,4.93,1.9,3.51,3.39l-2.36-1-.55,2.7s-5-.58-3.48-3.74S291.84,173.73,291.84,173.73Z"/>
              <path class="cls-16" d="M288,172.5l1.19,3.35a3.67,3.67,0,0,0,4.21.09,1.67,1.67,0,0,0,.8-1.7l-.65-2.29c-.12-.25.47-1,.63-1.25a2.57,2.57,0,0,0,.32-2.43c-.19-.4-2-4.78-3-5.48-.58-.4-5.41-4.61-8.56,1.65,0,0-.88,4.19,2,6.18A31.7,31.7,0,0,0,288,172.5Z"/>
              <path d="M281.51,165.16c.3-2.28,2.17-4.71,4.27-4.77,3.25-1.63,8.45,1.49,7.58,5.42-1.56-2.91-4.1-2.74-6.41-3.41a7,7,0,0,1-.44,2.09c-1,4.37,2.57,5.41,1.52,10.81-.3,1.55-.61,3-1.9,3.93,0-1.09,0-2.64-.76-3.42a6.8,6.8,0,0,1-.66,1.08C283.74,173.77,280.69,171.52,281.51,165.16Z"/>
            </g>
            <g class="studentHat">
              <path class="cls-14" d="M278.22,145.52c.53-.14,1-.23,2.77-1.68a8.82,8.82,0,0,0,3.53-3.45,18.58,18.58,0,0,0,1.82-3.92.15.15,0,1,0-.26-.14,17.61,17.61,0,0,1-1.75,3.78,8.8,8.8,0,0,1-3.47,3.46,8.2,8.2,0,0,0-3.17.38.43.43,0,0,0-.25.34,1.29,1.29,0,0,0,.38,1.1A.43.43,0,0,0,278.22,145.52Z"/>
              <g>
                <polygon points="286.08 145.84 281.19 136.31 286.99 127.31 287.31 127.32 291.88 136.84 286.39 145.85 286.08 145.84"/>
                <polygon class="cls-12" points="286.39 145.85 281.5 136.32 287.31 127.32 292.2 136.85 286.39 145.85"/>
              </g>
              <path class="cls-18" d="M291.9,131.82l-4-.2a2.74,2.74,0,0,0-2.32,1.5,8.61,8.61,0,0,0-.39,7.78,2.74,2.74,0,0,0,2.17,1.72l4,.2Z"/>
              <path d="M293.71,141.33c-1.34,2.08-3.35,2-4.49-.23a8.59,8.59,0,0,1,.39-7.77c1.35-2.09,3.36-2,4.49.22A8.61,8.61,0,0,1,293.71,141.33Z"/>
            </g>
          </g>
          <g class="celebratingStudent">
            <g>
              <path class="cls-12" d="M199.27,228.2c-.82-2.13-1.43-12.79-1.43-12.79l2-1.22s1.94,4.85,3.19,9.08c1.57,5.42.83,5.68.83,6.87a98.94,98.94,0,0,1-3.38,13.47c-1.23-2.15-.18-.3-4.69-8.26Z"/>
              <path class="cls-16" d="M171.74,241.88l.61-1.55s1.79-2,1.78-3.1a17.53,17.53,0,0,1,.23-3c.23-.77-.37-.91-.63-.28l.24-2.78c0-.68-.49-.72-.63-.15l-.65,3.81-.32-.1.43-4.11c0-.67-.5-.73-.66-.08l-.55,4.16-.15,0,.34-3.85c0-.63-.45-.59-.61,0l-.56,3.87h-.2l.15-3c0-.61-.44-.57-.55,0l-.38,3.14a12,12,0,0,0,0,4.54l.12.73.53,1.67Z"/>
              <path class="cls-12" d="M168.72,244.78l1.1-4.5,2.53.05-.07,2.07c3.83-3.19,2-1.72,8-6.41,2.09,1.12,2.72,3.34,2.86,5.94-1.86,1.12-9.83,5.76-12,5.71C168.61,247.59,168.72,244.78,168.72,244.78Z"/>
              <polygon class="cls-17" points="175.72 239.62 172.28 244.77 172.28 242.4 175.72 239.62"/>
              <path class="cls-12" d="M186.19,298.71a2.56,2.56,0,0,1,1.19,1.64c.13.94.35,2.7-.59,3.43s-2.7.91-3.31,1.17a6.23,6.23,0,0,0-2,1.87c-.56.79-1.72,1.12-3.39,1.07s-3.31-.76-3-2.31,3.58-3.72,6.15-4.84S186.19,298.71,186.19,298.71Z"/>
              <path class="cls-12" d="M202.49,306.14l1.57,1.9s.89.52.69,2.65a7.94,7.94,0,0,0-.39,1.83c0,.66.08,2.87-1.22,4a4.06,4.06,0,0,1-4,1.21c-1.8-.37-2.38-1.16-1.91-2.72s2.9-4.55,2.9-4.55Z"/>
              <path class="cls-16" d="M185.2,295.75s2.17,3.49,1.43,4.53a19,19,0,0,1-4.61,4.18,3.28,3.28,0,0,1-3,.25s-1.29-.52-1.43-1,1.7-1.27,2.56-2c2.25-2,3.22-2.24,1.7-5.93Z"/>
              <path class="cls-16" d="M202.43,304.71l1.63,3.33s.73.65,0,3.56-1.63,3.44-1.63,3.44-3.76-.14-4.29-1a25.54,25.54,0,0,1,1.41-2.25c.85-1.24.57-4.34.57-4.34Z"/>
              <path class="cls-16" d="M178.62,289.28c1.56,1.94,3,5.48,4,8.64,1,1.87,3.42,4.15,3.78.24-1.52-5.87,2.16-9.18-1.91-13l4-11.72c.36.95,1.53,11.76,1.16,15.42S191.1,294,191.1,294a47.62,47.62,0,0,1,9,13.41,12.21,12.21,0,0,0,1,2.31c2.64.51,2.92-1.7,2.92-1.7s-1.23-4-2.11-8.32c-.19-.93-.34-1.85-.45-2.81a9.3,9.3,0,0,0-4.87-7.58c.11-.92,3.41-12.53,3.41-12.53,3.3-9.09,0-14,0-14l-.34-.7-3.4-7a12.19,12.19,0,0,0-13.18,4.7c-.27.34-.52.69-.77,1.07-5.64,8.58-5.09,23-5.09,23C177.21,286.61,177.06,287.33,178.62,289.28Z"/>
              <g>
                <path class="cls-12" d="M175.34,292.4c7.1,5.48,11.14,1.9,15.86,3.25a35.94,35.94,0,0,0,3.9.92c4,.68,7.16.12,11.42-3a87.27,87.27,0,0,0-4.45-25.11s-3.18-13.8-1.7-23.71c.06-.39.1-.79.13-1.17a13.74,13.74,0,0,0-.32-4.05,13.59,13.59,0,0,0-3.33-6.31,45.42,45.42,0,0,1-7.42.38c-6.43.06-9.17,2.36-9.17,2.36,2.85,8.16.2,25.25-1.81,31.38C178.18,268.67,174.56,281.43,175.34,292.4Z"/>
                <path class="cls-17" d="M195.1,296.57c4,.68,7.16.12,11.42-3a87.27,87.27,0,0,0-4.45-25.11s-3.18-13.8-1.7-23.71c.06-.39.1-.79.13-1.17,0,0,2.08-6.79,3.06-11.66.13-.64.24-1.25.32-1.8-.07.16-.39,1-.82,2.08-1.09,2.77-2.88,7.31-2.89,7.31-.24.8-.48,1.55-.7,2.27-1.94,6.12-3.35,9.67-2.45,14.79C200.36,275.53,198.85,291,195.1,296.57Z"/>
              </g>
              <path class="cls-3" d="M190.42,231.62c.06.07,2.29.95,2.77,1.93s-.11,5.83.37,6.54-2.36-1.94-2.36-1.94-1,3.34-2.7,3.78-3.34-3.75-3.34-3.75l-1.46,2.72v-7Z"/>
              <path d="M191.32,234.39c.14-.08,3.56-7.51-.23-10.63s-7-3.48-9.47-2-5.53,9.16.15,12.26S191.32,234.39,191.32,234.39Z"/>
              <path class="cls-16" d="M190.76,232s1.92,6.53-2.26,9.89a10.58,10.58,0,0,1-2.53-9.24C187.13,227.09,190.76,232,190.76,232Z"/>
              <path class="cls-19" d="M189.84,231.34s.46,8.49-2.68,8.75c0,0-3.76-1.57-4.4-10.09S190.68,223.83,189.84,231.34Z"/>
              <path class="cls-16" d="M190,230s0,7.48-4.2,7.73c0,0-4.52-.7-5.38-9S191.08,222.65,190,230Z"/>
              <path d="M191.85,235.86s-2.13.3-3.43-2.29c0,0-6.89-1.77-8.1-4.21,0,0-1.68-7.93,3.42-7.21s8.54,4.52,7.9,8.41S191.85,235.86,191.85,235.86Z"/>
              <path class="cls-16" d="M198.85,216.58l-1.22-1.13s-2.5-1-3-2a18.45,18.45,0,0,0-1.5-2.57c-.55-.59-.07-1,.43-.53L192.18,208c-.33-.59.12-.85.49-.41l2.26,3.14.24-.23L193,207c-.32-.58.13-.88.56-.36l2.32,3.49L196,210l-2-3.33c-.3-.55.15-.71.54-.27l2.21,3.24.18-.09-1.44-2.6c-.26-.55.15-.7.5-.22l1.72,2.65a12,12,0,0,1,2,4.1l.22.71.25,1.73Z"/>
            </g>
            <g>
              <path class="cls-12" d="M178.92,221.25l.66,3.85a2.66,2.66,0,0,0,1.92,1.9,8.42,8.42,0,0,0,7.52-1.28,2.71,2.71,0,0,0,1.19-2.44l-.66-3.84Z"/>
              <path class="cls-13" d="M187.49,216.77c2.28.85,2.61,2.79.74,4.34a8.4,8.4,0,0,1-7.51,1.28c-2.28-.84-2.61-2.78-.74-4.34A8.43,8.43,0,0,1,187.49,216.77Z"/>
              <g>
                <polygon points="193.12 218.41 185.05 225.1 175.21 221.46 175.16 221.16 183.28 214.76 193.07 218.1 193.12 218.41"/>
                <polygon class="cls-12" points="193.07 218.1 185 224.8 175.16 221.16 183.23 214.46 193.07 218.1"/>
              </g>
              <path class="cls-14" d="M190.47,223.65a.14.14,0,0,1-.18-.09l-.81-2.64a.43.43,0,0,0-.32-.29l-5.1-1.79a.13.13,0,0,1-.11-.17.14.14,0,0,1,.17-.11l5.1,1.79a.7.7,0,0,1,.53.48l.81,2.64A.14.14,0,0,1,190.47,223.65Z"/>
              <path class="cls-14" d="M189.92,221.86c-.16,2.64,0,3.06.24,3.59a.4.4,0,0,0,.32.24,1.27,1.27,0,0,0,1.1-.33.43.43,0,0,0,.13-.39C191.48,224.23,191.41,224,189.92,221.86Z"/>
            </g>
          </g>
          <g class="celebratingStudent">
            <g>
              <path class="cls-12" d="M215.94,259.86a5,5,0,0,0,3.05,2.87c2.07.7,9.17-.77,12.39-1.49l1.61-.37s5.12.09,3.76-5.45c0,0-1.94-3.31-7.23-1.84l-7.75,2.1s-2.57-7.18-2.85-8.54-2.75-.84-2.75-.84-1.75.89-1.62,2,1.18,7.22,1,9A5.52,5.52,0,0,0,215.94,259.86Z"/>
              <path class="cls-16" d="M210.12,242.45l.95-.21,1.5,1a6.51,6.51,0,0,0,2.8,3.63l.11,1s.17.66,1.76.4,1.29-1.45,1.29-1.45a2,2,0,0,1-.32-1.1,15.19,15.19,0,0,0-1.54-3.24l-1.14-.59-.91-.53-.65-.11-.85-.37-1.82.07a.68.68,0,0,0-.62.47l-.84.3C209.24,241.85,209.48,242.47,210.12,242.45Z"/>
              <path class="cls-20" d="M211.07,242.24l1.5,1a6.51,6.51,0,0,0,2.8,3.63s.47-.13-.11-1-1.91-1.62-1.56-2.32.67-.44.67-.44l-.59-.76Z"/>
              <path class="cls-17" d="M215.94,259.86a5,5,0,0,0,3.05,2.87c2.07.7,9.17-.77,12.39-1.49l-1.11-3s-10.82,5-14.32,1.58Z"/>
              <path d="M238.79,330.23l1.75,4.86a5.13,5.13,0,0,1,.47,4.21s-.42,1.24-4.48,1.54a12,12,0,0,0-4,1.07c-1.8.91-8.22.9-8.27-2.14s6.17-3.58,7.14-3.87,3.74-1.84,4.07-3.64S238.79,330.23,238.79,330.23Z"/>
              <path class="cls-15" d="M227.67,311.55a14.36,14.36,0,0,0,.68,2.19c.14.33.23.5.23.5,1.58,4.49,2.65,8.14,3.36,11,1.57,6.39,1.45,9.09,1.45,9.09a5.09,5.09,0,0,0,4.19,1.7c3,0,3.15-1.36,3.15-1.36a83.11,83.11,0,0,0-.38-10.87,34.6,34.6,0,0,0-4.18-13.74L238,301l1.32-6.7,1.16-5.88-.05-.46s-9.36-5.31-11-1.46c-.93,2.23-1.51,7.14-1.85,11.79-.26,3.41-.38,6.67-.4,8.62A20.12,20.12,0,0,0,227.67,311.55Z"/>
              <path class="cls-21" d="M227.67,311.55l.68,2.19S232,325.36,232,325.36c-.22-1-2.16-10.06-2.23-14.21C229.67,306.77,238,301,238,301l2-6.94-.71.24-11.7,4c-.26,3.41-.38,6.67-.4,8.62A20.12,20.12,0,0,0,227.67,311.55Z"/>
              <path d="M224.51,321.91l1.73,5.42s1.47,1.22.94,4.18a5.44,5.44,0,0,1-2.59,1.95,16.25,16.25,0,0,0-4,2.53s-6.06,3.72-8.67.29c-2.17-2.86,6.77-6.69,7.44-7.76s1-5.06,1-5.06Z"/>
              <path class="cls-15" d="M213.73,310.41c3,5,5.57,17.26,5.57,17.26s.7,1.63,3.79,1.2,3.35-2,3.35-2c-.08-1.23-.19-2.4-.34-3.51-1.41-11.63-5.49-17-5.49-17s14.08-5.73,20.79-9.41a9.68,9.68,0,0,0,4.81-5.24,8,8,0,0,0,.32-4.4s-5.38-3-10.25-1.36-19.42,11.89-22,15.07S210.76,305.4,213.73,310.41Z"/>
              <path class="cls-21" d="M226.1,323.37c-1.41-11.63-5.49-17-5.49-17s14.08-5.73,20.79-9.41a9.68,9.68,0,0,0,4.81-5.24l-3.8.42s-16.36,11.55-25.89,13.64C221.24,309.74,223.85,316.34,226.1,323.37Z"/>
              <path class="cls-12" d="M213.39,313.74c2.78,4.68,10.55-.71,13.56,2.18a14,14,0,0,0,10.13,4c5.13-.09,9.21-2.85,8.85-4.27-1.24-4.85-3-13,.86-20.45,3.52-6.82,1.82-13.15,6.44-20.78a9.66,9.66,0,0,0,.89-2c.13-.41.23-.82.34-1.19,1.72-6-1.33-7.48-1.33-7.48a59.25,59.25,0,0,1-8.57-5.77c-3.54-3-11.43-4.77-11.93-4.72-5.11,3.61-2.1,19.74-2.43,22.69-.6,5.12-2.18,6.44-4.59,10.54s-7.42,9.12-11.9,14.78C211,304.7,211.35,306.55,213.39,313.74Z"/>
              <path class="cls-3" d="M243.91,256.77l1.29,1.69s1.1,5.62-6,7.5l-1.45-2.56-2.6.8S233.55,253.83,243.91,256.77Z"/>
              <path class="cls-16" d="M237.15,262.17c.76,4.25,6.47-1,7.09-2.71s-.61-5.51-.61-5.51a44.76,44.76,0,0,0-5.33,4.66,5.14,5.14,0,0,0-1,1.33C237,260.76,236.87,260.63,237.15,262.17Z"/>
              <path class="cls-19" d="M237.15,262.17c.31,1.13,3.91.46,4.9-3.64l-3.75.08C237.3,260.05,237,260.86,237.15,262.17Z"/>
              <path class="cls-16" d="M242.23,257.46a3.47,3.47,0,0,1-2.3,3.2c-2.27.67-4.28,1.47-4.94-.32s-2.45-5.67-1.59-8.42,7.58-5.81,9.39-1.78A7.67,7.67,0,0,1,242.23,257.46Z"/>
              <path d="M244.4,256.81l-1,.69-1.13-1.25-1.19.13a3.79,3.79,0,0,0-1.94-1c-1.14-.16-1-1.38-2-1.61s-5.26-.66-4.68-3.26,5.67-5,9.52-4,3,6.77,3,6.77Z"/>
              <path class="cls-16" d="M242,254.49a1.1,1.1,0,0,1,1.18-.05,1.18,1.18,0,0,1,.48.89,2.46,2.46,0,0,1-.2,1,2.27,2.27,0,0,1-.6.91.94.94,0,0,1-1.59-.62A2.33,2.33,0,0,1,242,254.49Z"/>
            </g>
            <path class="cls-17" d="M237.08,319.93c5.13-.09,9.21-2.85,8.85-4.27-1.24-4.85-3-13,.86-20.45,3.52-6.82,1.82-13.15,6.44-20.78a9.66,9.66,0,0,0,.89-2l-7.4-4.15c.64,13.53-3.15,23.83-5.53,26.83C230.1,309.14,242.15,314.44,237.08,319.93Z"/>
            <path class="cls-16" d="M260.42,287.36l-.3,5,.08.72s.9.86.19,4.79l.35,1.91.26.33c.36.35,0,.91-.59.45l-.54-.63c.31.48-.18.74-.59.53l-1.16-1a.94.94,0,0,1-.7-.4l-.65-.93s-.93-.5-1-1.12,0-3.67.56-4.41a6.64,6.64,0,0,1,.69-.88l.68-4.68Z"/>
            <path class="cls-12" d="M253.13,263.72s9.52,5.86,11.77,11.89c0,0,.71,1.25-.56,5.83s-2.84,10.4-2.84,10.4a4.28,4.28,0,0,1-4.74-.37s.51-5.7.36-7a46.42,46.42,0,0,1,.86-6.58l-11-7.57C242.44,266.31,248.21,261.19,253.13,263.72Z"/>
            <g>
              <path class="cls-12" d="M233.09,245.27l.37,3.8a2.59,2.59,0,0,0,1.74,2,8.23,8.23,0,0,0,7.42-.73,2.61,2.61,0,0,0,1.32-2.29l-.37-3.8Z"/>
              <path class="cls-13" d="M241.75,241.51c2.16,1,2.35,2.89.42,4.28a8.24,8.24,0,0,1-7.41.72c-2.17-1-2.35-2.89-.42-4.28A8.21,8.21,0,0,1,241.75,241.51Z"/>
              <g>
                <polygon points="247.12 243.49 238.79 249.46 229.45 245.22 229.42 244.92 237.79 239.26 247.09 243.19 247.12 243.49"/>
                <polygon class="cls-12" points="247.09 243.19 238.76 249.16 229.42 244.92 237.76 238.96 247.09 243.19"/>
              </g>
              <path class="cls-14" d="M244.17,248.42a.14.14,0,0,1-.17-.11l-.61-2.62a.4.4,0,0,0-.28-.31l-4.85-2.09a.15.15,0,1,1,.08-.28l4.84,2.1a.7.7,0,0,1,.49.51l.61,2.63A.14.14,0,0,1,244.17,248.42Z"/>
              <path class="cls-14" d="M243.77,246.64c-.35,2.56-.2,3,0,3.51a.37.37,0,0,0,.29.26,1.25,1.25,0,0,0,1.09-.25.42.42,0,0,0,.16-.37C245.11,249.05,245.07,248.81,243.77,246.64Z"/>
            </g>
          </g>
          <g class="celebratingStudent">
            <g>
              <path d="M144.7,328.09l-1.16,4.07s-2.18,4,0,5.29,8.43-.83,8.43-.83,7.65-1.94,5.76-5.91c0,0-1.23-1.94-4.51-1s-4.6-1.26-4.6-1.26Z"/>
              <path class="cls-15" d="M156,310.26c-2,4.43-4.7,15-5.72,19a.34.34,0,0,0,0,.09c-.05.16-.08.29-.11.41-.14.53-.23.88-.27,1-1.57,4.72-6.4,1.46-6.4,1.46-1.06-12,5.53-24.42,5.53-24.42l-1.76-6.05-1.53-5.29v8.28c0,4.49-2.5,15.71-4.08,22.35-.43,1.82-.8,3.29-1,4.18l-.23.95-4.88-.78q-.1-.5-.18-1.05c-1.21-8.86,3.21-28.51,3.21-28.51l-2.32-9.11a20.63,20.63,0,0,1,1.84-15.5l16.76,11.23,1.17.78S158.46,304.93,156,310.26Z"/>
              <path d="M136.22,341a1.33,1.33,0,0,1-1.65-1.4c0-1.75-.82-9.6,2-10.23s4.07,1.07,4.41,3.15.87,7,.87,7a1.08,1.08,0,0,1-1.16,1.07C139.56,340.55,136.22,341,136.22,341Z"/>
              <path class="cls-16" d="M148.62,253.77l2.13-4.75s-1.26-3.83.88-6.1,6.68-2.91,6.68-2.91,2.33,3.15,2.18,5.23-1,7.08-2.23,7.47-1.49.49-1.84,1.55a16.69,16.69,0,0,0-.14,4Z"/>
              <path class="cls-16" d="M171.71,276.52l2.74-.95a5.53,5.53,0,0,0,1.6-1.06,2,2,0,0,1,1.74-1.09,5.1,5.1,0,0,0,2.08-.32c.39-.21,1.24.08.59.78l2.54-.24,1,.21.31.27c.27.32.12.63-.35.66h-.74l-1.5.24.12.29,1.31-.12.65.15.51.4c.32.43.15.85-.28.69l-.56-.27H182l-.14.36h1.29l.72.36.24.42c.18.38,0,.74-.41.49l-.56-.4-1.31-.05-.48.49.06.09.87.28.42.55c.29.48-.07.9-.5.56l-.44-.37s-3.17.46-4.19,0-4.29.22-4.41.17S171.71,276.52,171.71,276.52Z"/>
              <path class="cls-16" d="M126.47,236.33l1.12-3.16a48.54,48.54,0,0,1,.29-5.42,7,7,0,0,1,.63-1.56c.26-.52.58-.65.86-.33l.8-1.05c.35-.29.83-.36,1-.05l.59-.65c.52-.62,1-.62.89,0l-1,3.2,1.66-3.22c.46-.83,1-.69.83.06a40.54,40.54,0,0,0-1.4,4.5,7.62,7.62,0,0,0,0,1.49,3.14,3.14,0,0,0,1.09-1.2c.36-.76,1.38-1.49,1.67-1.09s-.8,1.35-.87,1.86-.44,2.21-1.24,2.65-2.6,1.41-2.84,2.94a28.12,28.12,0,0,1-.61,2.8Z"/>
              <path class="cls-12" d="M145.08,253.63c-.19,0-3.48-3.42-3.48-3.42s-8.82-2.64-12.6-2.59c0,0,2.13-11.58,2-12.16,0,0-2.62-1.22-4.56-.59,0,0-5.81,12.6-4.6,17.59,0,0,3.56,4.49,15.15,6.28l0,6.07c0,6.06,8.06-10.17,8.06-10.17Z"/>
              <path class="cls-12" d="M127.13,309.06s8.52,6.58,16,8.33a18,18,0,0,0,4.8.33c4.07-.19,8.88-1.4,11.6-3.93,1-6.37,1.76-10.16-2.3-26.88,0,0-1.82-8.18-.71-14.65,0-.09,0-.18.05-.26a15.11,15.11,0,0,1,.66-2.53c2.41-6.59,4.06-7.21,4.06-7.21s-5.23-5.13-9.88-7.49-7.85-4.33-9.8-4.56-4.2,7.36-4.65,15.83C136,283.48,132.46,290.4,127.13,309.06Z"/>
              <path class="cls-3" d="M147.23,252.6a4.88,4.88,0,0,1,2.51-1.19c-.79,1.29,5.24,4,6.51,3.93,0,0,.09.8.57,3C150.71,255.35,148.32,253.55,147.23,252.6Z"/>
              <path d="M149.66,250.91a3.17,3.17,0,0,0,2.45,2.18c2,.41,4,1.63,5.65-2.88l1.23-1.28,1.07-4s2.76-3.61-.25-6-7.07-1.24-9.86,1.86-1.26,7-.8,8.32A8.54,8.54,0,0,1,149.66,250.91Z"/>
              <path class="cls-16" d="M158.75,248.2c0-.23,0-.51-.18-.65a.47.47,0,0,0-.5,0,1.07,1.07,0,0,0-.36.4,3.32,3.32,0,0,0-.37,2.45.9.9,0,0,0,.53.72.71.71,0,0,0,.8-.47,1.78,1.78,0,0,0,0-1.07A6.39,6.39,0,0,1,158.75,248.2Z"/>
              <path class="cls-17" d="M146.24,317.39a15,15,0,0,1,1.67.33c4.07-.19,8.88-1.4,11.6-3.93,1-6.37,1.76-10.16-2.3-26.88,0,0-1.82-8.18-.71-14.65,0-.09,0-.18.05-.26L155,268.3C150.39,275.41,158.13,306.24,146.24,317.39Z"/>
              <path class="cls-12" d="M155,268.3s.1,12,4.17,14.54,16-3.29,16-3.29.67-2.81-.68-4l-11.53,1s.51-12.36-1.65-14.33S155,268.3,155,268.3Z"/>
            </g>
            <g>
              <path class="cls-12" d="M149.61,237.46l-.05,4.09a2.8,2.8,0,0,0,1.63,2.32,8.8,8.8,0,0,0,8,.1,2.81,2.81,0,0,0,1.69-2.29l0-4.09Z"/>
              <path class="cls-13" d="M159.29,234.46c2.19,1.3,2.16,3.36-.06,4.61a8.82,8.82,0,0,1-8-.1c-2.19-1.3-2.16-3.36.06-4.61A8.82,8.82,0,0,1,159.29,234.46Z"/>
              <g>
                <polygon points="164.78 237.2 155.2 242.59 145.74 236.98 145.75 236.65 155.33 231.59 164.78 236.88 164.78 237.2"/>
                <polygon class="cls-12" points="164.78 236.88 155.2 242.26 145.75 236.65 155.33 231.27 164.78 236.88"/>
              </g>
              <path class="cls-14" d="M161.06,242.11a.16.16,0,0,1-.17-.13l-.34-2.87a.44.44,0,0,0-.27-.36l-4.92-2.81a.14.14,0,0,1-.08-.19.15.15,0,0,1,.19-.09l4.92,2.81a.74.74,0,0,1,.46.6l.34,2.87A.15.15,0,0,1,161.06,242.11Z"/>
              <path class="cls-14" d="M160.83,240.16c-.67,2.69-.55,3.15-.43,3.74a.43.43,0,0,0,.29.32,1.32,1.32,0,0,0,1.19-.14.42.42,0,0,0,.2-.38C162,242.89,162,242.64,160.83,240.16Z"/>
            </g>
          </g>
        </g>
      </g>
    </g>
  </g>
</svg>
