<svg xmlns="http://www.w3.org/2000/svg" height="100%" width="100%" xmlns:xlink="http://www.w3.org/1999/xlink" viewBox="0 0 300.43 365.94">
  <defs>
    <style>
      .cls-1 {
        fill: none;
      }

      .cls-2 {
        fill: #476d0a;
      }

      .cls-3 {
        fill: #80ba24;
      }

      .cls-4 {
        fill: #271306;
      }

      .cls-5 {
        fill: #5b8420;
      }

      .cls-6 {
        fill: #77a02e;
      }

      .cls-7 {
        fill: #314706;
      }

      .cls-8 {
        isolation: isolate;
      }

      .cls-9 {
        fill: #b1b2b4;
      }

      .cls-10 {
        fill: #c6c7c9;
      }

      .cls-11 {
        fill: #7b7c7d;
      }

      .cls-12 {
        fill: #39510b;
      }

      .cls-13 {
        fill: #4c6b15;
      }

      .cls-14 {
        fill: #6d3203;
      }

      .cls-15 {
        clip-path: url(#clip-path);
      }

      .cls-16 {
        fill: #d0d4d7;
      }

      .cls-17 {
        clip-path: url(#clip-path-2);
      }

      .cls-18 {
        fill: #686a6c;
      }

      .cls-19 {
        fill: #b3b6b9;
      }

      .cls-20 {
        fill: #a1a4a6;
      }

      .cls-21 {
        fill: #d3d0c1;
      }

      .cls-22 {
        clip-path: url(#clip-path-3);
      }

      .cls-23 {
        fill: #680702;
      }

      .cls-24 {
        fill: #8e1111;
      }

      .cls-25 {
        fill: #4c0503;
      }

      .cls-26 {
        fill: #052d38;
      }

      .cls-27 {
        fill: #135e7f;
      }

      .cls-28 {
        fill: #3291b2;
      }

      .cls-29 {
        fill: #0b465b;
      }

      .cls-30 {
        fill: #0d5068;
      }

      .cls-31 {
        clip-path: url(#clip-path-4);
      }

      .cls-32 {
        fill: #20490d;
      }

      .cls-33 {
        clip-path: url(#clip-path-5);
      }

      .cls-34 {
        clip-path: url(#clip-path-6);
      }

      .cls-35 {
        fill: #e2d59f;
      }

      .cls-36 {
        clip-path: url(#clip-path-7);
      }

      .cls-37 {
        fill: #4f5447;
      }

      .cls-38 {
        fill: #848981;
      }

      .cls-39 {
        fill: #6b7267;
      }

      .cls-40 {
        fill: #ddb717;
      }

      .cls-41 {
        fill: #e2decc;
      }

      .cls-42 {
        fill: #21ce84;
      }

      .cls-43 {
        fill: #05683b;
      }

      .cls-44 {
        fill: #e1e3e5;
      }

      .cls-45 {
        fill: #06874f;
      }

      .cls-46 {
        fill: #826a06;
      }

      .cls-47 {
        clip-path: url(#clip-path-8);
      }

      .cls-48 {
        clip-path: url(#clip-path-9);
      }

      .cls-49 {
        clip-path: url(#clip-path-10);
      }

      .cls-50 {
        fill: #b5940d;
      }

      .cls-51 {
        fill: #d6b93c;
      }

      .cls-52 {
        fill: #5c3114;
      }

      .cls-53 {
        fill: #391f0c;
      }

      .cls-54 {
        fill: #451e03;
      }

      .cls-55 {
        fill: #fc6363;
      }

      .cls-56 {
        fill: #e53535;
      }

      .cls-57 {
        clip-path: url(#clip-path-11);
      }

      .cls-58 {
        fill: #661a02;
      }

      .cls-59 {
        clip-path: url(#clip-path-12);
      }

      .cls-60 {
        clip-path: url(#clip-path-13);
      }

      .cls-61 {
        clip-path: url(#clip-path-14);
      }

      .cls-62 {
        clip-path: url(#clip-path-15);
      }

      .cls-63 {
        fill: #b53502;
      }

      .cls-64 {
        clip-path: url(#clip-path-16);
      }

      .cls-65 {
        fill: #3598db;
      }

      .cls-66 {
        fill: #c94c14;
      }

      .cls-67 {
        fill: #892502;
      }

      .cls-68 {
        fill: #f9db5d;
      }

      .cls-69 {
        fill: #f7d363;
      }

      .cls-70 {
        clip-path: url(#clip-path-18);
      }

      .cls-71 {
        clip-path: url(#clip-path-19);
      }

      .cls-72 {
        clip-path: url(#clip-path-20);
      }

      .cls-73 {
        fill: #c1ba9f;
      }

      .cls-74 {
        clip-path: url(#clip-path-21);
      }

      .cls-75 {
        fill: #446d2e;
      }

      .cls-76 {
        fill: #54843a;
      }

      .cls-77 {
        fill: #a5571c;
      }

      .cls-78 {
        fill: #f4cb1c;
      }

      .cls-79 {
        clip-path: url(#clip-path-22);
      }

      .cls-80 {
        clip-path: url(#clip-path-23);
      }

      .cls-81 {
        clip-path: url(#clip-path-24);
      }

      .cls-82 {
        fill: #ba6108;
      }

      .cls-83 {
        fill: #d86c0b;
      }

      .cls-84 {
        fill: #964b06;
      }

      .cls-85 {
        fill: #c9ba89;
      }

      .cls-86 {
        fill: #f2e7b6;
      }

      .cls-87 {
        fill: #54b7d1;
      }

      .cls-88 {
        fill: #3287a5;
      }

      .cls-89 {
        fill: #1e1b1c;
      }

      .cls-90 {
        clip-path: url(#clip-path-25);
      }

      .cls-91 {
        clip-path: url(#clip-path-26);
      }

      .cls-92 {
        fill: #232d35;
      }

      .cls-93 {
        clip-path: url(#clip-path-27);
      }

      .cls-94 {
        fill: #231f20;
      }

      .cls-95 {
        clip-path: url(#clip-path-28);
      }

      .cls-96 {
        fill: #1b1819;
      }

      .cls-97 {
        fill: #131111;
      }

      .cls-98 {
        clip-path: url(#clip-path-29);
      }

      .cls-99 {
        fill: #37424c;
      }

      .cls-100 {
        fill: #ad1515;
      }

      .cls-101 {
        fill: #725417;
      }

      .cls-102 {
        fill: #b88725;
      }

      .cls-103 {
        fill: #e2a944;
      }
    </style>
    <clipPath id="clip-path">
      <path class="cls-1" d="M163.35,241.58,99.58,207.52h0l63.77,34.06Z"/>
    </clipPath>
    <clipPath id="clip-path-2">
      <path class="cls-1" d="M105.4,197.16a2.17,2.17,0,0,1,2.19-.21l58.16,30.54a2.17,2.17,0,0,0-2.18.21C147,218.08,122,206.79,105.4,197.16Z"/>
    </clipPath>
    <clipPath id="clip-path-3">
      <path class="cls-1" d="M105.23,197.26l58.16,30.55h0l-58.16-30.54h0c18.34,10.66,39.63,19.78,58,30.44C144.86,217,123.57,207.92,105.23,197.26Z"/>
    </clipPath>
    <clipPath id="clip-path-4">
      <path class="cls-1" d="M122.78,158.26l64.78,45.47a.57.57,0,0,0-.57.06l-64.78-45.48A.55.55,0,0,1,122.78,158.26Z"/>
    </clipPath>
    <clipPath id="clip-path-5">
      <path class="cls-1" d="M177.25,209.41l-64.78-45.47h0l64.78,45.47Z"/>
    </clipPath>
    <clipPath id="clip-path-6">
      <path class="cls-1" d="M112.72,155.48a2.57,2.57,0,0,1,2.57-.25l64.78,37.65a2.55,2.55,0,0,0-2.57.25Z"/>
    </clipPath>
    <clipPath id="clip-path-7">
      <path class="cls-1" d="M112.52,155.6l64.78,37.65h0l-64.78-37.65h0l64.56,37.52Z"/>
    </clipPath>
    <clipPath id="clip-path-8">
      <path class="cls-1" d="M158.08,174.44l-55.9-29.85h0l55.9,29.86Z"/>
    </clipPath>
    <clipPath id="clip-path-9">
      <path class="cls-1" d="M107.29,135.51a1.9,1.9,0,0,1,1.91-.19l51,26.77a1.92,1.92,0,0,0-1.92.19C143.75,153.84,121.8,143.94,107.29,135.51Z"/>
    </clipPath>
    <clipPath id="clip-path-10">
      <path class="cls-1" d="M107.13,135.6l51,26.77h0l-51-26.78h0c16.08,9.34,34.75,17.33,50.83,26.68C141.88,152.93,123.21,144.94,107.13,135.6Z"/>
    </clipPath>
    <clipPath id="clip-path-11">
      <path class="cls-1" d="M104,100.69l56.15,32.63a.49.49,0,0,0-.49.05l-56.16-32.63A.47.47,0,0,1,104,100.69Z"/>
    </clipPath>
    <clipPath id="clip-path-12">
      <path class="cls-1" d="M151.24,138.24,95.09,105.61h0l56.15,32.62A0,0,0,0,0,151.24,138.24Z"/>
    </clipPath>
    <clipPath id="clip-path-13">
      <path class="cls-1" d="M95.31,98.28a2.17,2.17,0,0,1,2.22-.21l56.16,32.63a2.22,2.22,0,0,0-2.23.21Z"/>
    </clipPath>
    <clipPath id="clip-path-14">
      <path class="cls-1" d="M154.26,127.69,98.11,95.06a1.92,1.92,0,0,1,.35-.23l56.15,32.63A3.5,3.5,0,0,0,154.26,127.69Z"/>
    </clipPath>
    <clipPath id="clip-path-15">
      <path class="cls-1" d="M95.13,98.39,151.28,131h0L95.12,98.39h0l56,32.52Z"/>
    </clipPath>
    <clipPath id="clip-path-16">
      <path class="cls-1" d="M121.55,155.39,65.4,122.76a3.13,3.13,0,0,1-1.3-2.87,9.9,9.9,0,0,1,4.48-7.78l56.16,32.64a9.89,9.89,0,0,0-4.49,7.77A3.11,3.11,0,0,0,121.55,155.39Z"/>
    </clipPath>
    <clipPath id="clip-path-18">
      <path class="cls-1" d="M117.33,82.47,174,122.23a.48.48,0,0,0-.5,0L116.83,82.52A.51.51,0,0,1,117.33,82.47Z"/>
    </clipPath>
    <clipPath id="clip-path-19">
      <path class="cls-1" d="M165,127.19,108.32,87.44h0l56.63,39.75Z"/>
    </clipPath>
    <clipPath id="clip-path-20">
      <path class="cls-1" d="M108.54,80a2.21,2.21,0,0,1,2.24-.21l56.64,32.91a2.23,2.23,0,0,0-2.25.22Z"/>
    </clipPath>
    <clipPath id="clip-path-21">
      <path class="cls-1" d="M108.36,80.15,165,113.06h0L108.35,80.16h0L164.8,113Z"/>
    </clipPath>
    <clipPath id="clip-path-22">
      <path class="cls-1" d="M160.49,85.43,105.11,55.85h0l55.38,29.57Z"/>
    </clipPath>
    <clipPath id="clip-path-23">
      <path class="cls-1" d="M110.17,46.85a1.91,1.91,0,0,1,1.9-.18l50.51,26.52a1.89,1.89,0,0,0-1.9.19C146.3,65,124.55,55.21,110.17,46.85Z"/>
    </clipPath>
    <clipPath id="clip-path-24">
      <path class="cls-1" d="M110,46.94l50.5,26.53h0L110,47h0c15.92,9.26,34.42,17.18,50.35,26.43C144.44,64.12,125.94,56.2,110,46.94Z"/>
    </clipPath>
    <clipPath id="clip-path-25">
      <path class="cls-1" d="M109.11,53.78c0-3.76,2.43-7.52,7.28-10.43L116.45,21c-4.85,2.92-7.26,6.67-7.27,10.43C109.16,38.15,109.14,47.08,109.11,53.78Z"/>
    </clipPath>
    <clipPath id="clip-path-26">
      <path class="cls-1" d="M161.41,31.61c0-4-2.68-8-8-11C143,14.85,126.43,15,116.45,21l-.06,22.33c10-6,26.52-6.18,36.92-.38,5.36,3,8.05,7,8,11Z"/>
    </clipPath>
    <clipPath id="clip-path-27">
      <path class="cls-1" d="M84.76,29.2V30a1.25,1.25,0,0,0,.73,1v-.82A1.26,1.26,0,0,1,84.76,29.2Z"/>
    </clipPath>
    <clipPath id="clip-path-28">
      <path class="cls-1" d="M185.58,30v-.83a1.26,1.26,0,0,1-.74,1v.83A1.27,1.27,0,0,0,185.58,30Z"/>
    </clipPath>
    <clipPath id="clip-path-29">
      <path class="cls-1" d="M133.24,58v.83a3.92,3.92,0,0,0,3.53,0V58A3.86,3.86,0,0,1,133.24,58Z"/>
    </clipPath>
  </defs>
  <g id="Ebene_2" data-name="Ebene 2">
    <g id="stage5Graduate">
        <g id="stage5GraduationFloor">
          <path class="cls-2" d="M295,286.53,177.15,354.87c-7.28,4.23-19.1,4.23-26.41,0L5.58,271.06c-3.69-2.12-5.53-4.91-5.52-7.7,0,7.25,0,.65-.06,7.9,0,2.79,1.84,5.58,5.51,7.71l145.17,83.81c7.31,4.22,19.13,4.22,26.41,0l117.84-68.33c3.62-2.11,5.43-4.86,5.44-7.61,0-7.25,0-.65.06-7.9C300.42,281.68,298.61,284.44,295,286.53Z"/>
          <path class="cls-3" d="M294.92,271.24c7.32,4.22,7.35,11.06.07,15.29L177.15,354.87c-7.28,4.23-19.1,4.23-26.41,0L5.58,271.06c-7.32-4.21-7.37-11.07-.09-15.3l117.84-68.34c7.28-4.22,19.12-4.22,26.43,0Z"/>
        </g>
        <g id="book12" class="graduationItems">
          <polygon class="cls-4" points="123 205.47 123 217.67 181.33 251.39 182.46 244.88 181.33 239.19 123 205.47"/>
          <path class="cls-5" d="M123,205.39l58.31,33.92,1.8-.5a2.13,2.13,0,0,1,.74.05L125.93,205.1a2.47,2.47,0,0,0-2.34-.07Z"/>
          <path class="cls-6" d="M78.11,242.54l55.42,32.19a2.78,2.78,0,0,0,1.37.33,2.86,2.86,0,0,0,1.39-.33h0v2.66a3.05,3.05,0,0,1-2.76,0l-55.41-32.2a1,1,0,0,1-.57-.8v-2.65A1,1,0,0,0,78.11,242.54Z"/>
          <path class="cls-7" d="M78.12,240.93a.85.85,0,0,0,0,1.61l55.42,32.19a3,3,0,0,0,2.76,0l44.89-25.91L123,215Z"/>
          <g class="cls-8">
            <polygon class="cls-9" points="135.14 264.75 135.14 274.03 179.66 247.98 179.66 238.7 135.14 264.75"/>
            <polygon class="cls-10" points="80.54 234.1 80.54 242.44 135.14 274.03 135.14 264.75 80.54 234.1"/>
            <polygon class="cls-11" points="135.59 264.31 178.37 239.09 134.35 213.93 90.28 239.23 135.59 264.31"/>
          </g>
          <path class="cls-12" d="M183.85,238.85c-1.13-.69-2.73.36-2.76.38l-44.81,25.88v2.65l43.22-25.09c.28-.16,2.43-1.35,2.43,1v3.21a3.54,3.54,0,0,1-1.52,2.48l-44.13,25.42v2.66L181,251.56a7,7,0,0,0,3.91-6.42v-3.86A2.66,2.66,0,0,0,183.85,238.85Z"/>
          <path class="cls-6" d="M78.11,232.9l55.42,32.21h0v0a3.05,3.05,0,0,0,2.76,0v2.66a2.82,2.82,0,0,1-1.38.33,2.74,2.74,0,0,1-1.36-.33h0l-55.41-32.2a1,1,0,0,1-.57-.8v-2.65A1,1,0,0,0,78.11,232.9Z"/>
          <path class="cls-13" d="M78.12,231.3c-.77.45-.77,1.17,0,1.6l55.41,32.21a3.05,3.05,0,0,0,2.76,0L181.46,239,123,205.39Z"/>
        </g>
        <g id="book11" class="graduationItems">
          <g class="cls-8">
            <path class="cls-14" d="M114,199.53a.47.47,0,0,0-.49,0l-1.6.93L170,237.71l1.61-.92a.49.49,0,0,1,.49,0Z"/>
            <g class="cls-8">
              <g class="cls-15">
                <g class="cls-8">
                  <path class="cls-16" d="M163.35,241.58,99.58,207.52h0l63.77,34.06Z"/>
                </g>
              </g>
            </g>
            <g class="cls-8">
              <g class="cls-17">
                <g class="cls-8">
                  <path class="cls-16" d="M163.57,227.7,105.4,197.16a2.17,2.17,0,0,1,2.19-.21l58.16,30.54a2.17,2.17,0,0,0-2.18.21Z"/>
                </g>
              </g>
            </g>
            <path class="cls-18" d="M163.59,241.45h0l-.23.12h0Z"/>
            <polygon class="cls-18" points="163.57 241.46 163.35 241.58 163.34 241.58 163.57 241.46"/>
            <polygon class="cls-19" points="163.56 227.7 105.4 197.16 114.84 191.88 170.05 223.96 163.56 227.7"/>
            <path class="cls-20" d="M169.11,222.92l-2.5,1.44-.29.17a3.26,3.26,0,0,1,.34-.22l2.1-1.22A3.7,3.7,0,0,1,169.11,222.92Z"/>
            <path class="cls-21" d="M168.82,234.89c-.19-1.86-.07-9,1.23-10.93l-6.48,3.74c-.07,0-35.46,20.36-35.52,20.38-6,1.45-2.91,10-2.9,11.88s1.26,2.65,2.85,1.88c.08,0,35.5-20.35,35.59-20.39l6.45-3.74C169.29,237.23,169,236.24,168.82,234.89Z"/>
            <g class="cls-8">
              <g class="cls-22">
                <g class="cls-8">
                  <polygon class="cls-16" points="163.38 227.81 105.22 197.27 105.23 197.26 163.39 227.81 163.38 227.81 163.38 227.81"/>
                </g>
              </g>
            </g>
            <path class="cls-18" d="M163.38,227.81h0l.18-.11Z"/>
            <polygon class="cls-19" points="163.39 227.81 105.23 197.26 105.4 197.16 163.56 227.7 163.39 227.81"/>
            <path class="cls-23" d="M118.53,190.26a4.53,4.53,0,0,0-4,.25L78.42,211.07l-4.66,2.7L129,245.85l4.66-2.7,33.14-18.79-.08,0,2.42-1.4,2.51-1.45a.5.5,0,0,1,.49-.05Z"/>
            <g class="cls-8">
              <path class="cls-24" d="M125.6,263.14,72.07,232a5.77,5.77,0,0,1-3-5.33c0-4.85,0-3.85,0-6.54,0-4.41,3.24-5.53,4.65-6.33l55.63,31.74c-1.09.63-4.26,2.49-5.06,5.74s0,7.5,0,9.06a3.08,3.08,0,0,0,1.28,2.83Z"/>
            </g>
            <path class="cls-25" d="M171.62,221.47c.38-.22.69,0,.69.39a1.55,1.55,0,0,1-.68,1.19l-1.58.91-41.21,23.72-.18.11a5.42,5.42,0,0,0-3.23,5.05c0,2.81.06,5.6.06,6.92,0,1.85,1.29,2.81,3.86,1.28L170,237.71l1.61-.92a.42.42,0,0,1,.69.39,1.53,1.53,0,0,1-.69,1.19l-5.79,3.34-32.2,18.35L129,262.75a2,2,0,0,1-.45.19c-2.35,1.22-4.37.21-4.52-2.51-.12-2.27-.12-5.45-.12-8.08,0-4.2,4.39-6.15,5.8-7l-1.41.86Z"/>
          </g>
        </g>
        <g id="book10" class="graduationItems">
          <polygon class="cls-26" points="132.93 178.22 132.93 189.86 188.77 221.14 189.64 215.81 188.56 210.38 132.93 178.22"/>
          <path class="cls-27" d="M132.93,178.14l55.61,32.35,1.72-.48a2.23,2.23,0,0,1,.71.05l-55.24-32.2a2.41,2.41,0,0,0-2.24-.06Z"/>
          <path class="cls-28" d="M90.13,213.57,143,244.28a3,3,0,0,0,2.64,0h0l.21,1.66a2.9,2.9,0,0,1-2.63,0L90.34,215.23a.92.92,0,0,1-.54-.76l-.21-1.66A.93.93,0,0,0,90.13,213.57Z"/>
          <path class="cls-26" d="M90.14,212a.81.81,0,0,0,0,1.53L143,244.28a2.92,2.92,0,0,0,2.64,0l42.81-24.72L133,187.32Z"/>
          <g class="cls-8">
            <polygon class="cls-9" points="144.51 234.75 144.51 243.61 186.97 218.76 186.97 209.91 144.51 234.75"/>
            <polygon class="cls-10" points="92.44 205.53 92.44 213.48 144.51 243.61 144.51 234.75 92.44 205.53"/>
            <polygon class="cls-11" points="144.94 234.33 185.74 210.28 143.76 186.29 101.73 210.41 144.94 234.33"/>
          </g>
          <path class="cls-29" d="M191,210.06c-1.07-.67-2.6.33-2.63.36L145.6,235.1v1.66l41.22-23.93c.26-.16,2.31-1.29,2.31.91v3.93A3.36,3.36,0,0,1,187.7,220l-42.09,24.25.2,1.66,42.63-24.63c1.32-.66,3.52-1.57,3.52-5.26v-3.68A2.51,2.51,0,0,0,191,210.06Z"/>
          <path class="cls-28" d="M90.13,204.39,143,235.1h0v0a2.92,2.92,0,0,0,2.64,0v1.66a2.67,2.67,0,0,1-1.31.32,2.76,2.76,0,0,1-1.31-.31h0L90.14,206.05a1,1,0,0,1-.55-.76v-1.66A.93.93,0,0,0,90.13,204.39Z"/>
          <path class="cls-30" d="M90.13,202.86a.81.81,0,0,0,0,1.53L143,235.1a2.9,2.9,0,0,0,2.63,0l43.09-24.89-55.75-32.07Z"/>
        </g>
        <g id="book9" class="graduationItems">
          <g class="cls-8">
            <g class="cls-8">
              <g class="cls-31">
                <g class="cls-8">
                  <path class="cls-32" d="M187,203.79l-64.78-45.48a.55.55,0,0,1,.57-.05l64.78,45.47a.57.57,0,0,0-.57.06Z"/>
                </g>
              </g>
            </g>
            <polygon class="cls-32" points="185.11 204.87 120.33 159.4 122.21 158.31 186.99 203.79 185.11 204.87"/>
            <g class="cls-8">
              <g class="cls-33">
                <g class="cls-8">
                  <path class="cls-16" d="M177.25,209.41l-64.78-45.47h0l64.78,45.47Z"/>
                </g>
              </g>
            </g>
            <g class="cls-8">
              <g class="cls-34">
                <g class="cls-8">
                  <path class="cls-16" d="M177.5,193.13l-64.78-37.65a2.57,2.57,0,0,1,2.57-.25l64.78,37.65a2.55,2.55,0,0,0-2.57.25Z"/>
                </g>
              </g>
            </g>
            <path class="cls-18" d="M177.53,209.25h0l-.27.15h0Z"/>
            <path class="cls-18" d="M177.51,209.26l-.26.15h0Z"/>
            <polygon class="cls-19" points="177.5 193.13 112.72 155.48 120.33 151.09 185.11 188.74 177.5 193.13"/>
            <path class="cls-20" d="M184,187.51l-2.93,1.7-.35.19.41-.26,2.46-1.42A3.19,3.19,0,0,1,184,187.51Z"/>
            <path class="cls-35" d="M183.68,201.56c-.23-2.18-.09-10.59,1.43-12.82l-7.61,4.39c-.07,0-31.55,18.38-31.63,18.4-7,1.7-3.4,11.73-3.4,13.94s1.49,3.11,3.35,2.2c.09,0,31.61-18.36,31.71-18.42l7.58-4.38C184.22,204.31,183.84,203.15,183.68,201.56Z"/>
            <g class="cls-8">
              <g class="cls-36">
                <g class="cls-8">
                  <path class="cls-16" d="M177.29,193.26l-64.78-37.65h0l64.78,37.65Z"/>
                </g>
              </g>
            </g>
            <path class="cls-18" d="M177.29,193.26h0l.2-.12Z"/>
            <polygon class="cls-19" points="177.3 193.25 112.52 155.6 112.72 155.48 177.5 193.13 177.3 193.25"/>
            <path class="cls-37" d="M124.66,149.19a5.3,5.3,0,0,0-4.68.29L87.65,168.1l-5.48,3.16L147,208.91l5.47-3.16,28.84-16.54-.09-.06,2.84-1.64,3-1.7a.55.55,0,0,1,.57-.05Z"/>
            <g class="cls-8">
              <path class="cls-38" d="M143,229.19,80.19,192.63a6.77,6.77,0,0,1-3.47-6.25c0-5.7,0-4.53,0-7.68,0-5.18,3.81-6.49,5.45-7.44l64.7,37.47c-1.27.74-4.42,2.71-5.36,6.51s0,8.81,0,10.64a3.57,3.57,0,0,0,1.5,3.31Z"/>
            </g>
            <path class="cls-39" d="M187,185.81c.44-.25.81,0,.81.46a1.82,1.82,0,0,1-.81,1.4l-1.85,1.07L146.8,211.06l-.2.12a6.39,6.39,0,0,0-3.79,5.93c0,3.3.06,6.58.07,8.11,0,2.18,1.51,3.31,4.52,1.51l37.71-21.86,1.88-1.08c.44-.26.81,0,.81.46a1.8,1.8,0,0,1-.81,1.39l-6.79,3.92-27.74,16L147,228.74a2.31,2.31,0,0,1-.53.22c-2.76,1.44-5.13.25-5.31-2.94-.14-2.66-.14-6.39-.14-9.48,0-4.93,5.15-7.21,6.8-8.17l-1.65,1Z"/>
          </g>
          <path class="cls-40" d="M133.17,219.16c0-5.7,0-4.53,0-7.69,0-5.16,3.81-6.48,5.46-7.43l-4.22-2.49c-1.65.95-5.45,2.26-5.45,7.43,0,3.17,0,2,0,7.69a6.74,6.74,0,0,0,3.47,6.24l3.8,2.22A6.84,6.84,0,0,1,133.17,219.16Z"/>
          <path class="cls-40" d="M92.25,199A6.83,6.83,0,0,1,89,192.89c0-5.7,0-4.52,0-7.68,0-4.7,3.12-6.2,4.93-7.16l-1.77-1c-1.65,1-5.45,2.26-5.45,7.43,0,3.16,0,2,0,7.68a6.75,6.75,0,0,0,3.47,6.25l3.8,2.22A6.85,6.85,0,0,1,92.25,199Z"/>
        </g>
        <g id="book8" class="graduationItems">
          <polygon class="cls-41" points="122.39 137.61 122.39 149.03 176.99 186.85 179.35 183.92 179.35 172.51 176.99 169.17 122.39 137.61"/>
          <path class="cls-42" d="M80.38,179.51l51.86,30.14a2.73,2.73,0,0,0,1.29.31,2.67,2.67,0,0,0,1.29-.31h0v1.54a2.86,2.86,0,0,1-2.58,0L80.38,181.05a.94.94,0,0,1-.54-.75v-1.54A.92.92,0,0,0,80.38,179.51Z"/>
          <path class="cls-43" d="M80.38,178a.79.79,0,0,0,0,1.5l51.86,30.14a2.86,2.86,0,0,0,2.58,0l42.51-24.2-54.93-31.7Z"/>
          <g class="cls-8">
            <polygon class="cls-9" points="133.75 193.09 133.75 208.99 175.42 184.61 175.42 168.71 133.75 193.09"/>
            <polygon class="cls-44" points="82.64 164.41 82.64 179.42 133.75 208.99 133.75 193.09 82.64 164.41"/>
            <polygon class="cls-11" points="134.17 192.68 174.22 169.07 133.01 145.53 91.76 169.21 134.17 192.68"/>
          </g>
          <path class="cls-45" d="M178.38,169.89c-1.46-.58-4.13.76-4.16.79l-39.4,22.75,0,1.35,40.45-23.52c1.46-.86,3.43.51,3.43,2.66v7.77a4.9,4.9,0,0,1-2.55,4.16l-41.31,23.8v1.54l42.23-24.48c1.3-.65,3.26-2,3.26-5.62v-7.72S180.32,170.66,178.38,169.89Z"/>
          <path class="cls-42" d="M80.38,163.29l51.86,30.14h0v0a2.8,2.8,0,0,0,2.58,0l0,1.37a3.11,3.11,0,0,1-2.58,0h0L80.38,164.4a.94.94,0,0,1-.54-.75v-1.11A.92.92,0,0,0,80.38,163.29Z"/>
          <path class="cls-43" d="M125.13,137.26a2.31,2.31,0,0,0-2.19-.06l-.55.33h0l-42,24.26a.79.79,0,0,0,0,1.5l51.87,30.14a2.86,2.86,0,0,0,2.58,0L173.9,171a8.83,8.83,0,0,1,3.32-1.2,6.19,6.19,0,0,1,2.06.62Z"/>
        </g>
        <g id="book7" class="graduationItems">
          <g class="cls-8">
            <path class="cls-46" d="M114.8,137.58a.45.45,0,0,0-.43,0l-1.4.81,51,32.62,1.41-.81a.43.43,0,0,1,.42,0Z"/>
            <g class="cls-8">
              <g class="cls-47">
                <g class="cls-8">
                  <path class="cls-16" d="M158.08,174.44l-55.9-29.85h0l55.9,29.86Z"/>
                </g>
              </g>
            </g>
            <g class="cls-8">
              <g class="cls-48">
                <g class="cls-8">
                  <path class="cls-16" d="M158.27,162.28l-51-26.77a1.9,1.9,0,0,1,1.91-.19l51,26.77a1.92,1.92,0,0,0-1.92.19Z"/>
                </g>
              </g>
            </g>
            <path class="cls-18" d="M158.29,174.33h0l-.2.11h0Z"/>
            <polygon class="cls-18" points="158.28 174.33 158.08 174.44 158.07 174.44 158.28 174.33"/>
            <polygon class="cls-19" points="158.27 162.28 107.29 135.51 115.56 130.88 163.96 159 158.27 162.28"/>
            <path class="cls-20" d="M163.13,158.09l-2.19,1.26-.26.15a3.28,3.28,0,0,1,.31-.2l1.83-1.06Z"/>
            <path class="cls-21" d="M162.88,168.58c-.17-1.63-.06-7.91,1.08-9.58l-5.69,3.28c-.05,0-31.07,17.84-31.13,17.86-5.25,1.27-2.55,8.76-2.55,10.42s1.11,2.32,2.5,1.64c.08,0,31.12-17.83,31.2-17.87l5.66-3.28A3.14,3.14,0,0,1,162.88,168.58Z"/>
            <g class="cls-8">
              <g class="cls-49">
                <g class="cls-8">
                  <polygon class="cls-16" points="158.11 162.38 107.13 135.6 107.13 135.59 158.12 162.37 158.11 162.38 158.11 162.38"/>
                </g>
              </g>
            </g>
            <path class="cls-18" d="M158.11,162.38h0l.15-.09Z"/>
            <polygon class="cls-19" points="158.12 162.37 107.13 135.59 107.29 135.51 158.27 162.28 158.12 162.37"/>
            <path class="cls-50" d="M118.79,129.46a3.94,3.94,0,0,0-3.49.22l-31.66,18-4.09,2.36,48.39,28.12,4.09-2.36,29.05-16.47-.07,0,2.12-1.22,2.2-1.28a.42.42,0,0,1,.43,0Z"/>
            <g class="cls-8">
              <path class="cls-51" d="M125,193.34,78.07,166a5.08,5.08,0,0,1-2.6-4.67c0-4.25,0-3.38,0-5.74,0-3.86,2.85-4.84,4.08-5.55l48.76,27.83c-1,.55-3.73,2.18-4.43,5s0,6.58,0,7.94a2.7,2.7,0,0,0,1.12,2.48Z"/>
            </g>
            <path class="cls-46" d="M165.33,156.81c.33-.18.61,0,.61.35a1.33,1.33,0,0,1-.6,1L164,159l-36.13,20.79-.16.09a4.77,4.77,0,0,0-2.83,4.43c0,2.47,0,4.92.06,6.07,0,1.62,1.12,2.46,3.38,1.12L164,171.05l1.41-.81c.33-.19.6,0,.6.35a1.33,1.33,0,0,1-.6,1l-5.08,2.93-28.23,16.08L128,193a1.75,1.75,0,0,1-.4.17c-2.06,1.07-3.83.18-4-2.21-.11-2-.11-4.77-.11-7.08,0-3.68,3.85-5.39,5.08-6.1l-1.23.76Z"/>
          </g>
        </g>
        <g id="book6" class="graduationItems">
          <polygon class="cls-4" points="121.28 106.33 121.28 118.17 177.92 150.91 179.01 144.59 177.92 139.07 121.28 106.33"/>
          <path class="cls-52" d="M121.28,106.24l56.62,32.94,1.75-.49a2.3,2.3,0,0,1,.72.05L124.13,106a2.46,2.46,0,0,0-2.28-.07Z"/>
          <path class="cls-53" d="M77.7,142.31l53.8,31.27a2.79,2.79,0,0,0,1.34.32,2.77,2.77,0,0,0,1.34-.32h0v2.57a3,3,0,0,1-2.68,0l-53.8-31.26a1,1,0,0,1-.56-.77v-2.58A.93.93,0,0,0,77.7,142.31Z"/>
          <path class="cls-54" d="M77.71,140.76a.82.82,0,0,0,0,1.55l53.8,31.27a3,3,0,0,0,2.68,0l43.59-25.17-56.48-32.82Z"/>
          <g class="cls-8">
            <polygon class="cls-9" points="133.07 163.88 133.07 172.9 176.3 147.6 176.3 138.59 133.07 163.88"/>
            <polygon class="cls-10" points="80.05 134.13 80.05 142.22 133.07 172.9 133.07 163.88 80.05 134.13"/>
            <polygon class="cls-11" points="133.51 163.45 175.05 138.97 132.3 114.54 89.51 139.1 133.51 163.45"/>
          </g>
          <path class="cls-53" d="M180.36,138.73c-1.09-.67-2.64.35-2.68.37l-43.5,25.13v2.57l42-24.36c.27-.15,2.36-1.3,2.36.93v3.12a3.42,3.42,0,0,1-1.48,2.4l-42.85,24.69v2.57l43.4-25.07a6.77,6.77,0,0,0,3.79-6.24v-3.75A2.57,2.57,0,0,0,180.36,138.73Z"/>
          <path class="cls-53" d="M77.7,133l53.8,31.27h0a3,3,0,0,0,2.68,0v2.57a2.68,2.68,0,0,1-1.34.32,2.75,2.75,0,0,1-1.33-.31h0l-53.8-31.26a.94.94,0,0,1-.56-.77v-2.58A.93.93,0,0,0,77.7,133Z"/>
          <path class="cls-52" d="M77.7,131.41a.82.82,0,0,0,0,1.55l53.81,31.27a3,3,0,0,0,2.68,0L178,138.9l-56.75-32.66Z"/>
          <g>
            <polygon class="cls-55" points="143.69 163.62 139.63 166.13 147.41 170.6 145.99 167.32 150.49 167.89 143.69 163.62"/>
            <g>
              <polygon class="cls-56" points="139.63 166.13 139.63 166.77 147.41 171.23 147.41 170.6 139.63 166.13"/>
              <polygon class="cls-56" points="150.49 168.53 150.49 167.89 145.99 167.32 146.28 167.99 150.49 168.53"/>
            </g>
          </g>
        </g>
        <g id="book5" class="graduationItems">
          <g class="cls-8">
            <g class="cls-57">
              <path class="cls-58" d="M159.69,133.37l-56.16-32.63a.47.47,0,0,1,.5,0l56.15,32.63a.49.49,0,0,0-.49.05Z"/>
            </g>
          </g>
          <polygon class="cls-58" points="158.05 134.31 101.9 101.68 103.53 100.74 159.69 133.37 158.05 134.31"/>
          <g class="cls-8">
            <g class="cls-59">
              <g class="cls-8">
                <path class="cls-16" d="M151.24,138.24,95.09,105.61h0l56.15,32.62a0,0,0,0,0,0,0Z"/>
              </g>
            </g>
          </g>
          <g class="cls-8">
            <g class="cls-60">
              <g class="cls-8">
                <path class="cls-16" d="M151.46,130.91,95.31,98.28a2.17,2.17,0,0,1,2.22-.21l56.16,32.63a2.22,2.22,0,0,0-2.23.21Z"/>
              </g>
            </g>
          </g>
          <path class="cls-18" d="M151.48,138.1h0l-.23.13h0A1.49,1.49,0,0,0,151.48,138.1Z"/>
          <polygon class="cls-18" points="151.47 138.11 151.24 138.24 151.24 138.24 151.47 138.11"/>
          <polygon class="cls-19" points="151.46 130.91 95.31 98.28 101.91 94.47 158.06 127.11 151.46 130.91"/>
          <path class="cls-20" d="M157.1,126.05l-2.54,1.47-.3.17a3.5,3.5,0,0,1,.35-.23l2.14-1.23A2.34,2.34,0,0,1,157.1,126.05Z"/>
          <g class="cls-8">
            <g class="cls-61">
              <path class="cls-16" d="M155.66,126.81,99.89,94.19c.11-.08-1.55.7-1.43.64l56.15,32.63a3.5,3.5,0,0,0-.35.23Z"/>
            </g>
          </g>
          <path class="cls-21" d="M156.81,131.44a9.13,9.13,0,0,1,1.25-4.33l-6.6,3.8-27.42,16a6.93,6.93,0,0,0-2.94,5.3c0,1.89,1.28,2.7,2.9,1.91l27.48-16,6.57-3.79A3.28,3.28,0,0,1,156.81,131.44Z"/>
          <g class="cls-8">
            <g class="cls-62">
              <g class="cls-8">
                <polygon class="cls-16" points="151.28 131.03 95.12 98.39 95.13 98.39 151.28 131.02 151.28 131.03 151.28 131.03"/>
              </g>
            </g>
          </g>
          <path class="cls-18" d="M151.28,131h0l.18-.11Z"/>
          <polygon class="cls-19" points="151.28 131.02 95.13 98.39 95.31 98.28 151.46 130.91 151.28 131.02"/>
          <path class="cls-63" d="M104.76,92.31a1.88,1.88,0,0,0-2.08.1L73.57,109.22,68.83,112l-.25.15,56.16,32.64.24-.16,4.74-2.74,29.94-17.28a.48.48,0,0,1,.5,0Z"/>
          <g class="cls-8">
            <g class="cls-64">
              <g class="cls-8">
                <path class="cls-65" d="M121.55,155.39,65.4,122.76a3.13,3.13,0,0,1-1.3-2.87,9.9,9.9,0,0,1,4.48-7.78l56.16,32.64a9.89,9.89,0,0,0-4.49,7.77,3.11,3.11,0,0,0,1.3,2.87Z"/>
              </g>
            </g>
          </g>
          <g class="cls-8">
            <g class="cls-64">
              <g class="cls-8">
                <path class="cls-66" d="M121.55,155.39,65.4,122.76a3.13,3.13,0,0,1-1.3-2.87,9.9,9.9,0,0,1,4.48-7.78l56.16,32.64a9.89,9.89,0,0,0-4.49,7.77,3.11,3.11,0,0,0,1.3,2.87Z"/>
              </g>
            </g>
          </g>
          <path class="cls-67" d="M159.66,124.57c.38-.22.7,0,.7.4a1.54,1.54,0,0,1-.7,1.21l-1.6.93-33.21,19.35-.18.11a6.93,6.93,0,0,0-3,5.3c0,1.89,1.28,2.7,2.9,1.91l33.43-19.47,1.64-.94c.38-.22.7,0,.7.4a1.53,1.53,0,0,1-.7,1.2l-5.89,3.41-24.05,13.88L125,155a1.8,1.8,0,0,1-.46.19c-2.39,1.25-4.29.11-4.3-2.67a9.89,9.89,0,0,1,4.49-7.77l.24-.16Z"/>
          <path class="cls-68" d="M69.89,120.5c-.55,2.28-.58,4.48.33,5.11L72.78,127c-.51-1-.38-3.51,0-5.25a7.13,7.13,0,0,1,3.7-5.07l-2.62-1.51C72.94,115.59,70.86,116.48,69.89,120.5Z"/>
          <path class="cls-68" d="M75.45,123.07c-.51,2.42-.62,4.26,0,5.55l4.21,2.45c-1-.69-.83-3.14-.14-6.3s2.57-4.45,3.19-4.48l-3.52-2.07A6.76,6.76,0,0,0,75.45,123.07Z"/>
          <polygon class="cls-69" points="114.14 144.11 95.21 133.02 95.21 135.5 114.14 146.67 114.14 144.11"/>
        </g>
        <g id="book4" class="graduationItems">
          <g class="cls-8">
            <g class="cls-8">
              <g class="cls-70">
                <g class="cls-8">
                  <path class="cls-32" d="M173.47,122.27,116.83,82.52a.51.51,0,0,1,.5,0L174,122.23a.48.48,0,0,0-.5,0Z"/>
                </g>
              </g>
            </g>
            <polygon class="cls-32" points="171.82 123.22 115.19 83.47 116.83 82.52 173.47 122.27 171.82 123.22"/>
            <g class="cls-8">
              <g class="cls-71">
                <g class="cls-8">
                  <path class="cls-16" d="M165,127.19,108.32,87.44h0l56.63,39.75Z"/>
                </g>
              </g>
            </g>
            <g class="cls-8">
              <g class="cls-72">
                <g class="cls-8">
                  <path class="cls-16" d="M165.17,113,108.54,80a2.21,2.21,0,0,1,2.24-.21l56.64,32.91a2.23,2.23,0,0,0-2.25.22Z"/>
                </g>
              </g>
            </g>
            <path class="cls-18" d="M165.19,127.05h0l-.24.13h0Z"/>
            <polygon class="cls-18" points="165.18 127.06 164.95 127.19 164.94 127.19 165.18 127.06"/>
            <polygon class="cls-19" points="165.17 112.95 108.54 80.04 115.19 76.2 171.83 109.11 165.17 112.95"/>
            <path class="cls-20" d="M170.86,108.05l-2.56,1.48-.3.17.35-.23,2.15-1.25A2.84,2.84,0,0,1,170.86,108.05Z"/>
            <path class="cls-73" d="M170.57,120.33c-.2-1.91-.07-9.26,1.26-11.22L165.17,113c-.06,0-27.58,16.06-27.65,16.08-6.13,1.49-3,10.25-3,12.19s1.29,2.72,2.92,1.92c.09,0,27.64-16.05,27.72-16.1l6.63-3.83C171.05,122.73,170.71,121.72,170.57,120.33Z"/>
            <g class="cls-8">
              <g class="cls-74">
                <g class="cls-8">
                  <path class="cls-16" d="M165,113.07,108.35,80.16h0L165,113.06Z"/>
                </g>
              </g>
            </g>
            <path class="cls-18" d="M165,113.07h0l.18-.1Z"/>
            <polygon class="cls-19" points="164.99 113.06 108.36 80.15 108.54 80.04 165.17 112.95 164.99 113.06"/>
            <path class="cls-32" d="M119,74.54a4.63,4.63,0,0,0-4.08.26L86.61,91.08l-4.78,2.76,56.63,32.91,4.79-2.76,25.21-14.46-.08,0,2.48-1.43,2.58-1.49a.49.49,0,0,1,.5,0Z"/>
            <g class="cls-8">
              <path class="cls-75" d="M135,144.48l-54.91-32a5.94,5.94,0,0,1-3-5.46c0-5,0-4,0-6.72,0-4.52,3.33-5.67,4.77-6.5L138.4,126.6a9.38,9.38,0,0,0-4.69,5.69c-.85,3.45,0,7.7,0,9.3a3.13,3.13,0,0,0,1.31,2.89Z"/>
            </g>
            <path class="cls-76" d="M173.44,106.56c.39-.22.71,0,.71.4a1.57,1.57,0,0,1-.71,1.22l-1.61.93-33.5,19.52-.18.11a5.57,5.57,0,0,0-3.31,5.18c0,2.89.06,5.75.06,7.1,0,1.9,1.32,2.88,4,1.32l33-19.12,1.65-1c.38-.22.7,0,.7.41a1.57,1.57,0,0,1-.7,1.22l-5.94,3.42-24.25,14-4.79,2.76a1.5,1.5,0,0,1-.46.19c-2.41,1.26-4.48.22-4.63-2.57-.13-2.32-.13-5.59-.13-8.29,0-4.31,4.5-6.3,5.94-7.14l-1.44.88Z"/>
          </g>
          <path class="cls-40" d="M83.38,110.76c0-5,0-4,0-6.72,0-4.52,3.33-5.67,4.77-6.5l-3.68-2.17c-1.44.83-4.77,2-4.77,6.49,0,2.77,0,1.74,0,6.72a5.89,5.89,0,0,0,3,5.46L86.06,116A6,6,0,0,1,83.38,110.76Z"/>
          <path class="cls-40" d="M126.41,135.71c0-5,0-4,0-6.72,0-4.51,3.33-5.66,4.77-6.49l-3.68-2.18c-1.44.83-4.77,2-4.77,6.5,0,2.76,0,1.74,0,6.71a6,6,0,0,0,3,5.47l3.32,1.93A6,6,0,0,1,126.41,135.71Z"/>
          <path class="cls-40" d="M90.64,118.1a6,6,0,0,1-2.87-5.35c0-5,0-4,0-6.72,0-4.1,2.73-5.42,4.32-6.25l-1.55-.92c-1.45.83-4.77,2-4.77,6.5,0,2.76,0,1.74,0,6.72a5.9,5.9,0,0,0,3,5.46l3.33,1.94A6.06,6.06,0,0,1,90.64,118.1Z"/>
        </g>
        <g id="book3" class="graduationItems">
          <polygon class="cls-4" points="141.62 50.33 141.62 61.42 88.6 98.14 86.31 95.3 86.31 84.22 88.6 80.97 141.62 50.33"/>
          <path class="cls-77" d="M182.4,91l-50.35,29.27a2.61,2.61,0,0,1-1.26.3,2.54,2.54,0,0,1-1.25-.3h0v1.49a2.78,2.78,0,0,0,2.51,0L182.4,92.51a.89.89,0,0,0,.52-.73V90.29A.87.87,0,0,1,182.4,91Z"/>
          <path class="cls-54" d="M182.4,89.56a.76.76,0,0,1,0,1.45l-50.35,29.27a2.78,2.78,0,0,1-2.51,0L88.26,96.78,141.6,66Z"/>
          <g class="cls-8">
            <polygon class="cls-9" points="130.58 104.2 130.58 119.64 90.12 95.97 90.12 80.53 130.58 104.2"/>
            <polygon class="cls-10" points="180.2 76.35 180.2 90.93 130.58 119.64 130.58 104.2 180.2 76.35"/>
            <polygon class="cls-11" points="130.17 103.8 91.29 80.88 131.3 58.02 171.35 81.01 130.17 103.8"/>
          </g>
          <path class="cls-53" d="M87.25,81.67c1.41-.56,4,.75,4,.77l38.25,22.09,0,1.31L90.29,83c-1.42-.84-3.33.49-3.33,2.58v7.54a4.76,4.76,0,0,0,2.47,4l40.11,23.11v1.49L88.54,98a5.52,5.52,0,0,1-3.17-5.46v-7.5S85.37,82.42,87.25,81.67Z"/>
          <path class="cls-77" d="M182.4,75.26l-50.35,29.27h0v0a2.71,2.71,0,0,1-2.51,0l0,1.33a2.46,2.46,0,0,0,1.26.25,2.4,2.4,0,0,0,1.24-.29h0L182.4,76.34a.89.89,0,0,0,.52-.72V74.54A.87.87,0,0,1,182.4,75.26Z"/>
          <path class="cls-52" d="M139,50a2.24,2.24,0,0,1,2.13-.06l.53.32h0L182.4,73.81a.76.76,0,0,1,0,1.45l-50.36,29.27a2.78,2.78,0,0,1-2.51,0L91.59,82.73a8.65,8.65,0,0,0-3.22-1.17,6,6,0,0,0-2,.61Z"/>
          <path class="cls-78" d="M111,99.12l4.06,2.54s-3.8,1.82-4.72,3c-4.23,5.44-1.95,10,.55,19,2.67,9.55-6.55,11.67-6.55,11.67l2.11-3.34-2.11-1.44s6.77-4.11,3.55-10.78c-2.8-5.79-6.89-14-.35-18.49C108.36,100.71,111,99.12,111,99.12Z"/>
        </g>
        <g id="book2" class="graduationItems">
          <g class="cls-8">
            <path class="cls-14" d="M117.61,48.91a.41.41,0,0,0-.42,0l-1.39.8,50.5,32.32,1.4-.8a.41.41,0,0,1,.42,0Z"/>
            <g class="cls-8">
              <g class="cls-79">
                <g class="cls-8">
                  <path class="cls-16" d="M160.49,85.43,105.11,55.85h0l55.38,29.57Z"/>
                </g>
              </g>
            </g>
            <g class="cls-8">
              <g class="cls-80">
                <g class="cls-8">
                  <path class="cls-16" d="M160.68,73.38,110.17,46.85a1.91,1.91,0,0,1,1.9-.18l50.51,26.52a1.89,1.89,0,0,0-1.9.19Z"/>
                </g>
              </g>
            </g>
            <path class="cls-18" d="M160.7,85.31h0l-.2.1h0Z"/>
            <path class="cls-18" d="M160.68,85.32l-.19.11h0Z"/>
            <polygon class="cls-19" points="160.68 73.38 110.17 46.85 118.37 42.27 166.31 70.13 160.68 73.38"/>
            <path class="cls-20" d="M165.49,69.22l-2.17,1.26-.25.14.3-.19,1.82-1.06A2.1,2.1,0,0,1,165.49,69.22Z"/>
            <path class="cls-21" d="M165.25,79.62c-.17-1.62-.07-7.84,1.06-9.49l-5.63,3.25c-.06,0-30.79,17.67-30.85,17.69-5.19,1.26-2.52,8.68-2.51,10.32s1.1,2.3,2.47,1.63c.07,0,30.83-17.67,30.91-17.71l5.6-3.24A3.11,3.11,0,0,1,165.25,79.62Z"/>
            <g class="cls-8">
              <g class="cls-81">
                <g class="cls-8">
                  <polygon class="cls-16" points="160.52 73.47 110.01 46.95 110.02 46.94 160.53 73.47 160.52 73.47 160.52 73.47"/>
                </g>
              </g>
            </g>
            <path class="cls-18" d="M160.52,73.47h0l.16-.09Z"/>
            <polygon class="cls-19" points="160.53 73.47 110.02 46.94 110.17 46.85 160.68 73.38 160.53 73.47"/>
            <path class="cls-82" d="M121.57,40.86a3.9,3.9,0,0,0-3.46.22L86.74,58.93l-4,2.34,47.94,27.86,4.05-2.33,28.78-16.33-.07,0,2.1-1.22L167.68,68a.43.43,0,0,1,.42,0Z"/>
            <g class="cls-8">
              <path class="cls-83" d="M127.71,104.15,81.23,77.08a5,5,0,0,1-2.57-4.62c0-4.22,0-3.35,0-5.69,0-3.82,2.81-4.79,4-5.5L131,88.84c-.94.55-3.7,2.16-4.39,5s0,6.52,0,7.87a2.67,2.67,0,0,0,1.11,2.46Z"/>
            </g>
            <path class="cls-84" d="M167.68,68a.37.37,0,0,1,.6.34,1.33,1.33,0,0,1-.6,1l-1.37.79-35.79,20.6-.15.09a4.7,4.7,0,0,0-2.81,4.38c0,2.45,0,4.87.06,6,0,1.61,1.11,2.44,3.35,1.12L166.3,82.07l1.4-.8c.32-.19.6,0,.6.34a1.33,1.33,0,0,1-.6,1l-5,2.9-28,15.93-4.05,2.34a1.19,1.19,0,0,1-.39.16c-2,1.07-3.8.19-3.93-2.18-.11-2-.11-4.73-.11-7,0-3.65,3.81-5.34,5-6l-1.23.74Z"/>
          </g>
        </g>
        <g id="book1" class="graduationItems">
          <polygon class="cls-26" points="129.45 30.49 129.45 40.69 178.42 68.13 179.19 63.45 178.24 58.69 129.45 30.49"/>
          <path class="cls-27" d="M129.45,30.42l48.77,28.36,1.51-.41a1.78,1.78,0,0,1,.62,0L131.91,30.17a2.09,2.09,0,0,0-2-.05Z"/>
          <path class="cls-28" d="M91.92,61.48l46.34,26.94a2.61,2.61,0,0,0,2.31,0h0l.19,1.45a2.54,2.54,0,0,1-2.31,0L92.1,62.94a.82.82,0,0,1-.48-.66l-.18-1.46A.8.8,0,0,0,91.92,61.48Z"/>
          <path class="cls-26" d="M91.92,60.14a.71.71,0,0,0,0,1.34l46.34,26.94a2.54,2.54,0,0,0,2.31,0l37.55-21.68L129.47,38.47Z"/>
          <g class="cls-8">
            <polygon class="cls-85" points="139.61 80.06 139.61 87.83 176.85 66.04 176.85 58.28 139.61 80.06"/>
            <polygon class="cls-86" points="93.94 54.43 93.94 61.41 139.61 87.83 139.61 80.06 93.94 54.43"/>
            <polygon class="cls-11" points="139.99 79.69 175.77 58.6 138.95 37.56 102.09 58.72 139.99 79.69"/>
          </g>
          <path class="cls-29" d="M180.35,58.4c-.95-.58-2.28.3-2.31.32L140.57,80.36v1.46l36.15-21c.23-.13,2-1.12,2,.8v3.45a2.94,2.94,0,0,1-1.27,2.07L140.57,88.42l.18,1.45,37.38-21.6a4.52,4.52,0,0,0,3.09-4.61V60.43A2.21,2.21,0,0,0,180.35,58.4Z"/>
          <path class="cls-87" d="M91.92,53.43l46.34,26.93h0a2.54,2.54,0,0,0,2.31,0v1.46a2.25,2.25,0,0,1-1.15.27,2.21,2.21,0,0,1-1.14-.27h0L91.92,54.89a.85.85,0,0,1-.48-.67V52.77A.8.8,0,0,0,91.92,53.43Z"/>
          <path class="cls-88" d="M91.92,52.09a.71.71,0,0,0,0,1.34l46.35,26.93a2.54,2.54,0,0,0,2.31,0l37.78-21.82L129.46,30.42Z"/>
        </g>
        <g id="graduationHat" class="graduationItems">
          <g>
            <path class="cls-89" d="M116.39,43.35c-10,6-9.65,15.58.76,21.39s26.94,5.63,36.93-.38,9.64-15.58-.77-21.39S126.37,37.34,116.39,43.35Z"/>
            <g class="cls-8">
              <g class="cls-90">
                <path class="cls-89" d="M109.11,53.78l.07-22.33c0-3.76,2.42-7.51,7.27-10.43l-.06,22.33c-4.85,2.91-7.26,6.67-7.28,10.43Z"/>
              </g>
            </g>
            <g class="cls-8">
              <g class="cls-91">
                <path class="cls-89" d="M116.39,43.35,116.45,21c10-6,26.52-6.17,36.93-.37,5.35,3,8,7,8,11l-.06,22.32c0-4-2.68-8-8-11-10.4-5.8-26.94-5.63-36.92.38Z"/>
              </g>
            </g>
            <path class="cls-89" d="M116.45,21c-10,6-9.64,15.59.76,21.39s27,5.64,36.93-.37,9.64-15.59-.76-21.39S126.43,15,116.45,21Z"/>
            <path class="cls-92" d="M115.76,63.89q-.57-.36-1.08-.75V40.77h0c.35.26.71.52,1.1.76l.2.14c.4.25.81.5,1.23.74.61.34,1.24.65,1.88.94l.71.31q.61.27,1.26.51c.3.12.62.23.93.34l1.1.36,1.09.32,1,.24c.43.11.85.21,1.28.3l.68.13a45.08,45.08,0,0,0,5.73.72V68.9a42.57,42.57,0,0,1-5.68-.69l-.79-.15-1.24-.29-1-.26c-.36-.09-.72-.2-1.07-.31l-1.13-.37-.91-.32L119.73,66l-.7-.31c-.64-.29-1.27-.61-1.88-.94-.42-.24-.83-.48-1.21-.73Z"/>
            <path class="cls-92" d="M124.47,67.6a32.81,32.81,0,0,1-3.82-1.24V44a34.85,34.85,0,0,0,3.82,1.25Z"/>
            <g>
              <g class="cls-8">
                <g class="cls-93">
                  <g class="cls-8">
                    <path class="cls-94" d="M84.76,29.2V30a1.25,1.25,0,0,0,.73,1v-.82a1.26,1.26,0,0,1-.73-1Z"/>
                  </g>
                </g>
              </g>
              <g class="cls-8">
                <g class="cls-95">
                  <g class="cls-8">
                    <path class="cls-94" d="M184.84,30.22v.83a1.27,1.27,0,0,0,.74-1v-.83a1.26,1.26,0,0,1-.74,1Z"/>
                  </g>
                </g>
              </g>
              <polygon class="cls-96" points="85.49 30.23 85.49 31.05 133.24 58.8 133.24 57.97 85.49 30.23"/>
              <polygon class="cls-97" points="136.77 57.97 136.78 58.8 184.84 31.05 184.84 30.22 136.77 57.97"/>
              <g class="cls-8">
                <g class="cls-98">
                  <g class="cls-8">
                    <path class="cls-94" d="M133.24,58v.83a3.92,3.92,0,0,0,3.53,0V58a3.86,3.86,0,0,1-3.53,0Z"/>
                  </g>
                </g>
              </g>
              <path class="cls-99" d="M85.49,28.17a1.09,1.09,0,0,0,0,2.06L133.24,58a3.86,3.86,0,0,0,3.53,0l48.07-27.75a1.08,1.08,0,0,0,0-2L137.1.43a3.91,3.91,0,0,0-3.54,0Z"/>
            </g>
          </g>
          <path class="cls-100" d="M106.29,63.49l6.19,11.05a6.14,6.14,0,1,1-12.27,0Z"/>
          <path class="cls-89" d="M128.32,26.51c0,2.44,3.07,4.41,6.85,4.41S142,29,142,26.51s-3.07-4.42-6.85-4.42S128.32,24.07,128.32,26.51Z"/>
          <path class="cls-100" d="M105.66,70.09h1.22V45.32c.09-2.37,2.68-3.65,2.71-3.66.22-.12,18.58-10.53,20.14-11.39,1-.55,1.39-.2,1.43-.18a13.19,13.19,0,0,0,1.48.52c0-1.9-1.81-2.26-3.46-1.44s-19.4,11-20.16,11.41c-.1,0-3.24,1.6-3.36,4.71Z"/>
          <path class="cls-100" d="M103,64a3.4,3.4,0,1,0,3.39-3.4A3.39,3.39,0,0,0,103,64Z"/>
        </g>
        <g id="ladder">
          <g class="cls-8">
            <polygon class="cls-101" points="215.13 299.82 211.7 298.6 207.4 275.81 210.83 277.04 215.13 299.82"/>
            <polygon class="cls-101" points="210.23 273.91 206.8 272.69 202.27 248.71 205.7 249.94 210.23 273.91"/>
            <polygon class="cls-102" points="191.35 285.58 187.91 284.36 206.8 272.69 210.23 273.91 191.35 285.58"/>
            <polygon class="cls-101" points="205.11 246.81 201.68 245.58 197.15 221.61 200.58 222.83 205.11 246.81"/>
            <polygon class="cls-102" points="186.22 258.48 182.79 257.25 201.68 245.58 205.11 246.81 186.22 258.48"/>
            <polygon class="cls-101" points="199.99 219.69 196.56 218.47 192.03 194.49 195.46 195.72 199.99 219.69"/>
            <polygon class="cls-102" points="181.1 231.37 177.67 230.14 196.56 218.47 199.99 219.69 181.1 231.37"/>
            <polygon class="cls-101" points="194.86 192.59 191.43 191.36 186.9 167.39 190.33 168.61 194.86 192.59"/>
            <polygon class="cls-102" points="175.98 204.26 172.55 203.04 191.43 191.36 194.86 192.59 175.98 204.26"/>
            <polygon class="cls-101" points="189.74 165.48 186.31 164.26 181.78 140.28 185.21 141.5 189.74 165.48"/>
            <polygon class="cls-102" points="170.85 177.16 167.42 175.93 186.31 164.26 189.74 165.48 170.85 177.16"/>
            <polygon class="cls-101" points="184.62 138.37 181.18 137.14 176.66 113.17 180.09 114.39 184.62 138.37"/>
            <polygon class="cls-102" points="165.73 150.04 162.3 148.82 181.18 137.14 184.62 138.37 165.73 150.04"/>
            <polygon class="cls-101" points="179.49 111.26 176.06 110.04 171.53 86.07 174.96 87.29 179.49 111.26"/>
            <polygon class="cls-102" points="160.61 122.94 157.18 121.71 176.06 110.04 179.49 111.26 160.61 122.94"/>
            <polygon class="cls-102" points="170.4 63.17 166.97 61.94 170.27 59.12 173.7 60.34 170.4 63.17"/>
            <polygon class="cls-101" points="174.37 84.16 170.94 82.93 166.97 61.94 170.4 63.17 174.37 84.16"/>
            <polygon class="cls-102" points="155.48 95.83 152.05 94.61 170.94 82.93 174.37 84.16 155.48 95.83"/>
            <polygon class="cls-102" points="148.22 77.67 144.78 76.44 148.08 73.62 151.52 74.84 148.22 77.67"/>
            <path class="cls-103" d="M170.4,63.17l3.3-2.83L218.43,297l-3.3,2.82L210.83,277l-18.89,11.68,4.31,22.78-3.3,2.82L148.12,77.63l3.4-2.79,4,21,18.89-11.67Zm19.34,102.31-4.53-24-18.89,11.68,4.53,24,18.89-11.68Zm15.37,81.32-4.53-24-18.89,11.68,4.53,24,18.89-11.68Zm-10.25-54.21-4.53-24-18.88,11.68,4.53,24,18.88-11.67Zm-10.24-54.22-4.53-24L161.2,126.07l4.53,24,18.89-11.67Zm-5.13-27.11-4.53-24L156.07,99l4.54,24,18.88-11.68ZM200,219.69l-4.53-24-18.89,11.67,4.53,24L200,219.69Zm10.24,54.22-4.53-24-18.88,11.67,4.53,24,18.88-11.67Z"/>
            <polygon class="cls-101" points="192.94 314.32 189.51 313.1 144.78 76.44 148.22 77.67 192.94 314.32"/>
          </g>
        </g>
    </g>
  </g>
</svg>
